<svg xmlns="http://www.w3.org/2000/svg" width="88.6" height="88.598" viewBox="0 0 88.6 88.598"><path fill="#ffe07d" d="M80.25 68.38H70.233a7.575 7.575 0 0 0-5.241 7.206v10.342a1.37 1.37 0 0 0 1.372 1.372h17.754a1.37 1.37 0 0 0 1.372-1.372V75.586a7.575 7.575 0 0 0-5.241-7.206Z"/><path fill="#ffd064" d="M80.25 68.38h-3.356a7.575 7.575 0 0 1 5.241 7.206V87.3h1.984a1.37 1.37 0 0 0 1.372-1.372V75.586a7.575 7.575 0 0 0-5.241-7.206"/><path fill="#b3e59f" d="M18.367 68.38H8.35a7.575 7.575 0 0 0-5.241 7.206v10.342A1.37 1.37 0 0 0 4.481 87.3h17.756a1.37 1.37 0 0 0 1.372-1.372V75.586a7.575 7.575 0 0 0-5.242-7.206"/><path fill="#95d6a4" d="M18.367 68.38h-3.356a7.575 7.575 0 0 1 5.241 7.206V87.3h1.984a1.37 1.37 0 0 0 1.372-1.372V75.586a7.575 7.575 0 0 0-5.241-7.206"/><path fill="#e27d47" d="M51.812 67.077H36.788a2.74 2.74 0 0 1-2.738-2.738v-7.15a10.25 10.25 0 0 1 20.5 0v7.152a2.737 2.737 0 0 1-2.738 2.736"/><path fill="#dd6938" d="M44.3 46.938a10.3 10.3 0 0 0-1.76.154 10.25 10.25 0 0 1 8.49 10.1v7.152a2.74 2.74 0 0 1-2.738 2.738h3.521a2.74 2.74 0 0 0 2.738-2.738v-7.155A10.25 10.25 0 0 0 44.3 46.938"/><path fill="#365e7d" d="M16.139 46.938h-5.56c-3.967 0-7.2 3.781-7.23 8.473-.029 4.218-.492 8.452-2.05 11.015a38.2 38.2 0 0 0 24.121 0c-1.558-2.562-2.021-6.8-2.05-11.015-.033-4.692-3.264-8.473-7.231-8.473"/><path fill="#2b4d66" d="M19.868 56.542c.025 4.062.363 8.135 1.42 11.05a29 29 0 0 0 4.131-1.166c-1.558-2.562-2.021-6.8-2.05-11.015-.032-4.693-3.263-8.473-7.23-8.473h-3.5c3.968 0 7.2 4.285 7.23 9.6Z"/><path fill="#ffcbbe" d="M13.358 74.921a2.19 2.19 0 0 1-2.189-2.189v-4.244h4.378v4.245a2.19 2.19 0 0 1-2.189 2.188"/><path fill="#ffddce" d="M13.358 70.459a7.075 7.075 0 0 1-7.075-7.075v-5.867a.33.33 0 0 1 .355-.329c3.257.226 6.832-.161 8.679-1.448a.33.33 0 0 1 .4.02 5.5 5.5 0 0 0 4.355 1.44.33.33 0 0 1 .361.328v5.857a7.075 7.075 0 0 1-7.075 7.074"/><path fill="#ffcbbe" d="M20.073 57.197a5.5 5.5 0 0 1-2.814-.432v6.618a7.076 7.076 0 0 1-5.488 6.894 7.073 7.073 0 0 0 8.663-6.894v-5.856a.33.33 0 0 0-.361-.33"/><path fill="#bed8fb" d="M49.308 68.38H39.291a7.575 7.575 0 0 0-5.241 7.206v10.342a1.37 1.37 0 0 0 1.372 1.372h17.759a1.37 1.37 0 0 0 1.372-1.372V75.586a7.575 7.575 0 0 0-5.245-7.206"/><path fill="#9dc6fb" d="M49.304 68.38h-3.356a7.575 7.575 0 0 1 5.241 7.206V87.3h1.984a1.37 1.37 0 0 0 1.372-1.372V75.586a7.57 7.57 0 0 0-5.241-7.206"/><path fill="#ffcbbe" d="M44.3 74.921a2.19 2.19 0 0 1-2.189-2.189v-4.244h4.378v4.245a2.19 2.19 0 0 1-2.189 2.188"/><path fill="#ffddce" d="M44.3 70.459a7.075 7.075 0 0 1-7.075-7.075v-5.867a.33.33 0 0 1 .355-.329c3.257.226 6.832-.161 8.679-1.448a.33.33 0 0 1 .4.02 5.5 5.5 0 0 0 4.355 1.44.33.33 0 0 1 .361.328v5.857a7.075 7.075 0 0 1-7.075 7.074"/><path fill="#ffcbbe" d="M51.015 57.197a5.5 5.5 0 0 1-2.814-.432v6.618a7.076 7.076 0 0 1-5.488 6.894 7.073 7.073 0 0 0 8.663-6.894v-5.856a.33.33 0 0 0-.361-.33"/><path fill="#365e7d" d="M78.022 46.938h-5.56c-3.967 0-7.2 3.781-7.23 8.473-.029 4.218-.493 8.452-2.05 11.015a38.2 38.2 0 0 0 24.121 0c-1.558-2.562-2.021-6.8-2.05-11.015-.033-4.692-3.264-8.473-7.231-8.473"/><path fill="#2b4d66" d="M81.751 56.542c.025 4.062.363 8.135 1.42 11.05a29 29 0 0 0 4.131-1.166c-1.558-2.562-2.021-6.8-2.05-11.015-.032-4.693-3.263-8.473-7.23-8.473h-3.5c3.967 0 7.197 4.285 7.229 9.604"/><path fill="#ffcbbe" d="M75.242 74.921a2.19 2.19 0 0 1-2.189-2.189v-4.244h4.378v4.245a2.19 2.19 0 0 1-2.189 2.188"/><path fill="#ffddce" d="M75.242 70.459a7.075 7.075 0 0 1-7.075-7.075v-5.867a.33.33 0 0 1 .355-.329c3.257.226 6.832-.161 8.679-1.448a.33.33 0 0 1 .4.02 5.5 5.5 0 0 0 4.355 1.44.33.33 0 0 1 .361.328v5.857a7.075 7.075 0 0 1-7.075 7.074"/><path fill="#ffcbbe" d="M81.957 57.197a5.5 5.5 0 0 1-2.814-.432v6.618a7.076 7.076 0 0 1-5.488 6.894 7.073 7.073 0 0 0 8.663-6.894v-5.856a.33.33 0 0 0-.361-.33"/><path fill="#bed8fb" d="M83.898 1.298H4.705a3.407 3.407 0 0 0-3.407 3.407v27.357a3.407 3.407 0 0 0 3.407 3.407H7.91a1.29 1.29 0 0 1 1.053.544l3.343 4.716a1.29 1.29 0 0 0 2.106 0l3.343-4.716a1.29 1.29 0 0 1 1.053-.544h20.044a1.29 1.29 0 0 1 1.053.544l3.343 4.716a1.29 1.29 0 0 0 2.106 0l3.344-4.716a1.29 1.29 0 0 1 1.053-.544h20.047a1.29 1.29 0 0 1 1.053.544l3.343 4.716a1.29 1.29 0 0 0 2.106 0l3.343-4.716a1.29 1.29 0 0 1 1.053-.544h3.2a3.407 3.407 0 0 0 3.402-3.407V4.705a3.407 3.407 0 0 0-3.4-3.407"/><path fill="#9dc6fb" d="M83.896 1.298h-4.759a3.407 3.407 0 0 1 3.407 3.407v28.914a3.4 3.4 0 0 1-.548 1.849h1.9a3.407 3.407 0 0 0 3.407-3.407V4.705a3.407 3.407 0 0 0-3.407-3.407"/><g transform="translate(59.704 7.797)"><path fill="#b3e59f" d="M10.532 6.914a3.612 3.612 0 0 1 3.274 5.151l5.108 4.843A10.53 10.53 0 0 0 10.532.001q-.277 0-.551.014Z"/><path fill="#95d6a4" d="M10.532 0q-.277 0-.551.014l.024.3a12.49 12.49 0 0 1 5.79 13.639l3.12 2.958A10.53 10.53 0 0 0 10.533.004Z"/><path fill="#dd636e" d="M6.914 10.533a3.62 3.62 0 0 1 3.618-3.618l-.551-6.9a10.533 10.533 0 0 0-5.75 18.958l3.822-5.809a3.6 3.6 0 0 1-1.139-2.631"/><path fill="#ffe07d" d="M13.806 12.065a3.61 3.61 0 0 1-5.753 1.1l-3.822 5.809a10.53 10.53 0 0 0 14.683-2.065Z"/><path fill="#ffd064" d="M15.795 13.95a12.5 12.5 0 0 1-4.646 7.1 10.52 10.52 0 0 0 7.765-4.139Z"/></g><path fill="#ffe07d" d="M14.437 24.156H9.179a.646.646 0 0 1-.646-.645v-7.249a.646.646 0 0 1 .646-.646h5.258a.646.646 0 0 1 .646.646v7.249a.646.646 0 0 1-.646.645"/><path fill="#ffd064" d="M14.439 15.616H11.71a.646.646 0 0 1 .646.646v7.249a.646.646 0 0 1-.646.646h2.729a.646.646 0 0 0 .646-.646v-7.249a.646.646 0 0 0-.646-.646"/><path fill="#b3e59f" d="M25.944 24.156h-5.258a.646.646 0 0 1-.646-.645v-8.98a.646.646 0 0 1 .646-.646h5.258a.646.646 0 0 1 .646.646v8.979a.646.646 0 0 1-.646.646"/><path fill="#95d6a4" d="M25.944 13.885h-2.51a.646.646 0 0 1 .645.646v8.979a.646.646 0 0 1-.645.646h2.51a.646.646 0 0 0 .645-.646v-8.979a.646.646 0 0 0-.645-.646"/><path fill="#dd636e" d="M37.452 24.156h-5.258a.646.646 0 0 1-.646-.645V11.07a.646.646 0 0 1 .646-.646h5.258a.646.646 0 0 1 .645.646v12.44a.645.645 0 0 1-.645.646"/><path fill="#da4a54" d="M37.452 10.424h-2.663a.645.645 0 0 1 .645.645v12.44a.646.646 0 0 1-.645.646h2.663a.645.645 0 0 0 .645-.646v-12.44a.645.645 0 0 0-.645-.645"/><path d="M24.667 55.402c-.037-5.383-3.863-9.762-8.528-9.762h-5.56c-4.665 0-8.491 4.379-8.528 9.762-.034 4.891-.66 8.373-1.861 10.349a1.3 1.3 0 0 0 .66 1.892 30 30 0 0 0 4.095 1.171 8.85 8.85 0 0 0-3.133 6.771v10.343a2.673 2.673 0 0 0 2.67 2.67h4.093a1.3 1.3 0 0 0 0-2.6H4.481a.074.074 0 0 1-.074-.074V75.586a6.26 6.26 0 0 1 3.672-5.71 8.4 8.4 0 0 0 1.793 1.116v1.739a3.487 3.487 0 1 0 6.974 0v-1.739a8.4 8.4 0 0 0 1.793-1.117 6.26 6.26 0 0 1 3.672 5.71v10.343a.074.074 0 0 1-.074.074h-8.473a1.3 1.3 0 1 0 0 2.6h8.473a2.673 2.673 0 0 0 2.67-2.67V75.586a8.85 8.85 0 0 0-3.133-6.771 30 30 0 0 0 4.095-1.171 1.3 1.3 0 0 0 .66-1.892c-1.2-1.976-1.828-5.458-1.861-10.349Zm-5.531 7.981a5.778 5.778 0 1 1-11.555 0V58.53c1.957.054 5.461-.06 7.85-1.342a6.63 6.63 0 0 0 3.705 1.325zm-4.886 9.349a.892.892 0 1 1-1.783 0v-1.023a8.3 8.3 0 0 0 1.783 0Zm6.964-6.451a8.3 8.3 0 0 0 .518-2.9v-5.857a1.63 1.63 0 0 0-1.769-1.621 4.21 4.21 0 0 1-3.4-1.133 1.626 1.626 0 0 0-1.986-.1c-1.4.974-4.478 1.452-7.847 1.218a1.63 1.63 0 0 0-1.743 1.624v5.868a8.3 8.3 0 0 0 .518 2.9q-1.236-.265-2.379-.611c.992-2.4 1.491-5.779 1.522-10.249.027-3.962 2.688-7.185 5.932-7.185h5.56c3.244 0 5.905 3.223 5.932 7.185.031 4.471.53 7.847 1.522 10.249q-1.141.347-2.38.612M44.301 45.64a11.5 11.5 0 0 0-5.177 1.23 1.3 1.3 0 0 0-2.564-.2l-.182.856-.019-.014a1.3 1.3 0 1 0-1.549 2.083l.495.368a11.5 11.5 0 0 0-2.551 7.228v7.152a4.04 4.04 0 0 0 3.718 4.022 8.84 8.84 0 0 0-3.718 7.225v10.342a2.673 2.673 0 0 0 2.67 2.67H53.18a2.673 2.673 0 0 0 2.67-2.67V75.586a8.85 8.85 0 0 0-3.718-7.225 4.04 4.04 0 0 0 3.718-4.022v-7.147A11.56 11.56 0 0 0 44.301 45.64m5.777 17.743a5.778 5.778 0 0 1-11.555 0V58.53c1.958.054 5.461-.061 7.85-1.342a6.63 6.63 0 0 0 3.7 1.325v4.871Zm-6.669 8.325a8.3 8.3 0 0 0 1.783 0v1.023a.892.892 0 1 1-1.783 0Zm9.843 14.22a.074.074 0 0 1-.074.074H35.423a.074.074 0 0 1-.074-.074V75.586a6.26 6.26 0 0 1 3.672-5.71 8.4 8.4 0 0 0 1.793 1.117v1.739a3.487 3.487 0 1 0 6.974 0v-1.74a8.4 8.4 0 0 0 1.793-1.117 6.26 6.26 0 0 1 3.672 5.71zm0-21.589a1.44 1.44 0 0 1-.9 1.334 8.4 8.4 0 0 0 .321-2.29v-5.857a1.63 1.63 0 0 0-1.769-1.621 4.21 4.21 0 0 1-3.4-1.133 1.626 1.626 0 0 0-1.986-.1c-1.4.974-4.477 1.452-7.847 1.218a1.63 1.63 0 0 0-1.743 1.624v5.868a8.4 8.4 0 0 0 .321 2.29 1.44 1.44 0 0 1-.9-1.334v-7.146a8.952 8.952 0 1 1 17.9 0v7.152Zm33.298-8.937c-.037-5.383-3.863-9.762-8.528-9.762h-5.56c-4.665 0-8.491 4.379-8.528 9.762-.034 4.891-.66 8.373-1.861 10.349a1.3 1.3 0 0 0 .66 1.892 30 30 0 0 0 4.095 1.171 8.85 8.85 0 0 0-3.133 6.771v10.343a2.673 2.673 0 0 0 2.67 2.67h17.756a2.673 2.673 0 0 0 2.67-2.67v-5.013a1.3 1.3 0 0 0-2.6 0v5.013a.074.074 0 0 1-.074.074H66.364a.074.074 0 0 1-.074-.074V75.586a6.26 6.26 0 0 1 3.672-5.71 8.4 8.4 0 0 0 1.793 1.117v1.739a3.487 3.487 0 0 0 6.974 0v-1.74a8.4 8.4 0 0 0 1.793-1.117 6.26 6.26 0 0 1 3.672 5.71v.14a1.3 1.3 0 0 0 2.6 0v-.14a8.85 8.85 0 0 0-3.133-6.771 30 30 0 0 0 4.095-1.171 1.3 1.3 0 0 0 .66-1.892c-1.206-1.976-1.832-5.459-1.866-10.349m-5.531 3.11v4.871a5.778 5.778 0 1 1-11.555 0V58.53c1.957.054 5.46-.06 7.849-1.342a6.63 6.63 0 0 0 3.706 1.324m-4.886 14.219a.892.892 0 1 1-1.783 0v-1.023a8.3 8.3 0 0 0 1.783 0Zm6.964-6.451a8.3 8.3 0 0 0 .518-2.9v-5.857a1.63 1.63 0 0 0-1.769-1.621 4.21 4.21 0 0 1-3.4-1.132 1.624 1.624 0 0 0-1.987-.1c-1.4.974-4.477 1.451-7.847 1.218a1.63 1.63 0 0 0-1.743 1.624v5.868a8.3 8.3 0 0 0 .518 2.9q-1.236-.265-2.379-.611c.992-2.4 1.491-5.779 1.522-10.249.027-3.962 2.688-7.185 5.932-7.185h5.56c3.244 0 5.905 3.223 5.932 7.185.031 4.471.53 7.847 1.522 10.249q-1.14.347-2.379.612ZM70.236 30.159a11.83 11.83 0 1 0-.618-23.644 11.83 11.83 0 0 0 .62 23.644Zm-2.32-11.83a2.318 2.318 0 1 1 2.32 2.32 2.323 2.323 0 0 1-2.32-2.32m2.32 9.234a9.15 9.15 0 0 1-4.5-1.168l2.388-3.629a4.9 4.9 0 0 0 5.567-.946l3.138 2.975a9.16 9.16 0 0 1-6.593 2.768m9.234-9.234a9.15 9.15 0 0 1-1.092 4.36l-3.368-3.193a4.92 4.92 0 0 0-3.564-5.932l-.353-4.428a9.247 9.247 0 0 1 8.377 9.193m-18.468 0a9.23 9.23 0 0 1 7.5-9.071l.348 4.355a4.91 4.91 0 0 0-2.7 7.436l-2.481 3.771a9.15 9.15 0 0 1-2.667-6.491M7.235 16.261v7.249a1.946 1.946 0 0 0 1.943 1.943h5.258a1.946 1.946 0 0 0 1.943-1.943v-7.249a1.946 1.946 0 0 0-1.943-1.943H9.178a1.945 1.945 0 0 0-1.943 1.943m2.6.652h3.949v5.944H9.831Zm10.851 8.541h5.258a1.946 1.946 0 0 0 1.943-1.943v-8.98a1.946 1.946 0 0 0-1.943-1.943h-5.258a1.946 1.946 0 0 0-1.943 1.943v8.979a1.946 1.946 0 0 0 1.943 1.944m.652-10.271h3.953v7.675h-3.953Zm16.113 10.271a1.946 1.946 0 0 0 1.943-1.943V11.07a1.946 1.946 0 0 0-1.943-1.943h-5.258a1.946 1.946 0 0 0-1.943 1.943v12.44a1.946 1.946 0 0 0 1.943 1.943Zm-4.61-13.731h3.953v11.135h-3.953Zm11.687 2.249h7.451a1.3 1.3 0 0 0 0-2.6h-7.451a1.3 1.3 0 0 0 0 2.6m0 4.616h7.451a1.3 1.3 0 0 0 0-2.6h-7.451a1.3 1.3 0 0 0 0 2.6m0 4.617h7.451a1.3 1.3 0 0 0 0-2.6h-7.451a1.3 1.3 0 0 0 0 2.6"/><path d="M83.9 0H14.3a1.3 1.3 0 1 0 0 2.6h69.6A2.11 2.11 0 0 1 86 4.705v27.357a2.11 2.11 0 0 1-2.1 2.109h-3.209a2.6 2.6 0 0 0-2.112 1.092l-3.332 4.716-3.347-4.717a2.6 2.6 0 0 0-2.112-1.091H49.749a2.6 2.6 0 0 0-2.112 1.092l-3.332 4.716-3.342-4.716a2.6 2.6 0 0 0-2.112-1.092H18.807a2.59 2.59 0 0 0-2.107 1.092l-3.332 4.716-3.343-4.717a2.59 2.59 0 0 0-2.115-1.091H4.7a2.11 2.11 0 0 1-2.1-2.109V4.705a2.11 2.11 0 0 1 2.1-2.112h4.416a1.3 1.3 0 1 0 0-2.6H4.7A4.71 4.71 0 0 0 0 4.705v27.357a4.71 4.71 0 0 0 4.7 4.7h3.2l3.343 4.716a2.588 2.588 0 0 0 4.223 0l3.337-4.713h20.038l3.343 4.717a2.588 2.588 0 0 0 4.223 0l3.337-4.713h20.038l3.343 4.717a2.588 2.588 0 0 0 4.223 0l3.337-4.713H83.9a4.71 4.71 0 0 0 4.7-4.7V4.705a4.71 4.71 0 0 0-4.7-4.7Z"/></svg>