<svg xmlns="http://www.w3.org/2000/svg" width="83.079" height="83.078" viewBox="0 0 83.079 83.078"><g transform="translate(1.34 1.34)"><path fill="#ff826e" d="M45.279 31.262a2.7 2.7 0 0 0 1.273 1.394c.08.04.174.094.255.134l-.295 2.117-2.479 7.946-1.154-8.013 2.385-3.578Zm-7.483-.014 2.4 3.591-1.152 8.013a26.1 26.1 0 0 1-2.479-7.946l-.322-2.265a.2.2 0 0 0 .08-.027 2.73 2.73 0 0 0 1.473-1.366"/><path fill="#ffeaa7" d="m42.879 34.839 1.152 8.013v.013a27 27 0 0 1-2.492 4.033 27 27 0 0 1-2.492-4.033v-.013l1.152-8.013Z"/><path fill="#969faa" d="M44.219 66.999a3.7 3.7 0 0 1-1.34-.241 3.98 3.98 0 0 1-2.68-3.779 4.015 4.015 0 0 1-4.02 4.02h-4.02v13.4h21.44v-13.4Z"/><path fill="#75b1f2" d="M51.7 37.359a12.77 12.77 0 0 1 1.9 6.7v14.9h-9.38a4.026 4.026 0 0 0-4.02 4.023 4 4 0 0 0-1.179-2.841 3.6 3.6 0 0 0-.75-.59l.067-.067a2.85 2.85 0 0 0 .147-3.859l-2.1-2.452-5.012 4.007A14.83 14.83 0 0 1 26.8 46.471v-.121a14.66 14.66 0 0 1 9.447-13.708l.322 2.265a26.1 26.1 0 0 0 2.479 7.946v.013a27 27 0 0 0 2.492 4.033 27 27 0 0 0 2.492-4.033v-.013l2.479-7.946.295-2.117a12.85 12.85 0 0 1 4.894 4.569"/><path fill="#b4dd7f" d="M24.12 58.956v-3.95a14.5 14.5 0 0 0-.63-4.275 26.3 26.3 0 0 1-13.695-9.915l-.9.6A13.965 13.965 0 0 0 5.36 61.264v19.135h18.76v-13.4h8.04v-8.043Z"/><path fill="#a0d468" d="M18.759 43.562a14.9 14.9 0 0 1 4.726 7.169 26.3 26.3 0 0 1-13.69-9.916l.925-.616a14.9 14.9 0 0 1 8.04 3.363Z"/><path fill="#b27946" d="M22.552 9.608a5.37 5.37 0 0 1 0 7.584 5.7 5.7 0 0 1-1.112.848 5.35 5.35 0 0 1-2.68.724 2.62 2.62 0 0 1-1.889-.791 2.65 2.65 0 0 1-.777-1.621l-2.854.563a3.13 3.13 0 0 0-2.519 3.069v1.456a2.68 2.68 0 0 0 0 5.36v9.38l-4.45-2.225A6.48 6.48 0 0 1 2.68 28.14l-.04-.04A9.02 9.02 0 0 1 0 21.721v-.8A9.07 9.07 0 0 1 4.02 13.4a7.08 7.08 0 0 1 6.861-5.36h7.879a5.4 5.4 0 0 1 3.792 1.568"/><path fill="#656d78" d="M53.68 12.06v.4a5.5 5.5 0 0 0 0 1.876v1.744h-2.76v-1.166a2.68 2.68 0 0 0-1.3-2.291l-5.4-3.243h-6.7l-4.288 3.22a2.7 2.7 0 0 0-1.072 2.14v1.34h-2.6v-4.02a12.06 12.06 0 0 1 24.12 0"/><path fill="#fcd770" d="m78.979 41.459-1.26-1.26v-.523a9.07 9.07 0 0 0-4.02-7.517l.214-.295a18.8 18.8 0 0 0 2.827-5.387 19 19 0 0 0 .978-6.017 12.42 12.42 0 0 0-12.42-12.42H58.96a5.37 5.37 0 0 0-5.28 4.422v1.878a5.3 5.3 0 0 0 .71 1.863 5.44 5.44 0 0 0 1.769 1.769 5.37 5.37 0 0 0 2.8.791h4.02a2.62 2.62 0 0 0 1.889-.791 2.57 2.57 0 0 0 .764-1.554l.147.027a5.16 5.16 0 0 1 3.9 5 2.68 2.68 0 0 1 0 5.36v13.4l1.822 1.219a13.87 13.87 0 0 1 5.856 8.509h.013l1.608-1.608a4.85 4.85 0 0 0 0-6.861Z"/><path fill="#ff826e" d="M80.399 77.987v2.412h-21.44v-2.055a25.3 25.3 0 0 1 2.68-11.35h2.12a13.92 13.92 0 0 0 11.28-5.73v1.447a12.27 12.27 0 0 0 2.68 7.638 12.27 12.27 0 0 1 2.68 7.638M69.196 54.099a7.47 7.47 0 0 1-7.008 4.864h-.549v-4.024l-.308-.308a8.08 8.08 0 0 1-1.572-9.232h.013l.308-.067a18.74 18.74 0 0 0 9.599-5.133l1.822 1.219a13.87 13.87 0 0 1 5.858 8.509 13.3 13.3 0 0 1 .362 3.109 14 14 0 0 1-1.045 5.32l-7.466-4.257Z"/><path fill="#f0d0b4" d="M38.484 55.622a2.85 2.85 0 0 1-.147 3.859l-.067.067a3.96 3.96 0 0 0-2.09-.59H33.5l-1.126-.9q-.523-.422-1-.884l5.012-4.007Z"/><path fill="#f0d0b4" d="M33.499 58.959h2.68a3.96 3.96 0 0 1 2.09.59 3.6 3.6 0 0 1 .75.59 4.017 4.017 0 0 1-2.84 6.86h-4.02v-8.04Z"/><path fill="#f0d0b4" d="m69.21 54.095 7.464 4.261a14.2 14.2 0 0 1-3.042 4.556 13.96 13.96 0 0 1-9.876 4.087H44.219a3.7 3.7 0 0 1-1.34-.241 4.015 4.015 0 0 1 1.34-7.8h17.969a7.47 7.47 0 0 0 7.011-4.863ZM62.979 18.76a2.62 2.62 0 0 0 1.889-.791 2.57 2.57 0 0 0 .764-1.554l.147.027a5.16 5.16 0 0 1 3.9 5 2.68 2.68 0 0 1 0 5.36v13.4a18.74 18.74 0 0 1-9.594 5.132l-.308.067a7.7 7.7 0 0 1 1.554-2.211l1.97-1.97a3.47 3.47 0 0 0 1.018-2.455v-1.594a3.7 3.7 0 0 1-1.568.348 3.8 3.8 0 0 1-3.792-3.792V29.48h-.791a1.9 1.9 0 0 1-1.34-3.229l.563-.563a5.37 5.37 0 0 0 1.568-3.792V18.76Zm-7.487 1.889a2.62 2.62 0 0 1-1.889.791h-2.791a7.4 7.4 0 0 0 .107-1.34v-4.02h2.76a3.2 3.2 0 0 1 .71.121 5.44 5.44 0 0 0 1.769 1.769 2.6 2.6 0 0 1 .121.791 2.62 2.62 0 0 1-.791 1.889ZM45.211 31.101a1 1 0 0 0 .067.161h-.013L42.88 34.84H40.2l-2.4-3.591c.04-.094.08-.2.121-.308l.657-1.943a9.33 9.33 0 0 0 5.923 0ZM32.253 21.44H29.56a2.7 2.7 0 0 1-2.68-2.68 2.69 2.69 0 0 1 2.68-2.68h2.6v4.02a7.4 7.4 0 0 0 .107 1.34Z"/><path fill="#f0d0b4" d="M32.159 16.08v-1.34a2.7 2.7 0 0 1 1.072-2.144l4.288-3.216h6.7l5.4 3.243a2.68 2.68 0 0 1 1.3 2.291V20.1a7.4 7.4 0 0 1-.107 1.34 9.34 9.34 0 0 1-6.311 7.557 9.33 9.33 0 0 1-5.923 0l-3.672-2.265a9.2 9.2 0 0 1-2.64-5.293 7.4 7.4 0 0 1-.107-1.339ZM10.72 36.18V26.8a2.68 2.68 0 0 1 0-5.36v-1.461a3.13 3.13 0 0 1 2.52-3.068l2.854-.563a2.65 2.65 0 0 0 .777 1.621 2.62 2.62 0 0 0 1.889.791 5.35 5.35 0 0 0 2.68-.724v3.859a5.37 5.37 0 0 0 1.568 3.792l.563.563a1.9 1.9 0 0 1-1.34 3.229h-.791v4.249a3.78 3.78 0 0 1-2.68 3.62v6.217a14.9 14.9 0 0 0-8.04-3.363Z"/></g><circle cx="1.34" cy="1.34" r="1.34" transform="translate(16.08 24.12)"/><circle cx="1.34" cy="1.34" r="1.34" transform="translate(64.319 24.12)"/><path d="M77.719 64.05v-1.042a14.9 14.9 0 0 0 2.424-11.278l1.123-1.123a6.19 6.19 0 0 0 0-8.757l-.866-.866a10.35 10.35 0 0 0-3.513-7.753A20.5 20.5 0 0 0 80.4 21.8 13.78 13.78 0 0 0 66.636 8.04H60.3a6.68 6.68 0 0 0-4.457 1.71 13.393 13.393 0 0 0-26.282 3.65v2.927A4.01 4.01 0 0 0 30.9 24.12h1.612a10.75 10.75 0 0 0 5.736 6.973l-.257.77a1.33 1.33 0 0 1-.8.829 16.167 16.167 0 0 0-5.916 26.266H26.8v-2.612a16.17 16.17 0 0 0-5.36-12.061v-4.737a5.11 5.11 0 0 0 2.68-4.478v-2.957a3.236 3.236 0 0 0 1.733-5.475l-.555-.555a4 4 0 0 1-1.178-2.843v-3.174A6.677 6.677 0 0 0 20.1 8.041h-7.875A8.4 8.4 0 0 0 4.2 13.918 10.34 10.34 0 0 0 0 22.25v.809a10.3 10.3 0 0 0 2.7 6.975A7.8 7.8 0 0 0 7.017 36.5l3.7 1.852v2.475l-1.225.816A15.286 15.286 0 0 0 5.36 63.008v20.07H26.8v-13.4h5.36v13.4h24.12v-13.4h4.639A26.9 26.9 0 0 0 58.96 79.69v3.387h24.12v-3.749a13.6 13.6 0 0 0-2.973-8.477 10.93 10.93 0 0 1-2.386-6.8Zm-34.839.269a2.683 2.683 0 0 1 2.68-2.68h17.974a8.82 8.82 0 0 0 7.584-4.339l5.144 2.939A12.63 12.63 0 0 1 65.094 67H45.559a2.683 2.683 0 0 1-2.68-2.68ZM40.14 36.5l-.332 2.329a25 25 0 0 1-.568-2.768l-.166-1.162Zm2.56 1.019h.355l.918 6.424a25 25 0 0 1-1.1 1.942c-.4-.627-.754-1.281-1.1-1.942Zm3.818-1.463a25 25 0 0 1-.568 2.768l-.33-2.324 1.067-1.6Zm1.973-3.256a1.33 1.33 0 0 1-.673-.775l-.31-.929a10.75 10.75 0 0 0 5.738-6.973h1.692a4.01 4.01 0 0 0 3.834-2.876c.063.015.122.038.186.051v1.944a4 4 0 0 1-1.178 2.843l-.555.555a3.235 3.235 0 0 0 1.733 5.474v2.956a5.137 5.137 0 0 0 5.131 5.13c.075 0 .147-.019.222-.021a2.15 2.15 0 0 1-.618 1.432l-1.974 1.974a9.426 9.426 0 0 0-.08 13.248v2.127h-5.36V45.4a14.02 14.02 0 0 0-7.788-12.6M53.6 18.76h1.363a6.6 6.6 0 0 0 1.313 1.313v.023a1.34 1.34 0 0 1-1.34 1.34H53.6Zm14.153.721a3.8 3.8 0 0 1 1.927 3.3v1.34h1.34a1.34 1.34 0 0 1 0 2.68h-1.34v14.155a17.4 17.4 0 0 1-4.717 3.174l.626-.626A4.78 4.78 0 0 0 67 40.1v-.812a5 5 0 0 0 .717-.59l1.57-1.57-1.895-1.895-1.57 1.57a2.45 2.45 0 0 1-4.182-1.733v-.284a5.84 5.84 0 0 0 3.627-1.679l-1.895-1.895a3.2 3.2 0 0 1-1.733.894V29.48h-2.125a.555.555 0 0 1-.393-.947l.555-.555a6.66 6.66 0 0 0 1.963-4.738v-1.8h2.68a4.01 4.01 0 0 0 3.433-1.959Zm9.5 38.243-5.127-2.929a9 9 0 0 0 .232-1.98 3.2 3.2 0 0 1 .947-2.287l-1.895-1.895a5.88 5.88 0 0 0-1.733 4.182 6.134 6.134 0 0 1-5.36 6.066v-3.157l-.7-.7a6.67 6.67 0 0 1-1.536-7.126 20 20 0 0 0 9.076-4.654l.942.628a12.56 12.56 0 0 1 5.156 13.854Zm.465-16.714v1.084l1.651 1.651a3.513 3.513 0 0 1 0 4.969l-.042.042a15.27 15.27 0 0 0-5.744-7.117l-1.225-.816v-5.984h2.232a7.66 7.66 0 0 1 3.128 6.171M60.3 10.72h6.337A11.1 11.1 0 0 1 77.719 21.8a17.78 17.78 0 0 1-3.366 10.357h-1.994V29.25a4.021 4.021 0 0 0-.1-7.615 6.48 6.48 0 0 0-3.986-4.876 4.016 4.016 0 0 0-3.954-3.359h-1.34v2.68h1.34a1.34 1.34 0 1 1 0 2.68H60.3a4 4 0 0 1-3.938-3.245v-1.55A4 4 0 0 1 60.3 10.72M30.9 21.44a1.34 1.34 0 1 1 0-2.68h1.26v2.68Zm3.938 0v-5.36a1.35 1.35 0 0 1 .535-1.072L38.9 12.36l3.231 2.153 1.486-2.23-4.809-3.207-5.044 3.787A4.02 4.02 0 0 0 32.24 15.4v-2a10.72 10.72 0 0 1 21.44 0v.413a7 7 0 0 0-.08.927 7 7 0 0 0 .082.927v.413h-.1a4.03 4.03 0 0 0-1.928-3.27l-5.4-3.239-1.379 2.3 5.4 3.239a1.35 1.35 0 0 1 .651 1.15v5.18a8.04 8.04 0 0 1-16.08 0Zm8.04 10.72a11 11 0 0 0 2.092-.208l.153.457-1.623 2.43h-1.244l-1.621-2.432.153-.456a11 11 0 0 0 2.092.208Zm-6.365 3.787.07.489a27.6 27.6 0 0 0 5.222 12.607l1.072 1.43 1.072-1.43a27.6 27.6 0 0 0 5.222-12.607v-.028A11.32 11.32 0 0 1 53.6 45.4v13.559h-2.68V44.774a3.2 3.2 0 0 1 .947-2.287l-1.897-1.895a5.88 5.88 0 0 0-1.731 4.182v14.185h-2.68a5.32 5.32 0 0 0-4.02 1.852c-.046-.052-.086-.111-.133-.161a4.19 4.19 0 0 0-.561-4.56l-3.2-3.733a11.67 11.67 0 0 1-2.8-7.583 5.88 5.88 0 0 0-1.733-4.182l-1.895 1.895a3.22 3.22 0 0 1 .947 2.287 14.34 14.34 0 0 0 3.445 9.326l.194.228-2.96 2.368a13.48 13.48 0 0 1 3.672-20.748Zm2.3 21.886a1.46 1.46 0 0 1 .264 1.384 5.3 5.3 0 0 0-1.554-.257H35.31l-.5-.4 2.743-2.195Zm-1.29 3.807a2.68 2.68 0 1 1 0 5.36h-2.68v-5.36ZM22.37 49.689a25.1 25.1 0 0 1-8.726-6.52 13.46 13.46 0 0 1 8.726 6.52m1.03-21.712.555.555a.555.555 0 0 1-.393.947H21.44v2.626a3.2 3.2 0 0 1-1.733-.894l-1.895 1.895a5.86 5.86 0 0 0 3.627 1.679v.284a2.45 2.45 0 0 1-4.181 1.731l-1.57-1.57-1.895 1.895 1.57 1.57a5.08 5.08 0 0 0 3.4 1.479v2.164a16.2 16.2 0 0 0-5.36-1.958V26.8H12.06a1.34 1.34 0 1 1 0-2.68h1.34v-2.8a1.79 1.79 0 0 1 1.435-1.751l1.7-.339a4.01 4.01 0 0 0 3.565 2.21 6.7 6.7 0 0 0 1.34-.135v1.935a6.66 6.66 0 0 0 1.96 4.737M8.215 34.1a5.13 5.13 0 0 1-2.855-4.62l-.035-.59-.393-.39a7.64 7.64 0 0 1-2.252-5.44v-.81a7.67 7.67 0 0 1 3.424-6.4l.43-.287.126-.5a5.73 5.73 0 0 1 5.565-4.344H20.1a4.02 4.02 0 1 1 0 8.04 1.34 1.34 0 1 1 0-2.68h1.34V13.4H20.1a4.024 4.024 0 0 0-3.926 3.17l-1.865.373a4.48 4.48 0 0 0-3.588 4.379v.347a4.021 4.021 0 0 0 0 7.582v6.1Zm15.9 46.3H8.04V65.983a15.22 15.22 0 0 0 9.945 3.7h6.135ZM17.985 67a12.619 12.619 0 0 1-7.134-23.032A27.75 27.75 0 0 0 23.715 53.1a13.6 13.6 0 0 1 .4 3.249v2.613h-4.57a6.153 6.153 0 0 1-6.145-6.148 5.88 5.88 0 0 0-1.733-4.182l-1.895 1.895a3.22 3.22 0 0 1 .947 2.287 8.834 8.834 0 0 0 8.825 8.825h12.615V67Zm16.854 2.68h2.68a5.32 5.32 0 0 0 4.02-1.852 5.4 5.4 0 0 0 1.34 1.107V80.4h-8.04ZM53.6 80.4h-8.04V69.679h8.04Zm26.8 0H61.639v-.708a24.2 24.2 0 0 1 2.195-10.012h1.26a15.22 15.22 0 0 0 10.079-3.818 13.6 13.6 0 0 0 2.838 6.665 10.92 10.92 0 0 1 2.388 6.8Z"/><circle cx="1.34" cy="1.34" r="1.34" transform="translate(37.519 16.08)"/><circle cx="1.34" cy="1.34" r="1.34" transform="translate(45.559 16.08)"/><path d="m46.017 24.861.741-1.481-2.4-1.2-.741 1.479a.857.857 0 0 1-1.481 0l-.741-1.478-2.4 1.2.741 1.482a3.509 3.509 0 0 0 6.275 0Z"/></svg>