<svg xmlns="http://www.w3.org/2000/svg" width="84" height="63.156" viewBox="0 0 84 63.156"><path fill="#ff7e5d" d="M9.9 0a1.644 1.644 0 0 0-1.62 1.429 8.035 8.035 0 0 1-6.847 6.749 1.635 1.635 0 0 0 .011 3.246 7.97 7.97 0 0 1 6.846 6.747 1.632 1.632 0 0 0 3.239.029 8.1 8.1 0 0 1 6.871-6.816 1.567 1.567 0 0 0 1.4-1.537v-.039a1.624 1.624 0 0 0-1.432-1.594 8.1 8.1 0 0 1-6.847-6.8A1.64 1.64 0 0 0 9.9 0m21.401 0a1.644 1.644 0 0 0-1.62 1.429 8.035 8.035 0 0 1-6.847 6.749 1.635 1.635 0 0 0 .011 3.246 7.97 7.97 0 0 1 6.847 6.747 1.632 1.632 0 0 0 3.239.029 8.1 8.1 0 0 1 6.871-6.816 1.567 1.567 0 0 0 1.4-1.537v-.039a1.624 1.624 0 0 0-1.432-1.594 8.1 8.1 0 0 1-6.846-6.8A1.64 1.64 0 0 0 31.301 0m21.401 0a1.644 1.644 0 0 0-1.62 1.429 8.035 8.035 0 0 1-6.847 6.749 1.635 1.635 0 0 0 .011 3.246 7.97 7.97 0 0 1 6.847 6.747 1.632 1.632 0 0 0 3.239.029 8.1 8.1 0 0 1 6.871-6.816 1.567 1.567 0 0 0 1.4-1.537v-.039a1.624 1.624 0 0 0-1.432-1.594 8.1 8.1 0 0 1-6.847-6.8A1.64 1.64 0 0 0 52.702 0m21.402 0a1.645 1.645 0 0 0-1.62 1.429 8.035 8.035 0 0 1-6.847 6.749 1.635 1.635 0 0 0 .011 3.246 7.97 7.97 0 0 1 6.847 6.747 1.632 1.632 0 0 0 3.239.029 8.1 8.1 0 0 1 6.871-6.816 1.567 1.567 0 0 0 1.4-1.537v-.039a1.624 1.624 0 0 0-1.432-1.594 8.1 8.1 0 0 1-6.847-6.8A1.64 1.64 0 0 0 74.104 0M9.9 21.771a1.645 1.645 0 0 0-1.62 1.43 8.04 8.04 0 0 1-6.847 6.75 1.635 1.635 0 0 0 .011 3.246 7.97 7.97 0 0 1 6.846 6.746 1.632 1.632 0 0 0 3.239.028 8.1 8.1 0 0 1 6.871-6.82 1.57 1.57 0 0 0 1.4-1.537v-.039a1.625 1.625 0 0 0-1.432-1.594 8.1 8.1 0 0 1-6.847-6.8 1.64 1.64 0 0 0-1.621-1.41m21.401 0a1.645 1.645 0 0 0-1.62 1.43 8.04 8.04 0 0 1-6.846 6.75 1.635 1.635 0 0 0 .011 3.246 7.97 7.97 0 0 1 6.847 6.747 1.632 1.632 0 0 0 3.239.028 8.1 8.1 0 0 1 6.869-6.821 1.57 1.57 0 0 0 1.4-1.537v-.039a1.625 1.625 0 0 0-1.432-1.594 8.1 8.1 0 0 1-6.846-6.8 1.64 1.64 0 0 0-1.618-1.414m21.397.004a1.645 1.645 0 0 0-1.62 1.43 8.04 8.04 0 0 1-6.846 6.75 1.635 1.635 0 0 0 .011 3.246 7.97 7.97 0 0 1 6.847 6.747 1.632 1.632 0 0 0 3.239.028 8.1 8.1 0 0 1 6.869-6.821 1.57 1.57 0 0 0 1.4-1.537v-.039a1.625 1.625 0 0 0-1.432-1.594 8.1 8.1 0 0 1-6.847-6.8 1.64 1.64 0 0 0-1.617-1.414m21.398.004a1.645 1.645 0 0 0-1.62 1.43 8.04 8.04 0 0 1-6.846 6.75 1.635 1.635 0 0 0 .011 3.246 7.97 7.97 0 0 1 6.847 6.747 1.632 1.632 0 0 0 3.239.028 8.1 8.1 0 0 1 6.869-6.821 1.57 1.57 0 0 0 1.4-1.537v-.039a1.625 1.625 0 0 0-1.432-1.594 8.1 8.1 0 0 1-6.847-6.8 1.64 1.64 0 0 0-1.617-1.414M9.9 43.543a1.645 1.645 0 0 0-1.62 1.429 8.03 8.03 0 0 1-6.847 6.748 1.635 1.635 0 0 0 .011 3.247 7.97 7.97 0 0 1 6.846 6.747 1.632 1.632 0 0 0 3.239.029 8.1 8.1 0 0 1 6.871-6.816 1.57 1.57 0 0 0 1.4-1.537v-.038a1.624 1.624 0 0 0-1.432-1.594 8.1 8.1 0 0 1-6.847-6.8A1.64 1.64 0 0 0 9.9 43.543m21.401 0a1.645 1.645 0 0 0-1.62 1.429 8.03 8.03 0 0 1-6.847 6.748 1.635 1.635 0 0 0 .011 3.247 7.97 7.97 0 0 1 6.847 6.747 1.632 1.632 0 0 0 3.239.029 8.1 8.1 0 0 1 6.871-6.816 1.57 1.57 0 0 0 1.4-1.537v-.038a1.624 1.624 0 0 0-1.432-1.594 8.1 8.1 0 0 1-6.846-6.8 1.64 1.64 0 0 0-1.618-1.414m21.396-.001a1.645 1.645 0 0 0-1.62 1.429 8.03 8.03 0 0 1-6.847 6.748 1.635 1.635 0 0 0 .011 3.247 7.97 7.97 0 0 1 6.847 6.747 1.632 1.632 0 0 0 3.239.029 8.1 8.1 0 0 1 6.871-6.816 1.57 1.57 0 0 0 1.4-1.537v-.038a1.624 1.624 0 0 0-1.432-1.594 8.1 8.1 0 0 1-6.847-6.8 1.64 1.64 0 0 0-1.617-1.414m21.397-.001a1.645 1.645 0 0 0-1.62 1.429 8.03 8.03 0 0 1-6.847 6.748 1.635 1.635 0 0 0 .011 3.247 7.97 7.97 0 0 1 6.847 6.747 1.632 1.632 0 0 0 3.239.029 8.1 8.1 0 0 1 6.871-6.816 1.57 1.57 0 0 0 1.4-1.537v-.038a1.624 1.624 0 0 0-1.432-1.594 8.1 8.1 0 0 1-6.847-6.8 1.64 1.64 0 0 0-1.617-1.414"/></svg>