<svg xmlns="http://www.w3.org/2000/svg" width="74.79" height="85.028" viewBox="0 0 74.79 85.028"><g transform="translate(-31.702 -1.001)"><g transform="translate(32.953 2.251)"><g transform="translate(0 43.068)"><path fill="#ffd54f" fill-rule="evenodd" d="M.706 33.285h25.969a.71.71 0 0 0 .706-.706v-5.857a11.68 11.68 0 0 0-11.648-11.648h-4.085A11.68 11.68 0 0 0 0 26.722v5.855a.71.71 0 0 0 .706.706Z"/><ellipse cx="8.245" cy="8.144" fill="#fedfc5" rx="8.245" ry="8.144" transform="translate(5.446)"/></g><g transform="translate(44.907 43.068)"><path fill="#6ce75a" fill-rule="evenodd" d="M26.675 33.285H.706A.71.71 0 0 1 0 32.579v-5.857a11.68 11.68 0 0 1 11.648-11.648h4.086a11.68 11.68 0 0 1 11.647 11.648v5.855a.71.71 0 0 1-.706.708"/><ellipse cx="8.245" cy="8.144" fill="#fedfc5" rx="8.245" ry="8.144" transform="translate(5.446)"/></g><g transform="translate(22.453 49.242)"><path fill="#ff6372" fill-rule="evenodd" d="M26.675 33.285H.706A.71.71 0 0 1 0 32.579v-5.855a11.68 11.68 0 0 1 11.648-11.648h4.086a11.68 11.68 0 0 1 11.648 11.648v5.855a.71.71 0 0 1-.707.706"/><ellipse cx="8.245" cy="8.144" fill="#fedfc5" rx="8.245" ry="8.144" transform="translate(5.446)"/></g><g transform="translate(10.245)"><circle cx="17.781" cy="17.781" r="17.781" fill="#ff6372" transform="translate(8.118 8.118)"/><circle cx="11.399" cy="11.399" r="11.399" fill="#f0f0f0" transform="translate(14.5 14.5)"/><circle cx="3.273" cy="3.273" r="3.273" fill="#ff6372" transform="rotate(-88.625 26.18 2.987)"/><path fill="#7a7785" fill-rule="evenodd" d="m13.124 13.124-6.519-.185-6.6-6.605 6.519.186L6.334 0l6.605 6.6Z"/></g></g><path fill-rule="evenodd" d="M49.68 10.022a1.25 1.25 0 0 0 1.285-1.285l-.1-3.376L54.9 9.39l.133 4.7-4.7-.134L46.3 9.925ZM69.1 26.129a2.023 2.023 0 1 1-2.022 2.022 2.025 2.025 0 0 1 2.022-2.022m-3.956-.167L61.1 21.919a10.165 10.165 0 1 0 1.769-1.769l4.043 4.045a4.526 4.526 0 1 1-1.767 1.767Zm20.486 2.189a16.521 16.521 0 0 0-27.299-12.534l2.753 2.754a12.643 12.643 0 1 1-1.769 1.767l-2.753-2.753a16.527 16.527 0 1 0 29.064 10.766ZM48.918 16.075a1.25 1.25 0 0 0 .848.365l4.246.12a19.048 19.048 0 1 0 3.494-3.494l-.12-4.245a1.25 1.25 0 0 0-.366-.849l-6.6-6.605a1.251 1.251 0 0 0-2.134.921l.149 5.2-5.2-.148a1.25 1.25 0 0 0-.92 2.134Zm55.074 61.28H84a12.88 12.88 0 0 0-3.044-7.478 13 13 0 0 0-1.256-1.283 10.46 10.46 0 0 1 7.629-6.717 9.56 9.56 0 0 0 8.433 0 10.38 10.38 0 0 1 8.227 10.165v5.312Zm-22.455 6.173v-5.31a10.38 10.38 0 0 0-8.225-10.166 9.56 9.56 0 0 1-8.432 0 10.38 10.38 0 0 0-8.225 10.166v5.31Zm-27.349-6.173H34.2v-5.311a10.38 10.38 0 0 1 8.225-10.165 9.56 9.56 0 0 0 8.432 0 10.46 10.46 0 0 1 7.63 6.717 13 13 0 0 0-1.256 1.284 12.88 12.88 0 0 0-3.045 7.478ZM46.643 46.57a6.894 6.894 0 1 1-6.994 6.894 6.95 6.95 0 0 1 6.994-6.894M69.1 52.744a6.894 6.894 0 1 1-7 6.892 6.95 6.95 0 0 1 7-6.892m22.45-6.174a6.894 6.894 0 1 1-7 6.894 6.95 6.95 0 0 1 7-6.894m11.86 17.13a12.87 12.87 0 0 1 3.082 8.339V77.9a1.96 1.96 0 0 1-1.958 1.957h-20.5v4.216a1.96 1.96 0 0 1-1.958 1.955H56.112a1.96 1.96 0 0 1-1.958-1.955v-4.217h-20.5A1.96 1.96 0 0 1 31.7 77.9v-5.856a12.935 12.935 0 0 1 8.179-11.994 9.3 9.3 0 0 1-2.732-6.585 9.5 9.5 0 0 1 18.991 0 9.3 9.3 0 0 1-2.731 6.584 13 13 0 0 1 7.174 7.027 13 13 0 0 1 1.75-.854 9.3 9.3 0 0 1-2.731-6.586 9.5 9.5 0 0 1 18.99 0 9.3 9.3 0 0 1-2.731 6.585 13 13 0 0 1 1.751.854 13 13 0 0 1 7.174-7.027 9.3 9.3 0 0 1-2.731-6.584 9.5 9.5 0 0 1 18.99 0 9.3 9.3 0 0 1-2.731 6.585 12.96 12.96 0 0 1 5.1 3.654Z"/></g></svg>