<svg xmlns="http://www.w3.org/2000/svg" width="96.772" height="102.214" viewBox="0 0 96.772 102.214"><g transform="translate(1.605 1.605)"><path fill="#8d9ca8" fill-rule="evenodd" d="M54.588 93.563H38.975v-7.834a39.5 39.5 0 0 1-14.211-5.89l-5.538 5.542-11.04-11.04 5.54-5.542a39.5 39.5 0 0 1-5.89-14.21H0V38.975h7.834a39.5 39.5 0 0 1 5.892-14.211l-5.542-5.542 11.042-11.04 5.542 5.542a39.5 39.5 0 0 1 14.211-5.89V-.001h15.609v7.834a39.5 39.5 0 0 1 14.211 5.89l5.542-5.542 11.04 11.041-5.542 5.542a39.5 39.5 0 0 1 5.89 14.211h7.834v15.613h-7.837a39.5 39.5 0 0 1-5.89 14.211l5.542 5.542-11.037 11.04-5.542-5.542a39.5 39.5 0 0 1-14.211 5.89z"/><circle cx="30.107" cy="30.107" r="30.107" fill="#eff4f7" transform="translate(16.675 16.675)"/><g transform="translate(36.108 21.67)"><path fill="#ffda2d" fill-rule="evenodd" d="M21.348 24.598a10.674 10.674 0 1 0-21.348 0Z"/><circle cx="5.769" cy="5.769" r="5.769" fill="#ffd6bd" transform="rotate(-45 11.1 1.051)"/></g><g transform="translate(21.404 29.398)"><path fill="#64b5f6" fill-rule="evenodd" d="M21.348 23.057a10.674 10.674 0 0 0-21.348 0Z"/><circle cx="5.769" cy="5.769" r="5.769" fill="#ffd6bd" transform="rotate(-9.2 13.485 -24.205)"/></g><g transform="translate(50.812 28.475)"><path fill="#64b5f6" fill-rule="evenodd" d="M21.348 23.979a10.674 10.674 0 0 0-21.348 0Z"/><circle cx="5.769" cy="5.769" r="5.769" fill="#ffd6bd" transform="rotate(-67.486 9.56 2.965)"/></g><g fill-rule="evenodd" transform="translate(3.456 44.585)"><path fill="#ffd6bd" d="m41.824 4.563 26.138 32.462a4.559 4.559 0 0 1-6.447 6.447 4.558 4.558 0 0 1-6.446 6.447l-3.516-3.516a4.559 4.559 0 0 1-6.447 6.447l-6.205-6.205a4.558 4.558 0 0 1-6.447 6.446L7.026 27.661l5.156-23.1Z"/><path fill="#eaab92" d="M81.055 25.831c-.22.084-8.712-21.369-8.929-21.287-8.156 3.048-14.41 4.159-22.814-2.774a6.81 6.81 0 0 0-8.888-.228l-10.7 8.932a4.21 4.21 0 0 0-1.624 4.179l3.245 14.87c8.25-2.033 8.212-7.9 8.793-14.077.28-2.364 4.1-1.717 8.9 2.652l19.733 20.02Z"/><path fill="#64b5f6" d="M70.576 2.084 78.554.495a1.593 1.593 0 0 1 1.868 1.247l6.2 31.121a1.593 1.593 0 0 1-1.247 1.867l-7.978 1.59a1.59 1.59 0 0 1-1.867-1.247l-6.2-31.121a1.59 1.59 0 0 1 1.246-1.868m-54.5 0L8.098.495a1.59 1.59 0 0 0-1.867 1.247l-6.2 31.121a1.593 1.593 0 0 0 1.247 1.867l7.978 1.59a1.59 1.59 0 0 0 1.868-1.247l6.2-31.121a1.593 1.593 0 0 0-1.248-1.868"/></g></g><path fill-rule="evenodd" d="M93.559 54.589h-5.125l-1.389-6.97a3.19 3.19 0 0 0-3.751-2.509l-3.308.66a31.711 31.711 0 0 0-63.207 0l-3.308-.66a3.19 3.19 0 0 0-3.753 2.505l-1.389 6.97H3.204V42.182h6.23a1.61 1.61 0 0 0 1.578-1.29 37.8 37.8 0 0 1 5.643-13.634 1.6 1.6 0 0 0-.2-2.024l-4.4-4.407 8.772-8.774 4.4 4.409a1.61 1.61 0 0 0 2.023.2 37.7 37.7 0 0 1 13.641-5.652 1.6 1.6 0 0 0 1.286-1.573V3.21h12.41v6.231a1.6 1.6 0 0 0 1.286 1.569 37.8 37.8 0 0 1 13.64 5.65 1.6 1.6 0 0 0 2.023-.2l4.4-4.409 8.772 8.774-4.4 4.407a1.6 1.6 0 0 0-.2 2.024A37.8 37.8 0 0 1 85.76 40.89a1.6 1.6 0 0 0 1.569 1.29h6.229ZM82.15 80.935l7.949-1.585-6.191-31.09-7.949 1.585Zm-8.318 1.1 4.4-4.395-4.75-23.811c-5.246 1.627-12.042 2.044-20.133-4.634a5.25 5.25 0 0 0-6.843-.232l-10.691 8.93a2.64 2.64 0 0 0-1.087 2.608l2.874 13.175c5.085-1.876 5.435-5.774 5.889-11l.113-1.2v-.038a2.98 2.98 0 0 1 1.937-2.528c2.268-.846 5.775.686 9.632 4.2a.4.4 0 0 0 .066.06Zm-1.947 6.5a2.98 2.98 0 0 0 .614-3.283l-19.519-19.8c-3.289-2.986-5.539-3.634-6.2-3.559q-.04.541-.094 1.08c-.5 5.686-1.068 12.129-9.9 14.305a1.6 1.6 0 0 1-1.229-.2 1.58 1.58 0 0 1-.718-1.018l-3.252-14.87a5.78 5.78 0 0 1 2.165-5.752l3.686-3.077H23.574l-5.1 25.615 20.167 20.168a2.957 2.957 0 0 0 4.178 0 2.967 2.967 0 0 0 0-4.179l-5.385-5.389A1.602 1.602 0 1 1 39.7 86.31l11.6 11.6a2.955 2.955 0 1 0 4.178-4.181l-10.825-10.83a1.604 1.604 0 0 1 2.268-2.269l14.34 14.343a2.949 2.949 0 0 0 5.038-2.09 2.9 2.9 0 0 0-.865-2.084v-.006L51.865 77.221a1.604 1.604 0 0 1 2.269-2.269l13.573 13.574a2.96 2.96 0 0 0 4.178 0Zm-8.8-43.538a9.1 9.1 0 0 0-6.446 2.71c5.908 4.371 10.832 4.429 14.991 3.327a9.07 9.07 0 0 0-8.535-6.037Zm0-3.206a4.167 4.167 0 1 0-4.169-4.167 4.175 4.175 0 0 0 4.169 4.158ZM44.218 31.429a4.167 4.167 0 0 0 4.159 4.166h.009a4.165 4.165 0 1 0-4.168-4.166m.236 15.071a8.215 8.215 0 0 1 9.585-.717 12.4 12.4 0 0 1 2.41-2.04 9.08 9.08 0 0 0-8.063-4.94h-.009a9.07 9.07 0 0 0-8.063 4.946 12.5 12.5 0 0 1 3.45 3.329Zm-10.776-1.512a9.05 9.05 0 0 0-7.618 4.161h15.218l.009-.008a9.12 9.12 0 0 0-7.609-4.153m-4.168-7.373a4.168 4.168 0 1 0 4.168-4.166 4.175 4.175 0 0 0-4.168 4.166m45.806 9.087 1.5-.3a28.5 28.5 0 0 0-56.865 0l1.493.3a3.17 3.17 0 0 1 1.739.992 12.27 12.27 0 0 1 5.359-4.792 7.371 7.371 0 1 1 12.505-5.287c0 .144-.009.287-.009.429a12 12 0 0 1 2.216-1.324 7.377 7.377 0 1 1 10.256 0 12.4 12.4 0 0 1 2.224 1.324c-.009-.142-.019-.285-.019-.429a7.373 7.373 0 1 1 12.505 5.289 12.3 12.3 0 0 1 5.359 4.788 3.18 3.18 0 0 1 1.737-.99m-60.7 34.233 6.188-31.092-7.949-1.583-6.191 31.089Zm80.553-41.958h-6.541a40.8 40.8 0 0 0-5.133-12.389l4.622-4.628a1.606 1.606 0 0 0 0-2.267L77.074 8.652a1.606 1.606 0 0 0-2.269 0l-4.622 4.628a40.8 40.8 0 0 0-12.392-5.135V1.603A1.605 1.605 0 0 0 56.184 0H40.579a1.605 1.605 0 0 0-1.607 1.6v6.545A40.9 40.9 0 0 0 26.58 13.28l-4.622-4.628a1.606 1.606 0 0 0-2.268 0L8.649 19.693a1.606 1.606 0 0 0 0 2.267l4.632 4.628a40.9 40.9 0 0 0-5.147 12.388H1.597a1.6 1.6 0 0 0-1.6 1.6v15.615a1.6 1.6 0 0 0 1.6 1.6h6.087L3.516 78.738a3.16 3.16 0 0 0 .473 2.4 3.2 3.2 0 0 0 2.032 1.359l7.978 1.589a3 3 0 0 0 .624.062 3.21 3.21 0 0 0 3.091-2.4l18.658 18.662a6.17 6.17 0 0 0 8.715 0 6.05 6.05 0 0 0 1.56-2.625l2.387 2.385a6.175 6.175 0 0 0 8.715 0 6.2 6.2 0 0 0 1.56-2.64 6.153 6.153 0 0 0 10.2-4.648v-.295a6.14 6.14 0 0 0 4.651-1.8 6.22 6.22 0 0 0 1.55-6.095l3.28-3.281.028.159a3.2 3.2 0 0 0 3.129 2.567 3 3 0 0 0 .624-.062l7.978-1.589a3.187 3.187 0 0 0 2.5-3.754l-4.168-20.943h6.087a1.61 1.61 0 0 0 1.607-1.6V40.58a1.61 1.61 0 0 0-1.609-1.604Z"/></svg>