<svg xmlns="http://www.w3.org/2000/svg" width="83.27" height="45.081" viewBox="0 0 83.27 45.081"><path fill="#ff7e5d" d="M9.813 0a1.64 1.64 0 0 0-1.606 1.443A8.04 8.04 0 0 1 1.42 8.259a1.655 1.655 0 0 0 .011 3.278 7.975 7.975 0 0 1 6.787 6.812 1.615 1.615 0 0 0 3.21.029 8.1 8.1 0 0 1 6.811-6.882 1.57 1.57 0 0 0 1.384-1.552v-.039a1.63 1.63 0 0 0-1.419-1.61 8.1 8.1 0 0 1-6.787-6.865 1.63 1.63 0 0 0-1.6-1.428M31.028 0a1.64 1.64 0 0 0-1.606 1.443 8.04 8.04 0 0 1-6.787 6.816 1.655 1.655 0 0 0 .011 3.278 7.975 7.975 0 0 1 6.787 6.812 1.615 1.615 0 0 0 3.21.029 8.1 8.1 0 0 1 6.811-6.882 1.57 1.57 0 0 0 1.384-1.552v-.039a1.63 1.63 0 0 0-1.419-1.61 8.1 8.1 0 0 1-6.786-6.865 1.635 1.635 0 0 0-1.6-1.428M52.245 0a1.64 1.64 0 0 0-1.606 1.443 8.04 8.04 0 0 1-6.788 6.816 1.655 1.655 0 0 0 .011 3.278 7.975 7.975 0 0 1 6.783 6.81 1.615 1.615 0 0 0 3.21.029 8.1 8.1 0 0 1 6.811-6.882 1.57 1.57 0 0 0 1.384-1.552v-.039a1.63 1.63 0 0 0-1.419-1.61 8.1 8.1 0 0 1-6.786-6.865A1.63 1.63 0 0 0 52.245 0M73.46 0a1.64 1.64 0 0 0-1.606 1.443 8.035 8.035 0 0 1-6.787 6.816 1.655 1.655 0 0 0 .011 3.278 7.975 7.975 0 0 1 6.787 6.812 1.615 1.615 0 0 0 3.21.029 8.1 8.1 0 0 1 6.811-6.882 1.57 1.57 0 0 0 1.384-1.552v-.039a1.63 1.63 0 0 0-1.419-1.61 8.1 8.1 0 0 1-6.787-6.865 1.63 1.63 0 0 0-1.6-1.428M9.813 25.28a1.64 1.64 0 0 0-1.606 1.439 8.04 8.04 0 0 1-6.787 6.818 1.655 1.655 0 0 0 .011 3.282 7.975 7.975 0 0 1 6.787 6.812 1.615 1.615 0 0 0 3.21.029 8.1 8.1 0 0 1 6.811-6.882 1.57 1.57 0 0 0 1.384-1.559v-.039a1.63 1.63 0 0 0-1.419-1.61 8.1 8.1 0 0 1-6.787-6.865 1.63 1.63 0 0 0-1.6-1.428m21.211.003a1.64 1.64 0 0 0-1.606 1.439 8.04 8.04 0 0 1-6.787 6.814 1.655 1.655 0 0 0 .011 3.277 7.975 7.975 0 0 1 6.787 6.812 1.615 1.615 0 0 0 3.21.029 8.1 8.1 0 0 1 6.811-6.882 1.57 1.57 0 0 0 1.384-1.55v-.039a1.63 1.63 0 0 0-1.419-1.61 8.1 8.1 0 0 1-6.786-6.865 1.635 1.635 0 0 0-1.6-1.428m21.212.003a1.64 1.64 0 0 0-1.607 1.439 8.04 8.04 0 0 1-6.787 6.814 1.655 1.655 0 0 0 .011 3.277 7.975 7.975 0 0 1 6.783 6.817 1.615 1.615 0 0 0 3.21.029 8.1 8.1 0 0 1 6.811-6.882 1.57 1.57 0 0 0 1.388-1.555v-.039a1.63 1.63 0 0 0-1.419-1.61 8.1 8.1 0 0 1-6.79-6.862 1.63 1.63 0 0 0-1.6-1.428m21.215 0a1.64 1.64 0 0 0-1.606 1.439 8.04 8.04 0 0 1-6.787 6.814 1.655 1.655 0 0 0 .011 3.277 7.975 7.975 0 0 1 6.787 6.812 1.615 1.615 0 0 0 3.21.029 8.1 8.1 0 0 1 6.811-6.882 1.57 1.57 0 0 0 1.384-1.55v-.039a1.63 1.63 0 0 0-1.419-1.61 8.1 8.1 0 0 1-6.787-6.865 1.63 1.63 0 0 0-1.6-1.428" style="isolation:isolate"/></svg>