<svg xmlns="http://www.w3.org/2000/svg" width="124" height="124" viewBox="0 0 124 124"><g transform="translate(-736.248 -2961.125)"><circle cx="62" cy="62" r="62" fill="#fff" transform="translate(736.248 2961.125)"/><g transform="translate(765.615 2981.628)"><rect width="42.183" height="50.314" fill="#b6dbff" rx="21.006" transform="translate(13.226 7.909)"/><path fill="#e3f1ff" d="M16.414 7.909h33.362a3.19 3.19 0 0 1 3.187 3.187v43.94a3.19 3.19 0 0 1-3.187 3.187H16.413a3.19 3.19 0 0 1-3.187-3.187V11.097a3.19 3.19 0 0 1 3.188-3.188"/><g fill-rule="evenodd" transform="translate(24.286 1.075)"><path fill="#c86f5c" d="M10.032 0a3.9 3.9 0 0 0-3.9 3.9v.536L2.264 3.76a1.93 1.93 0 0 0-2.263 1.9v4.2h20.063v-4.2a1.93 1.93 0 0 0-2.263-1.9l-3.868.676V3.9A3.9 3.9 0 0 0 10.032 0"/><path fill="#f29988" d="M6.13 3.901v.536l-3.868-.676a1.93 1.93 0 0 0-2.263 1.9v4.2h18.312V5.968a1.93 1.93 0 0 0-2.263-1.9l-2.116.37-.943.165-.495.086C12.555-.698 6.13.045 6.13 3.902Z"/><path fill="#f2671f" d="M32.984 18.396a28.2 28.2 0 0 0 7.792 3.094l2.648.676v11.348a9.14 9.14 0 0 1-1.293 4.744c-1.973 3.322-5.959 5.429-9.189 7.382l-1.82 1.1-1.82-1.1c-3.23-1.953-7.216-4.06-9.189-7.382a9.14 9.14 0 0 1-1.293-4.744V22.166l2.648-.676a28.2 28.2 0 0 0 7.792-3.094l1.863-1.163 1.863 1.163Z"/><path fill="#ff8748" d="M32.985 18.396a28.2 28.2 0 0 0 7.792 3.094l1.51.385v11.183a9.14 9.14 0 0 1-1.293 4.744c-1.973 3.322-5.959 5.429-9.189 7.382l-1.628.984-.874-.529c-3.23-1.953-7.216-4.06-9.189-7.382a9.14 9.14 0 0 1-1.293-4.744V22.166l2.648-.676a28.2 28.2 0 0 0 7.792-3.094l1.863-1.163 1.863 1.163Z"/><path fill="#fdc72e" d="M32.2 64.221a11.124 11.124 0 0 1 11.077 10.112H21.123A11.124 11.124 0 0 1 32.2 64.221"/><path fill="#fcdb35" d="M40.191 74.336H21.123a11.125 11.125 0 0 1 10.04-10.064 11.44 11.44 0 0 1 9.028 10.064"/></g><circle cx="5.297" cy="5.297" r="5.297" fill="#fdb0a0" transform="rotate(-6.258 530.936 -435.484)"/><path fill="#ffcec0" fill-rule="evenodd" d="M55.413 65.151a5.3 5.3 0 1 1 4.225-5.189 5.3 5.3 0 0 1-4.225 5.189"/><path fill="#2a92fa" fill-rule="evenodd" d="M34.317 65.296a11.124 11.124 0 0 1 11.077 10.112H23.24a11.124 11.124 0 0 1 11.077-10.112"/><path fill="#4eb1fc" fill-rule="evenodd" d="M42.308 75.411H23.24a11.125 11.125 0 0 1 10.04-10.064 11.44 11.44 0 0 1 9.028 10.064"/><circle cx="5.297" cy="5.297" r="5.297" fill="#fdb0a0" transform="rotate(-10.31 322.862 -128.187)"/><path fill="#ffcec0" fill-rule="evenodd" d="M33.245 65.151a5.3 5.3 0 1 1 4.225-5.189 5.3 5.3 0 0 1-4.225 5.189"/><path fill="#a0d904" fill-rule="evenodd" d="M12.149 65.296a11.124 11.124 0 0 1 11.077 10.112H1.072a11.124 11.124 0 0 1 11.077-10.112"/><path fill="#baed2c" fill-rule="evenodd" d="M20.14 75.411H1.072A11.125 11.125 0 0 1 11.11 65.344a11.44 11.44 0 0 1 9.03 10.067"/><circle cx="5.297" cy="5.297" r="5.297" fill="#fdb0a0" transform="rotate(-10.31 311.76 -5.304)"/><path fill="#ffcec0" fill-rule="evenodd" d="M11.077 65.151a5.3 5.3 0 0 1 0-10.377 5.3 5.3 0 0 1 0 10.377"/><path fill="#f2671f" fill-rule="evenodd" d="M46.622 25.973q-.534.15-.971.259v8.615a5.6 5.6 0 0 0 .8 2.948c1.492 2.512 5.376 4.711 8.151 6.389l.8-.481.484-.393-9.269-17.338Z"/><path fill="#f3f3ff" fill-rule="evenodd" d="M55.407 22.455a32.6 32.6 0 0 1-8.785 3.519v8.615a5.6 5.6 0 0 0 .8 2.948c1.492 2.512 5.209 4.49 7.984 6.168 2.776-1.678 6.493-3.656 7.984-6.168a5.6 5.6 0 0 0 .8-2.948v-8.616a32.6 32.6 0 0 1-8.783-3.518"/><path fill-rule="evenodd" d="M52.236 32.074a1.062 1.062 0 1 0-1.839 1.062l2.042 3.54a1.06 1.06 0 0 0 .782.522 1 1 0 0 0 .14.01 1.06 1.06 0 0 0 .751-.312l6.132-6.131a1.062 1.062 0 1 0-1.5-1.5l-5.153 5.153-1.352-2.34Zm3.168-8.38a33.5 33.5 0 0 0 7.722 3.1v7.8A4.5 4.5 0 0 1 62.475 37c-1.171 1.972-4.033 3.669-6.556 5.167l-.515.3-.514-.3c-2.525-1.5-5.387-3.195-6.557-5.167a4.5 4.5 0 0 1-.652-2.406v-7.8a33.5 33.5 0 0 0 7.723-3.1m.562-2.141a31.4 31.4 0 0 0 8.485 3.391 1.06 1.06 0 0 1 .8 1.029v8.615a6.64 6.64 0 0 1-.949 3.49c-1.447 2.438-4.557 4.282-7.3 5.909q-.542.32-1.049.625a1.06 1.06 0 0 1-1.1 0q-.508-.3-1.048-.625c-2.743-1.627-5.853-3.472-7.3-5.91a6.65 6.65 0 0 1-.949-3.49v-8.614a1.06 1.06 0 0 1 .8-1.029 31.4 31.4 0 0 0 8.486-3.391 1.06 1.06 0 0 1 1.124 0m-1.623 32.414a6.4 6.4 0 0 0-3.578 3.205H40.034a6.362 6.362 0 0 0-11.438 0H17.865a6.4 6.4 0 0 0-3.578-3.205V11.111a2.13 2.13 0 0 1 2.126-2.125h6.752v1.992a1.06 1.06 0 0 0 1.062 1.063h20.176a1.06 1.06 0 0 0 1.062-1.063V8.987h6.753a2.127 2.127 0 0 1 2.125 2.125v6.607l-1.364.851a23.4 23.4 0 0 1-5.189 2.305H30.535a1.062 1.062 0 1 0 0 2.124h11.537a1 1 0 0 0-.031.241v6.044H30.535a1.062 1.062 0 1 0 0 2.124H42.04v2.651H30.535a1.063 1.063 0 0 0 0 2.125H42.16a10.1 10.1 0 0 0 1.324 3.691 12.6 12.6 0 0 0 2.083 2.594H30.535a1.063 1.063 0 0 0 0 2.125h17.637c1.243.872 2.55 1.65 3.789 2.387q.549.326 1.074.642l1.308.791zm2.141 1.753a4.239 4.239 0 1 0 4.238 4.239 4.244 4.244 0 0 0-4.238-4.239m0 10.637a10 10 0 0 0-9.855 7.995H66.34a10.01 10.01 0 0 0-9.856-7.994Zm-12.313 7.995a10.072 10.072 0 0 0-19.711 0Zm-22.168 0a10.073 10.073 0 0 0-19.712 0zm16.551-14.393a4.239 4.239 0 1 0-4.239 4.243 4.245 4.245 0 0 0 4.239-4.238Zm2.125 0a6 6 0 0 0-.035-.663h9.511a6 6 0 0 0-.035.663 6.35 6.35 0 0 0 2.369 4.943 12.2 12.2 0 0 0-7.086 6.446 12.2 12.2 0 0 0-7.093-6.446 6.35 6.35 0 0 0 2.369-4.943m-22.17 0a6 6 0 0 0-.034-.663h9.511a7 7 0 0 0-.034.663 6.35 6.35 0 0 0 2.367 4.943 12.2 12.2 0 0 0-7.089 6.441 12.2 12.2 0 0 0-7.088-6.441 6.36 6.36 0 0 0 2.367-4.943m-10.6 0a4.239 4.239 0 1 0 4.238-4.239 4.243 4.243 0 0 0-4.244 4.239Zm17.38-50.042H43.34v-3.16a.878.878 0 0 0-1.03-.866l-3.889.68a1.062 1.062 0 0 1-1.245-1.047v-.538a2.861 2.861 0 1 0-5.722 0v.538a1.064 1.064 0 0 1-1.246 1.047l-3.89-.68a.88.88 0 0 0-1.031.866Zm31.414 10.454a29 29 0 0 0 8.091 3.222l1.848.471v10.524a8.1 8.1 0 0 1-1.144 4.2c-1.619 2.727-4.87 4.66-7.737 6.365q-.555.329-1.088.65l-1.271.768-1.27-.768q-.535-.321-1.088-.65c-2.868-1.7-6.118-3.638-7.739-6.365a8.13 8.13 0 0 1-1.144-4.2V24.065l1.848-.471a28.9 28.9 0 0 0 8.094-3.223l1.3-.812Zm-.238 28.042v5.183h.018a6.36 6.36 0 0 1 3.996 11.306 12.2 12.2 0 0 1 8.147 10.414 1.064 1.064 0 0 1-1.059 1.157H1.063a1.063 1.063 0 0 1-1.06-1.153 12.2 12.2 0 0 1 8.148-10.418 6.36 6.36 0 0 1 3.995-11.31h.017V11.111a4.255 4.255 0 0 1 4.25-4.249h6.752v-.105a3 3 0 0 1 3.52-2.955l2.7.471a4.986 4.986 0 0 1 9.869 0l2.7-.471a3 3 0 0 1 3.52 2.958v.105h6.753a4.253 4.253 0 0 1 4.249 4.249v6.607l1.363.851a26.8 26.8 0 0 0 7.491 2.966l2.65.676a1.06 1.06 0 0 1 .8 1.029v11.345a10.2 10.2 0 0 1-1.442 5.286c-1.9 3.193-5.393 5.272-8.479 7.106q-.547.325-1.074.642l-1.307.791Zm-30.871-5.648-3.827 3.827-.911-1.575a1.062 1.062 0 1 0-1.839 1.062l1.6 2.774a1.07 1.07 0 0 0 .782.522 1 1 0 0 0 .14.009 1.07 1.07 0 0 0 .751-.311l4.805-4.806a1.062 1.062 0 0 0-1.5-1.5Zm0-13.185-3.826 3.822-.911-1.575a1.062 1.062 0 0 0-1.839 1.062l1.6 2.774a1.07 1.07 0 0 0 .782.522 1 1 0 0 0 .14.009 1.07 1.07 0 0 0 .751-.311l4.805-4.806a1.062 1.062 0 0 0-1.5-1.5Zm0-13.185-3.827 3.827-.911-1.575a1.062 1.062 0 1 0-1.839 1.063l1.6 2.773a1.06 1.06 0 0 0 .786.519 1 1 0 0 0 .14.01 1.07 1.07 0 0 0 .751-.311l4.802-4.799a1.062 1.062 0 0 0-1.5-1.5Zm22.978 30.85H30.535a1.062 1.062 0 0 0 0 2.124h18.037a1.062 1.062 0 1 0 0-2.124M29.473 17.161a1.06 1.06 0 0 0 1.062 1.062h18.157a1.063 1.063 0 0 0 0-2.125H30.535a1.063 1.063 0 0 0-1.062 1.063"/></g></g></svg>