<svg xmlns="http://www.w3.org/2000/svg" width="88.772" height="88.77" viewBox="0 0 88.772 88.77"><path fill="#ffc729" d="m46.019 48.822-1.887 3.064c.4.673.773 1.375 1.117 2.09l-7.675 3.837a12.886 12.886 0 1 0 0 10.366l7.675 3.837a27 27 0 0 1-1.117 2.09l1.89 3.064-6.071 6.071-3.067-1.885a21 21 0 0 1-5.985 2.477l-.83 3.508h-8.592l-.83-3.508a21 21 0 0 1-5.985-2.477l-3.064 1.89-6.071-6.074 1.89-3.064a21 21 0 0 1-2.477-5.985l-3.508-.831v-8.591l3.508-.83a21 21 0 0 1 2.477-5.985l-1.89-3.064 6.071-6.071 3.064 1.89a21 21 0 0 1 5.985-2.477l.83-3.508h8.591l.83 3.508a21 21 0 0 1 5.985 2.477l3.064-1.89Z"/><path fill="#fcd770" d="m37.57 57.811-5.14 2.577a7.159 7.159 0 1 0 0 5.212l5.14 2.577a12.886 12.886 0 1 1 0-10.366"/><path fill="#b4dd7f" d="M88.772 55.843v14.314H50.113v4.3l-4.868-2.434-7.675-3.837-5.14-2.577-5.226-2.612 5.226-2.606 5.14-2.577 7.675-3.837 4.868-2.434v4.3Z"/><path fill="#ffeaa7" d="M68.727 35.793H58.332a9.5 9.5 0 0 0-1.26-1.26 18.6 18.6 0 1 1 23.382-.043 8.7 8.7 0 0 0-1.317 1.3Z"/><path fill="#cf9e76" d="M80.182 35.793a2.87 2.87 0 0 1 2.864 2.864 2.884 2.884 0 0 1-2.864 2.864H57.273a2.87 2.87 0 0 1-2.864-2.864 2.884 2.884 0 0 1 2.864-2.864z"/><path fill="#b27946" d="M60.136 41.52h17.182a8.591 8.591 0 0 1-17.182 0"/><circle cx="4.241" cy="4.241" r="4.241" fill="#fcd770" transform="translate(64.676 15.904)"/><path d="M83.045 68.724h2.864v2.864h-2.864Zm-5.727 0h2.864v2.864h-2.864Zm-22.909 5.728h25.773v2.864H54.409Zm22.909 5.727h2.864v2.864h-2.864Zm-5.727 0h2.864v2.864h-2.864Zm-17.182 0h14.318v2.864H54.409Zm-5.727-20.045h2.864v2.864h-2.864Zm5.727 0h2.864v2.864h-2.864Zm5.727 0H63v2.864h-2.864Z"/><path d="m51.545 49.225-5.671 2.836c-.027-.05-.05-.1-.077-.153l2.042-3.3-7.679-7.673-3.3 2.04a22.8 22.8 0 0 0-4.771-1.977l-.889-3.773H20.343l-.888 3.773a22.7 22.7 0 0 0-4.771 1.977l-3.3-2.04-7.676 7.679 2.042 3.3a22.8 22.8 0 0 0-1.977 4.771L0 57.568v10.857l3.773.888a22.8 22.8 0 0 0 1.977 4.772l-2.042 3.3 7.679 7.679 3.3-2.04a22.7 22.7 0 0 0 4.771 1.977l.888 3.773H31.2l.888-3.771a22.8 22.8 0 0 0 4.773-1.978l3.3 2.04 7.679-7.679-2.042-3.3c.027-.05.05-.1.077-.153l5.673 2.835v-5.18h22.906v-2.863H48.682v3.41l-18.276-9.137 18.276-9.138v3.411h40.091v-2.864H51.545Zm-7.338 27.736-4.472 4.472-2.844-1.76-.749.455a19.9 19.9 0 0 1-5.59 2.318l-.852.209-.767 3.252h-6.322l-.766-3.253-.852-.209a19.9 19.9 0 0 1-5.593-2.32l-.749-.455-2.844 1.76-4.468-4.471 1.76-2.844-.455-.75a19.9 19.9 0 0 1-2.315-5.59l-.209-.85-3.256-.765v-6.324l3.253-.766.209-.852a19.9 19.9 0 0 1 2.315-5.593l.455-.75-1.759-2.84 4.472-4.472 2.844 1.76.749-.455a19.9 19.9 0 0 1 5.59-2.318l.852-.209.769-3.252h6.323l.766 3.253.852.209a19.9 19.9 0 0 1 5.59 2.318l.749.455 2.844-1.76 4.472 4.472-1.76 2.845.455.75c.143.235.253.484.387.726l-5.116 2.559a14.315 14.315 0 1 0 0 14.166l5.116 2.559c-.133.241-.243.49-.387.726l-.455.75ZM25.773 54.407a8.591 8.591 0 1 0 0 17.182 8.51 8.51 0 0 0 7.275-4.064l2.572 1.286a11.456 11.456 0 1 1 0-11.616l-2.572 1.286a8.5 8.5 0 0 0-7.275-4.074m4.7 11.824a5.66 5.66 0 0 1-4.7 2.494 5.727 5.727 0 1 1 0-11.454 5.66 5.66 0 0 1 4.7 2.494L24 62.998Z"/><path d="M55.302 34.862a4.281 4.281 0 0 0 1.97 8.09h1.562a10 10 0 0 0 19.8 0h1.548a4.281 4.281 0 0 0 1.977-8.085 19.983 19.983 0 0 0-.064-29.762 20.021 20.021 0 0 0-26.793 29.757m13.425 13.817a7.1 7.1 0 0 1-7-5.727h14.014a7.17 7.17 0 0 1-7.014 5.727m11.455-8.591h-22.91a1.432 1.432 0 1 1 0-2.864h22.91a1.432 1.432 0 1 1 0 2.864M68.727 22.906a2.864 2.864 0 1 1 2.864-2.864 2.867 2.867 0 0 1-2.864 2.864M51.64 18.213a17.183 17.183 0 1 1 27.91 15.161 11 11 0 0 0-1.039.987h-8.352v-8.794a5.727 5.727 0 1 0-2.864 0v8.794h-8.333a10 10 0 0 0-1-.938 17.18 17.18 0 0 1-6.327-15.21Z"/><path d="m63.637 9.774-1.274-2.56a14.25 14.25 0 0 0-7.954 12.829h2.864a11.4 11.4 0 0 1 6.364-10.269m5.09-1.185V5.725a14.4 14.4 0 0 0-3.181.355l.634 2.792a11.6 11.6 0 0 1 2.547-.283m11.405 12.522 2.852.263q.06-.659.06-1.332a15 15 0 0 0-.087-1.588l-2.846.314a12 12 0 0 1 .07 1.274c0 .36-.021.717-.049 1.069m2.21 3.375-2.72-.889a11.6 11.6 0 0 1-1.051 2.312l2.458 1.466a14.4 14.4 0 0 0 1.313-2.889m-3.232 5.416-2.078-1.97a11.5 11.5 0 0 1-1.94 1.638l1.591 2.38a14.4 14.4 0 0 0 2.427-2.048"/></svg>