<svg xmlns="http://www.w3.org/2000/svg" width="93.761" height="93.854" viewBox="0 0 93.761 93.854"><path fill="#ffe0b2" d="M80.899 93.853v-7.427a103.8 103.8 0 0 1 8.859-42.453A30.249 30.249 0 1 0 31.895 31.62v4.124l-12.1 19.8 10.815 3.483 1.295 11.782a5.5 5.5 0 0 0 5.466 4.9h9.553v18.144h33.973Z"/><ellipse cx="21.5" cy="22.5" fill="#fdcc15" rx="21.5" ry="22.5" transform="translate(41.129 8)"/><circle cx="9.5" cy="9.5" r="9.5" fill="#f44336" transform="translate(53.129 20)"/><path fill="#1bb9db" d="M0 35.562h46.377v6.416l16.5-11.915-16.5-11.916v6.416H0Z"/><path d="M84.349 9.158A31.4 31.4 0 0 0 62.142 0h-.374a31.3 31.3 0 0 0-19.49 7.014 31.8 31.8 0 0 0-10.617 16.175H10.822v2.75h36.93v-5.1l12.775 9.226-12.775 9.224v-5.1H19.064v2.75h10.493L17.714 56.315l11.629 3.745 1.2 10.9a6.865 6.865 0 0 0 6.833 6.123h8.179v16.77h2.75V74.331H37.373a4.12 4.12 0 0 1-4.1-3.673l-1.391-12.669-10-3.221 10.9-17.832h12.22v7.73l9.991-7.216a10.44 10.44 0 0 0 7.514 3.152 10.54 10.54 0 1 0 0-21.08 10.44 10.44 0 0 0-7.514 3.152l-9.991-7.216v7.73H34.521A28.815 28.815 0 0 1 61.8 2.752h.341A28.886 28.886 0 0 1 88.504 43.41a104.5 104.5 0 0 0-8.979 43.018v7.426h2.75v-7.427a101.7 101.7 0 0 1 8.739-41.894A31.58 31.58 0 0 0 84.35 9.157ZM62.508 22.272a7.791 7.791 0 1 1 0 15.581 7.72 7.72 0 0 1-5.252-2.037l7.967-5.754-7.967-5.754a7.72 7.72 0 0 1 5.252-2.036m-57.185.916h2.75v2.75h-2.75zm-5.323 0h2.574v2.75H0z"/><path d="M8.982 34.187h7.332v2.75H8.982z"/><path fill="#fff" d="M61.55 53.414a24 24 0 0 1-2.9-.3l.451-2.712a21 21 0 0 0 2.562.264Zm3.109-.078-.25-2.738a21 21 0 0 0 2.545-.394l.59 2.686a23 23 0 0 1-2.885.446m-9.043-.936a23 23 0 0 1-2.731-1.034l1.134-2.505a21 21 0 0 0 2.408.912Zm14.92-.382-.944-2.582a21 21 0 0 0 2.358-1.035l1.261 2.443a23 23 0 0 1-2.673 1.174Zm-20.4-2.123a24 24 0 0 1-2.374-1.7l1.74-2.132a21 21 0 0 0 2.1 1.5Zm25.737-.66-1.575-2.254a21 21 0 0 0 2.016-1.6l1.842 2.041a24 24 0 0 1-2.279 1.813Zm4.451-4.05-2.1-1.78a21 21 0 0 0 1.541-2.062l2.3 1.505a24 24 0 0 1-1.736 2.337Zm3.274-5.048-2.48-1.187a21 21 0 0 0 .963-2.387l2.61.866a23 23 0 0 1-1.088 2.708Zm1.873-5.723-2.7-.509a21 21 0 0 0 .317-2.556l2.745.169a24 24 0 0 1-.358 2.896Zm-2.4-5.814a21 21 0 0 0-.34-2.553l2.7-.532a24 24 0 0 1 .385 2.893Zm-1.043-5.207a21 21 0 0 0-.984-2.38l2.47-1.208a23 23 0 0 1 1.116 2.7Zm-2.354-4.762a21 21 0 0 0-1.561-2.05l2.08-1.8a24 24 0 0 1 1.768 2.322Zm-3.492-4a21 21 0 0 0-2.03-1.585l1.554-2.268a24 24 0 0 1 2.3 1.8Zm-26.68-.568-1.736-2.133a24 24 0 0 1 2.2-1.589l1.478 2.319a21 21 0 0 0-1.942 1.403m22.288-2.418a21 21 0 0 0-2.366-1.014l.922-2.59a23 23 0 0 1 2.684 1.15Zm-17.935-.3L52.7 8.85a23 23 0 0 1 2.722-1.058l.833 2.62a21 21 0 0 0-2.4.926ZM66.781 9.89a21 21 0 0 0-2.548-.372l.227-2.74a24 24 0 0 1 2.888.422Zm-7.859-.132-.475-2.708a24 24 0 0 1 2.9-.324l.134 2.746a21 21 0 0 0-2.558.279ZM41.978 31.437h-9.166v-2.751h9.165Zm-11.915 0h-2.75v-2.751h2.75Zm-5.5 0h-2.75v-2.751h2.749Z"/></svg>