<svg xmlns="http://www.w3.org/2000/svg" width="90.554" height="90.554" viewBox="0 0 90.554 90.554"><g transform="translate(1.283 1.283)"><g transform="translate(62.559)"><path fill="#fdcd56" fill-rule="evenodd" d="M24.593 14.821a2.815 2.815 0 0 0-1.99 4.8.835.835 0 0 1 0 1.181l-1.8 1.8a.835.835 0 0 1-1.181 0 2.815 2.815 0 0 0-4.8 1.99.835.835 0 0 1-.835.835h-2.543a.835.835 0 0 1-.835-.835 2.814 2.814 0 0 0-4.8-1.99.835.835 0 0 1-1.181 0l-1.8-1.8a.835.835 0 0 1 0-1.181 2.815 2.815 0 0 0-1.99-4.8.835.835 0 0 1-.835-.835v-2.543a.835.835 0 0 1 .835-.835 2.815 2.815 0 0 0 1.99-4.8.835.835 0 0 1 0-1.181l1.8-1.8a.835.835 0 0 1 1.181 0 2.815 2.815 0 0 0 4.8-1.99.835.835 0 0 1 .835-.835h2.543a.835.835 0 0 1 .835.835 2.815 2.815 0 0 0 4.8 1.99.835.835 0 0 1 1.181 0l1.8 1.8a.835.835 0 0 1 0 1.181 2.815 2.815 0 0 0 1.99 4.8.835.835 0 0 1 .835.835v2.543a.835.835 0 0 1-.835.835"/><circle cx="6.213" cy="6.213" r="6.213" fill="#f4f6f8" transform="translate(6.501 6.501)"/></g><g transform="translate(62.559 62.558)"><path fill="#fdcd56" fill-rule="evenodd" d="M24.593 14.822a2.815 2.815 0 0 0-1.99 4.8.835.835 0 0 1 0 1.181l-1.8 1.8a.835.835 0 0 1-1.181 0 2.815 2.815 0 0 0-4.8 1.99.835.835 0 0 1-.835.835h-2.543a.835.835 0 0 1-.835-.835 2.814 2.814 0 0 0-4.8-1.99.835.835 0 0 1-1.181 0l-1.8-1.8a.835.835 0 0 1 0-1.181 2.815 2.815 0 0 0-1.99-4.8.835.835 0 0 1-.835-.835v-2.543a.835.835 0 0 1 .835-.835 2.815 2.815 0 0 0 1.99-4.8.835.835 0 0 1 0-1.181l1.8-1.8a.835.835 0 0 1 1.181 0 2.815 2.815 0 0 0 4.8-1.99.835.835 0 0 1 .835-.835h2.543a.835.835 0 0 1 .835.835 2.815 2.815 0 0 0 4.8 1.99.835.835 0 0 1 1.181 0l1.8 1.8a.835.835 0 0 1 0 1.181 2.815 2.815 0 0 0 1.99 4.8.835.835 0 0 1 .835.835v2.543a.835.835 0 0 1-.835.835"/><circle cx="6.213" cy="6.213" r="6.213" fill="#f4f6f8" transform="translate(6.501 6.501)"/></g><g transform="translate(0 31.279)"><path fill="#fdcd56" fill-rule="evenodd" d="M24.593 14.821a2.815 2.815 0 0 0-1.99 4.8.835.835 0 0 1 0 1.181l-1.8 1.8a.835.835 0 0 1-1.181 0 2.815 2.815 0 0 0-4.8 1.99.835.835 0 0 1-.835.835h-2.544a.835.835 0 0 1-.835-.835 2.814 2.814 0 0 0-4.8-1.99.835.835 0 0 1-1.181 0l-1.8-1.8a.835.835 0 0 1 0-1.181 2.815 2.815 0 0 0-1.99-4.8.835.835 0 0 1-.835-.835v-2.543a.835.835 0 0 1 .835-.835 2.815 2.815 0 0 0 1.99-4.8.835.835 0 0 1 0-1.181l1.8-1.8a.835.835 0 0 1 1.181 0 2.815 2.815 0 0 0 4.8-1.99.835.835 0 0 1 .835-.835h2.543a.835.835 0 0 1 .835.835 2.815 2.815 0 0 0 4.8 1.99.835.835 0 0 1 1.181 0l1.8 1.8a.835.835 0 0 1 0 1.181 2.815 2.815 0 0 0 1.99 4.8.835.835 0 0 1 .835.835v2.543a.835.835 0 0 1-.834.835"/><circle cx="6.213" cy="6.213" r="6.213" fill="#f4f6f8" transform="rotate(-80.8 13.276 5.643)"/></g><path fill="#66d4f1" fill-rule="evenodd" d="M26.764 69.892a4.414 4.414 0 1 1-4.414 4.414 4.414 4.414 0 0 1 4.414-4.414m0-51.788a4.414 4.414 0 1 0-4.414-4.414 4.414 4.414 0 0 0 4.414 4.409Zm12.231 11.574h10a1.837 1.837 0 0 1 1.833 1.833v24.962a1.837 1.837 0 0 1-1.833 1.833h-10a1.837 1.837 0 0 1-1.833-1.833V31.511a1.837 1.837 0 0 1 1.833-1.833"/><g transform="translate(62.559 31.279)"><path fill="#636c77" fill-rule="evenodd" d="M24.593 14.821a2.815 2.815 0 0 0-1.99 4.8.835.835 0 0 1 0 1.181l-1.8 1.8a.835.835 0 0 1-1.181 0 2.815 2.815 0 0 0-4.8 1.99.835.835 0 0 1-.835.835h-2.543a.835.835 0 0 1-.835-.835 2.814 2.814 0 0 0-4.8-1.99.835.835 0 0 1-1.181 0l-1.8-1.8a.835.835 0 0 1 0-1.181 2.815 2.815 0 0 0-1.99-4.8.835.835 0 0 1-.835-.835v-2.543a.835.835 0 0 1 .835-.835 2.815 2.815 0 0 0 1.99-4.8.835.835 0 0 1 0-1.181l1.8-1.8a.835.835 0 0 1 1.181 0 2.815 2.815 0 0 0 4.8-1.99.835.835 0 0 1 .835-.835h2.543a.835.835 0 0 1 .835.835 2.815 2.815 0 0 0 4.8 1.99.835.835 0 0 1 1.181 0l1.8 1.8a.835.835 0 0 1 0 1.181 2.815 2.815 0 0 0 1.99 4.8.835.835 0 0 1 .835.835v2.543a.835.835 0 0 1-.835.835"/><circle cx="6.213" cy="6.213" r="6.213" fill="#f4f6f8" transform="translate(6.501 6.501)"/></g></g><path fill-rule="evenodd" d="M14.001 50.208a4.93 4.93 0 1 1 4.931-4.93 4.935 4.935 0 0 1-4.931 4.93m0-12.427a7.5 7.5 0 1 0 7.5 7.5 7.506 7.506 0 0 0-7.5-7.5m62.56 33.846a4.93 4.93 0 1 1-4.931 4.93 4.94 4.94 0 0 1 4.927-4.93Zm0 12.426a7.5 7.5 0 1 0-7.5-7.5 7.505 7.505 0 0 0 7.496 7.5Zm0-43.705a4.93 4.93 0 1 1-4.931 4.931 4.94 4.94 0 0 1 4.931-4.931m0 12.426a7.5 7.5 0 1 0-7.5-7.5 7.5 7.5 0 0 0 7.496 7.5Zm8.1-35.422a4.02 4.02 0 0 0 .586 4.13l-1.2 1.2a4.1 4.1 0 0 0-6.64 2.75H75.71a4.1 4.1 0 0 0-6.638-2.75l-1.2-1.2a4.1 4.1 0 0 0-2.749-6.638v-1.692a4.1 4.1 0 0 0 2.749-6.637l1.2-1.2a4.1 4.1 0 0 0 6.638-2.749h1.691a4.1 4.1 0 0 0 6.64 2.749l1.2 1.2a4.1 4.1 0 0 0 2.743 6.637v1.692a4.02 4.02 0 0 0-3.329 2.508ZM65.126 44.431v1.692a4.1 4.1 0 0 1 2.749 6.637l1.2 1.2a4.1 4.1 0 0 1 6.638 2.749h1.688a4.1 4.1 0 0 1 6.64-2.749l1.2-1.2a4.1 4.1 0 0 1 2.743-6.637v-1.692a4.1 4.1 0 0 1-2.742-6.632l-1.2-1.2a4.1 4.1 0 0 1-6.64-2.749H75.71a4.1 4.1 0 0 1-6.638 2.749l-1.2 1.2a4.1 4.1 0 0 1-2.749 6.637Zm3.946 23.443-1.2 1.2a4.1 4.1 0 0 1-2.749 6.639v1.686a4.1 4.1 0 0 1 2.749 6.637l1.2 1.2a4.1 4.1 0 0 1 6.638 2.748h1.691a4.1 4.1 0 0 1 6.64-2.748l1.2-1.2a4.1 4.1 0 0 1 2.743-6.637v-1.688a4.1 4.1 0 0 1-2.743-6.639l-1.2-1.2a4.1 4.1 0 0 1-6.64-2.749H75.71a4.1 4.1 0 0 1-6.638 2.749Zm-18.246-9.565h-11.1V32.245h11.1Zm-25.4-12.186v-1.692a4.1 4.1 0 0 1-2.747-6.632l-1.2-1.2a4.1 4.1 0 0 1-6.638-2.749H13.15a4.1 4.1 0 0 1-6.637 2.749l-1.2 1.2a4.1 4.1 0 0 1-2.749 6.637v1.692a4.1 4.1 0 0 1 2.749 6.637l1.2 1.2a4.1 4.1 0 0 1 6.637 2.749h1.694a4.1 4.1 0 0 1 6.638-2.749l1.2-1.2a4.1 4.1 0 0 1 2.749-6.637Zm2.619 26.333a3.131 3.131 0 1 1-3.131 3.131 3.134 3.134 0 0 1 3.134-3.131Zm0-60.617a3.131 3.131 0 1 1-3.131 3.131 3.135 3.135 0 0 1 3.134-3.132Zm60.388 5.55a2.12 2.12 0 0 0 2.122-2.12v-2.542a2.12 2.12 0 0 0-2.122-2.119 1.533 1.533 0 0 1-1.078-2.609 2.134 2.134 0 0 0 0-3l-1.8-1.8a2.113 2.113 0 0 0-2.993 0 1.532 1.532 0 0 1-2.613-1.083 2.12 2.12 0 0 0-2.12-2.117h-2.544a2.12 2.12 0 0 0-2.118 2.119 1.532 1.532 0 0 1-2.613 1.081 2.116 2.116 0 0 0-3 0l-1.8 1.8a2.123 2.123 0 0 0 0 3 1.531 1.531 0 0 1-1.083 2.612 2.12 2.12 0 0 0-2.117 2.119v2.539a2.12 2.12 0 0 0 2.117 2.12 1.531 1.531 0 0 1 1.089 2.61 2.125 2.125 0 0 0 0 3l.142.142-12.509 18.036V30.963a1.28 1.28 0 0 0-1.283-1.283H38.446a1.28 1.28 0 0 0-1.283 1.283v13.036h-9.168a2.12 2.12 0 0 0-2.116-2.109 1.532 1.532 0 0 1-1.084-2.612 2.12 2.12 0 0 0 0-3l-1.8-1.8a2.12 2.12 0 0 0-3 0 1.532 1.532 0 0 1-2.608-1.079 2.12 2.12 0 0 0-2.106-2.117v-15.03h7.22a5.7 5.7 0 1 0 0-2.567h-8.5a1.284 1.284 0 0 0-1.283 1.283v16.313a2.12 2.12 0 0 0-2.11 2.118 1.532 1.532 0 0 1-2.614 1.082 2.12 2.12 0 0 0-3 0l-1.8 1.8a2.123 2.123 0 0 0 0 3 1.531 1.531 0 0 1-1.082 2.612 2.12 2.12 0 0 0-2.111 2.113v2.542a2.12 2.12 0 0 0 2.119 2.119 1.531 1.531 0 0 1 1.081 2.613 2.125 2.125 0 0 0 0 3l1.8 1.8a2.114 2.114 0 0 0 3 0 1.532 1.532 0 0 1 2.614 1.083 2.12 2.12 0 0 0 2.106 2.117v16.306a1.284 1.284 0 0 0 1.28 1.284h8.5a5.7 5.7 0 1 0 0-2.567H15.28V59.274a2.12 2.12 0 0 0 2.106-2.117 1.534 1.534 0 0 1 2.615-1.084 2.114 2.114 0 0 0 3 0l1.8-1.8a2.12 2.12 0 0 0 0-3 1.532 1.532 0 0 1 1.084-2.612 2.12 2.12 0 0 0 2.116-2.106h9.168v13.038a1.283 1.283 0 0 0 1.283 1.283h13.657a1.283 1.283 0 0 0 1.283-1.283V49.379l12.509 18.038-.142.142a2.12 2.12 0 0 0 0 3 1.531 1.531 0 0 1-1.083 2.612 2.12 2.12 0 0 0-2.117 2.119v2.542a2.12 2.12 0 0 0 2.117 2.119 1.531 1.531 0 0 1 1.083 2.612 2.12 2.12 0 0 0 0 3l1.8 1.8a2.114 2.114 0 0 0 3 0 1.531 1.531 0 0 1 2.613 1.083 2.12 2.12 0 0 0 2.118 2.117h2.544a2.12 2.12 0 0 0 2.117-2.117 1.533 1.533 0 0 1 2.613-1.083 2.11 2.11 0 0 0 2.993 0l1.8-1.8a2.12 2.12 0 0 0 0-3 1.533 1.533 0 0 1 1.078-2.612 2.12 2.12 0 0 0 2.122-2.119v-2.546a2.12 2.12 0 0 0-2.122-2.119 1.533 1.533 0 0 1-1.078-2.612 2.12 2.12 0 0 0 0-3l-1.8-1.8a2.116 2.116 0 0 0-2.993 0 1.532 1.532 0 0 1-2.613-1.082 2.12 2.12 0 0 0-2.117-2.119h-2.549a2.12 2.12 0 0 0-2.118 2.119 1.532 1.532 0 0 1-2.613 1.082 2.117 2.117 0 0 0-2.8-.172L54.562 46.562h8a2.12 2.12 0 0 0 2.117 2.106 1.531 1.531 0 0 1 1.083 2.612 2.125 2.125 0 0 0 0 3l1.8 1.8a2.114 2.114 0 0 0 3 0 1.531 1.531 0 0 1 2.613 1.083 2.12 2.12 0 0 0 2.118 2.119h2.544a2.12 2.12 0 0 0 2.117-2.119 1.534 1.534 0 0 1 2.613-1.083 2.11 2.11 0 0 0 2.993 0l1.8-1.8a2.134 2.134 0 0 0 0-3 1.533 1.533 0 0 1 1.078-2.612 2.12 2.12 0 0 0 2.122-2.119v-2.543a2.12 2.12 0 0 0-2.122-2.119 1.533 1.533 0 0 1-1.078-2.612 2.117 2.117 0 0 0 0-3l-1.8-1.8a2.116 2.116 0 0 0-2.993 0 1.532 1.532 0 0 1-2.621-1.076 2.12 2.12 0 0 0-2.117-2.119h-2.544a2.12 2.12 0 0 0-2.118 2.119 1.532 1.532 0 0 1-2.613 1.082 2.12 2.12 0 0 0-3 0l-1.8 1.8a2.123 2.123 0 0 0 0 3 1.531 1.531 0 0 1-1.083 2.612 2.12 2.12 0 0 0-2.112 2.106h-8l13.197-19.031a2.116 2.116 0 0 0 2.8-.172 1.53 1.53 0 0 1 2.613 1.081 2.12 2.12 0 0 0 2.116 2.122h2.544a2.12 2.12 0 0 0 2.117-2.12 1.534 1.534 0 0 1 2.613-1.083 2.113 2.113 0 0 0 2.993 0l1.8-1.8a2.134 2.134 0 0 0 0-3 1.532 1.532 0 0 1 1.078-2.611Zm-11.876 1.539a4.93 4.93 0 1 0-4.931-4.929 4.94 4.94 0 0 0 4.931 4.929m0-12.427a7.5 7.5 0 1 0 7.494 7.498 7.507 7.507 0 0 0-7.494-7.5Z"/></svg>