<svg xmlns="http://www.w3.org/2000/svg" width="84.286" height="83.726" viewBox="0 0 84.286 83.726"><g transform="translate(1.346 1.35)"><path fill="#dfb28b" d="M39.103 23.254a8.1 8.1 0 0 0-2.651-15.043A8 8 0 0 0 34.98 8.1h-.014a5.6 5.6 0 0 0 .149-1.35 6.752 6.752 0 0 0-13.5 0 6.752 6.752 0 0 0-13.5 0 5.6 5.6 0 0 0 .14 1.35h-.013a8 8 0 0 0-1.472.108 8.1 8.1 0 0 0-2.647 15.046A9.456 9.456 0 0 0 2.84 37.812h36.948l.014.014c.486-.365.972-.7 1.485-1.026v-.014a9.35 9.35 0 0 0 1.931-5.726 9.45 9.45 0 0 0-4.115-7.806"/><path fill="#fcd770" d="M21.611 59.419v21.458A24.32 24.32 0 0 1 .004 56.718V39.162a1.354 1.354 0 0 1 1.35-1.35h20.257v9.453l-1.323-.662a6.6 6.6 0 0 0-2.93-.689 6.547 6.547 0 0 0-6.55 6.55 6.96 6.96 0 0 0 6.955 6.955Z"/><path fill="#f0d0b4" d="M53.238 67.521a18.92 18.92 0 0 1-18.123 13.5H24.308a26 26 0 0 1-2.7-.149V59.419h-3.845a6.96 6.96 0 0 1-6.955-6.955 6.547 6.547 0 0 1 6.55-6.55 6.6 6.6 0 0 1 2.93.689l1.323.662v-9.453h18.177l.014.014a27.55 27.55 0 0 0-7.387 8.086 27.81 27.81 0 0 0 21.607 13.41v2.8a18.8 18.8 0 0 1-.783 5.4Z"/><path fill="#e6e9ed" d="M56.722 59.418a13.504 13.504 0 1 0 0-27.008h.459a27.83 27.83 0 0 1 23.849 13.5 27.83 27.83 0 0 1-23.849 13.5Z"/><path fill="#e6e9ed" d="M56.264 59.418c-.756 0-1.5-.027-2.242-.095A27.81 27.81 0 0 1 32.415 45.91a27.55 27.55 0 0 1 7.387-8.089c.486-.365.972-.7 1.485-1.026.419-.27.837-.527 1.269-.77a27.74 27.74 0 0 1 13.708-3.615h.459a13.504 13.504 0 1 0 0 27.008Z"/><path fill="#69d6f4" d="M70.227 45.91a13.5 13.5 0 1 1-13.509-13.5 13.51 13.51 0 0 1 13.509 13.5"/><circle cx="8" cy="8" r="8" fill="#4fc1e9" transform="translate(48.423 37.65)"/></g><path d="M58.068 37.812a9.453 9.453 0 1 0 9.453 9.453 9.464 9.464 0 0 0-9.453-9.453m0 16.205a6.752 6.752 0 1 1 6.752-6.752 6.76 6.76 0 0 1-6.752 6.752"/><path d="M58.525 32.41h-.913a29.1 29.1 0 0 0-12.059 2.647 10.53 10.53 0 0 0-2.907-10.363 9 9 0 0 0 .886-.862 9.455 9.455 0 0 0-5.511-15.6c-.07-.011-.142-.015-.213-.024 0-.035.005-.068.005-.1a8.1 8.1 0 0 0-14.855-4.47A8.1 8.1 0 0 0 8.1 8.1c0 .034.005.068.005.1-.07.009-.142.014-.212.024a9.455 9.455 0 0 0-5.512 15.6 9 9 0 0 0 .886.862A10.74 10.74 0 0 0 1.6 38.052 2.7 2.7 0 0 0 0 40.513v17.555a25.686 25.686 0 0 0 25.658 25.658h10.8a20.28 20.28 0 0 0 20.26-20.256v-1.38c.3.009.594.03.894.03h.913a29.32 29.32 0 0 0 25.01-14.16l.416-.7-.417-.7a29.31 29.31 0 0 0-25.009-14.15m-.456 27.008a12.154 12.154 0 1 1 12.153-12.153 12.167 12.167 0 0 1-12.154 12.154ZM47.041 37.347a14.764 14.764 0 0 0 0 19.835 26.55 26.55 0 0 1-11.689-9.917 26.55 26.55 0 0 1 11.689-9.918M29.709 2.7a5.4 5.4 0 0 1 3.24 9.723l1.622 2.161a8.06 8.06 0 0 0 2.758-3.708c.086.011.174.005.261.019a6.81 6.81 0 0 1 5.573 5.831 6.753 6.753 0 0 1-6.7 7.581h-.533a7.73 7.73 0 0 1-6.446-3.45l-2.247 1.5a10.4 10.4 0 0 0 4.044 3.543 5.4 5.4 0 0 0-1.572 3.805h2.7a2.7 2.7 0 0 1 2.7-2.7h1.35a9.45 9.45 0 0 0 3.83-.814 8.064 8.064 0 0 1 1.34 11.01c-.3.193-.581.4-.87.608H24.308V8.1a5.407 5.407 0 0 1 5.4-5.4ZM5.622 26.194a9.5 9.5 0 0 0 3.831.814H10.8a2.7 2.7 0 0 1 2.7 2.7h2.7a5.4 5.4 0 0 0-1.572-3.8 10.4 10.4 0 0 0 4.046-3.549l-2.247-1.5a7.73 7.73 0 0 1-6.446 3.449h-.528a6.754 6.754 0 0 1-1.128-13.414c.086-.014.173-.008.259-.019a8.05 8.05 0 0 0 2.758 3.708l1.622-2.161A5.4 5.4 0 1 1 21.607 8.1v29.712H4.776a8.07 8.07 0 0 1 .845-11.618ZM2.7 58.068V40.513h18.907v5.953A7.9 7.9 0 0 0 10.8 53.82a8.31 8.31 0 0 0 8.3 8.3h2.5v18.526A22.98 22.98 0 0 1 2.7 58.068m51.316 5.4a17.5 17.5 0 0 1-.49 4.051H43.214a5.407 5.407 0 0 1-5.4-5.4h-2.7a8.11 8.11 0 0 0 8.1 8.1h9.449a17.58 17.58 0 0 1-16.2 10.8h-10.8c-.456 0-.9-.042-1.35-.069V59.419H19.1a5.6 5.6 0 0 1-5.6-5.6 5.2 5.2 0 0 1 7.533-4.655l3.275 1.636V40.513h13.157a29 29 0 0 0-4.865 6.056l-.416.7.417.7a29.33 29.33 0 0 0 21.416 13.919ZM69.1 57.182a14.764 14.764 0 0 0 0-19.835 26.56 26.56 0 0 1 11.691 9.917A26.57 26.57 0 0 1 69.1 57.182"/><path d="m16.809 53.807 1.499-2.246 4.051 2.702-1.498 2.247Zm42.61 21.817h2.7v2.7h-2.7Zm5.402 0h2.7v2.7h-2.7Zm5.401 0h2.7v2.7h-2.7Zm5.402 0h2.7v2.7h-2.7Zm-5.798-42.259 5.006-5.005-5.006-5.006-1.911 1.906 1.746 1.746H48.615v2.7h21.048l-1.748 1.754ZM67.914 9.853l1.91 1.909 5.009-5.009-5.006-5.007-1.913 1.907 1.746 1.746H43.214v2.7h26.449Zm-19.299 6.352v2.7h30.5l-1.745 1.751 1.91 1.909 5.005-5.009-5.006-5.007-1.909 1.907 1.745 1.749Z"/></svg>