<svg xmlns="http://www.w3.org/2000/svg" width="1328.167" height="414.659" viewBox="0 0 1328.167 414.659"><defs><clipPath id="a"><path fill="#cbc232" d="M19.118 0h1289.931c10.558 0 19.118 6.957 19.118 15.539V399.12c0 8.582-8.559 15.54-19.118 15.54H19.118C8.559 414.659 0 407.7 0 399.12V15.539C0 6.957 8.559 0 19.118 0"/></clipPath><clipPath><path fill="#21c9b8" d="M284 0c156.849 0 284 114.765 284 256.335S440.849 512.669 284 512.669 0 397.9 0 256.335 127.151 0 284 0"/></clipPath><clipPath id="c"><path fill="none" d="M0 0h414.902v391.007H0z"/></clipPath><clipPath id="d"><path fill="#fff" stroke="#fff" d="M0 0h128.758v123.827H0z"/></clipPath><path id="b" fill="#a5b9f6" d="M354.312 0c195.681 0 354.312 149.495 354.312 333.906S549.993 667.812 354.312 667.812 0 518.317 0 333.906 158.631 0 354.312 0"/></defs><g clip-path="url(#a)"><path fill="#dbe3fb" d="M-73.434 1.449h1443.878v527.54H-73.434Z"/><path fill="#dbe3fb" d="M1213.749 13.094c146.65 0 265.533 112.036 265.533 250.24s-118.884 250.24-265.533 250.24-265.533-112.036-265.533-250.24 118.883-250.24 265.533-250.24M594.876 305.172c146.65 0 265.533 112.036 265.533 250.24s-118.884 250.24-265.533 250.24-265.533-112.036-265.533-250.24 118.883-250.24 265.533-250.24" opacity=".14"/><path fill="#dbe3fb" d="M1203.318-101.068c146.65 0 265.533 112.036 265.533 250.24s-118.884 250.24-265.533 250.24-265.533-112.036-265.533-250.24 118.883-250.24 265.533-250.24" opacity="0"/><path fill="#dbe3fb" d="M1051.133 319.499h7.285v1.831h-7.285z"/><ellipse cx="139.933" cy="126.302" fill="#cbc232" rx="139.933" ry="126.302" transform="translate(805.812 -58.746)"/><ellipse cx="139.933" cy="126.302" fill="#faf9ea" rx="139.933" ry="126.302" transform="translate(1092.491 -58.746)"/><path fill="#a5b9f6" d="M945.744 190.005c79.16 0 143.34 57.924 143.34 129.377s-64.18 129.376-143.34 129.376-143.34-57.924-143.34-129.376 64.175-129.377 143.34-129.377"/><path fill="#ff7e5d" d="M1232.424 190.005c79.16 0 143.34 57.924 143.34 129.377s-64.18 129.376-143.34 129.376-143.34-57.924-143.34-129.376 64.175-129.377 143.34-129.377"/><use href="#b" opacity=".23" style="mix-blend-mode:multiply;isolation:isolate" transform="translate(-259.996 356.236)"/><use href="#b" opacity=".23" style="mix-blend-mode:multiply;isolation:isolate" transform="translate(-581.243 -434.974)"/><path fill="#f6f8fe" d="M354.312 0c195.681 0 354.312 149.495 354.312 333.906S549.993 667.812 354.312 667.812 0 518.317 0 333.906 158.631 0 354.312 0" opacity=".51" style="mix-blend-mode:lighten;isolation:isolate" transform="translate(29.068 -372.375)"/><g clip-path="url(#c)" transform="translate(-31.521 -276.086)"><path fill="#a5b9f6" d="M414.9 195.5a186 186 0 0 0-.971-18.7h-96.324l90.3-31.706a187.6 187.6 0 0 0-13.851-35.062l-108.1 37.948 81.551-76.86a203 203 0 0 0-28.076-26.452L271.3 108.875l40.049-82.565a212.6 212.6 0 0 0-36.1-15.575l-47.94 98.844V.909C220.768.328 214.15 0 207.448 0S194.135.328 187.6.909V91.7L153.959 6.6a213 213 0 0 0-37.211 13.053l40.268 101.867-81.551-76.854a204 204 0 0 0-28.076 26.453l68.133 64.209L27.918 97.59a189.6 189.6 0 0 0-16.527 34.023L116.276 176.8H.964C.348 182.96 0 189.19 0 195.5s.348 12.553.964 18.714H97.3L7 245.914a187 187 0 0 0 13.851 35.074l108.089-37.954-81.551 76.848a203 203 0 0 0 28.076 26.459l68.135-64.209-40.044 82.559a213 213 0 0 0 36.1 15.581l47.944-98.845V390.1c6.538.581 13.156.909 19.852.909s13.32-.328 19.858-.909v-90.793l33.637 85.1a214.6 214.6 0 0 0 37.211-13.047L257.88 269.493l81.551 76.848a202.5 202.5 0 0 0 28.076-26.459l-68.133-64.209 87.6 37.75a190 190 0 0 0 16.537-34.023l-104.885-45.185h115.306a186 186 0 0 0 .968-18.715" opacity=".12"/></g><path fill="#fff" d="M307.403 741.832c-7.456 0-15.252-.357-23.171-1.06l-.456-.041V615.85l-55.1 113.586-.415-.135a249 249 0 0 1-42.131-18.185l-.418-.228.208-.428 45.463-93.731-77.7 73.23-.338-.263a238 238 0 0 1-32.777-30.889l-.318-.363.351-.331 93.29-87.91-124.118 43.575-.2-.386a218.7 218.7 0 0 1-16.172-40.954l-.128-.452.443-.156 102.436-35.958H66.401l-.045-.45a218 218 0 0 1-1.126-21.852c0-7.025.379-14.372 1.126-21.837l.045-.45h132.364L78.369 439.416l.163-.444a222 222 0 0 1 19.3-39.726l.227-.368 99.85 43.013-77.665-73.19.318-.363a238.5 238.5 0 0 1 32.776-30.881l.338-.263.312.294 93.372 87.995-46.259-117.027.43-.2a249.4 249.4 0 0 1 43.438-15.24l.425-.106 38.382 97.1V286.416l.454-.04c7.919-.7 15.715-1.06 23.171-1.06s15.259.357 23.179 1.06l.456.041v124.881l55.094-113.582.414.135a249 249 0 0 1 42.144 18.181l.418.228-.208.429-45.468 93.734 77.7-73.229.338.263a237.7 237.7 0 0 1 32.777 30.882l.318.363-93.642 88.254 124.119-43.572.2.386a219.6 219.6 0 0 1 16.173 40.94l.128.452-102.873 36.121h109.737l.045.45a211 211 0 0 1 0 43.69l-.045.45H416.048l120.4 51.868-.163.444a222.7 222.7 0 0 1-19.3 39.726l-.227.368-.4-.171-99.451-42.856 77.659 73.187-.317.363a237 237 0 0 1-32.777 30.889l-.338.263-.312-.294-93.372-87.988 46.268 117.034-.431.2a251 251 0 0 1-43.437 15.23l-.425.107-.161-.408-38.221-96.7v103.6l-.456.041c-7.924.699-15.723 1.056-23.184 1.056m-22.627-2.016c7.732.674 15.343 1.016 22.627 1.016s14.9-.342 22.634-1.016V634.504l.965-.184 39.028 98.737a250 250 0 0 0 42.4-14.865l-46.739-118.238.808-.548 94.693 89.232a236 236 0 0 0 31.982-30.133l-79.022-74.471.541-.823 101.659 43.805a221.7 221.7 0 0 0 18.827-38.735l-121.749-52.45.2-.959H547.5c.719-7.25 1.083-14.415 1.083-21.3s-.364-14.038-1.083-21.288H435.73l-.166-.972 104.753-36.781a218.6 218.6 0 0 0-15.766-39.915L399.03 458.68l-.509-.836 94.654-89.21a236.7 236.7 0 0 0-31.982-30.126l-79.055 74.508-.793-.582 46.443-95.757a248 248 0 0 0-41.142-17.744l-55.659 114.759-.95-.218V287.332c-7.733-.674-15.346-1.016-22.634-1.016s-14.894.342-22.627 1.016v105.312l-.965.184-39.025-98.73a248.4 248.4 0 0 0-42.407 14.872l46.736 118.231-.808.548-94.693-89.24a237.6 237.6 0 0 0-31.984 30.126l79.022 74.471-.541.823-101.657-43.793a221 221 0 0 0-18.824 38.735l121.754 52.453-.2.959H67.306c-.714 7.277-1.076 14.433-1.076 21.287 0 6.958.352 13.931 1.076 21.3h111.781l.166.972-104.762 36.774a217.7 217.7 0 0 0 15.772 39.929l125.514-44.072.509.836-94.656 89.197a237 237 0 0 0 31.982 30.133l79.061-74.508.793.582-46.436 95.75a248 248 0 0 0 41.13 17.753l55.67-114.761.95.218Z"/><path fill="#e9dcbf" d="M1081.549 367.541h7.285v1.831h-7.285z"/><g fill="#fff" clip-path="url(#d)" style="isolation:isolate" transform="translate(766.861 139.508)"><path d="M15.174 0a2.48 2.48 0 0 0-2.484 2.084c-.774 5.146-5.043 9.025-10.49 9.84A2.46 2.46 0 0 0 0 14.289a2.465 2.465 0 0 0 2.213 2.368c5.476.786 9.753 4.691 10.495 9.837a2.521 2.521 0 0 0 4.964.042A12.135 12.135 0 0 1 28.2 16.6a2.33 2.33 0 0 0 2.139-2.242V14.3a2.414 2.414 0 0 0-2.194-2.325 12.13 12.13 0 0 1-10.492-9.913A2.47 2.47 0 0 0 15.174 0"/><path d="M15.193 29.095a2.965 2.965 0 0 1-2.98-2.529c-.7-4.866-4.749-8.649-10.071-9.414A2.956 2.956 0 0 1-.5 14.289a2.956 2.956 0 0 1 2.622-2.86c5.3-.792 9.345-4.578 10.074-9.42a3.021 3.021 0 0 1 5.951-.023 11.625 11.625 0 0 0 10.068 9.494 2.9 2.9 0 0 1 2.628 2.82v.056a2.65 2.65 0 0 1-.755 1.844 3.06 3.06 0 0 1-1.823.894 11.62 11.62 0 0 0-10.1 9.521 2.97 2.97 0 0 1-2.972 2.48M15.174.5a1.976 1.976 0 0 0-1.989 1.659 11.63 11.63 0 0 1-3.648 6.835 13.54 13.54 0 0 1-7.267 3.424A1.965 1.965 0 0 0 .5 14.289a1.965 1.965 0 0 0 1.784 1.873c5.766.828 10.154 4.952 10.919 10.261a2.021 2.021 0 0 0 3.976.034A12.62 12.62 0 0 1 28.141 16.1a1.826 1.826 0 0 0 1.7-1.745V14.3a1.915 1.915 0 0 0-1.761-1.829A12.63 12.63 0 0 1 17.159 2.138 1.965 1.965 0 0 0 15.174.5M47.979 0a2.48 2.48 0 0 0-2.484 2.084C44.72 7.23 40.452 11.109 35 11.924a2.46 2.46 0 0 0-2.2 2.365 2.465 2.465 0 0 0 2.213 2.368c5.476.786 9.753 4.691 10.495 9.837a2.521 2.521 0 0 0 4.964.042A12.135 12.135 0 0 1 61.008 16.6a2.33 2.33 0 0 0 2.139-2.242V14.3a2.414 2.414 0 0 0-2.194-2.325 12.13 12.13 0 0 1-10.491-9.913A2.474 2.474 0 0 0 47.979 0"/><path d="M47.998 29.095a2.965 2.965 0 0 1-2.98-2.529c-.7-4.866-4.749-8.649-10.071-9.414a2.956 2.956 0 0 1-2.641-2.863 2.956 2.956 0 0 1 2.622-2.86c5.3-.792 9.345-4.578 10.074-9.42a3.022 3.022 0 0 1 5.953-.023A11.62 11.62 0 0 0 61.02 11.48a2.9 2.9 0 0 1 2.628 2.82v.056a2.65 2.65 0 0 1-.755 1.844 3.06 3.06 0 0 1-1.823.894 11.62 11.62 0 0 0-10.1 9.521 2.97 2.97 0 0 1-2.972 2.48M47.979.5a1.976 1.976 0 0 0-1.989 1.659 11.63 11.63 0 0 1-3.648 6.835 13.54 13.54 0 0 1-7.267 3.424 1.965 1.965 0 0 0-1.77 1.87 1.965 1.965 0 0 0 1.784 1.873c5.766.828 10.154 4.952 10.919 10.261a2.021 2.021 0 0 0 3.976.034A12.62 12.62 0 0 1 60.946 16.1a1.826 1.826 0 0 0 1.7-1.745V14.3a1.915 1.915 0 0 0-1.761-1.829A12.63 12.63 0 0 1 49.962 2.138 1.97 1.97 0 0 0 47.979.5M80.784 0A2.48 2.48 0 0 0 78.3 2.084c-.776 5.146-5.043 9.025-10.494 9.84a2.46 2.46 0 0 0-2.2 2.365 2.465 2.465 0 0 0 2.218 2.368c5.476.786 9.753 4.691 10.495 9.837a2.521 2.521 0 0 0 4.964.042 12.135 12.135 0 0 1 10.53-9.936 2.33 2.33 0 0 0 2.139-2.242V14.3a2.414 2.414 0 0 0-2.194-2.325 12.13 12.13 0 0 1-10.495-9.913A2.47 2.47 0 0 0 80.784 0"/><path d="M80.803 29.095a2.965 2.965 0 0 1-2.98-2.529c-.7-4.866-4.749-8.649-10.071-9.414a2.956 2.956 0 0 1-2.641-2.863 2.956 2.956 0 0 1 2.622-2.86c5.3-.792 9.345-4.578 10.074-9.42a3.021 3.021 0 0 1 5.951-.023 11.625 11.625 0 0 0 10.066 9.494 2.9 2.9 0 0 1 2.628 2.82v.056a2.65 2.65 0 0 1-.755 1.844 3.06 3.06 0 0 1-1.823.894 11.62 11.62 0 0 0-10.1 9.521 2.97 2.97 0 0 1-2.971 2.48M80.784.5a1.976 1.976 0 0 0-1.989 1.659 11.63 11.63 0 0 1-3.648 6.835 13.54 13.54 0 0 1-7.267 3.424 1.965 1.965 0 0 0-1.77 1.87 1.965 1.965 0 0 0 1.784 1.873c5.766.828 10.154 4.952 10.919 10.261a2.021 2.021 0 0 0 3.976.034A12.62 12.62 0 0 1 93.751 16.1a1.826 1.826 0 0 0 1.7-1.745V14.3a1.915 1.915 0 0 0-1.761-1.829A12.63 12.63 0 0 1 82.769 2.138 1.965 1.965 0 0 0 80.784.5m32.802-.5a2.48 2.48 0 0 0-2.484 2.084c-.775 5.146-5.043 9.025-10.495 9.84a2.46 2.46 0 0 0-2.2 2.365 2.465 2.465 0 0 0 2.213 2.368c5.476.786 9.753 4.691 10.495 9.837a2.521 2.521 0 0 0 4.964.042 12.135 12.135 0 0 1 10.54-9.936 2.33 2.33 0 0 0 2.139-2.242V14.3a2.414 2.414 0 0 0-2.194-2.325 12.13 12.13 0 0 1-10.495-9.913A2.47 2.47 0 0 0 113.586 0"/><path d="M113.609 29.095a2.965 2.965 0 0 1-2.98-2.529c-.7-4.866-4.749-8.649-10.071-9.414a2.956 2.956 0 0 1-2.641-2.863 2.956 2.956 0 0 1 2.622-2.86c5.3-.792 9.345-4.578 10.074-9.42a3.021 3.021 0 0 1 5.951-.023 11.625 11.625 0 0 0 10.067 9.494 2.9 2.9 0 0 1 2.628 2.82v.056a2.65 2.65 0 0 1-.755 1.844 3.06 3.06 0 0 1-1.823.894 11.62 11.62 0 0 0-10.1 9.521 2.97 2.97 0 0 1-2.972 2.48M113.586.5a1.976 1.976 0 0 0-1.989 1.659 11.63 11.63 0 0 1-3.648 6.835 13.54 13.54 0 0 1-7.263 3.424 1.965 1.965 0 0 0-1.77 1.87 1.965 1.965 0 0 0 1.784 1.873c5.766.828 10.154 4.952 10.919 10.261a2.021 2.021 0 0 0 3.976.034A12.62 12.62 0 0 1 126.557 16.1a1.826 1.826 0 0 0 1.7-1.745V14.3a1.915 1.915 0 0 0-1.761-1.829 12.63 12.63 0 0 1-10.921-10.333A1.965 1.965 0 0 0 113.586.5M15.174 31.743a2.48 2.48 0 0 0-2.484 2.085c-.775 5.146-5.043 9.024-10.495 9.84a2.372 2.372 0 0 0 .017 4.733c5.476.786 9.753 4.691 10.495 9.837a2.521 2.521 0 0 0 4.964.04A12.135 12.135 0 0 1 28.2 48.342a2.33 2.33 0 0 0 2.139-2.242v-.057a2.415 2.415 0 0 0-2.191-2.32 12.13 12.13 0 0 1-10.495-9.913 2.47 2.47 0 0 0-2.479-2.062"/><path d="M15.193 60.839a3.05 3.05 0 0 1-1.982-.724 2.93 2.93 0 0 1-1-1.805c-.7-4.867-4.749-8.65-10.071-9.414a2.871 2.871 0 0 1-.019-5.722c5.3-.793 9.345-4.579 10.074-9.42a3.021 3.021 0 0 1 5.951-.024 11.62 11.62 0 0 0 10.069 9.493 2.906 2.906 0 0 1 2.628 2.82v.057a2.65 2.65 0 0 1-.755 1.843 3.05 3.05 0 0 1-1.823.894 11.62 11.62 0 0 0-10.1 9.519 2.97 2.97 0 0 1-2.972 2.483m-.018-28.6a1.976 1.976 0 0 0-1.989 1.66 11.63 11.63 0 0 1-3.648 6.835 13.55 13.55 0 0 1-7.268 3.429 1.874 1.874 0 0 0 .014 3.743c5.766.828 10.154 4.952 10.919 10.261a2.021 2.021 0 0 0 3.976.032 12.62 12.62 0 0 1 10.962-10.353 1.826 1.826 0 0 0 1.7-1.745v-.058a1.917 1.917 0 0 0-1.761-1.829 12.63 12.63 0 0 1-10.921-10.333 1.965 1.965 0 0 0-1.985-1.638Zm32.804-.496a2.48 2.48 0 0 0-2.484 2.085c-.775 5.146-5.043 9.024-10.495 9.84a2.372 2.372 0 0 0 .017 4.733c5.476.786 9.753 4.691 10.495 9.837a2.521 2.521 0 0 0 4.964.04 12.135 12.135 0 0 1 10.531-9.936 2.33 2.33 0 0 0 2.139-2.242v-.057a2.415 2.415 0 0 0-2.193-2.32 12.13 12.13 0 0 1-10.491-9.918 2.474 2.474 0 0 0-2.481-2.062"/><path d="M47.998 60.839a3.05 3.05 0 0 1-1.982-.724 2.93 2.93 0 0 1-1-1.805c-.7-4.866-4.749-8.65-10.071-9.414a2.871 2.871 0 0 1-.019-5.722c5.3-.793 9.345-4.579 10.074-9.42a3.022 3.022 0 0 1 5.953-.025 11.62 11.62 0 0 0 10.067 9.494 2.906 2.906 0 0 1 2.628 2.82v.057a2.65 2.65 0 0 1-.755 1.843 3.05 3.05 0 0 1-1.823.894 11.62 11.62 0 0 0-10.1 9.519 2.97 2.97 0 0 1-2.972 2.483m-.018-28.6a1.976 1.976 0 0 0-1.989 1.66 11.63 11.63 0 0 1-3.648 6.835 13.55 13.55 0 0 1-7.267 3.425 1.874 1.874 0 0 0 .014 3.743c5.766.828 10.154 4.952 10.919 10.261a2.021 2.021 0 0 0 3.976.032 12.62 12.62 0 0 1 10.961-10.349 1.826 1.826 0 0 0 1.7-1.745v-.058a1.917 1.917 0 0 0-1.761-1.829 12.62 12.62 0 0 1-10.923-10.333 1.97 1.97 0 0 0-1.983-1.638Zm32.804-.496a2.48 2.48 0 0 0-2.484 2.085c-.775 5.146-5.043 9.024-10.495 9.84a2.372 2.372 0 0 0 .017 4.733c5.476.786 9.753 4.691 10.495 9.837a2.521 2.521 0 0 0 4.964.04 12.135 12.135 0 0 1 10.531-9.936 2.33 2.33 0 0 0 2.139-2.242v-.057a2.415 2.415 0 0 0-2.193-2.32 12.13 12.13 0 0 1-10.495-9.913 2.47 2.47 0 0 0-2.479-2.067"/><path d="M80.803 60.839a3.05 3.05 0 0 1-1.982-.724 2.93 2.93 0 0 1-1-1.805c-.7-4.866-4.749-8.65-10.071-9.414a2.871 2.871 0 0 1-.019-5.722c5.3-.793 9.345-4.579 10.074-9.42a3.021 3.021 0 0 1 5.951-.024 11.62 11.62 0 0 0 10.068 9.493 2.906 2.906 0 0 1 2.628 2.82v.057a2.65 2.65 0 0 1-.755 1.843 3.05 3.05 0 0 1-1.823.894 11.62 11.62 0 0 0-10.1 9.519 2.97 2.97 0 0 1-2.971 2.483m-.018-28.6a1.976 1.976 0 0 0-1.989 1.66 11.63 11.63 0 0 1-3.648 6.835 13.55 13.55 0 0 1-7.267 3.425 1.874 1.874 0 0 0 .014 3.743c5.766.828 10.154 4.952 10.919 10.261a2.021 2.021 0 0 0 3.976.032 12.62 12.62 0 0 1 10.961-10.349 1.826 1.826 0 0 0 1.7-1.745v-.058a1.917 1.917 0 0 0-1.761-1.829 12.63 12.63 0 0 1-10.921-10.333 1.965 1.965 0 0 0-1.985-1.638Zm32.801-.496a2.48 2.48 0 0 0-2.484 2.085c-.775 5.146-5.043 9.024-10.495 9.84a2.372 2.372 0 0 0 .017 4.733c5.476.786 9.753 4.691 10.495 9.837a2.521 2.521 0 0 0 4.964.04 12.135 12.135 0 0 1 10.531-9.936 2.33 2.33 0 0 0 2.139-2.242v-.057a2.415 2.415 0 0 0-2.189-2.32 12.13 12.13 0 0 1-10.495-9.913 2.47 2.47 0 0 0-2.483-2.067"/><path d="M113.609 60.839a3.05 3.05 0 0 1-1.982-.724 2.93 2.93 0 0 1-1-1.805c-.7-4.866-4.749-8.65-10.071-9.414a2.871 2.871 0 0 1-.019-5.722c5.3-.793 9.345-4.579 10.074-9.42a3.021 3.021 0 0 1 5.951-.024 11.62 11.62 0 0 0 10.069 9.493 2.906 2.906 0 0 1 2.628 2.82v.057a2.65 2.65 0 0 1-.755 1.843 3.05 3.05 0 0 1-1.823.894 11.62 11.62 0 0 0-10.1 9.519 2.97 2.97 0 0 1-2.972 2.483m-.023-28.596a1.976 1.976 0 0 0-1.989 1.66 11.63 11.63 0 0 1-3.648 6.835 13.55 13.55 0 0 1-7.263 3.425 1.874 1.874 0 0 0 .014 3.743c5.766.828 10.154 4.952 10.919 10.261a2.021 2.021 0 0 0 3.976.032 12.62 12.62 0 0 1 10.962-10.353 1.826 1.826 0 0 0 1.7-1.745v-.058a1.917 1.917 0 0 0-1.761-1.829 12.63 12.63 0 0 1-10.921-10.333 1.965 1.965 0 0 0-1.989-1.638M15.174 63.488a2.48 2.48 0 0 0-2.484 2.084c-.774 5.146-5.043 9.025-10.49 9.838a2.373 2.373 0 0 0 .013 4.737c5.476.786 9.753 4.691 10.495 9.837a2.521 2.521 0 0 0 4.964.042 12.135 12.135 0 0 1 10.528-9.94 2.33 2.33 0 0 0 2.143-2.239v-.056a2.414 2.414 0 0 0-2.194-2.325 12.13 12.13 0 0 1-10.496-9.919 2.47 2.47 0 0 0-2.479-2.062"/><path d="M15.193 92.583a2.965 2.965 0 0 1-2.98-2.529c-.7-4.866-4.749-8.65-10.071-9.414a2.872 2.872 0 0 1-.02-5.724c5.3-.791 9.345-4.576 10.075-9.419a3.021 3.021 0 0 1 5.951-.023 11.625 11.625 0 0 0 10.067 9.493 2.9 2.9 0 0 1 2.628 2.82v.06a2.65 2.65 0 0 1-.755 1.843 3.05 3.05 0 0 1-1.823.894 11.62 11.62 0 0 0-10.1 9.521 2.97 2.97 0 0 1-2.972 2.478m-.018-28.595a1.976 1.976 0 0 0-1.99 1.659 11.63 11.63 0 0 1-3.648 6.835 13.53 13.53 0 0 1-7.267 3.423 1.875 1.875 0 0 0 .014 3.742c5.766.828 10.154 4.952 10.919 10.261a2.021 2.021 0 0 0 3.976.033A12.62 12.62 0 0 1 28.141 79.59a1.826 1.826 0 0 0 1.7-1.745v-.056a1.915 1.915 0 0 0-1.761-1.829 12.63 12.63 0 0 1-10.921-10.334 1.965 1.965 0 0 0-1.985-1.638Zm32.804-.5a2.48 2.48 0 0 0-2.484 2.084c-.775 5.146-5.043 9.025-10.495 9.839a2.373 2.373 0 0 0 .017 4.734c5.476.786 9.753 4.691 10.495 9.837a2.521 2.521 0 0 0 4.964.042 12.135 12.135 0 0 1 10.531-9.938 2.33 2.33 0 0 0 2.141-2.239v-.056a2.414 2.414 0 0 0-2.194-2.325 12.13 12.13 0 0 1-10.492-9.919 2.474 2.474 0 0 0-2.481-2.062"/><path d="M47.998 92.583a2.965 2.965 0 0 1-2.98-2.529c-.7-4.866-4.749-8.65-10.071-9.414a2.872 2.872 0 0 1-.02-5.724c5.3-.791 9.345-4.576 10.075-9.419a3.022 3.022 0 0 1 5.953-.023 11.62 11.62 0 0 0 10.066 9.494 2.9 2.9 0 0 1 2.628 2.82v.059a2.65 2.65 0 0 1-.755 1.843 3.05 3.05 0 0 1-1.823.894 11.62 11.62 0 0 0-10.1 9.521 2.97 2.97 0 0 1-2.973 2.478m-.018-28.595a1.976 1.976 0 0 0-1.99 1.659 11.63 11.63 0 0 1-3.648 6.835 13.53 13.53 0 0 1-7.268 3.423 1.875 1.875 0 0 0 .014 3.745c5.766.828 10.154 4.952 10.919 10.261a2.021 2.021 0 0 0 3.976.033A12.62 12.62 0 0 1 60.946 79.59a1.826 1.826 0 0 0 1.7-1.745v-.056a1.915 1.915 0 0 0-1.761-1.829 12.63 12.63 0 0 1-10.923-10.334 1.97 1.97 0 0 0-1.983-1.638Zm32.804-.5a2.48 2.48 0 0 0-2.484 2.084c-.776 5.146-5.043 9.025-10.494 9.838a2.373 2.373 0 0 0 .018 4.737c5.476.786 9.753 4.691 10.495 9.837a2.521 2.521 0 0 0 4.964.042 12.135 12.135 0 0 1 10.531-9.938 2.33 2.33 0 0 0 2.139-2.241v-.056a2.414 2.414 0 0 0-2.194-2.325 12.13 12.13 0 0 1-10.496-9.919 2.47 2.47 0 0 0-2.479-2.062"/><path d="M80.803 92.583a2.965 2.965 0 0 1-2.98-2.529c-.7-4.866-4.749-8.65-10.071-9.414a2.872 2.872 0 0 1-.02-5.724c5.3-.791 9.345-4.576 10.075-9.419a3.021 3.021 0 0 1 5.951-.023 11.625 11.625 0 0 0 10.066 9.494 2.9 2.9 0 0 1 2.628 2.82v.059a2.65 2.65 0 0 1-.755 1.843 3.05 3.05 0 0 1-1.823.894 11.62 11.62 0 0 0-10.1 9.521 2.97 2.97 0 0 1-2.971 2.478m-.019-28.595a1.976 1.976 0 0 0-1.989 1.659 11.63 11.63 0 0 1-3.648 6.835 13.53 13.53 0 0 1-7.268 3.423 1.875 1.875 0 0 0 .015 3.742c5.766.828 10.154 4.952 10.919 10.261a2.021 2.021 0 0 0 3.976.033A12.62 12.62 0 0 1 93.751 79.59a1.826 1.826 0 0 0 1.7-1.745v-.056a1.915 1.915 0 0 0-1.761-1.829 12.63 12.63 0 0 1-10.921-10.334 1.965 1.965 0 0 0-1.985-1.638m32.802-.5a2.48 2.48 0 0 0-2.484 2.084c-.775 5.146-5.043 9.025-10.495 9.839a2.373 2.373 0 0 0 .017 4.734c5.476.786 9.753 4.691 10.495 9.837a2.521 2.521 0 0 0 4.964.042 12.135 12.135 0 0 1 10.531-9.938 2.33 2.33 0 0 0 2.145-2.239v-.056a2.414 2.414 0 0 0-2.194-2.325 12.13 12.13 0 0 1-10.496-9.919 2.47 2.47 0 0 0-2.483-2.059"/><path d="M113.609 92.583a2.965 2.965 0 0 1-2.98-2.529c-.7-4.866-4.749-8.65-10.071-9.414a2.872 2.872 0 0 1-.02-5.724c5.3-.791 9.345-4.576 10.075-9.419a3.021 3.021 0 0 1 5.951-.023 11.625 11.625 0 0 0 10.067 9.493 2.9 2.9 0 0 1 2.628 2.82v.06a2.65 2.65 0 0 1-.755 1.843 3.05 3.05 0 0 1-1.823.894 11.62 11.62 0 0 0-10.1 9.521 2.97 2.97 0 0 1-2.972 2.478m-.023-28.595a1.976 1.976 0 0 0-1.985 1.659 11.63 11.63 0 0 1-3.648 6.835 13.53 13.53 0 0 1-7.267 3.423 1.875 1.875 0 0 0 .014 3.745c5.766.828 10.154 4.952 10.919 10.261a2.021 2.021 0 0 0 3.976.033 12.62 12.62 0 0 1 10.962-10.354 1.826 1.826 0 0 0 1.7-1.745v-.056a1.915 1.915 0 0 0-1.761-1.829 12.63 12.63 0 0 1-10.921-10.334 1.965 1.965 0 0 0-1.989-1.638M15.174 95.232a2.48 2.48 0 0 0-2.484 2.084c-.775 5.146-5.043 9.025-10.495 9.84a2.372 2.372 0 0 0 .017 4.733c5.476.786 9.753 4.691 10.495 9.837a2.521 2.521 0 0 0 4.964.042A12.135 12.135 0 0 1 28.2 111.83a2.33 2.33 0 0 0 2.139-2.242v-.056a2.414 2.414 0 0 0-2.194-2.325 12.13 12.13 0 0 1-10.495-9.913 2.47 2.47 0 0 0-2.479-2.062"/><path d="M15.193 124.327a2.965 2.965 0 0 1-2.98-2.529c-.7-4.866-4.749-8.65-10.071-9.414a2.871 2.871 0 0 1-.019-5.722c5.3-.792 9.345-4.578 10.074-9.42a3.021 3.021 0 0 1 5.951-.023 11.625 11.625 0 0 0 10.067 9.493 2.9 2.9 0 0 1 2.628 2.82v.056a2.65 2.65 0 0 1-.755 1.844 3.06 3.06 0 0 1-1.823.894 11.62 11.62 0 0 0-10.1 9.521 2.97 2.97 0 0 1-2.972 2.48m-.018-28.6a1.976 1.976 0 0 0-1.989 1.659 11.63 11.63 0 0 1-3.648 6.835 13.54 13.54 0 0 1-7.268 3.429 1.874 1.874 0 0 0 .013 3.743c5.766.828 10.154 4.952 10.919 10.261a2.021 2.021 0 0 0 3.976.034 12.62 12.62 0 0 1 10.963-10.354 1.826 1.826 0 0 0 1.7-1.745v-.056a1.915 1.915 0 0 0-1.761-1.829 12.63 12.63 0 0 1-10.921-10.333 1.965 1.965 0 0 0-1.985-1.639Zm32.804-.495a2.48 2.48 0 0 0-2.484 2.084c-.775 5.146-5.043 9.025-10.495 9.84a2.372 2.372 0 0 0 .017 4.733c5.476.786 9.753 4.691 10.495 9.837a2.521 2.521 0 0 0 4.964.042 12.135 12.135 0 0 1 10.531-9.938 2.33 2.33 0 0 0 2.139-2.242v-.056a2.414 2.414 0 0 0-2.194-2.325 12.13 12.13 0 0 1-10.49-9.913 2.474 2.474 0 0 0-2.481-2.062"/><path d="M47.998 124.327a2.965 2.965 0 0 1-2.98-2.529c-.7-4.866-4.749-8.65-10.071-9.414a2.871 2.871 0 0 1-.019-5.722c5.3-.792 9.345-4.578 10.074-9.42a3.022 3.022 0 0 1 5.953-.023 11.62 11.62 0 0 0 10.066 9.494 2.9 2.9 0 0 1 2.628 2.82v.056a2.65 2.65 0 0 1-.755 1.844 3.06 3.06 0 0 1-1.823.894 11.62 11.62 0 0 0-10.1 9.521 2.97 2.97 0 0 1-2.973 2.479m-.018-28.6a1.976 1.976 0 0 0-1.989 1.659 11.63 11.63 0 0 1-3.648 6.835 13.54 13.54 0 0 1-7.267 3.424 1.874 1.874 0 0 0 .013 3.743c5.766.828 10.154 4.952 10.919 10.261a2.021 2.021 0 0 0 3.976.034 12.62 12.62 0 0 1 10.962-10.349 1.826 1.826 0 0 0 1.7-1.745v-.056a1.915 1.915 0 0 0-1.761-1.829 12.63 12.63 0 0 1-10.923-10.333 1.97 1.97 0 0 0-1.983-1.639Zm32.804-.495a2.48 2.48 0 0 0-2.484 2.084c-.775 5.146-5.043 9.025-10.495 9.84a2.372 2.372 0 0 0 .017 4.733c5.476.786 9.753 4.691 10.495 9.837a2.521 2.521 0 0 0 4.964.042 12.135 12.135 0 0 1 10.531-9.938 2.33 2.33 0 0 0 2.139-2.242v-.056a2.414 2.414 0 0 0-2.194-2.325 12.13 12.13 0 0 1-10.495-9.913 2.47 2.47 0 0 0-2.479-2.062"/><path d="M80.803 124.327a2.965 2.965 0 0 1-2.98-2.529c-.7-4.866-4.749-8.65-10.071-9.414a2.871 2.871 0 0 1-.019-5.722c5.3-.792 9.345-4.578 10.074-9.42a3.021 3.021 0 0 1 5.951-.023 11.625 11.625 0 0 0 10.066 9.493 2.9 2.9 0 0 1 2.628 2.82v.056a2.65 2.65 0 0 1-.755 1.844 3.06 3.06 0 0 1-1.823.894 11.62 11.62 0 0 0-10.1 9.521 2.97 2.97 0 0 1-2.971 2.48m-.018-28.6a1.976 1.976 0 0 0-1.989 1.659 11.63 11.63 0 0 1-3.648 6.835 13.54 13.54 0 0 1-7.267 3.424 1.874 1.874 0 0 0 .013 3.743c5.766.828 10.154 4.952 10.919 10.261a2.021 2.021 0 0 0 3.976.034 12.62 12.62 0 0 1 10.962-10.349 1.826 1.826 0 0 0 1.7-1.745v-.056a1.915 1.915 0 0 0-1.761-1.829 12.63 12.63 0 0 1-10.921-10.333 1.965 1.965 0 0 0-1.985-1.639Zm32.801-.495a2.48 2.48 0 0 0-2.484 2.084c-.775 5.146-5.043 9.025-10.495 9.84a2.372 2.372 0 0 0 .017 4.733c5.476.786 9.753 4.691 10.495 9.837a2.521 2.521 0 0 0 4.967.045 12.135 12.135 0 0 1 10.531-9.938 2.33 2.33 0 0 0 2.139-2.242v-.056a2.414 2.414 0 0 0-2.194-2.325 12.13 12.13 0 0 1-10.495-9.913 2.47 2.47 0 0 0-2.481-2.065"/><path d="M113.609 124.327a2.965 2.965 0 0 1-2.98-2.529c-.7-4.866-4.749-8.65-10.071-9.414a2.871 2.871 0 0 1-.019-5.722c5.3-.792 9.345-4.578 10.074-9.42a3.021 3.021 0 0 1 5.951-.023 11.625 11.625 0 0 0 10.067 9.493 2.9 2.9 0 0 1 2.628 2.82v.056a2.65 2.65 0 0 1-.755 1.844 3.06 3.06 0 0 1-1.823.894 11.62 11.62 0 0 0-10.1 9.521 2.97 2.97 0 0 1-2.972 2.48m-.018-28.6a1.976 1.976 0 0 0-1.989 1.659 11.63 11.63 0 0 1-3.648 6.835 13.54 13.54 0 0 1-7.268 3.429 1.874 1.874 0 0 0 .013 3.743c5.766.828 10.154 4.952 10.919 10.261a2.021 2.021 0 0 0 3.976.034 12.62 12.62 0 0 1 10.963-10.354 1.826 1.826 0 0 0 1.7-1.745v-.056a1.915 1.915 0 0 0-1.761-1.829 12.63 12.63 0 0 1-10.921-10.333 1.965 1.965 0 0 0-1.989-1.639Z"/></g></g></svg>