<svg xmlns="http://www.w3.org/2000/svg" width="103" height="103" viewBox="0 0 103 103"><defs><filter id="a" width="103" height="103" x="0" y="0" filterUnits="userSpaceOnUse"><feOffset dy="3"/><feGaussianBlur result="b" stdDeviation="3"/><feFlood flood-opacity=".161"/><feComposite in2="b" operator="in"/><feComposite in="SourceGraphic"/></filter></defs><g transform="translate(-177.001 -4587.67)"><g filter="url(#a)" transform="translate(177 4587.67)"><circle cx="42.5" cy="42.5" r="42.5" fill="#fff" transform="translate(9 6)"/></g><g fill-rule="evenodd" transform="translate(203.194 4612.67)"><g transform="translate(.8 .921)"><path fill="#6cf5c2" d="M32.126 6.083H27.7a.97.97 0 0 0-.967.967v34.5a.97.97 0 0 0 .967.97h4.426a.97.97 0 0 0 .967-.97V7.05a.97.97 0 0 0-.967-.967"/><path fill="#00e499" d="M32.126 6.083h-1.937a.97.97 0 0 1 .967.967v34.5a.97.97 0 0 1-.967.97h1.937a.97.97 0 0 0 .967-.97V7.05a.97.97 0 0 0-.967-.967"/><path fill="#ffe177" d="M20.313 12.634h-4.426a.97.97 0 0 0-.967.967v27.952a.97.97 0 0 0 .967.97h4.426a.97.97 0 0 0 .967-.97V13.601a.97.97 0 0 0-.967-.967"/><path fill="#ffd064" d="M20.314 12.634h-1.937a.97.97 0 0 1 .97.967v27.952a.973.973 0 0 1-.97.97h1.937a.97.97 0 0 0 .967-.97V13.601a.97.97 0 0 0-.967-.967"/><path fill="#8ac9fe" d="M39.512 0h4.426a.97.97 0 0 1 .967.967v40.586a.97.97 0 0 1-.967.97h-4.426a.973.973 0 0 1-.97-.97V.967a.97.97 0 0 1 .97-.967"/><path fill="#60b7ff" d="M41.998 0h1.937a.97.97 0 0 1 .967.967v40.586a.97.97 0 0 1-.967.97h-1.937a.97.97 0 0 0 .967-.97V.967A.97.97 0 0 0 41.998 0"/><path fill="#fe646f" d="M4.078 18.93h4.423a.97.97 0 0 1 .97.967v21.656a.973.973 0 0 1-.97.97H4.078a.973.973 0 0 1-.97-.97V19.897a.97.97 0 0 1 .97-.967"/><path fill="#fd4755" d="M6.564 18.93h1.937a.97.97 0 0 1 .97.967v21.656a.973.973 0 0 1-.97.97H6.564a.973.973 0 0 0 .97-.97V19.897a.97.97 0 0 0-.97-.967"/><path fill="#ffe177" d="M38.544 18.938a28.7 28.7 0 0 1-10.466 9.805c-6.737 3.76-14.106 4.625-20.061 2.909a27.6 27.6 0 0 0 14.07-3.751 38.1 38.1 0 0 0 12.334-11.728l-2.314-1.551a.28.28 0 0 1-.125-.281.28.28 0 0 1 .2-.235l7.959-2.575a.28.28 0 0 1 .249.034.28.28 0 0 1 .13.215l.706 8.387a.29.29 0 0 1-.145.275.28.28 0 0 1-.309-.009Z"/><path fill="#ffd064" d="M38.544 18.938a28.7 28.7 0 0 1-10.466 9.805c-6.737 3.76-14.106 4.625-20.061 2.909h.3c5.594 1.075 12.935-.391 18.235-3.349a27.6 27.6 0 0 0 10.675-10.125Zm.5-7.052.658 7.829 1.075.72a.293.293 0 0 0 .454-.267l-.706-8.387a.28.28 0 0 0-.13-.215.28.28 0 0 0-.249-.034Z"/><path fill="#a79ba7" d="M.967 41.857h46.079a.97.97 0 0 1 .967.967v.468a.97.97 0 0 1-.967.967H.967A.97.97 0 0 1 0 43.292v-.468a.97.97 0 0 1 .967-.967"/><path fill="#837683" d="M48.013 43.056v.235a.97.97 0 0 1-.967.967H.967A.97.97 0 0 1 0 43.291v-.235Z"/></g><path d="M46.5 42.096h2.309a.8.8 0 0 1 .8.8v2.4a.8.8 0 0 1-.8.8H.8a.8.8 0 0 1-.8-.8v-2.4a.8.8 0 0 1 .8-.8h2.309V19.879a.8.8 0 0 1 .8-.8h6.36a.8.8 0 0 1 .8.8v11.277a.8.8 0 0 1-1.6 0V20.679h-4.76v21.417h4.76v-6.057a.8.8 0 0 1 1.6 0v6.055h3.852v-5.761a.8.8 0 0 1 1.6 0v5.764h4.76V35.43a.8.8 0 0 1 1.6 0v6.666h3.849v-8.787a.8.8 0 0 1 1.6 0v8.787h4.763V29.354a.8.8 0 0 1 1.6 0v12.742h3.849V23.524a.8.8 0 0 1 1.6 0v18.572H44.9v-40.5h-4.76v8.453a.8.8 0 1 1-1.6 0V.8a.8.8 0 0 1 .8-.8h6.36a.8.8 0 0 1 .8.8Zm-44.9 2.4h46.413v-.8H1.6Zm33.095-32.319a.8.8 0 1 1-1.6 0v-4.57h-4.763v15.232a.8.8 0 0 1-1.6 0V6.807a.8.8 0 0 1 .8-.8h6.363a.8.8 0 0 1 .8.8Zm-11.813 14.85a.8.8 0 0 1-1.6 0V14.283h-4.76V29.81a.8.8 0 1 1-1.6 0V13.483a.8.8 0 0 1 .8-.8h6.36a.8.8 0 0 1 .8.8Zm16.852-6.048a31.44 31.44 0 0 1-10.928 9.966c-7.342 4.094-15.377 5.021-21.866 3.152a.8.8 0 0 1 .228-1.569 28.47 28.47 0 0 0 14.509-3.873 39.9 39.9 0 0 0 12.362-11.5l-2.327-1.556a.8.8 0 0 1 .173-1.417l9.155-3.314a.8.8 0 0 1 1.068.668l1.084 10.181a.8.8 0 0 1-1.241.749Zm.213-1.784 1.473.988-.795-7.462-6.709 2.429 1.664 1.115a.8.8 0 0 1 .236 1.084 41.2 41.2 0 0 1-13.36 12.706 32.1 32.1 0 0 1-8.61 3.37 29.6 29.6 0 0 0 14.18-3.875 29.6 29.6 0 0 0 10.795-10.111.8.8 0 0 1 1.126-.243Z"/></g></g></svg>