<svg xmlns="http://www.w3.org/2000/svg" width="49.613" height="46.1" viewBox="0 0 49.613 46.1"><g transform="translate(0.8 0.921)"><path d="M287.649,94.586h-4.426a.968.968,0,0,0-.967.967v34.5a.97.97,0,0,0,.967.97h4.426a.97.97,0,0,0,.967-.97v-34.5A.968.968,0,0,0,287.649,94.586Z" transform="translate(-255.523 -88.503)" fill="#6cf5c2" fill-rule="evenodd"/><path d="M318.748,94.586h-1.937a.968.968,0,0,1,.967.967v34.5a.97.97,0,0,1-.967.97h1.937a.97.97,0,0,0,.967-.97v-34.5A.968.968,0,0,0,318.748,94.586Z" transform="translate(-286.622 -88.503)" fill="#00e499" fill-rule="evenodd"/><path d="M169.555,160.075h-4.426a.968.968,0,0,0-.967.967v27.952a.971.971,0,0,0,.967.97h4.426a.971.971,0,0,0,.967-.97V161.042A.968.968,0,0,0,169.555,160.075Z" transform="translate(-149.242 -147.441)" fill="#ffe177" fill-rule="evenodd"/><path d="M200.654,160.075h-1.937a.971.971,0,0,1,.97.967v27.952a.973.973,0,0,1-.97.97h1.937a.971.971,0,0,0,.967-.97V161.042A.968.968,0,0,0,200.654,160.075Z" transform="translate(-180.34 -147.441)" fill="#ffd064" fill-rule="evenodd"/><path d="M401.291,33.768h4.426a.968.968,0,0,1,.967.967V75.321a.971.971,0,0,1-.967.97h-4.426a.973.973,0,0,1-.97-.97V34.735A.97.97,0,0,1,401.291,33.768Z" transform="translate(-361.779 -33.768)" fill="#8ac9fe" fill-rule="evenodd"/><path d="M434.9,33.768h1.937a.968.968,0,0,1,.967.967V75.321a.971.971,0,0,1-.967.97H434.9a.97.97,0,0,0,.967-.97V34.735A.968.968,0,0,0,434.9,33.768Z" transform="translate(-392.902 -33.768)" fill="#60b7ff" fill-rule="evenodd"/><path d="M47.038,223.02h4.423a.971.971,0,0,1,.97.967v21.656a.973.973,0,0,1-.97.97H47.038a.973.973,0,0,1-.97-.97V223.987A.971.971,0,0,1,47.038,223.02Z" transform="translate(-42.96 -204.09)" fill="#fe646f" fill-rule="evenodd"/><path d="M80.623,223.02H82.56a.971.971,0,0,1,.97.967v21.656a.973.973,0,0,1-.97.97H80.623a.973.973,0,0,0,.97-.97V223.987A.971.971,0,0,0,80.623,223.02Z" transform="translate(-74.059 -204.09)" fill="#fd4755" fill-rule="evenodd"/><path d="M125.678,156.3a28.7,28.7,0,0,1-10.466,9.805c-6.737,3.76-14.106,4.625-20.061,2.909a27.58,27.58,0,0,0,14.07-3.751,38.074,38.074,0,0,0,12.334-11.728l-2.314-1.551a.281.281,0,0,1-.125-.281.277.277,0,0,1,.2-.235l7.959-2.575a.279.279,0,0,1,.249.034.283.283,0,0,1,.13.215l.706,8.387a.287.287,0,0,1-.145.275.284.284,0,0,1-.309-.009Z" transform="translate(-87.134 -137.362)" fill="#ffe177" fill-rule="evenodd"/><path d="M125.678,156.3a28.7,28.7,0,0,1-10.466,9.805c-6.737,3.76-14.106,4.625-20.061,2.909.068,0,.136,0,.2,0h.1c5.594,1.075,12.935-.391,18.235-3.349a27.617,27.617,0,0,0,10.675-10.125Zm.5-7.052.658,7.829,1.075.72a.293.293,0,0,0,.454-.267l-.706-8.387a.283.283,0,0,0-.13-.215.278.278,0,0,0-.249-.034Z" transform="translate(-87.134 -137.362)" fill="#ffd064" fill-rule="evenodd"/><path d="M15.967,452.222H62.046a.968.968,0,0,1,.967.967v.468a.968.968,0,0,1-.967.967H15.967a.968.968,0,0,1-.967-.967v-.468a.968.968,0,0,1,.967-.967Z" transform="translate(-15 -410.365)" fill="#a79ba7" fill-rule="evenodd"/><path d="M63.013,464.213v.235a.968.968,0,0,1-.967.967H15.967a.968.968,0,0,1-.967-.967v-.235Z" transform="translate(-15 -421.157)" fill="#837683" fill-rule="evenodd"/></g><path d="M53.5,66.657h2.309a.8.8,0,0,1,.8.8v2.4a.8.8,0,0,1-.8.8H7.8a.8.8,0,0,1-.8-.8v-2.4a.8.8,0,0,1,.8-.8h2.309V44.44a.8.8,0,0,1,.8-.8h6.36a.8.8,0,0,1,.8.8V55.717a.8.8,0,0,1-1.6,0V45.24h-4.76V66.657h4.76V60.6a.8.8,0,0,1,1.6,0v6.055h3.852V60.894a.8.8,0,0,1,1.6,0v5.764h4.76V59.991a.8.8,0,0,1,1.6,0v6.666h3.849V57.87a.8.8,0,0,1,1.6,0v8.787h4.763V53.915a.8.8,0,0,1,1.6,0V66.657h3.849V48.085a.8.8,0,0,1,1.6,0V66.657H51.9v-40.5h-4.76v8.453a.8.8,0,1,1-1.6,0V25.361a.8.8,0,0,1,.8-.8H52.7a.8.8,0,0,1,.8.8Zm-44.9,2.4H55.013v-.8H8.6ZM41.695,36.738a.8.8,0,1,1-1.6,0v-4.57H35.332V47.4a.8.8,0,0,1-1.6,0V31.368a.8.8,0,0,1,.8-.8h6.363a.8.8,0,0,1,.8.8ZM29.882,51.588a.8.8,0,0,1-1.6,0V38.844h-4.76V54.371a.8.8,0,1,1-1.6,0V38.044a.8.8,0,0,1,.8-.8h6.36a.8.8,0,0,1,.8.8ZM46.734,45.54a31.444,31.444,0,0,1-10.928,9.966h0c-7.342,4.094-15.377,5.021-21.866,3.152a.8.8,0,0,1,.228-1.569,28.471,28.471,0,0,0,14.509-3.873,39.894,39.894,0,0,0,12.362-11.5L38.712,40.16a.8.8,0,0,1,.173-1.417l9.155-3.314a.8.8,0,0,1,1.068.668l1.084,10.181a.8.8,0,0,1-1.241.749Zm.213-1.784,1.473.988-.795-7.462-6.709,2.429,1.664,1.115a.8.8,0,0,1,.236,1.084,41.235,41.235,0,0,1-13.36,12.706,32.125,32.125,0,0,1-8.61,3.37,29.629,29.629,0,0,0,14.18-3.875A29.63,29.63,0,0,0,45.821,44a.8.8,0,0,1,1.126-.243Z" transform="translate(-7 -24.561)" fill-rule="evenodd"/></svg>