<svg xmlns="http://www.w3.org/2000/svg" width="103" height="103" viewBox="0 0 103 103"><defs><filter id="a" width="103" height="103" x="0" y="0" filterUnits="userSpaceOnUse"><feOffset dy="3"/><feGaussianBlur result="b" stdDeviation="3"/><feFlood flood-opacity=".161"/><feComposite in2="b" operator="in"/><feComposite in="SourceGraphic"/></filter></defs><g transform="translate(-489.001 -4587.67)"><g filter="url(#a)" transform="translate(489 4587.67)"><circle cx="42.5" cy="42.5" r="42.5" fill="#fff" transform="translate(9 6)"/></g><g transform="translate(514.341 4611.67)"><path fill="#269dc2" d="M12 34.409v-4a12 12 0 0 1 12-12 12 12 0 0 1 12 12v4h11.2v-3.2A23.206 23.206 0 0 0 24.006 8.002 23.206 23.206 0 0 0 .8 31.208v3.2Z"/><path fill="#008cb7" d="m4.264 19.008 9.015 6.01a12 12 0 0 1 .815-1.38l-8.941-5.961q-.467.649-.889 1.331m38.597-1.331-8.941 5.961a12 12 0 0 1 .815 1.38l9.015-6.01q-.423-.681-.889-1.331M8.359 37h4v9h-4z"/><path fill="#ffcbb1" d="M7.202 39.21 6.07 38.078a1.6 1.6 0 0 0-1.132-.468H3.013a1.6 1.6 0 0 0-1.588 1.4l-.4 3.2a1.6 1.6 0 0 0 1.588 1.8h1.388l-.442.885a1.6 1.6 0 0 0 1.429 2.315h.611l1.6-3.2h1.6v-4.8Z"/><path fill="#008cb7" d="M43.359 39h4v8h-4z"/><path fill="#ffcbb1" d="m42.411 40.81-1.6-3.2h-.614a1.6 1.6 0 0 0-1.431 2.316l.442.885H37.82a1.6 1.6 0 0 0-1.588 1.8l.4 3.2a1.6 1.6 0 0 0 1.588 1.4h1.925a1.6 1.6 0 0 0 1.132-.469l1.134-1.132h1.6v-4.8Z"/><path fill="#62b8d3" d="m17.768 26.806-1.385-.8a8.84 8.84 0 0 1 7.621-4.4 8.7 8.7 0 0 1 3.521.733l-.641 1.467a7.15 7.15 0 0 0-2.88-.6 7.23 7.23 0 0 0-6.236 3.6m-.964 3.602h-1.6a8.8 8.8 0 0 1 .4-2.64l1.527.479a7.2 7.2 0 0 0-.327 2.161"/><path fill="#abc79b" d="M31.204 12h-4.8l-2.4 3.2-2.4-3.2h-4.8a1.6 1.6 0 0 1-1.6-1.6v-8a1.6 1.6 0 0 1 1.6-1.6h14.4a1.6 1.6 0 0 1 1.6 1.6v8a1.6 1.6 0 0 1-1.6 1.6"/><path fill="#ccdcc2" d="M23.206 10.403a.8.8 0 0 1-.566-.234l-2.4-2.4 1.132-1.132 1.835 1.835 5.036-5.036 1.132 1.132-5.6 5.6a.8.8 0 0 1-.569.235"/><path fill="#9cbd8a" d="M43.796 9.035a2.4 2.4 0 0 0-4.182-2.359L26.685 29.587a3.18 3.18 0 0 1-2.738 1.627 8 8 0 1 0 6.94 3.913 3.18 3.18 0 0 1-.02-3.18Z"/><path fill="#ffcbb1" d="M25.606 36.621v-.612a1.6 1.6 0 0 0-3.2 0v.611a1.6 1.6 0 0 0 .885 1.431l.716.358.716-.358a1.6 1.6 0 0 0 .883-1.43m.717 2.947-2.317-1.158-2.316 1.158A1.6 1.6 0 0 0 20.806 41v2.21h6.4V41a1.6 1.6 0 0 0-.885-1.431Z"/><path d="m41.486 14.755 3.005-5.326a3.201 3.201 0 1 0-5.576-3.146l-2.475 4.388a24 24 0 0 0-2.831-1.47V2.4a2.4 2.4 0 0 0-2.4-2.4H16.8a2.4 2.4 0 0 0-2.4 2.4v6.8A24.01 24.01 0 0 0 0 31.208v3.2a.8.8 0 0 0 .8.8H12a.8.8 0 0 0 .8-.8v-4a11.216 11.216 0 0 1 11.2-11.2 11.1 11.1 0 0 1 6.46 2.051l-4.479 7.937a2.39 2.39 0 0 1-2.048 1.22 8.8 8.8 0 1 0 7.635 4.3 2.38 2.38 0 0 1-.012-2.379l3.078-5.455a11.3 11.3 0 0 1 .568 3.523v4a.8.8 0 0 0 .8.8h11.2a.8.8 0 0 0 .8-.8v-3.2a23.9 23.9 0 0 0-6.527-16.454Zm.709 3.366-4.181 2.788 2.646-4.689a23 23 0 0 1 1.536 1.9ZM16 2.4a.8.8 0 0 1 .8-.8h14.4a.8.8 0 0 1 .8.8v8a.8.8 0 0 1-.8.8h-4.8a.8.8 0 0 0-.64.32L24 13.867l-1.76-2.347a.8.8 0 0 0-.64-.32h-4.8a.8.8 0 0 1-.8-.8Zm-4.8 28.008v3.2H1.6v-2.4a22.3 22.3 0 0 1 3.329-11.756l7.682 5.121a12.7 12.7 0 0 0-1.411 5.835m12.8-12.8A12.8 12.8 0 0 0 13.432 23.2l-7.614-5.076a22.4 22.4 0 0 1 8.645-7.191A2.4 2.4 0 0 0 16.8 12.8h4.4l2.161 2.881a.8.8 0 0 0 1.28 0l2.166-2.881h4.4a2.4 2.4 0 0 0 2.341-1.872 22 22 0 0 1 2.1 1.134l-4.4 7.79a12.7 12.7 0 0 0-7.251-2.25Zm6.17 13.945a3.99 3.99 0 0 0 .029 3.982 7.2 7.2 0 1 1-6.245-3.521 3.99 3.99 0 0 0 3.429-2.034L40.309 7.069A1.602 1.602 0 0 1 43.1 8.642Zm16.243 2.056h-9.6v-3.2a12.85 12.85 0 0 0-1.155-5.319l.619-1.1 6.811-4.54a22.3 22.3 0 0 1 3.328 11.757Z"/><path d="M12.003 36.81h-3.2a.8.8 0 0 0-.8.8v.8h-.469l-.9-.9a2.38 2.38 0 0 0-1.7-.7H3.013a2.4 2.4 0 0 0-2.382 2.1l-.4 3.2a2.4 2.4 0 0 0 2.382 2.7h.113a2.4 2.4 0 0 0 2.264 3.2h.611a.8.8 0 0 0 .716-.442l1.379-2.758h.306v.8a.8.8 0 0 0 .8.8h3.2a.8.8 0 0 0 .8-.8v-8a.8.8 0 0 0-.8-.8Zm-4 6.4h-.8a.8.8 0 0 0-.716.442l-1.38 2.758h-.119a.8.8 0 0 1-.716-1.158l.442-.885a.8.8 0 0 0-.716-1.158H2.613a.8.8 0 0 1-.794-.9l.4-3.2a.8.8 0 0 1 .794-.7h1.925a.8.8 0 0 1 .566.234l1.132 1.132a.8.8 0 0 0 .566.234h.8Zm3.2 1.6h-1.6v-6.4h1.6Zm15.478-5.957-1.006-.5a2.4 2.4 0 0 0 .733-1.729v-.615a2.4 2.4 0 1 0-4.8 0v.611a2.4 2.4 0 0 0 .733 1.729l-1.006.5A2.39 2.39 0 0 0 20.006 41v2.209h1.6v-2.212a.8.8 0 0 1 .442-.716l1.958-.972 1.958.979a.8.8 0 0 1 .442.716v2.205h1.6v-2.212a2.39 2.39 0 0 0-1.327-2.147Zm-1.874-2.232a.8.8 0 0 1-.442.716l-.358.179-.358-.179a.8.8 0 0 1-.442-.716v-.612a.8.8 0 0 1 1.6 0Zm22.406 1.789h-3.2a.8.8 0 0 0-.8.8v.8h-.306l-1.379-2.759a.8.8 0 0 0-.716-.442h-.614a2.4 2.4 0 0 0-2.264 3.2h-.113a2.4 2.4 0 0 0-2.382 2.7l.4 3.2a2.4 2.4 0 0 0 2.382 2.1h1.925a2.38 2.38 0 0 0 1.7-.7l.9-.9h.469v.8a.8.8 0 0 0 .8.8h3.2a.8.8 0 0 0 .8-.8v-8a.8.8 0 0 0-.8-.8Zm-4 6.4h-.8a.8.8 0 0 0-.566.234l-1.132 1.132a.8.8 0 0 1-.566.234h-1.925a.8.8 0 0 1-.794-.7l-.4-3.2a.8.8 0 0 1 .794-.9h1.388a.8.8 0 0 0 .716-1.158l-.442-.885a.8.8 0 0 1 .716-1.158h.117l1.379 2.759a.8.8 0 0 0 .716.442h.8Zm3.2 1.6h-1.6v-6.4h1.6ZM24.004 23.206a7.15 7.15 0 0 1 2.88.6l.641-1.467a8.7 8.7 0 0 0-3.521-.733 8.84 8.84 0 0 0-7.624 4.4l1.385.8a7.23 7.23 0 0 1 6.239-3.6m-8.8 7.202h1.6a7.2 7.2 0 0 1 .33-2.161l-1.53-.483a8.8 8.8 0 0 0-.4 2.644m8.003-20.006a.8.8 0 0 0 .566-.234l5.6-5.6-1.132-1.132-5.036 5.036-1.835-1.835-1.132 1.132 2.4 2.4a.8.8 0 0 0 .569.233"/></g></g></svg>