<svg xmlns="http://www.w3.org/2000/svg" width="46.813" height="51.216" viewBox="0 0 46.813 51.216"><g transform="translate(0)"><g transform="translate(0.361 0.329)"><g transform="translate(0 0)"><path d="M25.606,3.28H51.895l9.232,9.232V49H25.606Z" transform="translate(-25.606 -3.28)" fill="#cce4ff" fill-rule="evenodd"/></g><g transform="translate(26.289)"><path d="M297.656,12.512h-9.232V3.28Z" transform="translate(-288.424 -3.28)" fill="#9dc6fb" fill-rule="evenodd"/></g><g transform="translate(9.077 15.868)"><path d="M125.033,161.92a8.684,8.684,0,0,1,8.682,8.685H116.348A8.685,8.685,0,0,1,125.033,161.92Z" transform="translate(-116.348 -161.92)" fill="#1a5b96" fill-rule="evenodd"/></g><g transform="translate(14.729 42.114)"><path d="M172.853,424.308h5.523v8.444h-5.523Z" transform="translate(-172.853 -424.308)" fill="#fd4755" fill-rule="evenodd"/></g><g transform="translate(23.342 38.819)"><path d="M258.963,391.365h5.523V403.1h-5.523Z" transform="translate(-258.963 -391.365)" fill="#ffd54f" fill-rule="evenodd"/></g><g transform="translate(31.955 34.094)"><path d="M345.074,344.124H350.6v16.464h-5.523Z" transform="translate(-345.074 -344.124)" fill="#31a7fb" fill-rule="evenodd"/></g><g transform="translate(40.569 30.436)"><path d="M431.184,307.557h5.523v20.122h-5.523Z" transform="translate(-431.184 -307.557)" fill="#05e39c" fill-rule="evenodd"/></g><g transform="translate(3.243 27.883)"><path d="M58.03,282.037H69.478v11.782H58.03Z" transform="translate(-58.03 -282.037)" fill="#ffd54f" fill-rule="evenodd"/></g><g transform="translate(7.419 27.883)"><path d="M99.776,282.037h3.094v4.512H99.776Z" transform="translate(-99.776 -282.037)" fill="#fd4755" fill-rule="evenodd"/></g><g transform="translate(3.914 17.63)"><path d="M66.587,179.528a13.758,13.758,0,0,0-1.853,6.924H69.9a8.638,8.638,0,0,1,1.163-4.343Z" transform="translate(-64.734 -179.528)" fill="#e41f2d" fill-rule="evenodd"/></g><g transform="translate(5.767 12.559)"><path d="M83.262,133.9l4.472,2.581a8.73,8.73,0,0,1,3.18-3.18l-2.584-4.472A13.88,13.88,0,0,0,83.262,133.9Z" transform="translate(-83.262 -128.834)" fill="#fd4755" fill-rule="evenodd"/></g><g transform="translate(10.835 10.705)"><path d="M133.927,112.159l2.584,4.472a8.63,8.63,0,0,1,4.343-1.163v-5.163A13.776,13.776,0,0,0,133.927,112.159Z" transform="translate(-133.927 -110.306)" fill="#ffc328" fill-rule="evenodd"/></g><g transform="translate(17.762 10.705)"><path d="M203.177,110.306v5.163a8.646,8.646,0,0,1,4.343,1.163l2.581-4.472a13.774,13.774,0,0,0-6.924-1.853Z" transform="translate(-203.177 -110.306)" fill="#ffd54f" fill-rule="evenodd"/></g><g transform="translate(22.105 12.559)"><path d="M249.173,128.834l-2.581,4.472a8.723,8.723,0,0,1,3.177,3.18l4.472-2.581A13.88,13.88,0,0,0,249.173,128.834Z" transform="translate(-246.592 -128.834)" fill="#0ed290" fill-rule="evenodd"/></g><g transform="translate(25.282 17.63)"><path d="M282.827,179.528l-4.472,2.581a8.638,8.638,0,0,1,1.163,4.343h5.163A13.758,13.758,0,0,0,282.827,179.528Z" transform="translate(-278.355 -179.528)" fill="#05e39c" fill-rule="evenodd"/></g><g transform="translate(15.822 22.614)"><path d="M185.726,233.238a1.94,1.94,0,1,0-1.94-1.94A1.942,1.942,0,0,0,185.726,233.238Z" transform="translate(-183.786 -229.359)" fill="#ffd54f" fill-rule="evenodd"/></g><g transform="translate(43.331 30.436)"><path d="M458.8,307.557h2.76v20.122H458.8Z" transform="translate(-458.803 -307.557)" fill="#0ed290" fill-rule="evenodd"/></g><g transform="translate(34.715 34.094)"><path d="M372.665,344.124h2.763v16.464h-2.763Z" transform="translate(-372.665 -344.124)" fill="#1785f8" fill-rule="evenodd"/></g><g transform="translate(26.102 38.819)"><path d="M286.554,391.365h2.763V403.1h-2.763Z" transform="translate(-286.554 -391.365)" fill="#ffc328" fill-rule="evenodd"/></g><g transform="translate(17.489 42.114)"><path d="M200.444,424.308h2.763v8.444h-2.763Z" transform="translate(-200.444 -424.308)" fill="#e41f2d" fill-rule="evenodd"/></g></g><path d="M54.542,24.881a14.258,14.258,0,0,0-1.885-7.1.684.684,0,0,0-.035-.069.727.727,0,0,0-.046-.069,14.451,14.451,0,0,0-5.168-5.156l-.038-.025-.026-.013a14.32,14.32,0,0,0-14.279-.006l-.037.019c-.019.011-.037.023-.054.035a14.452,14.452,0,0,0-5.151,5.143.7.7,0,0,0-.048.072.726.726,0,0,0-.036.072,14.256,14.256,0,0,0-1.884,7.1.7.7,0,0,0,.7.7H37.685a2.609,2.609,0,0,0,5.028,0H53.842A.7.7,0,0,0,54.542,24.881Zm-3.5-7.067-3.2,1.846a9.332,9.332,0,0,0-2.42-2.421l1.846-3.2a13.047,13.047,0,0,1,3.773,3.773ZM42.416,23.5l2.758-2.9a.7.7,0,0,0-1.014-.966l-2.774,2.913A2.589,2.589,0,0,0,40.2,22.27a2.616,2.616,0,0,0-2.515,1.911H32.377a7.854,7.854,0,0,1,15.645,0H42.713a2.6,2.6,0,0,0-.3-.676ZM40.9,15.65V11.957a12.844,12.844,0,0,1,5.152,1.383l-1.845,3.2A9.181,9.181,0,0,0,40.9,15.65Zm-1.4,0a9.188,9.188,0,0,0-3.31.888l-1.845-3.2A12.85,12.85,0,0,1,39.5,11.957Zm-6.367-1.608,1.846,3.2a9.333,9.333,0,0,0-2.42,2.42l-3.2-1.846A13.046,13.046,0,0,1,33.133,14.042Zm-4.475,4.985,3.2,1.846a9.188,9.188,0,0,0-.887,3.308H27.276a12.849,12.849,0,0,1,1.383-5.154ZM40.2,26.092a1.211,1.211,0,1,1,1.208-1.211A1.212,1.212,0,0,1,40.2,26.092Zm9.228-1.911a9.19,9.19,0,0,0-.887-3.308l3.2-1.846a12.851,12.851,0,0,1,1.383,5.154Zm10.2,9.4H58.4V9.785a.7.7,0,0,0-.205-.5L49.1.194a.7.7,0,0,0-.5-.205H22.7a.7.7,0,0,0-.7.7V45.735a.7.7,0,0,0,.7.7H36.512V50.5a.7.7,0,0,0,.7.7h5.441a.7.7,0,0,0,.7-.7V46.436H45V50.5a.7.7,0,0,0,.7.7h5.441a.7.7,0,0,0,.7-.7V46.436h1.644V50.5a.7.7,0,0,0,.7.7h5.441a.7.7,0,0,0,.7-.7V34.28a.7.7,0,0,0-.7-.7ZM49.3,2.38l6.7,6.7H49.3ZM41.953,49.8h-4.04V42.883h4.04Zm8.486,0H46.4V45.792c0-.019,0-.037,0-.056s0-.038,0-.056V39.636h4.04Zm1.4-4.769v-6.1a.7.7,0,0,0-.7-.7H45.7a.7.7,0,0,0-.7.7v6.1H43.354V42.183a.7.7,0,0,0-.7-.7H37.212a.7.7,0,0,0-.7.7v2.852H23.4V1.39H47.9v8.4a.7.7,0,0,0,.7.7H57V33.58H54.185a.7.7,0,0,0-.7.7V45.035ZM58.926,49.8h-4.04V34.981h4.04Zm9.187-19.828H62.671a.7.7,0,0,0-.7.7V50.5a.7.7,0,0,0,.7.7h5.441a.7.7,0,0,0,.7-.7V30.677a.7.7,0,0,0-.7-.7Zm-.7,19.828h-4.04V31.377h4.04ZM37.175,27.461H25.9a.7.7,0,0,0-.7.7V39.77a.7.7,0,0,0,.7.7H37.175a.7.7,0,0,0,.7-.7V28.162a.7.7,0,0,0-.7-.7Zm-6.465,1.4h1.647v3.045H30.71Zm5.764,10.207H26.6V28.862H29.31v3.746a.7.7,0,0,0,.7.7h3.048a.7.7,0,0,0,.7-.7V28.862h2.716Z" transform="translate(-22 0.011)"/></g></svg>