<svg xmlns="http://www.w3.org/2000/svg" width="124" height="124" viewBox="0 0 124 124"><defs><clipPath id="a"><path fill="#fff" d="M-.251 0h57v57h-57z"/></clipPath></defs><g transform="translate(-12546 6332.28)"><circle cx="62" cy="62" r="62" fill="#fff" transform="translate(12546 -6332.28)"/><g clip-path="url(#a)" transform="translate(12583.25 -6297)"><path fill="#ff826e" d="M22.602.904H4.52A3.615 3.615 0 0 0 .904 4.52v10.849a3.615 3.615 0 0 0 3.616 3.616h1.808l6.329 3.616v-3.616h9.945a3.615 3.615 0 0 0 3.616-3.616V4.52A3.615 3.615 0 0 0 22.602.904"/><path fill="#b4dd7f" d="M55.149 9.945v10.848a3.615 3.615 0 0 1-3.616 3.616h-1.809l-6.328 3.616V24.41h-9.945a3.615 3.615 0 0 1-3.616-3.616V9.945a3.615 3.615 0 0 1 3.616-3.62h18.082a3.615 3.615 0 0 1 3.616 3.62"/><path fill="#e6e9ed" d="M55.149 44.3v7.233a3.615 3.615 0 0 1-3.616 3.616H33.451a3.615 3.615 0 0 1-3.616-3.616V44.3a3.615 3.615 0 0 1 3.616-3.616h6.329v-3.617l6.329 3.616h5.424a3.615 3.615 0 0 1 3.616 3.617"/><path fill="#fcd770" d="M33.45 44.3h7.233v7.233H33.45Zm-18.985 8.588a2.26 2.26 0 0 0-2.26-2.26H.904v-.9a9.044 9.044 0 0 1 9.041-9.041h3.616l2.152-.307a12.67 12.67 0 0 0 7.16-3.58l8.019-8.019a2.557 2.557 0 1 1 3.616 3.612L20.549 46.352a2.25 2.25 0 0 0-.66 1.6v7.2h-7.684a2.253 2.253 0 0 0 2.26-2.26Z"/><path fill="#f0d0b4" d="M12.205 50.628a2.26 2.26 0 1 1 0 4.52H3.164a2.26 2.26 0 0 1-2.26-2.26v-2.26Z"/><circle cx="6.329" cy="6.329" r="6.329" fill="#f0d0b4" transform="translate(6.329 28.026)"/><path d="M36.163 30.584a3.461 3.461 0 0 0-5.909-2.447l-8.021 8.021a11.8 11.8 0 0 1-3.8 2.535 7.228 7.228 0 1 0-10.341 1.266A9.956 9.956 0 0 0 0 49.722v3.164a3.17 3.17 0 0 0 3.164 3.166h17.63v-8.1a1.35 1.35 0 0 1 .4-.959l13.955-13.962a3.44 3.44 0 0 0 1.014-2.447m-28.93 3.771a5.424 5.424 0 1 1 5.424 5.424 5.43 5.43 0 0 1-5.424-5.424m26.638-2.6L19.912 45.711a3.14 3.14 0 0 0-.927 2.238v6.3h-3.933a3.1 3.1 0 0 0 .317-1.356 3.17 3.17 0 0 0-3.164-3.171H4.52v1.81h7.685a1.356 1.356 0 0 1 0 2.712H3.164a1.36 1.36 0 0 1-1.356-1.356v-3.166a8.147 8.147 0 0 1 8.137-8.137h3.616l2.28-.316a13.65 13.65 0 0 0 7.671-3.836l8.021-8.021a1.653 1.653 0 0 1 2.337 2.339ZM51.533 5.424H33.451a4.526 4.526 0 0 0-4.52 4.52v10.85a4.526 4.526 0 0 0 4.52 4.52h9.041v4.27l7.473-4.27h1.568a4.526 4.526 0 0 0 4.52-4.52V9.945a4.526 4.526 0 0 0-4.52-4.521m2.712 15.37a2.716 2.716 0 0 1-2.712 2.712h-2.049l-5.179 2.963v-2.963H33.451a2.716 2.716 0 0 1-2.712-2.712V9.945a2.716 2.716 0 0 1 2.712-2.711h18.082a2.716 2.716 0 0 1 2.712 2.712Z"/><path d="M51.533 39.779h-5.184l-7.473-4.27v4.27h-5.425a4.526 4.526 0 0 0-4.52 4.52v7.233a4.526 4.526 0 0 0 4.52 4.52h18.082a4.526 4.526 0 0 0 4.52-4.52V44.3a4.526 4.526 0 0 0-4.52-4.521m2.712 11.753a2.716 2.716 0 0 1-2.712 2.712H33.451a2.716 2.716 0 0 1-2.712-2.712V44.3a2.716 2.716 0 0 1 2.712-2.715h7.233v-2.96l5.184 2.96h5.665a2.716 2.716 0 0 1 2.712 2.712ZM4.52 19.887h1.567l7.473 4.27v-4.27h9.041a4.526 4.526 0 0 0 4.52-4.52V4.52A4.526 4.526 0 0 0 22.601 0H4.52A4.526 4.526 0 0 0 0 4.52v10.849a4.526 4.526 0 0 0 4.52 4.518M1.808 4.52A2.716 2.716 0 0 1 4.52 1.808h18.082a2.716 2.716 0 0 1 2.712 2.712v10.849a2.716 2.716 0 0 1-2.712 2.712H11.753v2.963l-5.184-2.963H4.52a2.716 2.716 0 0 1-2.712-2.712Zm37.974 14.092-2.979-2.974-1.278 1.278 4.257 4.252 10.582-10.584-1.282-1.278Z"/><path d="m7.872 16.912 5.692-5.689 5.689 5.689 1.278-1.278-5.689-5.689 5.689-5.689-1.281-1.279-5.686 5.689-5.692-5.689-1.279 1.278 5.689 5.689-5.689 5.69Zm24.674 35.524h9.041v-9.041h-9.041Zm1.808-7.233h5.425v5.424h-5.424Zm9.041-1.808h9.041v1.808h-9.041Zm0 3.617h9.041v1.808h-9.041Zm0 3.616h9.041v1.808h-9.041Z"/></g></g></svg>