<svg xmlns="http://www.w3.org/2000/svg" width="103" height="103" viewBox="0 0 103 103"><defs><filter id="a" width="103" height="103" x="0" y="0" filterUnits="userSpaceOnUse"><feOffset dy="3"/><feGaussianBlur result="b" stdDeviation="3"/><feFlood flood-opacity=".161"/><feComposite in2="b" operator="in"/><feComposite in="SourceGraphic"/></filter></defs><g transform="translate(-1113.001 -4587.67)"><g filter="url(#a)" transform="translate(1113 4587.67)"><circle cx="42.5" cy="42.5" r="42.5" fill="#fff" transform="translate(9 6)"/></g><g transform="translate(1141.095 4610.67)"><g fill-rule="evenodd" transform="translate(.361 .329)"><path fill="#cce4ff" d="M0 0h26.289l9.232 9.232V45.72H0Z"/><path fill="#9dc6fb" d="M35.521 9.232h-9.232V0Z"/><path fill="#1a5b96" d="M17.762 15.868a8.684 8.684 0 0 1 8.682 8.685H9.077a8.685 8.685 0 0 1 8.685-8.685"/><path fill="#fd4755" d="M14.729 42.114h5.523v8.444h-5.523Z"/><path fill="#ffd54f" d="M23.342 38.819h5.523v11.735h-5.523Z"/><path fill="#31a7fb" d="M31.955 34.094h5.526v16.464h-5.523Z"/><path fill="#05e39c" d="M40.569 30.436h5.523v20.122h-5.523Z"/><path fill="#ffd54f" d="M3.243 27.883h11.448v11.782H3.243Z"/><path fill="#fd4755" d="M7.419 27.883h3.094v4.512H7.419Z"/><path fill="#e41f2d" d="M5.767 17.63a13.76 13.76 0 0 0-1.853 6.924H9.08a8.64 8.64 0 0 1 1.163-4.343Z"/><path fill="#fd4755" d="m5.767 17.625 4.472 2.581a8.73 8.73 0 0 1 3.18-3.18l-2.584-4.472a13.9 13.9 0 0 0-5.068 5.071"/><path fill="#ffc328" d="m10.835 12.558 2.584 4.472a8.63 8.63 0 0 1 4.343-1.163v-5.163a13.8 13.8 0 0 0-6.927 1.854"/><path fill="#ffd54f" d="M17.762 10.705v5.163a8.65 8.65 0 0 1 4.343 1.163l2.581-4.472a13.8 13.8 0 0 0-6.924-1.853Z"/><path fill="#0ed290" d="m24.686 12.559-2.581 4.472a8.7 8.7 0 0 1 3.177 3.18l4.472-2.581a13.9 13.9 0 0 0-5.068-5.071"/><path fill="#05e39c" d="m29.754 17.63-4.472 2.581a8.64 8.64 0 0 1 1.163 4.343h5.163a13.76 13.76 0 0 0-1.854-6.924"/><path fill="#ffd54f" d="M17.762 26.493a1.94 1.94 0 1 0-1.94-1.94 1.94 1.94 0 0 0 1.94 1.94"/><path fill="#0ed290" d="M43.328 30.436h2.76v20.122h-2.76Z"/><path fill="#1785f8" d="M34.715 34.094h2.763v16.464h-2.763Z"/><path fill="#ffc328" d="M26.102 38.819h2.763v11.735h-2.763Z"/><path fill="#e41f2d" d="M17.489 42.114h2.763v8.444h-2.763Z"/></g><path d="M32.542 24.892a14.26 14.26 0 0 0-1.885-7.1l-.035-.069-.046-.069a14.45 14.45 0 0 0-5.168-5.156l-.038-.025-.026-.013a14.32 14.32 0 0 0-14.279-.006l-.037.019-.054.035a14.45 14.45 0 0 0-5.151 5.143l-.048.072-.036.072a14.26 14.26 0 0 0-1.884 7.1.7.7 0 0 0 .7.7h11.13a2.609 2.609 0 0 0 5.028 0h11.129a.7.7 0 0 0 .7-.703m-3.5-7.067-3.2 1.846a9.3 9.3 0 0 0-2.42-2.421l1.846-3.2a13.05 13.05 0 0 1 3.773 3.773Zm-8.626 5.686 2.758-2.9a.7.7 0 0 0-1.014-.966l-2.774 2.913a2.6 2.6 0 0 0-1.186-.277 2.616 2.616 0 0 0-2.515 1.911h-5.308a7.854 7.854 0 0 1 15.645 0h-5.309a2.6 2.6 0 0 0-.3-.676Zm-1.516-7.85v-3.693a12.8 12.8 0 0 1 5.152 1.383l-1.845 3.2a9.2 9.2 0 0 0-3.307-.89m-1.4 0a9.2 9.2 0 0 0-3.31.888l-1.845-3.2a12.85 12.85 0 0 1 5.155-1.381Zm-6.367-1.608 1.846 3.2a9.3 9.3 0 0 0-2.42 2.42l-3.2-1.846a13.05 13.05 0 0 1 3.774-3.774m-4.475 4.985 3.2 1.846a9.2 9.2 0 0 0-.887 3.308H5.276a12.85 12.85 0 0 1 1.383-5.154ZM18.2 26.103a1.211 1.211 0 1 1 1.208-1.211 1.21 1.21 0 0 1-1.208 1.211m9.228-1.911a9.2 9.2 0 0 0-.887-3.308l3.2-1.846a12.85 12.85 0 0 1 1.383 5.154Zm10.2 9.4H36.4V9.796a.7.7 0 0 0-.205-.5L27.1.205A.7.7 0 0 0 26.6 0H.7a.7.7 0 0 0-.7.7v45.046a.7.7 0 0 0 .7.7h13.812v4.065a.7.7 0 0 0 .7.7h5.441a.7.7 0 0 0 .7-.7v-4.064H23v4.064a.7.7 0 0 0 .7.7h5.441a.7.7 0 0 0 .7-.7v-4.064h1.644v4.064a.7.7 0 0 0 .7.7h5.441a.7.7 0 0 0 .7-.7v-16.22a.7.7 0 0 0-.7-.7ZM27.3 2.391l6.7 6.7h-6.7Zm-7.347 47.42h-4.04v-6.917h4.04Zm8.486 0H24.4V39.647h4.04Zm1.4-4.769v-6.1a.7.7 0 0 0-.7-.7H23.7a.7.7 0 0 0-.7.7v6.1h-1.646v-2.848a.7.7 0 0 0-.7-.7h-5.442a.7.7 0 0 0-.7.7v2.852H1.4V1.401h24.5v8.4a.7.7 0 0 0 .7.7H35v23.09h-2.815a.7.7 0 0 0-.7.7v10.755Zm7.087 4.769h-4.04V34.992h4.04Zm9.187-19.828h-5.442a.7.7 0 0 0-.7.7v19.828a.7.7 0 0 0 .7.7h5.441a.7.7 0 0 0 .7-.7V30.688a.7.7 0 0 0-.7-.7Zm-.7 19.828h-4.04V31.388h4.04ZM15.175 27.472H3.9a.7.7 0 0 0-.7.7v11.609a.7.7 0 0 0 .7.7h11.275a.7.7 0 0 0 .7-.7V28.173a.7.7 0 0 0-.7-.7Zm-6.465 1.4h1.647v3.045H8.71Zm5.764 10.207H4.6V28.873h2.71v3.746a.7.7 0 0 0 .7.7h3.048a.7.7 0 0 0 .7-.7v-3.746h2.716Z"/></g></g></svg>