<svg xmlns="http://www.w3.org/2000/svg" width="103" height="103" viewBox="0 0 103 103"><defs><filter id="a" width="103" height="103" x="0" y="0" filterUnits="userSpaceOnUse"><feOffset dy="3"/><feGaussianBlur result="b" stdDeviation="3"/><feFlood flood-opacity=".161"/><feComposite in2="b" operator="in"/><feComposite in="SourceGraphic"/></filter></defs><g transform="translate(-801.001 -4587.67)"><g filter="url(#a)" transform="translate(801 4587.67)"><circle cx="42.5" cy="42.5" r="42.5" fill="#fff" transform="translate(9 6)"/></g><g transform="translate(826.494 4612.67)"><g transform="translate(.8 .8)"><g fill-rule="evenodd" transform="translate(0 2.087)"><path fill="#003748" d="m33.225 34.853-17.166.22-3.814 6.544a.4.4 0 0 0 .346.6H36.82a.4.4 0 0 0 .346-.6Z"/><path fill="#00242f" d="m33.227 34.853-1.986.026 3.927 6.739a.4.4 0 0 1-.346.6h2a.4.4 0 0 0 .346-.6Z"/><path fill="#e6f8ff" d="M46.834 0a2.587 2.587 0 0 1 2.58 2.58v30.053a2.587 2.587 0 0 1-2.58 2.58H2.58A2.587 2.587 0 0 1 0 32.633V2.58A2.587 2.587 0 0 1 2.58 0Z"/><path fill="#d0f1ff" d="M46.834 0a2.587 2.587 0 0 1 2.58 2.58v30.053a2.587 2.587 0 0 1-2.58 2.58h-3a2.587 2.587 0 0 0 2.58-2.58V2.58A2.587 2.587 0 0 0 43.834 0Z"/><path fill="#004960" d="M49.413 31.893H0v1.74a2.587 2.587 0 0 0 2.58 2.58h44.254a2.587 2.587 0 0 0 2.58-2.58Z"/><path fill="#003748" d="M49.413 31.893h-3v1.74a2.587 2.587 0 0 1-2.58 2.58h3a2.587 2.587 0 0 0 2.58-2.58Z"/></g><g fill-rule="evenodd" transform="translate(4.907)"><path fill="#fc685b" d="M19.799 0a19.8 19.8 0 0 1 17.149 29.7l-6.085-3.513a12.774 12.774 0 1 0-22.128 0L2.65 29.7A19.8 19.8 0 0 1 19.799 0"/><path fill="#f35244" d="m32.76 27.283-1.9-1.095a12.774 12.774 0 1 0-22.128 0l-1.9 1.095a14.964 14.964 0 1 1 25.921 0Z"/><path fill="#f35244" d="M2.65 9.898a19.7 19.7 0 0 0-2.65 9.9h7.026a12.77 12.77 0 0 1 6.385-11.061L9.898 2.652A19.9 19.9 0 0 0 2.65 9.9Z"/><path fill="#eb423f" d="M4.831 19.8h2.19a12.77 12.77 0 0 1 6.386-11.064l-1.095-1.9a14.96 14.96 0 0 0-7.481 12.961Z"/><path fill="#ffda2d" d="m2.65 9.898 6.085 3.513a12.77 12.77 0 0 1 11.064-6.385V0a19.79 19.79 0 0 0-17.15 9.9Z"/><path fill="#ffc700" d="m6.839 12.317 1.9 1.095a12.77 12.77 0 0 1 11.064-6.386v-2.19a14.96 14.96 0 0 0-12.964 7.481"/><path fill="#ffc700" d="m9.898 2.65 3.513 6.085a12.7 12.7 0 0 1 6.388-1.709 12.7 12.7 0 0 1 6.388 1.709L29.7 2.65a19.83 19.83 0 0 0-19.8 0Z"/><path fill="#fdb800" d="m12.317 6.839 1.095 1.9A12.7 12.7 0 0 1 19.8 7.03a12.7 12.7 0 0 1 6.388 1.709l1.095-1.9a14.98 14.98 0 0 0-14.966 0"/><path fill="#72d561" d="M19.799 0v7.026a12.77 12.77 0 0 1 11.064 6.386l6.085-3.513a19.79 19.79 0 0 0-17.15-9.9Z"/><path fill="#57ca5a" d="M19.799 4.836v2.19a12.77 12.77 0 0 1 11.064 6.386l1.9-1.095a14.96 14.96 0 0 0-12.964-7.481"/><path fill="#57ca5a" d="m29.7 2.65-3.513 6.087a12.77 12.77 0 0 1 6.386 11.064h7.026a19.79 19.79 0 0 0-9.9-17.15Z"/><path fill="#3cbe52" d="m27.282 6.839-1.095 1.9a12.77 12.77 0 0 1 6.386 11.064h2.19a14.96 14.96 0 0 0-7.481-12.961Z"/><path fill="#64b5f6" d="m36.953 9.898-6.085 3.513a12.79 12.79 0 0 1 0 12.776l6.085 3.513a19.82 19.82 0 0 0 0-19.8Z"/><path fill="#42a5f5" d="m32.76 12.317-1.9 1.095a12.79 12.79 0 0 1 0 12.776l1.9 1.1a14.98 14.98 0 0 0 0-14.966Z"/><path fill="#42a5f5" d="M39.598 19.799h-7.026a12.7 12.7 0 0 1-1.71 6.388l6.085 3.513a19.7 19.7 0 0 0 2.651-9.901"/><path fill="#2d90f1" d="M34.763 19.799h-2.19a12.7 12.7 0 0 1-1.71 6.388l1.9 1.1a14.9 14.9 0 0 0 2-7.488"/></g><g fill-rule="evenodd" transform="translate(24.609 10.705)"><path fill="#ffd6bd" d="m11.068 4.511.74 1.282a.4.4 0 0 0 .721-.048l1.86-4.533a.4.4 0 0 0-.318-.551L9.216.005a.4.4 0 0 0-.4.6l.74 1.282L.266 7.25a.53.53 0 0 0-.193.72l.988 1.711a.53.53 0 0 0 .72.193Z"/><path fill="#f9c6aa" d="m11.304 4.921.5.872a.4.4 0 0 0 .721-.048l1.86-4.533a.4.4 0 0 0-.318-.551l-.3-.041-1.745 4.253a.4.4 0 0 1-.718.048M.554 8.81l.5.871a.53.53 0 0 0 .72.193l9.289-5.363-.5-.872-9.29 5.363a.53.53 0 0 1-.718-.192Z"/></g><g transform="translate(12.151 7.249)"><circle cx="8.876" cy="8.876" r="8.876" fill="#fdb800" transform="rotate(-45 15.15 6.276)"/><path fill="#f4a40e" fill-rule="evenodd" d="M18.308 5.795A8.876 8.876 0 1 1 5.797 18.307 8.875 8.875 0 0 0 18.308 5.795"/><circle cx="6.195" cy="6.195" r="6.195" fill="#ffda2d" transform="translate(6.361 6.355)"/><g fill="#ffc700" fill-rule="evenodd" transform="translate(6.36 6.355)"><path d="M6.195 0a6.18 6.18 0 0 1 4.541 1.973 6.195 6.195 0 0 0-8.207 9.209A6.2 6.2 0 0 1 6.2-.004Z"/><path d="M4.827 2.864a.8.8 0 1 1 1.6 0v.374a2.12 2.12 0 0 1 1.155.8.8.8 0 1 1-1.294.932.5.5 0 0 0-.176-.152.5.5 0 0 0-.223-.051h-.406a.49.49 0 0 0 0 .98h.288a2.091 2.091 0 0 1 .656 4.075v.408a.8.8 0 1 1-1.6 0v-.374a2.1 2.1 0 0 1-1.155-.8.8.8 0 1 1 1.294-.932.5.5 0 0 0 .176.152.5.5 0 0 0 .223.051h.406a.49.49 0 0 0 0-.98h-.288a2.091 2.091 0 0 1-.656-4.075z"/></g></g></g><path fill-rule="evenodd" d="M27.741 21.89a2.09 2.09 0 0 1-1.434 1.986v.407a.8.8 0 0 1-1.6 0v-.373a2.1 2.1 0 0 1-1.156-.8.801.801 0 1 1 1.3-.937.5.5 0 0 0 .4.2h.406a.49.49 0 1 0 0-.979h-.288a2.09 2.09 0 0 1-.656-4.075v-.407a.8.8 0 0 1 1.6 0v.373a2.1 2.1 0 0 1 1.156.8.801.801 0 1 1-1.3.937.5.5 0 0 0-.4-.206h-.406a.49.49 0 0 0 0 .98h.288a2.093 2.093 0 0 1 2.09 2.091Zm-2.234 4.105a5.4 5.4 0 1 0-5.4-5.4 5.4 5.4 0 0 0 5.4 5.4m0-12.391a7 7 0 1 0 7 7 7 7 0 0 0-7-7m22.127 24.7H3.38a1.78 1.78 0 0 1-1.779-1.784v-.944h47.813v.939a1.78 1.78 0 0 1-1.78 1.784Zm-10.708 6.003H14.088l2.568-4.407h17.7ZM3.38 3.687a1.78 1.78 0 0 0-1.779 1.779v28.51h47.813V5.466a1.78 1.78 0 0 0-1.779-1.779H37.253a20.593 20.593 0 0 1 6.1 27.214.8.8 0 0 1-1.093.292l-6.089-3.517a.8.8 0 0 1-.293-1.094 12 12 0 0 0 1.373-8.328 1.2 1.2 0 0 1-.726-.56l-.34-.589-1.383.8a9.7 9.7 0 1 1-2.32-4.008l1.387-.8-.34-.589a1.2 1.2 0 0 1-.122-.907 11.975 11.975 0 0 0-18.272 14.985.8.8 0 0 1-.292 1.094l-6.085 3.513a.8.8 0 0 1-1.093-.292 20.593 20.593 0 0 1 6.1-27.214zm22.927-2.069a18.9 18.9 0 0 1 8 2.145l-2.712 4.7a13.5 13.5 0 0 0-5.284-1.41Zm-6.881 6.848-2.715-4.7a18.9 18.9 0 0 1 8-2.145v5.431a13.5 13.5 0 0 0-5.281 1.416Zm-5.249 4.668-4.7-2.716a19.2 19.2 0 0 1 5.852-5.852l2.716 4.7a13.7 13.7 0 0 0-3.868 3.868m-2.22 6.666H6.526a18.9 18.9 0 0 1 2.145-8l4.7 2.715a13.5 13.5 0 0 0-1.414 5.284Zm0 1.6a13.6 13.6 0 0 0 1.413 5.282l-4.7 2.717a19 19 0 0 1-2.138-8Zm27.844-9.978a1.3 1.3 0 0 0-.215-.05l-4.763-.644a13.6 13.6 0 0 0-1.846-1.467l2.711-4.7a19.2 19.2 0 0 1 5.853 5.852Zm-.745 8.377a13.5 13.5 0 0 0-.341-2.336l1.824-4.444a1.2 1.2 0 0 0 .063-.211l1.74-1.005a18.9 18.9 0 0 1 2.146 8Zm0 1.6h5.43a19 19 0 0 1-2.138 8l-4.7-2.716a13.6 13.6 0 0 0 1.409-5.283Zm-5.555-6.242 1.859-1.073a.8.8 0 0 0 .293-1.093l-.336-.58 3.543.478-1.359 3.306-.335-.58a.8.8 0 0 0-1.094-.293l-1.856 1.072a9.6 9.6 0 0 0-.717-1.237Zm.08 5.442a8.076 8.076 0 1 0-8.074 8.077 8.085 8.085 0 0 0 8.076-8.077ZM47.634 2.087h-13.1a20.57 20.57 0 0 0-18.056 0H3.38A3.384 3.384 0 0 0 .001 5.466V36.52a3.384 3.384 0 0 0 3.38 3.38h11.42l-2.448 4.2a1.19 1.19 0 0 0-.008 1.2 1.21 1.21 0 0 0 1.045.607h24.231a1.21 1.21 0 0 0 1.045-.607 1.18 1.18 0 0 0-.007-1.2l-2.449-4.2h11.424a3.384 3.384 0 0 0 3.38-3.38V5.466a3.384 3.384 0 0 0-3.38-3.38Z"/></g></g></svg>