<svg xmlns="http://www.w3.org/2000/svg" width="130.68" height="111.887" viewBox="0 0 130.68 111.887"><g fill-rule="evenodd" transform="translate(1.558 1.558)"><path fill="#1b6fab" d="M54.393 108.778A54.389 54.389 0 1 0 0 54.385a54.495 54.495 0 0 0 54.393 54.393"/><path fill="#3589c9" d="M58.671.162a54.393 54.393 0 0 1 0 108.448 54.392 54.392 0 0 1 0-108.448"/><path fill="#f7b84e" d="M99.114 108.779a28.446 28.446 0 1 0-28.442-28.454 28.5 28.5 0 0 0 28.442 28.454"/><path fill="#ffcb5b" d="M102.671 52.107a28.448 28.448 0 0 1 0 56.451 28.448 28.448 0 0 1 0-56.451"/></g><path fill="#e2e5e7" d="M86.164 71.796h29.023v26.157H86.164Z"/><path fill="#3589c9" d="M95.77 85.458h9.8v12.494h-9.8Z"/><path fill="#cad1d8" d="M86.164 71.796h4.02v26.157h-4.02Z"/><path fill="#3589c9" fill-rule="evenodd" d="M119.001 74.192a5.15 5.15 0 0 1-9.165 0 5.15 5.15 0 0 1-9.165 0 5.144 5.144 0 0 1-9.157 0 5.15 5.15 0 0 1-9.165 0l6.137-8.371h24.378z"/><path fill="#070202" d="M114.423 75.434a3.86 3.86 0 0 1-3.248-2.05 1.57 1.57 0 0 0-2.668 0 3.6 3.6 0 0 1-6.5 0 1.556 1.556 0 0 0-2.653 0 3.61 3.61 0 0 1-6.512 0 1.55 1.55 0 0 0-1.323-.742 1.57 1.57 0 0 0-1.338.742 3.86 3.86 0 0 1-3.256 2.05 3.55 3.55 0 0 1-2.631-1.242l4.99-6.82h22.79l5 6.82a3.6 3.6 0 0 1-2.653 1.242Zm16.257 6.512v-.132a30.075 30.075 0 0 0-18.822-27.766 55.94 55.94 0 0 0-95.469-37.659 55.947 55.947 0 0 0 65.7 89.023 29.984 29.984 0 0 0 48.594-23.467Zm-23.555 14.449V85.458a1.553 1.553 0 0 0-1.551-1.558h-9.8a1.56 1.56 0 0 0-1.558 1.558v10.936h-6.5v-17.9a6.8 6.8 0 0 0 3.792-1.845 6.477 6.477 0 0 0 9.157 0 6.485 6.485 0 0 0 9.165 0 6.8 6.8 0 0 0 3.8 1.845v17.9Zm-3.1 0h-6.7v-9.378h6.7Zm16.233-23.123-6.144-8.37a1.53 1.53 0 0 0-1.249-.639H88.487a1.58 1.58 0 0 0-1.257.639l-6.144 8.37a1.57 1.57 0 0 0-.066 1.727 7.47 7.47 0 0 0 3.586 3.1v19.853a1.557 1.557 0 0 0 1.551 1.558h29.037a1.557 1.557 0 0 0 1.551-1.558V78.101a7.47 7.47 0 0 0 3.586-3.1 1.56 1.56 0 0 0-.073-1.727Zm-19.586 35.5a26.891 26.891 0 1 1 26.9-26.891 26.92 26.92 0 0 1-26.9 26.897Zm-31.816-1.6a35.4 35.4 0 0 0 7.364-7.923 31 31 0 0 0 3.359 3.947 52.3 52.3 0 0 1-10.723 3.976m-52.93-16.793a59.2 59.2 0 0 1 12.648-5.549 64 64 0 0 0 4.549 10.326 38.9 38.9 0 0 0 9.891 12.016 52.8 52.8 0 0 1-27.09-16.793ZM43.014 4.718a38.8 38.8 0 0 0-9.89 12.009 64 64 0 0 0-4.55 10.326 59 59 0 0 1-12.648-5.549A52.75 52.75 0 0 1 43.014 4.718m52.91 16.815a59.2 59.2 0 0 1-12.6 5.519 63 63 0 0 0-4.557-10.326 39 39 0 0 0-9.848-11.987 53.15 53.15 0 0 1 27.005 16.794m-7.239 32.852h-.838a91 91 0 0 0-3.586-24.378 62 62 0 0 0 13.647-6.035 52.37 52.37 0 0 1 10.781 29 30.04 30.04 0 0 0-20.005 1.411ZM70.814 78.844a103 103 0 0 0-13.31-1.051V57.501h25.72a30.02 30.02 0 0 0-12.41 21.343m-13.31 2.058a99 99 0 0 1 13.168 1.07 29.9 29.9 0 0 0 3.733 14.4c-4.792 7.386-10.723 11.7-16.9 12.325v-27.8Zm-3.109 0v27.8c-6.96-.691-13.486-5.968-18.557-15.052a61 61 0 0 1-4.277-9.687 93.7 93.7 0 0 1 22.834-3.057Zm-27.237-23.4H54.4v20.284a96.7 96.7 0 0 0-23.79 3.219 88.3 88.3 0 0 1-3.447-23.5Zm-3.109 0a91 91 0 0 0 3.572 24.378 62 62 0 0 0-13.692 6.063A52.6 52.6 0 0 1 3.145 57.501Zm0-3.116H3.145a52.6 52.6 0 0 1 10.789-30.442 62.3 62.3 0 0 0 13.692 6.063 91 91 0 0 0-3.572 24.378ZM54.4 34.101v20.284H27.163a88.3 88.3 0 0 1 3.451-23.503 97 97 0 0 0 23.79 3.219Zm0-3.116a93.3 93.3 0 0 1-22.834-3.065 61.5 61.5 0 0 1 4.277-9.679C40.914 9.157 47.443 3.88 54.4 3.19v27.8Zm3.109 0v-27.8c6.938.691 13.471 5.968 18.542 15.051a60 60 0 0 1 4.285 9.679 93.4 93.4 0 0 1-22.827 3.065Zm0 3.116a97 97 0 0 0 23.775-3.219 87.7 87.7 0 0 1 3.447 23.5H57.509Z"/></svg>