<svg xmlns="http://www.w3.org/2000/svg" width="85" height="64.156" viewBox="0 0 85 64.156"><path fill="#a5b9f6" d="M10.411 20.612a2.13 2.13 0 0 1-2.117-1.873 7.47 7.47 0 0 0-6.426-6.321 2.135 2.135 0 0 1-.014-4.234 7.55 7.55 0 0 0 6.43-6.326 2.132 2.132 0 0 1 4.227-.016 7.59 7.59 0 0 0 6.422 6.376 2.12 2.12 0 0 1 1.862 2.09v.038a2.054 2.054 0 0 1-1.831 2.033 7.59 7.59 0 0 0-6.441 6.4 2.136 2.136 0 0 1-2.112 1.833M10.4 1a1.14 1.14 0 0 0-1.125 1A8.55 8.55 0 0 1 2.01 9.172a1.135 1.135 0 0 0 .008 2.258 8.465 8.465 0 0 1 7.267 7.17 1.132 1.132 0 0 0 2.249.021 8.59 8.59 0 0 1 7.3-7.236 1.064 1.064 0 0 0 .961-1.042v-.035a1.125 1.125 0 0 0-1-1.1 8.6 8.6 0 0 1-7.272-7.222A1.134 1.134 0 0 0 10.4 1m21.413 19.612a2.13 2.13 0 0 1-2.117-1.873 7.47 7.47 0 0 0-6.426-6.321 2.135 2.135 0 0 1-.011-4.234 7.55 7.55 0 0 0 6.429-6.326 2.133 2.133 0 0 1 4.228-.016 7.59 7.59 0 0 0 6.421 6.377 2.12 2.12 0 0 1 1.862 2.09v.038a2.054 2.054 0 0 1-1.831 2.033 7.59 7.59 0 0 0-6.441 6.4 2.136 2.136 0 0 1-2.114 1.832M31.801 1a1.14 1.14 0 0 0-1.125 1 8.55 8.55 0 0 1-7.264 7.171 1.135 1.135 0 0 0 .008 2.258 8.465 8.465 0 0 1 7.268 7.171 1.132 1.132 0 0 0 2.249.021 8.59 8.59 0 0 1 7.3-7.236 1.064 1.064 0 0 0 .961-1.042v-.035a1.125 1.125 0 0 0-1-1.1 8.6 8.6 0 0 1-7.271-7.222A1.136 1.136 0 0 0 31.801 1m21.416 19.612a2.13 2.13 0 0 1-2.117-1.873 7.47 7.47 0 0 0-6.426-6.321 2.135 2.135 0 0 1-.014-4.234 7.55 7.55 0 0 0 6.427-6.326 2.132 2.132 0 0 1 4.23-.016 7.59 7.59 0 0 0 6.422 6.376 2.12 2.12 0 0 1 1.862 2.09v.038a2.054 2.054 0 0 1-1.831 2.033 7.59 7.59 0 0 0-6.441 6.4 2.136 2.136 0 0 1-2.112 1.833M53.202 1a1.14 1.14 0 0 0-1.125 1 8.55 8.55 0 0 1-7.26 7.172 1.135 1.135 0 0 0 0 2.258 8.465 8.465 0 0 1 7.272 7.17 1.132 1.132 0 0 0 2.249.021 8.59 8.59 0 0 1 7.3-7.236 1.064 1.064 0 0 0 .961-1.042v-.035a1.125 1.125 0 0 0-1-1.1 8.6 8.6 0 0 1-7.272-7.222A1.134 1.134 0 0 0 53.202 1m21.414 19.612a2.13 2.13 0 0 1-2.117-1.873 7.47 7.47 0 0 0-6.424-6.321 2.135 2.135 0 0 1-.014-4.234 7.55 7.55 0 0 0 6.429-6.326 2.132 2.132 0 0 1 4.227-.016 7.59 7.59 0 0 0 6.422 6.376 2.12 2.12 0 0 1 1.862 2.09v.038a2.054 2.054 0 0 1-1.831 2.033 7.59 7.59 0 0 0-6.441 6.4 2.136 2.136 0 0 1-2.113 1.833M74.604 1a1.14 1.14 0 0 0-1.125 1 8.55 8.55 0 0 1-7.264 7.172 1.135 1.135 0 0 0 .008 2.258 8.465 8.465 0 0 1 7.267 7.17 1.132 1.132 0 0 0 2.249.021 8.59 8.59 0 0 1 7.3-7.236A1.064 1.064 0 0 0 84 10.343v-.035a1.125 1.125 0 0 0-1-1.1 8.6 8.6 0 0 1-7.272-7.222A1.134 1.134 0 0 0 74.604 1M10.411 42.384a2.133 2.133 0 0 1-2.116-1.873 7.47 7.47 0 0 0-6.426-6.321 2.135 2.135 0 0 1-.014-4.239 7.555 7.555 0 0 0 6.429-6.326 2.132 2.132 0 0 1 4.227-.017 7.59 7.59 0 0 0 6.422 6.376 2.12 2.12 0 0 1 1.862 2.09v.039a2.08 2.08 0 0 1-1.831 2.038 7.59 7.59 0 0 0-6.441 6.394 2.14 2.14 0 0 1-2.112 1.839M10.4 22.771a1.14 1.14 0 0 0-1.125 1 8.55 8.55 0 0 1-7.265 7.173 1.135 1.135 0 0 0 .008 2.258 8.465 8.465 0 0 1 7.268 7.173 1.132 1.132 0 0 0 2.249.02 8.59 8.59 0 0 1 7.3-7.235 1.064 1.064 0 0 0 .961-1.042v-.039a1.13 1.13 0 0 0-1-1.1 8.6 8.6 0 0 1-7.271-7.222 1.134 1.134 0 0 0-1.125-.986m21.413 19.613a2.133 2.133 0 0 1-2.117-1.873 7.47 7.47 0 0 0-6.426-6.321 2.135 2.135 0 0 1-.011-4.239 7.555 7.555 0 0 0 6.429-6.326 2.133 2.133 0 0 1 4.228-.017 7.59 7.59 0 0 0 6.421 6.377 2.12 2.12 0 0 1 1.862 2.09v.039a2.08 2.08 0 0 1-1.833 2.037 7.59 7.59 0 0 0-6.441 6.394 2.14 2.14 0 0 1-2.112 1.839m-.012-19.613a1.14 1.14 0 0 0-1.125 1 8.55 8.55 0 0 1-7.264 7.171 1.135 1.135 0 0 0 .008 2.258 8.465 8.465 0 0 1 7.268 7.173 1.132 1.132 0 0 0 2.249.02 8.59 8.59 0 0 1 7.3-7.235 1.064 1.064 0 0 0 .961-1.042v-.039a1.13 1.13 0 0 0-1-1.1 8.6 8.6 0 0 1-7.27-7.222 1.136 1.136 0 0 0-1.127-.984m21.416 19.613a2.133 2.133 0 0 1-2.117-1.873 7.47 7.47 0 0 0-6.426-6.321 2.135 2.135 0 0 1-.014-4.234 7.555 7.555 0 0 0 6.429-6.326 2.132 2.132 0 0 1 4.227-.017 7.59 7.59 0 0 0 6.422 6.376 2.12 2.12 0 0 1 1.862 2.09v.039a2.08 2.08 0 0 1-1.833 2.033 7.59 7.59 0 0 0-6.441 6.394 2.14 2.14 0 0 1-2.109 1.839m-.015-19.613a1.14 1.14 0 0 0-1.125 1 8.55 8.55 0 0 1-7.26 7.173 1.135 1.135 0 0 0 .008 2.258 8.465 8.465 0 0 1 7.268 7.173 1.132 1.132 0 0 0 2.249.02 8.59 8.59 0 0 1 7.3-7.235 1.064 1.064 0 0 0 .961-1.042v-.039a1.13 1.13 0 0 0-1-1.1 8.6 8.6 0 0 1-7.271-7.222 1.134 1.134 0 0 0-1.13-.986m21.414 19.613a2.133 2.133 0 0 1-2.117-1.873 7.47 7.47 0 0 0-6.424-6.321 2.135 2.135 0 0 1-.014-4.234 7.555 7.555 0 0 0 6.429-6.326 2.132 2.132 0 0 1 4.227-.017 7.59 7.59 0 0 0 6.422 6.376 2.12 2.12 0 0 1 1.862 2.09v.039a2.08 2.08 0 0 1-1.832 2.033 7.59 7.59 0 0 0-6.441 6.394 2.14 2.14 0 0 1-2.112 1.839m-.012-19.613a1.14 1.14 0 0 0-1.125 1 8.55 8.55 0 0 1-7.264 7.171 1.135 1.135 0 0 0 .008 2.258 8.465 8.465 0 0 1 7.268 7.173 1.132 1.132 0 0 0 2.249.02 8.59 8.59 0 0 1 7.3-7.235 1.064 1.064 0 0 0 .961-1.042v-.039a1.13 1.13 0 0 0-1-1.1 8.6 8.6 0 0 1-7.271-7.222 1.134 1.134 0 0 0-1.126-.984M10.411 64.155a2.13 2.13 0 0 1-2.116-1.873 7.47 7.47 0 0 0-6.426-6.321 2.135 2.135 0 0 1-.014-4.235 7.55 7.55 0 0 0 6.429-6.324 2.132 2.132 0 0 1 4.227-.016 7.59 7.59 0 0 0 6.422 6.376 2.12 2.12 0 0 1 1.862 2.09v.038a2.08 2.08 0 0 1-1.831 2.033 7.59 7.59 0 0 0-6.441 6.4 2.14 2.14 0 0 1-2.112 1.832M10.4 44.543a1.14 1.14 0 0 0-1.125 1 8.55 8.55 0 0 1-7.264 7.17 1.136 1.136 0 0 0 .008 2.259 8.465 8.465 0 0 1 7.268 7.173 1.132 1.132 0 0 0 2.249.021 8.59 8.59 0 0 1 7.3-7.236 1.064 1.064 0 0 0 .961-1.042v-.038a1.125 1.125 0 0 0-1-1.1 8.6 8.6 0 0 1-7.272-7.222 1.134 1.134 0 0 0-1.125-.985m21.413 19.612a2.13 2.13 0 0 1-2.117-1.873 7.47 7.47 0 0 0-6.426-6.321 2.135 2.135 0 0 1-.014-4.235 7.55 7.55 0 0 0 6.43-6.325 2.133 2.133 0 0 1 4.228-.016 7.59 7.59 0 0 0 6.421 6.377 2.12 2.12 0 0 1 1.862 2.09v.038a2.08 2.08 0 0 1-1.831 2.033 7.59 7.59 0 0 0-6.441 6.4 2.14 2.14 0 0 1-2.112 1.832m-.012-19.612a1.14 1.14 0 0 0-1.125 1 8.55 8.55 0 0 1-7.264 7.17 1.136 1.136 0 0 0 .008 2.259 8.465 8.465 0 0 1 7.268 7.173 1.132 1.132 0 0 0 2.249.021 8.59 8.59 0 0 1 7.3-7.236 1.064 1.064 0 0 0 .961-1.042v-.038a1.125 1.125 0 0 0-1-1.1 8.6 8.6 0 0 1-7.271-7.222 1.136 1.136 0 0 0-1.126-.985m21.416 19.612a2.13 2.13 0 0 1-2.117-1.873 7.47 7.47 0 0 0-6.426-6.321 2.135 2.135 0 0 1-.014-4.235 7.55 7.55 0 0 0 6.427-6.324 2.132 2.132 0 0 1 4.227-.016 7.59 7.59 0 0 0 6.422 6.376 2.12 2.12 0 0 1 1.862 2.09v.038a2.08 2.08 0 0 1-1.831 2.032 7.59 7.59 0 0 0-6.441 6.4 2.14 2.14 0 0 1-2.109 1.833m-.012-19.612a1.14 1.14 0 0 0-1.125 1 8.55 8.55 0 0 1-7.264 7.17 1.136 1.136 0 0 0 .008 2.259 8.465 8.465 0 0 1 7.268 7.173 1.132 1.132 0 0 0 2.249.021 8.59 8.59 0 0 1 7.3-7.236 1.064 1.064 0 0 0 .961-1.042v-.038a1.125 1.125 0 0 0-1-1.1 8.6 8.6 0 0 1-7.272-7.222 1.134 1.134 0 0 0-1.128-.985Zm21.411 19.612a2.13 2.13 0 0 1-2.117-1.873 7.47 7.47 0 0 0-6.424-6.321 2.135 2.135 0 0 1-.014-4.235 7.55 7.55 0 0 0 6.43-6.325 2.132 2.132 0 0 1 4.227-.016 7.59 7.59 0 0 0 6.422 6.376 2.12 2.12 0 0 1 1.862 2.09v.038a2.08 2.08 0 0 1-1.831 2.033 7.59 7.59 0 0 0-6.441 6.4 2.14 2.14 0 0 1-2.114 1.833m-.012-19.612a1.14 1.14 0 0 0-1.125 1 8.55 8.55 0 0 1-7.264 7.17 1.136 1.136 0 0 0 .008 2.259 8.465 8.465 0 0 1 7.268 7.173 1.132 1.132 0 0 0 2.249.021 8.59 8.59 0 0 1 7.3-7.236 1.064 1.064 0 0 0 .961-1.042v-.038a1.125 1.125 0 0 0-1-1.1 8.6 8.6 0 0 1-7.272-7.222 1.134 1.134 0 0 0-1.125-.985"/></svg>