<svg xmlns="http://www.w3.org/2000/svg" width="142.021" height="142.02" viewBox="0 0 142.021 142.02"><g transform="translate(-1 -1)"><path fill="#e66d67" d="M140.73 113.241H99.498l4.123-11.453h32.985Z"/><path fill="#ffba66" d="M120.114 101.788v11.453h-10.308l2.062-11.453Z"/><path fill="#e66d67" d="M130.421 113.241h-10.308v-11.453h8.246Z"/><path fill="#ffba66" d="M140.729 113.241h-10.307l-2.062-11.453h8.246Z"/><path fill="#fafbff" d="M104.079 113.241h32.069v25.2h-32.069Z"/><path fill="#ffba66" d="M114.387 126.985h11.453v11.453h-11.453Z"/><path fill="#6b86b3" d="m44.316 117.342-2.886-1.489a18 18 0 0 0-2.13-5.108l.985-3.115a21 21 0 0 0-3.894-3.894l-3.115.985a18 18 0 0 0-5.108-2.13l-1.489-2.886a22 22 0 0 0-2.772-.207 22 22 0 0 0-2.772.206l-1.489 2.886a18 18 0 0 0-5.108 2.13l-3.115-.985a21 21 0 0 0-3.894 3.894l.985 3.115a18 18 0 0 0-2.13 5.108l-2.887 1.49a18.7 18.7 0 0 0 0 5.543l2.886 1.489a18 18 0 0 0 2.13 5.108l-.984 3.116a21 21 0 0 0 3.894 3.894l3.115-.985a18 18 0 0 0 5.108 2.13l1.489 2.886a22 22 0 0 0 2.772.206 22 22 0 0 0 2.772-.206l1.489-2.886a18 18 0 0 0 5.108-2.13l3.115.985a21 21 0 0 0 3.894-3.894l-.985-3.115a18 18 0 0 0 2.13-5.108l2.886-1.489a18.7 18.7 0 0 0 0-5.543Zm-20.409 10.377a7.6 7.6 0 1 1 7.6-7.6 7.615 7.615 0 0 1-7.6 7.6"/><path fill="#36b385" d="M12.453 58.269V40.216a7.146 7.146 0 0 1 7.17-7.147h8.59a7.14 7.14 0 0 1 7.147 7.147v18.053Z"/><circle cx="6.872" cy="6.872" r="6.872" fill="#ffc9b9" transform="translate(17.034 12.453)"/><path fill="#6b86b3" d="M108.66 58.266V42.507a7.146 7.146 0 0 1 7.17-7.147h8.59a7.14 7.14 0 0 1 7.147 7.147v15.76Z"/><circle cx="6.872" cy="6.872" r="6.872" fill="#ffc9b9" transform="translate(113.241 14.744)"/><path fill="#fafbff" d="M106.37 26.197h-2.291a4.6 4.6 0 0 1-4.581-4.582 4.615 4.615 0 0 1 4.581-4.581h2.291Zm29.778-9.163a4.6 4.6 0 0 1 4.581 4.581 4.615 4.615 0 0 1-4.581 4.581h-2.291v-9.162Z"/><path d="m101.468 101.01-4.123 11.453a2.31 2.31 0 0 0 .275 2.084 2.26 2.26 0 0 0 1.878.962h2.291v22.907a2.3 2.3 0 0 0 2.291 2.291h32.068a2.3 2.3 0 0 0 2.291-2.291V115.51h2.291a2.32 2.32 0 0 0 1.88-.962 2.26 2.26 0 0 0 .275-2.084l-4.125-11.454a2.27 2.27 0 0 0-2.15-1.512h-32.989a2.27 2.27 0 0 0-2.153 1.512m15.21 35.138v-6.872h6.872v6.872Zm17.18 0h-5.727v-9.162a2.3 2.3 0 0 0-2.291-2.288h-11.453a2.3 2.3 0 0 0-2.291 2.291v9.159h-5.726v-20.616h27.488Zm-16.034-25.2h-5.178l1.145-6.872h4.032Zm4.581-6.872h4.032l1.145 6.872h-5.178Zm15.072 6.872h-5.246l-1.145-6.872h3.917Zm-28.335-6.869-1.145 6.872h-5.246l2.474-6.872Zm-45.378 7.33-9.163 6.872a2.29 2.29 0 0 0 0 3.665l9.163 6.872 2.749-3.665-3.665-2.744h27.487v-4.586H62.848l3.665-2.749Zm16.03-66.429 2.749 3.665 9.163-6.872a2.29 2.29 0 0 0 0-3.665l-9.159-6.872-2.753 3.665 3.665 2.749H51.394v4.586h32.069ZM26.202 92.625V74.3l2.744 3.67 3.665-2.749-6.872-9.163a2.384 2.384 0 0 0-3.665 0l-6.872 9.159 3.665 2.753 2.749-3.665v18.32Zm91.621-27.487v20.616l-2.749-3.665-3.665 2.749 6.872 9.163a2.29 2.29 0 0 0 3.665 0l6.872-9.163-3.665-2.749-2.744 3.665V65.138Zm-93.916-36.65a9.163 9.163 0 1 0-9.163-9.162 9.16 9.16 0 0 0 9.163 9.162m0-13.744a4.581 4.581 0 1 1-4.581 4.581 4.595 4.595 0 0 1 4.581-4.581m105.369 6.872a9.163 9.163 0 1 0-9.163 9.163 9.16 9.16 0 0 0 9.163-9.163m-13.744 0a4.581 4.581 0 1 1 4.581 4.581 4.595 4.595 0 0 1-4.581-4.581M12.453 60.556h22.906a2.3 2.3 0 0 0 2.291-2.291v-18.05a9.453 9.453 0 0 0-9.438-9.437h-8.59a9.453 9.453 0 0 0-9.437 9.437v18.05a2.3 2.3 0 0 0 2.29 2.291Zm2.29-20.341a4.86 4.86 0 0 1 4.856-4.856h8.59a4.86 4.86 0 0 1 4.856 4.856v15.763H14.743Zm91.627 2.291v15.763a2.3 2.3 0 0 0 2.291 2.291h22.909a2.3 2.3 0 0 0 2.288-2.291V42.506a9.453 9.453 0 0 0-9.438-9.437h-8.59a9.453 9.453 0 0 0-9.437 9.437Zm4.581 0a4.86 4.86 0 0 1 4.856-4.856h8.59a4.86 4.86 0 0 1 4.856 4.856v13.469h-18.325V42.506Z"/><path d="M136.148 14.744h-.16a16.039 16.039 0 0 0-31.748 0h-.16a6.872 6.872 0 0 0 0 13.744h2.291a2.3 2.3 0 0 0 2.289-2.288v-9.166a11.453 11.453 0 0 1 22.906 0V26.2a2.3 2.3 0 0 0 2.291 2.291h2.291a6.872 6.872 0 0 0 0-13.744Zm-32.069 9.162a2.291 2.291 0 0 1 0-4.581Zm32.069 0v-4.581a2.291 2.291 0 0 1 0 4.581M2.443 124.9l1.993 1.031a19 19 0 0 0 1.581 3.8l-.688 2.153a2.27 2.27 0 0 0 .371 2.087 23 23 0 0 0 4.352 4.352 2.27 2.27 0 0 0 2.084.367l2.153-.687a19.6 19.6 0 0 0 3.8 1.581l1.031 1.993a2.26 2.26 0 0 0 1.741 1.214 20.7 20.7 0 0 0 6.139 0 2.3 2.3 0 0 0 1.741-1.214l1.029-1.993a19 19 0 0 0 3.8-1.581l2.153.687a2.27 2.27 0 0 0 2.084-.367 23 23 0 0 0 4.352-4.352 2.27 2.27 0 0 0 .367-2.084l-.687-2.153a19.6 19.6 0 0 0 1.581-3.8l1.993-1.031a2.26 2.26 0 0 0 1.214-1.741 20.7 20.7 0 0 0 0-6.139 2.3 2.3 0 0 0-1.211-1.739l-1.993-1.031a19 19 0 0 0-1.581-3.8l.687-2.153a2.27 2.27 0 0 0-.367-2.084 23 23 0 0 0-4.352-4.352 2.27 2.27 0 0 0-2.084-.367l-2.153.687a19 19 0 0 0-3.8-1.581l-1.033-1.999A2.26 2.26 0 0 0 27 97.39a21.2 21.2 0 0 0-6.139 0 2.3 2.3 0 0 0-1.741 1.214l-1.031 1.993a19 19 0 0 0-3.8 1.581l-2.153-.687a2.27 2.27 0 0 0-2.084.367 23 23 0 0 0-4.352 4.351 2.27 2.27 0 0 0-.367 2.084l.687 2.153a19.6 19.6 0 0 0-1.581 3.8l-1.996 1.038a2.26 2.26 0 0 0-1.214 1.741 20.7 20.7 0 0 0 0 6.139 2.3 2.3 0 0 0 1.214 1.736m3.184-6.093 1.81-.939a2.26 2.26 0 0 0 1.163-1.484 15.9 15.9 0 0 1 1.855-4.467 2.27 2.27 0 0 0 .229-1.878l-.618-1.924a20 20 0 0 1 1.834-1.837l1.924.618a2.25 2.25 0 0 0 1.878-.229 15.9 15.9 0 0 1 4.467-1.855 2.33 2.33 0 0 0 1.489-1.168l.939-1.81a16 16 0 0 1 2.588 0l.939 1.81a2.26 2.26 0 0 0 1.489 1.168 15.9 15.9 0 0 1 4.467 1.855 2.27 2.27 0 0 0 1.878.229l1.924-.618a20 20 0 0 1 1.833 1.833l-.615 1.923a2.25 2.25 0 0 0 .229 1.878 15.9 15.9 0 0 1 1.856 4.472 2.33 2.33 0 0 0 1.168 1.489l1.81.939a18 18 0 0 1 0 2.566l-1.81.939a2.26 2.26 0 0 0-1.168 1.489 15.9 15.9 0 0 1-1.855 4.467 2.27 2.27 0 0 0-.229 1.878l.618 1.924a20 20 0 0 1-1.833 1.833l-1.924-.624a2.25 2.25 0 0 0-1.878.229 15.9 15.9 0 0 1-4.467 1.855 2.33 2.33 0 0 0-1.489 1.168l-.939 1.81a16 16 0 0 1-2.588 0l-.939-1.81a2.26 2.26 0 0 0-1.489-1.168 15.9 15.9 0 0 1-4.467-1.855 2.27 2.27 0 0 0-1.878-.229l-1.924.618a20 20 0 0 1-1.833-1.833l.618-1.924a2.25 2.25 0 0 0-.229-1.878 15.9 15.9 0 0 1-1.86-4.466 2.33 2.33 0 0 0-1.168-1.489l-1.81-.939a18 18 0 0 1 0-2.566Z"/><path d="M23.907 130.009a9.9 9.9 0 1 0-9.9-9.9 9.913 9.913 0 0 0 9.9 9.9m0-15.187a5.314 5.314 0 1 1-5.315 5.316 5.32 5.32 0 0 1 5.315-5.316"/></g></svg>