<svg xmlns="http://www.w3.org/2000/svg" width="87" height="87" viewBox="0 0 87 87"><g transform="translate(-1 -1)"><path fill="#69d6f4" d="m85.106 86.439.084.154H3.806l.084-.154A43.4 43.4 0 0 1 8.956 78.5l.028.014a5.608 5.608 0 1 0 7.844-7.746 44.7 44.7 0 0 1 9.43-5.6v11.663a4.144 4.144 0 0 0 4.154 4.154h.112a4.144 4.144 0 0 0 4.154-4.154 4.144 4.144 0 0 0 4.154 4.154h.112a4.153 4.153 0 0 0 4.154-4.154V61.367c.463-.014.94-.028 1.4-.028a45 45 0 0 1 8.04.716l-1.01 13.218a1 1 0 0 0-.014.2 2.7 2.7 0 0 0 2.708 2.708h.407a2.706 2.706 0 0 0 2.694-2.5l.94-12.208a45.3 45.3 0 0 1 14.636 7.858 5.6 5.6 0 1 0 7.8 8.04 43 43 0 0 1 4.407 7.068"/><path fill="#a0d468" d="M19.242 75.371a5.609 5.609 0 0 1-10.256 3.143l-.028-.014a43.7 43.7 0 0 1 7.872-7.732 5.59 5.59 0 0 1 2.414 4.6Zm61.461 3.999a5.6 5.6 0 1 1-7.8-8.04 44.2 44.2 0 0 1 7.8 8.04"/><path fill="#e6e9ed" d="M86.596 5.21v19.645h-25.37L62.727 5.31a.3.3 0 0 0 .014-.1Z"/><path fill="#cf9e76" d="M57.325 75.679a2.706 2.706 0 0 1-2.694 2.5h-.407a2.7 2.7 0 0 1-2.708-2.71 1 1 0 0 1 .014-.2l1.01-13.218 1.333-17.4.66-8.433 2.4-31.32a2.706 2.706 0 0 1 2.694-2.495h.407a2.7 2.7 0 0 1 2.708 2.708v.1a.4.4 0 0 1-.014.1l-1.5 19.547-1.152 15.053-.631 8.167-1.179 15.393Z"/><path fill="#838f9b" d="M43.096 61.367V76.83a4.153 4.153 0 0 1-4.154 4.154h-.112a4.144 4.144 0 0 1-4.153-4.154V51.516h8.419Z"/><path fill="#838f9b" d="M34.677 51.516V76.83a4.144 4.144 0 0 1-4.154 4.154h-.112a4.144 4.144 0 0 1-4.153-4.154V51.516Z"/><path fill="#fcd770" d="M66.951 46.254v.575a3.306 3.306 0 0 1-3.284 3.284 3.2 3.2 0 0 1-1.712-.491l-2.511-1.541.631-8.167 5.419 3.617a3.26 3.26 0 0 1 1.459 2.722ZM54.533 36.22l-.66 8.433-9.37-5.766h-1.4v12.629H26.258v-9.458A8.4 8.4 0 0 0 22.413 35L3.903 23.016a3.27 3.27 0 0 1-1.5-2.75v-.547a3.29 3.29 0 0 1 3.284-3.284 3.2 3.2 0 0 1 1.716.491l14.07 8.658a14.04 14.04 0 0 0 7.353 2.077h4.1l-1.055 11.226 2.806 4.21 2.806-4.21-1.052-11.226h1.01a13.96 13.96 0 0 1 7.788 2.357Z"/><path fill="#e6e9ed" d="m36.431 27.661 1.052 11.226-2.806 4.21-2.806-4.21 1.052-11.226z"/><circle cx="10" cy="10" r="10" fill="#f0d0b4" transform="translate(25 8)"/><path d="M88 26.258V3.806H63.915A4.1 4.1 0 0 0 60.039 1h-.407a4.123 4.123 0 0 0-4.093 3.79l-2.227 28.93-7.306-4.87a15.4 15.4 0 0 0-4.582-2.063 11.226 11.226 0 1 0-14.275-.645 12.7 12.7 0 0 1-4.942-1.757L8.138 15.727A4.684 4.684 0 0 0 1 19.716v.547A4.67 4.67 0 0 0 3.139 24.2L21.65 36.175a6.99 6.99 0 0 1 3.2 5.891v22.2A46.9 46.9 0 0 0 2.629 85.814L1.536 88h85.928l-1.093-2.188A47.07 47.07 0 0 0 59.742 62.5l.925-12.017.549.338a4.685 4.685 0 0 0 7.14-3.989v-.577a4.68 4.68 0 0 0-2.085-3.9L61.535 39.2l.995-12.945Zm-2.806-2.806H62.746l1.3-16.839h21.148ZM58.336 5a1.307 1.307 0 0 1 1.3-1.2h.407a1.32 1.32 0 0 1 1.3 1.4l-5.412 70.37a1.307 1.307 0 0 1-1.3 1.2h-.407a1.32 1.32 0 0 1-1.3-1.4Zm-7.078 55.439a46.4 46.4 0 0 0-6.759-.49V40.534l7.914 4.871Zm-15.177 16.4v-23.92h5.612v23.918a2.776 2.776 0 0 1-2.867 2.743 2.747 2.747 0 0 1-2.743-2.745Zm-2.806 0a2.776 2.776 0 0 1-2.87 2.743 2.746 2.746 0 0 1-2.743-2.743v-23.92h5.613Zm2.765-38.317-1.363 2.045-1.363-2.045.887-9.458h.951Zm-9.782-20.683a8.419 8.419 0 1 1 8.419 8.419 8.43 8.43 0 0 1-8.419-8.419m-3.083 15.978L4.665 21.842a1.88 1.88 0 0 1-.859-1.579v-.547a1.878 1.878 0 0 1 2.861-1.6l14.069 8.658a15.43 15.43 0 0 0 8.091 2.29h2.555l-.956 10.187 4.25 6.375 4.25-6.375-.95-10.151a12.56 12.56 0 0 1 6.474 2.082l8.616 5.743-.41 5.329-7.756-4.77h-3.2v12.629H27.661v-8.048a9.79 9.79 0 0 0-4.486-8.248m-6.382 38.788a4.2 4.2 0 0 1-5.985 5.887 44 44 0 0 1 5.985-5.887m61.9 6.486a4.14 4.14 0 0 1-1.924.49 4.215 4.215 0 0 1-4.21-4.21 4.1 4.1 0 0 1 .544-2.018 44.4 44.4 0 0 1 5.597 5.738Zm-7.8-7.518a6.9 6.9 0 0 0-1.142 3.8 7.024 7.024 0 0 0 7.016 7.016 6.94 6.94 0 0 0 3.64-1.043 44 44 0 0 1 2.45 3.849H6.134A44 44 0 0 1 9.078 80.7a7 7 0 0 0 9.947-9.788 44 44 0 0 1 5.829-3.5v9.427a5.584 5.584 0 0 0 5.676 5.55 5.52 5.52 0 0 0 4.152-1.906 5.67 5.67 0 0 0 4.264 1.907 5.556 5.556 0 0 0 5.55-5.55V62.757a44.4 44.4 0 0 1 6.543.488l-.916 11.912a4 4 0 0 0-.013.317 4.11 4.11 0 0 0 4.106 4.106h.407a4.123 4.123 0 0 0 4.093-3.79l.8-10.4A44 44 0 0 1 70.9 71.572Zm-6.181-26.879a1.88 1.88 0 0 1 .836 1.562v.577a1.878 1.878 0 0 1-2.861 1.6l-1.778-1.095.379-4.927Z"/><path d="M79.581 9.419h2.806v2.806h-2.806Zm-5.613 0h2.806v2.806h-2.806Zm-5.613 0h2.806v2.806h-2.806Zm-4.21 63.146h2.806v2.806h-2.806Zm-4.21 7.016h2.806v2.806h-2.806Z"/></g></svg>