<svg xmlns="http://www.w3.org/2000/svg" width="124" height="124" viewBox="0 0 124 124"><defs><clipPath id="a"><path fill="#fff" d="M0 0h61.479v61.479H0z"/></clipPath></defs><g transform="translate(-12200 6332.28)"><circle cx="62" cy="62" r="62" fill="#fff" transform="translate(12200 -6332.28)"/><g clip-path="url(#a)" transform="translate(12231.261 -6301.02)"><g transform="translate(-.11)"><g transform="translate(.998 .998)"><path fill="#e6e9ed" d="M47.88 17.955a5.99 5.99 0 0 0-5.985 5.985v-2.992a2 2 0 0 0-2-2h-3.99v-9.97a2.99 2.99 0 0 1 2.998-2.993h17.955a2.99 2.99 0 0 1 2.993 2.993v13.965a2.99 2.99 0 0 1-2.993 2.993h-2.993v-2a5.994 5.994 0 0 0-5.985-5.985 3.99 3.99 0 1 0-3.99-3.99 3.99 3.99 0 0 0 3.99 3.994"/><path fill="#ef7385" d="M53.865 23.94v2H51.87l-3.581 3.581a1.411 1.411 0 0 1-2.4-1v-2.586h-3.99v-2a5.99 5.99 0 0 1 5.985-5.985 5.994 5.994 0 0 1 5.985 5.985Z"/><path fill="#969faa" d="M41.895 20.948v2h-7.98v-2a2 2 0 0 1 1.995-2h3.99a2 2 0 0 1 1.995 2m-5.985 9.093a2.15 2.15 0 0 0-.319-1.117h6.3v2a2 2 0 0 1-2 2h-5.976l1.376-1.383a2.1 2.1 0 0 0 .619-1.5"/><path fill="#69d6f4" d="M41.895 25.933v2.993h-6.3a2.3 2.3 0 0 0-.3-.379 2.1 2.1 0 0 0-1.377-.608v-5h7.98v2.994Z"/><path fill="#656d78" d="M25.127 13.965h-6.245a5.74 5.74 0 0 1-3.242-1 5.8 5.8 0 0 1-2.135-2.643 2.141 2.141 0 0 0-4.02.12l-.509 1.526h-.847a2.13 2.13 0 0 0-2.135 2H4.987a3 3 0 0 0-2.115.878.5.5 0 0 0-.07.08 9.2 9.2 0 0 1-.808-3.761A11.17 11.17 0 0 1 13.156 0h5.606a11.16 11.16 0 0 1 11.163 11.162 9.2 9.2 0 0 1-.808 3.761 2.95 2.95 0 0 0-2.185-.958z"/><path fill="#fcd770" d="M23.94 48.878v10.973H7.98v-9.976H0v-4.438a11.98 11.98 0 0 1 9.277-11.671l.519-.12 2.174 7.249 3.99-3.99 3.99 3.99 2.125-7.072a11.94 11.94 0 0 1 6.3 4.748l1.949 2.924-6.384 6.384Z"/><path fill="#ffc729" d="M22.075 33.815v.01l-2.125 7.072-3.99-3.99 2.993-3.99 2.753.788c.12.04.249.07.369.11m-9.108-.897 2.993 3.99-3.99 3.99-2.175-7.252Z"/><circle cx="3.99" cy="3.99" r="3.99" fill="#f0d0b4" transform="translate(43.89 9.975)"/><path fill="#f0d0b4" d="M0 49.875h7.98v9.975H0Zm38.902-16.957-1.476 15.471a6.036 6.036 0 0 1-10.264 3.7l-3.222-3.212v-1l6.384-6.384.6.9 1-5.486-1.117-1.117a3 3 0 0 1-.878-2.115v-1.924a2 2 0 0 1 .589-1.416l1.786-1.786a2.1 2.1 0 0 1 1.5-.618.5.5 0 0 1 .12.01 2.1 2.1 0 0 1 1.377.608 2.3 2.3 0 0 1 .3.379 2.15 2.15 0 0 1 .319 1.117 2.1 2.1 0 0 1-.618 1.5l-1.385 1.373ZM5.985 14.114v5.835h-1A2.985 2.985 0 0 1 2.8 14.922a.5.5 0 0 1 .07-.08 3 3 0 0 1 2.115-.878h1.01a1 1 0 0 0-.01.15m23.132.808a2.989 2.989 0 0 1-2.185 5.027h-1v-5.984h1a2.95 2.95 0 0 1 2.185.958Z"/><path fill="#f0d0b4" d="M25.935 13.966v6.025a10.52 10.52 0 0 1-6.374 9.676 1 1 0 0 0-.608.918v2.334l-2.993 3.99-2.993-3.99v-2.335a1 1 0 0 0-.608-.918A10.49 10.49 0 0 1 5.985 20v-5.885a1 1 0 0 1 .01-.15 2.13 2.13 0 0 1 2.135-2h.848l.509-1.526a2.141 2.141 0 0 1 4.02-.12 5.8 5.8 0 0 0 2.135 2.643 5.74 5.74 0 0 0 3.242 1h7.051Z"/></g><circle cx=".998" cy=".998" r=".998" transform="translate(20.948 16.958)"/><circle cx=".998" cy=".998" r=".998" transform="translate(10.973 16.958)"/><path d="m16.405 23.836 1.1-.552a2 2 0 0 0 .893-2.677l-.446-.892v-1.76h-2v2a1 1 0 0 0 .1.446l.552 1.1-1.1.552Zm.553 4.094a4.2 4.2 0 0 0 3.78-2.336l.1-.21-1.785-.893-.1.211a2.231 2.231 0 0 1-3.99 0l-.1-.21-1.785.893.1.21a4.2 4.2 0 0 0 3.78 2.335"/><path d="M57.855 5.985H39.9a3.994 3.994 0 0 0-3.99 3.99v9.161a2.99 2.99 0 0 0-2 2.809v6.125a3.1 3.1 0 0 0-1.325.772L30.8 30.63a2.97 2.97 0 0 0-.877 2.117v1.924a3.97 3.97 0 0 0 1.169 2.822l.748.748-.463 2.543-1.177-1.766a12.98 12.98 0 0 0-7.228-5.276l-2.027-.579V31.58a11.5 11.5 0 0 0 6.94-9.634h.042a3.984 3.984 0 0 0 3.321-6.194 10.1 10.1 0 0 0 .668-3.589A12.174 12.174 0 0 0 19.757 0h-5.6A12.175 12.175 0 0 0 2 12.162a10.1 10.1 0 0 0 .669 3.59 3.983 3.983 0 0 0 3.321 6.193h.043a11.5 11.5 0 0 0 6.94 9.635v1.541l-2.915.672A12.91 12.91 0 0 0 0 46.431v15.414h25.935v-9.567l1.519 1.515a7.032 7.032 0 0 0 11.965-4.313l1.388-14.568h.093a3 3 0 0 0 2.99-2.992v-3.99h1.995v1.582A2.408 2.408 0 0 0 50 31.215l3.285-3.285h4.575a3.994 3.994 0 0 0 3.99-3.99V9.975a4 4 0 0 0-3.99-3.99ZM36.908 20.948H40.9a1 1 0 0 1 1 1v1h-5.99v-1a1 1 0 0 1 .998-1m4.988 7.98h-4.834a3.1 3.1 0 0 0-1.152-.781v-3.209h5.99v3.99Zm-20.069 6.561-1.356 4.52-2.2-2.2 2.062-2.748Zm6.1-15.539v-3.99a2 2 0 1 1 0 3.99M14.157 2h5.6a10.18 10.18 0 0 1 10.168 10.162 8 8 0 0 1-.309 2.191 3.95 3.95 0 0 0-1.686-.387h-1.816a4.79 4.79 0 0 1-4.543-3.279L20.9 8.662l-1.9.631.674 2.025a6.8 6.8 0 0 0 1.632 2.647h-1.424a4.775 4.775 0 0 1-4.453-3.014 3.138 3.138 0 0 0-5.891.173l-.282.847h-.133a3.14 3.14 0 0 0-2.916 2h-.222a3.95 3.95 0 0 0-1.686.387 8 8 0 0 1-.309-2.191A10.18 10.18 0 0 1 14.157 2M3.99 17.955a2 2 0 0 1 2-2v3.99a2 2 0 0 1-2-1.99m3.99 3.038v-5.885a1.144 1.144 0 0 1 1.143-1.143h1.57l.737-2.21a1.143 1.143 0 0 1 2.146-.063 6.76 6.76 0 0 0 6.305 4.268h6.054v5.031a9.52 9.52 0 0 1-5.775 8.756 1.99 1.99 0 0 0-1.208 1.833v2l-2 2.659-2-2.659v-2a1.99 1.99 0 0 0-1.209-1.833 9.52 9.52 0 0 1-5.763-8.754m5.576 14.04 2.084 2.778-2.2 2.2-1.386-4.631ZM2 51.87h5.98v7.98H2Zm21.94 7.98H9.975V41.9H7.98v7.98H2v-3.449a10.91 10.91 0 0 1 8.116-10.584l2.381 7.935 4.466-4.466 4.466 4.466 2.3-7.652a11 11 0 0 1 4.825 3.995l1.494 2.242-4.1 4.1V41.9h-2Zm13.492-10.56a5.036 5.036 0 0 1-8.569 3.089l-2.929-2.919v-.171l4.766-4.764-.759 4.175 1.963.356 2.089-11.486-1.493-1.489a1.98 1.98 0 0 1-.585-1.41v-1.925a1 1 0 0 1 .292-.706L34 30.251a1.119 1.119 0 0 1 1.582 1.583l-1.952 1.953 2.449 3.673 1.66-1.106-.963-1.441H38.8ZM40.9 32.918h-3.637a3.1 3.1 0 0 0 .642-1.874c0-.041-.011-.08-.012-.121h4v1a1 1 0 0 1-.993.995m11.556-6.983L48.584 29.8a.428.428 0 0 1-.7-.292v-3.573H43.89v-1a4.988 4.988 0 1 1 9.975 0v1Zm-6.571-10.972a2.993 2.993 0 1 1 2.993 2.993 3 3 0 0 1-2.993-2.993M59.85 23.94a2 2 0 0 1-2 2h-2v-1a6.99 6.99 0 0 0-3.77-6.192 4.988 4.988 0 1 0-6.426 0 7 7 0 0 0-2.154 1.745 2.98 2.98 0 0 0-2.6-1.54h-2.995V9.975a2 2 0 0 1 1.995-2h17.955a2 2 0 0 1 2 2Zm-9.099 20.827 1.411 1.41a1.02 1.02 0 0 1 1.409 0l1.411-1.41a3.064 3.064 0 0 0-4.231 0"/><path d="m47.93 41.945 1.41 1.41a4.994 4.994 0 0 1 7.053 0l1.41-1.41a6.99 6.99 0 0 0-9.874 0Z"/><path d="m45.108 39.124 1.41 1.41a8.99 8.99 0 0 1 12.7 0l1.41-1.41a10.986 10.986 0 0 0-15.52 0m6.762 16.737h2v2h-2Zm0-3.991h2v2h-2Zm0-3.99h2v2h-2Z"/></g></g></g></svg>