<svg xmlns="http://www.w3.org/2000/svg" width="124" height="124" viewBox="0 0 124 124"><g transform="translate(-1092.174 -2961.125)"><circle cx="62" cy="62" r="62" fill="#fff" transform="translate(1092.174 2961.125)"/><g fill-rule="evenodd" transform="translate(1124.348 2981.628)"><g transform="translate(1.215 1.236)"><g transform="translate(6.276 15.786)"><path fill="#eceff1" d="M1.297 0H35.33a1.25 1.25 0 0 1 .917.38l6.176 6.176a1.25 1.25 0 0 1 .38.917v46.709a1.3 1.3 0 0 1-1.294 1.294H1.297a1.3 1.3 0 0 1-1.3-1.294V1.297A1.3 1.3 0 0 1 1.297 0"/><path fill="#a79ba7" d="M35.868.112v6.176a.65.65 0 0 0 .649.649h6.176a1.3 1.3 0 0 0-.269-.38L36.248.381a1.4 1.4 0 0 0-.38-.269"/><path fill="#d1d1d6" d="M1.297 0h1.294v55.476H1.297a1.3 1.3 0 0 1-1.3-1.294V1.297A1.3 1.3 0 0 1 1.297 0"/><g transform="translate(7.703 14.203)"><path fill="#8ac9fe" d="M.945 0h7.241a.947.947 0 0 1 .945.945v7.241a.947.947 0 0 1-.945.945H.945A.947.947 0 0 1 0 8.186V.945A.947.947 0 0 1 .945 0"/><path fill="#60b7ff" d="M6.668 0h1.517a.947.947 0 0 1 .945.945v7.241a.947.947 0 0 1-.945.945H6.668a.947.947 0 0 0 .945-.945V.945A.947.947 0 0 0 6.668 0"/></g><g transform="translate(7.703 27.236)"><path fill="#6cf5c2" d="M.945 0h7.241a.947.947 0 0 1 .945.945v7.241a.947.947 0 0 1-.945.945H.945A.947.947 0 0 1 0 8.186V.945A.947.947 0 0 1 .945 0"/><path fill="#00e499" d="M6.668 0h1.517a.947.947 0 0 1 .945.945v7.241a.947.947 0 0 1-.945.945H6.668a.947.947 0 0 0 .945-.945V.945A.947.947 0 0 0 6.668 0"/></g><g transform="translate(7.703 40.269)"><path fill="#ffe177" d="M.945 0h7.241a.95.95 0 0 1 .945.948v7.241a.947.947 0 0 1-.945.945H.945A.947.947 0 0 1 0 8.189V.948A.95.95 0 0 1 .945 0"/><path fill="#ffd064" d="M6.668 0h1.517a.95.95 0 0 1 .945.948v7.241a.947.947 0 0 1-.945.945H6.668a.947.947 0 0 0 .945-.945V.948A.95.95 0 0 0 6.668 0"/></g></g><g transform="translate(32.797 45.648)"><path fill="#ffe177" d="M18.69 1.877a3.754 3.754 0 0 0-6.5 0L.511 22.107a3.754 3.754 0 0 0 3.25 5.63h23.36a3.754 3.754 0 0 0 3.25-5.63Z"/><path fill="#ffd064" d="M18.689 1.877A3.72 3.72 0 0 0 15.439 0a3.8 3.8 0 0 0-.79.082 3.7 3.7 0 0 1 2.46 1.8l11.681 20.23a3.754 3.754 0 0 1-3.252 5.63h1.58a3.754 3.754 0 0 0 3.25-5.63Z"/><path fill="#fe646f" d="M15.364 19.235a1.789 1.789 0 1 1-1.789 1.789 1.79 1.79 0 0 1 1.789-1.789m.075-1.731a1.4 1.4 0 0 1-1.4-1.347l-.354-8.6A1.394 1.394 0 0 1 15.08 6.11h.706a1.394 1.394 0 0 1 1.4 1.447l-.352 8.6a1.4 1.4 0 0 1-1.395 1.347"/></g><path fill="#a79ba7" d="M15.784 2.181a11.2 11.2 0 0 1 3.29 1.364l2.138-.949 2.519 2.519-.949 2.142a11.2 11.2 0 0 1 1.364 3.29l2.181.84v3.564l-2.181.84a11.2 11.2 0 0 1-1.364 3.288l.948 2.138-2.519 2.52-2.138-.95a11.2 11.2 0 0 1-3.29 1.365l-.84 2.18h-3.562l-.84-2.181a11.2 11.2 0 0 1-3.288-1.364l-2.138.95-2.52-2.52.95-2.136a11.3 11.3 0 0 1-1.365-3.29L0 14.951v-3.569l2.18-.84a11.2 11.2 0 0 1 1.365-3.29l-.95-2.138 2.52-2.519 2.136.949a11.3 11.3 0 0 1 3.29-1.364l.84-2.181h3.563Z"/><path fill="#837683" d="m20.488 2.915.718-.319 2.519 2.519-.944 2.142a11.2 11.2 0 0 1 1.364 3.29l2.181.84v3.564l-2.181.84a11.2 11.2 0 0 1-1.364 3.288l.948 2.138-2.519 2.52-.718-.319 2.2-2.2-.95-2.138a11.2 11.2 0 0 0 1.364-3.288l2.181-.84v-3.57l-2.181-.84a11.2 11.2 0 0 0-1.364-3.29l.95-2.138Zm-15.7 0 .319-.319 2.136.949q-.227.125-.446.263Zm11-.734a11.2 11.2 0 0 1 3.29 1.364l-.589.263a14.7 14.7 0 0 0-3.738-1.626l-.84-2.181h1.037Zm-8.531 20.6-2.138.95-.319-.319 2.009-.893q.215.138.443.263Zm11.821 0a11.2 11.2 0 0 1-3.29 1.366l-.84 2.18h-1.041l.84-2.18a14.7 14.7 0 0 0 3.741-1.626Z"/><path fill="#eceff1" d="M13.162 6.866a6.3 6.3 0 1 1-6.3 6.3 6.3 6.3 0 0 1 6.3-6.3"/><path fill="#d1d1d6" d="M13.162 6.866q.214 0 .427.015a6.3 6.3 0 0 0 0 12.565 7 7 0 0 1-.427.014 6.3 6.3 0 0 1 0-12.594"/></g><path d="M6.269 26.15a1.2 1.2 0 0 1-.8-.354l-2.517-2.517a1.21 1.21 0 0 1-.251-1.352l.7-1.57a12.5 12.5 0 0 1-1.017-2.451l-1.6-.617a1.21 1.21 0 0 1-.778-1.133V12.6a1.21 1.21 0 0 1 .778-1.133l1.6-.617a12.5 12.5 0 0 1 1.018-2.454l-.7-1.571a1.21 1.21 0 0 1 .251-1.352L5.47 2.956A1.21 1.21 0 0 1 6.82 2.7l1.571.7a12.4 12.4 0 0 1 2.451-1.016l.62-1.607A1.21 1.21 0 0 1 12.595 0h3.561a1.21 1.21 0 0 1 1.133.779l.617 1.605a12.4 12.4 0 0 1 2.45 1.016l1.571-.7a1.21 1.21 0 0 1 1.352.251l2.517 2.517a1.21 1.21 0 0 1 .252 1.35l-.7 1.572a12.4 12.4 0 0 1 1.017 2.455l1.6.617a1.21 1.21 0 0 1 .778 1.133v3.189h14.6a1.2 1.2 0 0 1 .858.356l6.936 6.936a1.2 1.2 0 0 1 .356.858v21.807a4 4 0 0 1 1.269 1.359l12.791 22.15a3.96 3.96 0 0 1 0 4.01 3.96 3.96 0 0 1-3.473 2H36.506a3.95 3.95 0 0 1-3.19-1.579H7.483a1.214 1.214 0 0 1-1.214-1.214Zm20-7.938a12.5 12.5 0 0 1-.922 2.144l.7 1.573a1.21 1.21 0 0 1-.252 1.35L23.279 25.8a1.21 1.21 0 0 1-1.35.252l-1.571-.7a12.4 12.4 0 0 1-2.452 1.015l-.617 1.6a1.21 1.21 0 0 1-1.133.778h-3.561a1.21 1.21 0 0 1-1.133-.778l-.617-1.6a12.5 12.5 0 0 1-2.149-.856v45.744h23.788a4 4 0 0 1 .545-2.008l2.5-4.329h-5.443a1.214 1.214 0 1 1 0-2.428h6.845l.762-1.319h-7.607a1.214 1.214 0 1 1 0-2.428h9.008L45.818 47.1a3.95 3.95 0 0 1 3.251-2V25.148h-5.722a1.214 1.214 0 0 1-1.214-1.214v-5.722Zm21.08 4.508-2.792-2.792v2.792Zm3.306 25.588a1.58 1.58 0 0 0-2.738 0L35.133 70.459a1.583 1.583 0 0 0 1.373 2.375h25.573a1.583 1.583 0 0 0 1.371-2.375l-12.791-22.15Zm-.009 17.027a2.812 2.812 0 1 1-2.71 0 2.46 2.46 0 0 1-1.1-1.968l-.318-8.741a2.4 2.4 0 0 1 .689-1.792 2.38 2.38 0 0 1 1.771-.751h.63a2.463 2.463 0 0 1 2.462 2.552l-.315 8.737a2.46 2.46 0 0 1-1.107 1.969Zm-1.355-2.023a.035.035 0 0 0 .036-.033l.315-8.739a.03.03 0 0 0-.011-.025.03.03 0 0 0-.025-.015h-.63a.04.04 0 0 0-.025.011.05.05 0 0 0-.01.032l.317 8.732a.034.034 0 0 0 .033.033Zm0 4.87a.385.385 0 1 0-.385-.382.385.385 0 0 0 .385.383Zm-33.159-38.2h7.241a2.164 2.164 0 0 1 2.158 2.159v7.241a2.164 2.164 0 0 1-2.158 2.159h-7.242a2.164 2.164 0 0 1-2.159-2.159v-7.24a2.164 2.164 0 0 1 2.159-2.159Zm.269 2.428v6.7h6.7v-6.7Zm.813 4.047a1.214 1.214 0 0 1 1.715-1.718l.431.43 1.127-1.393a1.214 1.214 0 1 1 1.886 1.524l-1.974 2.441a1.214 1.214 0 0 1-1.8.1Zm12.872 11.678a1.214 1.214 0 1 1 0-2.428h11.853a1.214 1.214 0 1 1 0 2.428Zm0 3.747a1.214 1.214 0 1 1 0-2.428h7.72a1.214 1.214 0 1 1 0 2.428Zm-13.955 4.166h7.241a2.17 2.17 0 0 1 2.158 2.162v7.24a2.164 2.164 0 0 1-2.158 2.159h-7.241a2.164 2.164 0 0 1-2.159-2.159v-7.24a2.17 2.17 0 0 1 2.159-2.162m.269 2.428v6.705h6.7v-6.705Zm.813 4.05a1.214 1.214 0 0 1 1.715-1.718l.431.43 1.127-1.393a1.214 1.214 0 0 1 1.888 1.526L20.4 63.812a1.214 1.214 0 0 1-1.8.1Zm-1.082-19.511h7.241a2.164 2.164 0 0 1 2.158 2.159v7.241a2.164 2.164 0 0 1-2.158 2.158h-7.241a2.164 2.164 0 0 1-2.159-2.158v-7.241a2.164 2.164 0 0 1 2.159-2.159m.269 2.428v6.7h6.7v-6.7Zm.812 4.047a1.214 1.214 0 0 1 1.717-1.717l.431.431 1.126-1.392a1.214 1.214 0 0 1 1.888 1.527L20.4 50.78a1.214 1.214 0 0 1-1.8.1Zm12.874-10.641a1.214 1.214 0 1 1 0-2.428h7.72a1.214 1.214 0 1 1 0 2.428Zm0-3.747a1.214 1.214 0 1 1 0-2.428h11.853a1.214 1.214 0 1 1 0 2.428ZM15.862 3.833l-.54-1.405h-1.894l-.543 1.407a1.21 1.21 0 0 1-.852.744 10 10 0 0 0-2.927 1.215 1.21 1.21 0 0 1-1.13.076l-1.375-.611L5.258 6.6l.611 1.375a1.21 1.21 0 0 1-.076 1.13 10 10 0 0 0-1.219 2.938 1.21 1.21 0 0 1-.744.85l-1.4.54v1.894l1.4.54a1.21 1.21 0 0 1 .744.849 10 10 0 0 0 1.218 2.934 1.21 1.21 0 0 1 .077 1.132l-.611 1.375 1.339 1.339 1.376-.609a1.21 1.21 0 0 1 1.126.075 10 10 0 0 0 2.938 1.216 1.21 1.21 0 0 1 .853.745l.54 1.4h1.894l.54-1.4a1.21 1.21 0 0 1 .852-.745 10 10 0 0 0 2.93-1.214 1.21 1.21 0 0 1 1.13-.077l1.376.609 1.34-1.34-.609-1.376a1.21 1.21 0 0 1 .075-1.126 10.1 10.1 0 0 0 1.217-2.935 1.21 1.21 0 0 1 .745-.852l1.4-.54v-1.898l-1.4-.54a1.21 1.21 0 0 1-.745-.853A10 10 0 0 0 22.957 9.1a1.21 1.21 0 0 1-.076-1.128l.609-1.376-1.339-1.339-1.375.611a1.21 1.21 0 0 1-1.13-.076 10 10 0 0 0-2.932-1.215 1.21 1.21 0 0 1-.852-.744m-1.488 3.116a7.426 7.426 0 1 1-7.424 7.424 7.425 7.425 0 0 1 7.424-7.424m0 2.428a5 5 0 1 0 5 5 4.995 4.995 0 0 0-5-5"/></g></g></svg>