<svg xmlns="http://www.w3.org/2000/svg" width="104" height="104" viewBox="0 0 104 104"><g transform="translate(-1 -1)"><g transform="translate(2.677 2.677)"><path fill="#969faa" d="M16.774 87.226h23.484v3.355a3.365 3.365 0 0 0 3.355 3.355h13.419a3.365 3.365 0 0 0 3.355-3.355v-3.355h25.161a1.68 1.68 0 0 1 1.677 1.677v1.677a10.07 10.07 0 0 1-10.064 10.065H23.484a10.07 10.07 0 0 1-10.065-10.064v-3.355Z"/><path fill="#ff826e" d="M60.387 87.226v3.355a3.365 3.365 0 0 1-3.355 3.355H43.613a3.365 3.365 0 0 1-3.355-3.355v-3.355Z"/><path fill="#aab2bd" d="M16.774 40.258h67.1v46.968h-67.1Z"/><path fill="#69d6f4" d="M23.484 46.968h53.677v33.548H23.484Z"/><path fill="#ffc729" d="M38.531 60.622a4.91 4.91 0 0 0 5.351 1.057c.034-.017.05-.017.067-.034a4.88 4.88 0 0 0 3.019-4.513v-.1h6.71v.1a4.88 4.88 0 0 0 3.016 4.513c.017.017.034.017.067.034a4.91 4.91 0 0 0 5.351-1.057l.067-.067 4.059 4.059.688.688-.067.067a4.91 4.91 0 0 0-1.057 5.351c.017.034.017.05.034.067a4.88 4.88 0 0 0 4.512 3.019h.1v6.71H59.817a10.065 10.065 0 1 0-18.988 0H30.194v-6.71h.1a4.88 4.88 0 0 0 4.512-3.019c.017-.017.017-.034.034-.067a4.91 4.91 0 0 0-1.057-5.351l-.067-.067.7-.688 4.043-4.059Z"/><path fill="#fcd770" d="M53.677 77.162a3.355 3.355 0 1 0-3.355 3.355h-9.494a10.065 10.065 0 1 1 18.988 0h-9.493a3.365 3.365 0 0 0 3.354-3.355"/><path fill="#e6e9ed" d="M63.071 40.259a20.37 20.37 0 1 1-2.4 6.71 19.9 19.9 0 0 1 2.4-6.71m-23.098 6.709a20.067 20.067 0 1 1-2.332-6.592 19.8 19.8 0 0 1 2.332 6.592"/><path fill="#e6e9ed" d="M32.878 10.065a20.37 20.37 0 1 1-2.4 6.71 19.9 19.9 0 0 1 2.4-6.71"/><path fill="#656d78" d="m42.472 13.235-.537.185h-1.677a3.37 3.37 0 0 0-2.013.671l-.906-2.7a8.8 8.8 0 0 1-.436-2.736 8.6 8.6 0 0 1 1.342-4.63l-.017-.017a20.25 20.25 0 0 1 24.188 0l-.017.017a8.6 8.6 0 0 1 1.342 4.63 8.8 8.8 0 0 1-.438 2.735l-.906 2.7a3.37 3.37 0 0 0-2.013-.671h-4.375a13.3 13.3 0 0 1-8.253-2.852 20.3 20.3 0 0 1-5.284 2.667Z"/><path fill="#b4dd7f" d="m55.355 35.221 4.077-5.7a17 17 0 0 1 4.982 4.982 20.13 20.13 0 0 1-28.181 0 16.8 16.8 0 0 1 5.399-5.232l3.658 5.95 5.032-3.35Z"/><path fill="#a0d468" d="m59.431 29.523-4.076 5.7-5.032-3.352 4.428-4.428a16.6 16.6 0 0 1 4.68 2.08"/><path fill="#a0d468" d="m50.323 31.871-5.032 3.355-3.657-5.955c.185-.117.369-.235.554-.335l3.707-1.493Z"/><path fill="#f0d0b4" d="m54.751 27.439-4.428 4.428-4.429-4.428a16.54 16.54 0 0 1 8.857 0M62.4 14.09a3.4 3.4 0 0 1 1.342 2.684 3.38 3.38 0 0 1-3.355 3.355h-2.516l.839-6.71h1.677a3.37 3.37 0 0 1 2.013.671"/><path fill="#f0d0b4" d="m58.709 13.42-.839 6.71-.285 2.3a5.05 5.05 0 0 1-5 4.412h-4.527a5.05 5.05 0 0 1-5-4.412l-.285-2.3-.838-6.71.537-.185a20.3 20.3 0 0 0 5.284-2.667 13.3 13.3 0 0 0 8.253 2.852Z"/><path fill="#f0d0b4" d="m41.935 13.419.839 6.71h-2.516a3.38 3.38 0 0 1-3.355-3.355 3.355 3.355 0 0 1 3.355-3.355Z"/><path fill="#ff826e" d="M90.581 40.258v20.129h-6.71V40.258Zm-6.71 6.71v13.419h-6.71V46.968Z"/><path fill="#ff826e" d="M70.452 53.677h6.71v6.71h-6.71Z"/><path fill="#ffeaa7" d="M33.549 45.29v10.065a1.68 1.68 0 0 1-1.677 1.677h-5.033v4.345a2.372 2.372 0 0 1-4.043 1.677l-6.022-6.022H8.387a1.68 1.68 0 0 1-1.677-1.677V45.29a1.68 1.68 0 0 1 1.677-1.677h23.484a1.68 1.68 0 0 1 1.678 1.677"/></g><g transform="translate(1 1)"><path d="M13.419 50.323h3.355v3.355h-3.355Zm6.71 0h3.355v3.355h-3.355Zm6.71 0h3.355v3.355h-3.355Z"/><path d="M26.145 67.097a4.054 4.054 0 0 0 4.049-4.049v-2.66h3.355a3.36 3.36 0 0 0 3.355-3.355V46.968a3.36 3.36 0 0 0-3.355-3.355H10.065a3.36 3.36 0 0 0-3.355 3.355v10.064a3.36 3.36 0 0 0 3.355 3.355h7.693l5.522 5.526a4.07 4.07 0 0 0 2.865 1.184m-16.08-10.065V46.968h23.484v10.065h-6.71v6.015a.721.721 0 0 1-1.186.491l-6.507-6.507Z"/><path d="M104 52a21.785 21.785 0 0 0-33.818-18.182 21.806 21.806 0 1 0-36.363 0A21.792 21.792 0 1 0 16.774 73.2v14.026h-3.355v5.032A11.756 11.756 0 0 0 25.161 104h53.678a11.756 11.756 0 0 0 11.742-11.742v-1.677a3.36 3.36 0 0 0-3.355-3.355V73.2A21.83 21.83 0 0 0 104 52m-3.355 0a18.452 18.452 0 1 1-18.451-18.452A18.473 18.473 0 0 1 100.645 52M50.323 78.839A1.677 1.677 0 1 1 52 80.516a1.68 1.68 0 0 1-1.677-1.677M52 73.806a5.04 5.04 0 0 0-5.032 5.032 5 5 0 0 0 .309 1.677H43.8a8.387 8.387 0 1 1 16.4 0h-3.476a5 5 0 0 0 .309-1.677A5.04 5.04 0 0 0 52 73.806m0-6.71a11.6 11.6 0 0 0-11.6 13.42h-6.852V76.97a6.66 6.66 0 0 0 4.076-9.85l2.65-2.652a6.61 6.61 0 0 0 5.988.4 6.52 6.52 0 0 0 3.856-4.487h3.749a6.656 6.656 0 0 0 9.848 4.074l2.652 2.652a6.61 6.61 0 0 0-.4 5.988 6.52 6.52 0 0 0 4.487 3.856v3.559H63.6A11.6 11.6 0 0 0 52 67.1ZM26.839 73.2a21.7 21.7 0 0 0 8.125-3.848 3.28 3.28 0 0 1-.032 2.474 3.23 3.23 0 0 1-3.061 1.983h-1.677v6.71h-3.355Zm22.893-46.361A3.36 3.36 0 0 1 46.4 23.9l-.959-7.678a21.7 21.7 0 0 0 3.932-1.946 15 15 0 0 0 8.3 2.5h.809L57.6 23.9a3.36 3.36 0 0 1-3.328 2.939Zm-7.8-10.065h.2l.419 3.355h-.616a1.678 1.678 0 1 1 0-3.355ZM52 30.194c.312 0 .617.039.926.059l-.926.924-.926-.926c.309-.018.614-.057.926-.057m4.891.837a15 15 0 0 1 1.758.728l-2.036 2.848-1.978-1.318Zm-9.783 0 2.258 2.258-1.882 1.255-1.807-2.937a15 15 0 0 1 1.431-.575Zm-4.3 2.308 3.643 5.926 5.549-3.7 5.453 3.635 4.024-5.629a15 15 0 0 1 2.355 2.377 18.394 18.394 0 0 1-23.665 0 15 15 0 0 1 2.639-2.608ZM52 43.613a21.67 21.67 0 0 0 12.012-3.625A21.7 21.7 0 0 0 61 46.968H43a21.7 21.7 0 0 0-3.014-6.98A21.66 21.66 0 0 0 52 43.613m-3.355 13.419-1.677.1v1.677a3.261 3.261 0 0 1-5.425 2.407A21.65 21.65 0 0 0 43.613 52c0-.567-.042-1.122-.086-1.677h16.944c-.042.555-.084 1.11-.084 1.677a21.6 21.6 0 0 0 2.075 9.222 3.272 3.272 0 0 1-5.43-2.513v-1.677Zm25.066 16.774h-1.678a3.22 3.22 0 0 1-2.994-2.051 3.16 3.16 0 0 1 .005-2.4 21.7 21.7 0 0 0 8.117 3.845v7.319h-3.355v-5.035Zm-3.259-52a18.37 18.37 0 0 1-4.229 11.742 18.4 18.4 0 0 0-7.238-5.331 6.66 6.66 0 0 0 1.941-3.9l.1-.832h1.037a5.04 5.04 0 0 0 5.037-5.033 4.98 4.98 0 0 0-1.109-3.112l.579-1.736a10.3 10.3 0 0 0 .465-2.459 18.32 18.32 0 0 1 3.42 10.662Zm-8.583-5.032h.2a1.678 1.678 0 1 1 0 3.355h-.616Zm.948-9.885a6.92 6.92 0 0 1 .569 5.655l-.325.976a5 5 0 0 0-.775-.079v-.022h-4.61a11.61 11.61 0 0 1-10.827-7.333l-3.115 1.246a15 15 0 0 0 2.949 4.611 18.5 18.5 0 0 1-3.07 1.386l-.273.091h-1.4a5 5 0 0 0-.995.1l-.324-.973a6.92 6.92 0 0 1 .567-5.658 18.32 18.32 0 0 1 21.632 0Zm-25.848 4.254a10.3 10.3 0 0 0 .466 2.462l.579 1.733a4.98 4.98 0 0 0-1.11 3.113 5.04 5.04 0 0 0 5.032 5.032h1.037l.1.832a6.66 6.66 0 0 0 1.941 3.9 18.4 18.4 0 0 0-7.238 5.331 18.374 18.374 0 0 1-.81-22.405ZM3.355 52a18.452 18.452 0 1 1 18.451 18.452A18.473 18.473 0 0 1 3.355 52m83.871 40.258a8.4 8.4 0 0 1-8.387 8.387H25.161a8.4 8.4 0 0 1-8.387-8.387v-1.677h23.484v1.677a5.04 5.04 0 0 0 5.032 5.032h13.42a5.04 5.04 0 0 0 5.032-5.032v-1.677h23.484Zm-43.613-1.677h16.774v1.677a1.68 1.68 0 0 1-1.677 1.677H45.29a1.68 1.68 0 0 1-1.677-1.677Zm40.258-3.355H20.129v-13.5c.555.044 1.11.086 1.677.086s1.122-.042 1.677-.086v10.15h57.033V73.721c.555.044 1.11.086 1.677.086s1.122-.042 1.677-.086Z"/><path d="M67.097 93.935h3.355v3.355h-3.355Zm6.709 0h3.355v3.355h-3.355Zm20.13-53.677H83.871v6.71h-6.709v6.71h-6.71v10.064h23.484ZM73.807 57.032h3.355v3.355h-3.355Zm6.71 3.355V50.323h3.355v10.064Zm10.065 0h-3.356V43.613h3.355Z"/></g></g></svg>