<svg xmlns="http://www.w3.org/2000/svg" width="62" height="62" viewBox="0 0 62 62"><g transform="translate(-1 -1)"><path fill="#b4dd7f" d="M32 51a8 8 0 0 1 8 8v3H24v-3a8 8 0 0 1 8-8m22 0a8 8 0 0 1 8 8v3H46v-3a8 8 0 0 1 8-8m-44 0a8 8 0 0 1 8 8v3H2v-3a8 8 0 0 1 8-8"/><circle cx="5" cy="5" r="5" fill="#f0d0b4" transform="translate(5 41)"/><circle cx="5" cy="5" r="5" fill="#f0d0b4" transform="translate(27 41)"/><circle cx="5" cy="5" r="5" fill="#f0d0b4" transform="translate(49 41)"/><path fill="#f0d0b4" d="M39.38 26.38a2.125 2.125 0 0 1-3 0 2.121 2.121 0 0 1-3 3l-.88-.88-.01-.01a2.1 2.1 0 0 0 .51-1.37 2.121 2.121 0 0 0-3.62-1.5 2.121 2.121 0 0 0-3-3 2.121 2.121 0 0 0-3-3 2.121 2.121 0 0 0-3-3L20 17l-.51-.51a8.49 8.49 0 0 1 9.24-13.85 8.6 8.6 0 0 1 2.76 1.85L32 5l-5.59 5.59a1.414 1.414 0 0 0 1 2.41h3.76a2 2 0 0 0 1.42-.59L34 11h1.17a6.8 6.8 0 0 0 2.61-.52l.72.02 6 6 .88.88a2.121 2.121 0 0 1-3 3 2.121 2.121 0 0 1-3 3 2.125 2.125 0 0 1 0 3"/><path fill="#f0d0b4" d="M37.78 10.48a6.8 6.8 0 0 1-2.61.52H34l-1.41 1.41a2 2 0 0 1-1.42.59h-3.76a1.414 1.414 0 0 1-1-2.41L32 5l.51-.51a8.6 8.6 0 0 1 2.76-1.85 8.488 8.488 0 0 1 9.24 13.85l-.01.01-6-6Zm-5.4 15.14a2.13 2.13 0 0 1 .62 1.5 2.1 2.1 0 0 1-.51 1.37.7.7 0 0 1-.11.13L32 29l-.38.38a2.121 2.121 0 0 1-3-3l.76-.76a2.125 2.125 0 0 1 3 0m-6-6a2.125 2.125 0 0 1 0 3l-.76.76a2.121 2.121 0 0 1-3-3l.76-.76a2.125 2.125 0 0 1 3 0"/><path fill="#f0d0b4" d="M29.38 22.62a2.125 2.125 0 0 1 0 3l-.76.76a2.121 2.121 0 0 1-3-3l.76-.76a2.125 2.125 0 0 1 3 0m-6-6a2.125 2.125 0 0 1 0 3l-.76.76a2.121 2.121 0 0 1-3-3L20 17l.38-.38a2.125 2.125 0 0 1 3 0"/><path d="M57.626 50.769A5.987 5.987 0 0 0 55 40.09V39a5.006 5.006 0 0 0-5-5H33v-3.644a3.1 3.1 0 0 0 4.989-2.367 3.113 3.113 0 0 0 3-3 3.113 3.113 0 0 0 3-3 3.115 3.115 0 0 0 2.1-5.317l-.208-.208A9.48 9.48 0 0 0 32 3.6a9.476 9.476 0 0 0-13.375 13.423 3.1 3.1 0 0 0 2.386 4.966 3.113 3.113 0 0 0 3 3 3.113 3.113 0 0 0 3 3A3.072 3.072 0 0 0 31 30.86V34H14a5.006 5.006 0 0 0-5 5v1.09a5.987 5.987 0 0 0-2.626 10.679A9.01 9.01 0 0 0 1 59v4h18v-4a9.01 9.01 0 0 0-5.374-8.231A5.987 5.987 0 0 0 11 40.09V39a3 3 0 0 1 3-3h17v4.09a5.987 5.987 0 0 0-2.626 10.679A9.01 9.01 0 0 0 23 59v4h18v-4a9.01 9.01 0 0 0-5.374-8.231A5.987 5.987 0 0 0 33 40.09V36h17a3 3 0 0 1 3 3v1.09a5.987 5.987 0 0 0-2.626 10.679A9.01 9.01 0 0 0 45 59v4h18v-4a9.01 9.01 0 0 0-5.374-8.231M38.515 3a7.477 7.477 0 0 1 5.935 12.035l-4.6-4.6a8 8 0 0 0 .856-.73l-1.412-1.412A5.8 5.8 0 0 1 35.171 10h-1.585l-1.707 1.707a1 1 0 0 1-.708.293h-3.757a.414.414 0 0 1-.293-.707l6.1-6.1A7.44 7.44 0 0 1 38.515 3m-13.03 0a7.43 7.43 0 0 1 5.091 2.009l-4.87 4.87A2.415 2.415 0 0 0 27.414 14h3.757a2.98 2.98 0 0 0 2.122-.879L34.414 12h.757a7.8 7.8 0 0 0 2.869-.546l6.632 6.632a1.121 1.121 0 0 1-1.586 1.586l-2.379-2.379-1.414 1.414 2.379 2.379a1.121 1.121 0 0 1-1.586 1.586l-2.379-2.379-1.414 1.414 2.379 2.379a1.121 1.121 0 0 1-1.586 1.586l-2.379-2.379-1.414 1.414 2.379 2.379a1.121 1.121 0 0 1-1.586 1.586l-.334-.334a3.11 3.11 0 0 0-2.763-4.327 3.113 3.113 0 0 0-3-3 3.113 3.113 0 0 0-3-3A3.12 3.12 0 0 0 21.879 15a3.1 3.1 0 0 0-1.838.611A7.477 7.477 0 0 1 25.485 3M20 18.879a1.12 1.12 0 0 1 .328-.793l.758-.758a1.121 1.121 0 0 1 1.586 1.586l-.758.758A1.121 1.121 0 0 1 20 18.879m3 3a1.12 1.12 0 0 1 .328-.793l.758-.758a1.121 1.121 0 0 1 1.586 1.586l-.758.758A1.121 1.121 0 0 1 23 21.879m3 3a1.12 1.12 0 0 1 .328-.793l.758-.758a1.121 1.121 0 0 1 1.586 1.586l-.758.758A1.121 1.121 0 0 1 26 24.879M30.121 29a1.121 1.121 0 0 1-.793-1.914l.758-.758a1.121 1.121 0 0 1 1.586 1.586l-.758.758a1.12 1.12 0 0 1-.793.328M17 59v2h-2v-4h-2v4H7v-4H5v4H3v-2a7 7 0 0 1 14 0m-3-13a4 4 0 1 1-4-4 4 4 0 0 1 4 4m25 13v2h-2v-4h-2v4h-6v-4h-2v4h-2v-2a7 7 0 0 1 14 0m-3-13a4 4 0 1 1-4-4 4 4 0 0 1 4 4m14 0a4 4 0 1 1 4 4 4 4 0 0 1-4-4m11 15h-2v-4h-2v4h-6v-4h-2v4h-2v-2a7 7 0 0 1 14 0Z"/><path d="M38 38h2v2h-2Zm4 0h2v2h-2Zm4 0h2v2h-2Zm-30 0h2v2h-2Zm4 0h2v2h-2Zm4 0h2v2h-2Z"/></g></svg>