<svg xmlns="http://www.w3.org/2000/svg" width="1328" height="525.595" viewBox="0 0 1328 525.595"><defs><linearGradient id="a" x1=".5" x2=".5" y2="1" gradientUnits="objectBoundingBox"><stop offset="0" stop-color="#21c9b8"/><stop offset="1" stop-color="#6de499" stop-opacity="0"/></linearGradient><linearGradient id="b" x1=".5" x2=".5" y2="1" gradientUnits="objectBoundingBox"><stop offset="0" stop-color="#cbc232"/><stop offset="1" stop-color="#c6ff78" stop-opacity="0"/></linearGradient><linearGradient id="c" x1=".5" x2=".5" y2="1" gradientUnits="objectBoundingBox"><stop offset="0" stop-color="#a5b9f6"/><stop offset="1" stop-color="#9396e6" stop-opacity="0"/></linearGradient></defs><g transform="matrix(-1 0 0 -1 1459.609 1519.246)"><path fill="url(#a)" d="M1306.514 524.215v221.756H4.373v-47.6c147.72-139.816 420.577-48.005 589.473-39.934 109.927 5.253 206.932-38.581 301.838-82.415 89.682-41.421 177.5-82.843 272.565-82.845 44.215 0 89.991 8.957 138.264 31.041" opacity=".09" transform="translate(153.096 668.479)"/><path fill="url(#b)" d="M1302.141 31.041V252.8H0v-47.6c147.72-139.822 420.577-48.012 589.473-39.94C699.4 170.513 796.4 126.679 891.311 82.845 980.994 41.424 1068.809 0 1163.877 0c44.215 0 89.991 8.957 138.264 31.041" opacity=".09" transform="matrix(-1 0 0 -1 1433.75 1246.448)"/><path fill="url(#c)" d="M4.373 524.215v221.756h1324.558v-47.6c-150.263-139.816-427.818-48.005-599.621-39.934-111.819 5.253-210.494-38.581-307.035-82.415-91.226-41.421-180.553-82.843-277.258-82.845-44.976 0-91.54 8.957-140.644 31.041" opacity=".09" transform="translate(127.236 773.275)"/></g></svg>