<svg xmlns="http://www.w3.org/2000/svg" width="51.014" height="45.908" viewBox="0 0 51.014 45.908"><g transform="translate(0.8 0.8)"><g transform="translate(0 2.087)"><path d="M151.892,403.826l-17.166.22-3.814,6.544a.4.4,0,0,0,.346.6h24.229a.4.4,0,0,0,.346-.6Z" transform="translate(-118.667 -368.973)" fill="#003748" fill-rule="evenodd"/><path d="M323.3,403.826l-1.986.026,3.927,6.739a.4.4,0,0,1-.346.6h2a.4.4,0,0,0,.346-.6Z" transform="translate(-290.073 -368.973)" fill="#00242f" fill-rule="evenodd"/><path d="M55.834,55.386a2.587,2.587,0,0,1,2.58,2.58V88.019a2.587,2.587,0,0,1-2.58,2.58H11.58A2.587,2.587,0,0,1,9,88.019V57.966a2.587,2.587,0,0,1,2.58-2.58Z" transform="translate(-9 -55.386)" fill="#e6f8ff" fill-rule="evenodd"/><path d="M450.212,55.386a2.587,2.587,0,0,1,2.58,2.58V88.019a2.587,2.587,0,0,1-2.58,2.58h-3a2.587,2.587,0,0,0,2.58-2.58V57.966a2.587,2.587,0,0,0-2.58-2.58Z" transform="translate(-403.378 -55.386)" fill="#d0f1ff" fill-rule="evenodd"/><path d="M58.413,374.234H9v1.74a2.587,2.587,0,0,0,2.58,2.58H55.834a2.587,2.587,0,0,0,2.58-2.58Z" transform="translate(-9 -342.341)" fill="#004960" fill-rule="evenodd"/><path d="M452.791,374.234h-3v1.74a2.587,2.587,0,0,1-2.58,2.58h3a2.587,2.587,0,0,0,2.58-2.58Z" transform="translate(-403.378 -342.341)" fill="#003748" fill-rule="evenodd"/></g><g transform="translate(4.907)"><path d="M77.858,34.522a19.8,19.8,0,0,1,17.149,29.7l-6.085-3.513a12.774,12.774,0,1,0-22.128,0l-6.085,3.513a19.8,19.8,0,0,1,17.149-29.7Z" transform="translate(-58.059 -34.522)" fill="#fc685b" fill-rule="evenodd"/><path d="M134.329,105.313l-1.9-1.095a12.774,12.774,0,1,0-22.128,0l-1.9,1.095a14.964,14.964,0,1,1,25.921,0Z" transform="translate(-101.569 -78.03)" fill="#f35244" fill-rule="evenodd"/><path d="M60.71,68.261a19.708,19.708,0,0,0-2.65,9.9h7.026A12.768,12.768,0,0,1,71.471,67.1l-3.513-6.085a19.9,19.9,0,0,0-7.248,7.248Z" transform="translate(-58.06 -58.363)" fill="#f35244" fill-rule="evenodd"/><path d="M106.4,115.851h2.19a12.768,12.768,0,0,1,6.386-11.064l-1.095-1.9a14.958,14.958,0,0,0-7.481,12.961Z" transform="translate(-101.569 -96.051)" fill="#eb423f" fill-rule="evenodd"/><path d="M84.551,44.42l6.085,3.513A12.768,12.768,0,0,1,101.7,41.548q0-3.513,0-7.026a19.79,19.79,0,0,0-17.15,9.9Z" transform="translate(-81.901 -34.522)" fill="#ffda2d" fill-rule="evenodd"/><path d="M126.429,90.348l1.9,1.095a12.768,12.768,0,0,1,11.064-6.386v-2.19h0A14.957,14.957,0,0,0,126.429,90.348Z" transform="translate(-119.59 -78.031)" fill="#ffc700" fill-rule="evenodd"/><path d="M157.014,37.172l3.513,6.085a12.715,12.715,0,0,1,6.388-1.709h0a12.715,12.715,0,0,1,6.388,1.709l3.513-6.085a19.825,19.825,0,0,0-19.8,0Z" transform="translate(-147.116 -34.522)" fill="#ffc700" fill-rule="evenodd"/><path d="M181.193,84.87l1.095,1.9a12.715,12.715,0,0,1,6.388-1.709h0a12.715,12.715,0,0,1,6.388,1.709l1.095-1.9a14.979,14.979,0,0,0-14.966,0Z" transform="translate(-168.876 -78.031)" fill="#fdb800" fill-rule="evenodd"/><path d="M256,34.522q0,3.513,0,7.026a12.768,12.768,0,0,1,11.064,6.386l6.085-3.513a19.79,19.79,0,0,0-17.15-9.9Z" transform="translate(-236.201 -34.522)" fill="#72d561" fill-rule="evenodd"/><path d="M256,82.867v2.19a12.768,12.768,0,0,1,11.064,6.386l1.9-1.095A14.958,14.958,0,0,0,256,82.867Z" transform="translate(-236.201 -78.031)" fill="#57ca5a" fill-rule="evenodd"/><path d="M323.376,61.013,319.863,67.1a12.768,12.768,0,0,1,6.386,11.064h7.026a19.79,19.79,0,0,0-9.9-17.15Z" transform="translate(-293.676 -58.363)" fill="#57ca5a" fill-rule="evenodd"/><path d="M320.958,102.891l-1.095,1.9a12.768,12.768,0,0,1,6.386,11.064h2.19a14.957,14.957,0,0,0-7.481-12.961Z" transform="translate(-293.676 -96.052)" fill="#3cbe52" fill-rule="evenodd"/><path d="M372.7,133.476l-6.085,3.513a12.789,12.789,0,0,1,0,12.776l6.085,3.513a19.822,19.822,0,0,0,0-19.8Z" transform="translate(-335.747 -123.578)" fill="#64b5f6" fill-rule="evenodd"/><path d="M368.506,157.655l-1.9,1.095a12.789,12.789,0,0,1,0,12.776l1.9,1.1a14.979,14.979,0,0,0,0-14.966Z" transform="translate(-335.746 -145.338)" fill="#42a5f5" fill-rule="evenodd"/><path d="M375.344,232.462h-7.026a12.715,12.715,0,0,1-1.71,6.388l6.085,3.513A19.707,19.707,0,0,0,375.344,232.462Z" transform="translate(-335.746 -212.663)" fill="#42a5f5" fill-rule="evenodd"/><path d="M370.51,232.462h-2.19a12.715,12.715,0,0,1-1.71,6.388l1.9,1.1A14.894,14.894,0,0,0,370.51,232.462Z" transform="translate(-335.747 -212.663)" fill="#2d90f1" fill-rule="evenodd"/></g><g transform="translate(24.609 10.705)"><path d="M266.093,146.05l.74,1.282a.4.4,0,0,0,.721-.048l1.86-4.533a.4.4,0,0,0-.318-.551l-4.855-.656a.4.4,0,0,0-.4.6l.74,1.282-9.29,5.363a.528.528,0,0,0-.193.72l.988,1.711a.528.528,0,0,0,.72.193Z" transform="translate(-255.025 -141.539)" fill="#ffd6bd" fill-rule="evenodd"/><path d="M271.326,152.033l.5.872a.4.4,0,0,0,.721-.048l1.86-4.533a.4.4,0,0,0-.318-.551l-.3-.041-1.745,4.253A.4.4,0,0,1,271.326,152.033Zm-10.75,3.889.5.871a.529.529,0,0,0,.72.193l9.289-5.363-.5-.872-9.29,5.363A.529.529,0,0,1,260.577,155.922Z" transform="translate(-260.022 -147.112)" fill="#f9c6aa" fill-rule="evenodd"/></g><g transform="translate(12.151 7.249)"><circle cx="8.876" cy="8.876" r="8.876" transform="translate(0 12.551) rotate(-45)" fill="#fdb800"/><path d="M200.946,164.9a8.876,8.876,0,1,1-12.511,12.512A8.875,8.875,0,0,0,200.946,164.9Z" transform="translate(-182.638 -159.105)" fill="#f4a40e" fill-rule="evenodd"/><ellipse cx="6.195" cy="6.195" rx="6.195" ry="6.195" transform="translate(6.361 6.355)" fill="#ffda2d"/><g transform="translate(6.36 6.355)"><path d="M200.259,170.527A6.178,6.178,0,0,1,204.8,172.5a6.195,6.195,0,0,0-8.207,9.209,6.2,6.2,0,0,1,3.671-11.186Z" transform="translate(-194.064 -170.527)" fill="#ffc700" fill-rule="evenodd"/><path d="M229.422,191.962a.8.8,0,1,1,1.6,0v.374a2.117,2.117,0,0,1,1.155.8.8.8,0,1,1-1.294.932.5.5,0,0,0-.176-.152.487.487,0,0,0-.223-.051h-.406a.49.49,0,0,0,0,.98h.288a2.091,2.091,0,0,1,.656,4.075v.408a.8.8,0,1,1-1.6,0v-.374a2.115,2.115,0,0,1-1.155-.8.8.8,0,1,1,1.294-.932.5.5,0,0,0,.176.152.487.487,0,0,0,.223.051h.406a.49.49,0,0,0,0-.98h-.288a2.091,2.091,0,0,1-.656-4.075v-.408Z" transform="translate(-224.595 -189.098)" fill="#ffc700" fill-rule="evenodd"/></g></g></g><path d="M28.74,48.414A2.094,2.094,0,0,1,27.306,50.4v.407a.8.8,0,0,1-1.6,0v-.373a2.107,2.107,0,0,1-1.156-.8.8.8,0,1,1,1.3-.937.5.5,0,0,0,.4.2h.406a.49.49,0,1,0,0-.979h-.288a2.09,2.09,0,0,1-.656-4.075v-.407a.8.8,0,0,1,1.6,0v.373a2.1,2.1,0,0,1,1.156.8.8.8,0,1,1-1.3.937.492.492,0,0,0-.4-.206h-.406a.49.49,0,0,0,0,.98h.288a2.093,2.093,0,0,1,2.09,2.091Zm-2.234,4.105a5.4,5.4,0,1,0-5.4-5.4A5.4,5.4,0,0,0,26.506,52.519Zm0-12.391a7,7,0,1,0,7,7A7,7,0,0,0,26.506,40.128Zm22.127,24.7H4.379A1.781,1.781,0,0,1,2.6,63.044V62.1H50.413v.939A1.782,1.782,0,0,1,48.633,64.823ZM37.925,70.831H15.087l2.568-4.407h17.7ZM4.379,30.211A1.781,1.781,0,0,0,2.6,31.99V60.5H50.413V31.99a1.782,1.782,0,0,0-1.779-1.779H38.252a20.593,20.593,0,0,1,6.1,27.214.8.8,0,0,1-1.093.292L37.17,54.2a.8.8,0,0,1-.293-1.094,12.007,12.007,0,0,0,1.373-8.328,1.192,1.192,0,0,1-.726-.56l-.34-.589-1.383.8a9.7,9.7,0,1,1-2.32-4.008l1.387-.8-.34-.589a1.192,1.192,0,0,1-.122-.907A11.975,11.975,0,0,0,16.134,53.11a.8.8,0,0,1-.292,1.094L9.757,57.717a.8.8,0,0,1-1.093-.292,20.593,20.593,0,0,1,6.1-27.214H4.379Zm22.927-2.069a18.884,18.884,0,0,1,8,2.145l-2.712,4.7a13.468,13.468,0,0,0-5.284-1.41ZM20.425,34.99l-2.715-4.7a18.88,18.88,0,0,1,8-2.145v5.431a13.474,13.474,0,0,0-5.281,1.416Zm-5.249,4.668-4.7-2.716a19.16,19.16,0,0,1,5.852-5.852l2.716,4.7A13.681,13.681,0,0,0,15.176,39.658Zm-2.22,6.666H7.525a18.866,18.866,0,0,1,2.145-8l4.7,2.715A13.488,13.488,0,0,0,12.956,46.323Zm0,1.6a13.579,13.579,0,0,0,1.413,5.282l-4.7,2.717a18.991,18.991,0,0,1-2.138-8ZM40.8,37.946a1.258,1.258,0,0,0-.215-.05l-4.763-.644a13.553,13.553,0,0,0-1.846-1.467l2.711-4.7a19.168,19.168,0,0,1,5.853,5.852Zm-.745,8.377a13.534,13.534,0,0,0-.341-2.336l1.824-4.444a1.238,1.238,0,0,0,.063-.211l1.74-1.005a18.86,18.86,0,0,1,2.146,8Zm0,1.6h5.43a18.985,18.985,0,0,1-2.138,8l-4.7-2.716A13.582,13.582,0,0,0,40.056,47.924ZM34.5,41.681l1.859-1.073a.8.8,0,0,0,.293-1.093l-.336-.58,3.543.478L38.5,42.719l-.335-.58a.8.8,0,0,0-1.094-.293l-1.856,1.072a9.616,9.616,0,0,0-.717-1.237Zm.08,5.442A8.076,8.076,0,1,0,26.506,55.2,8.085,8.085,0,0,0,34.582,47.123ZM48.633,28.611h-13.1a20.574,20.574,0,0,0-18.056,0H4.379A3.384,3.384,0,0,0,1,31.99V63.044a3.384,3.384,0,0,0,3.38,3.38H15.8l-2.448,4.2a1.185,1.185,0,0,0-.008,1.2,1.211,1.211,0,0,0,1.045.607H38.62a1.21,1.21,0,0,0,1.045-.607,1.184,1.184,0,0,0-.007-1.2l-2.449-4.2H48.633a3.384,3.384,0,0,0,3.38-3.38V31.99a3.384,3.384,0,0,0-3.38-3.38Z" transform="translate(-0.999 -26.524)" fill-rule="evenodd"/></svg>