<svg xmlns="http://www.w3.org/2000/svg" width="85.759" height="85.77" viewBox="0 0 85.759 85.77"><path fill="#3d5c9e" d="M62.979 84.429h-20.1v-4.02l10.72-2.68-2.68-4.02 2.68-1.34v-9.38l6.7 1.34s.188.643.456 1.782a86 86 0 0 1 1.768 10.278 75 75 0 0 1 .456 8.04"/><path fill="#e09380" d="M56.279 41.55v2.68a2.69 2.69 0 0 1-2.68 2.68h-1.34v-5.36Z"/><path fill="#966857" d="M54.94 37.53v4.02h-2.68c-14.74 0-14.74-4.02-14.74-4.02a3.937 3.937 0 0 1-4.02 4.02h-2.68v-4.02a12.06 12.06 0 0 1 24.12 0"/><path fill="#8d5c4d" d="M37.52 34.85a3.937 3.937 0 0 1-4.02 4.02h-2.68v2.68h2.68a3.937 3.937 0 0 0 4.02-4.02s0 4.02 14.74 4.02h2.68v-2.68h-2.68c-14.74 0-14.74-4.02-14.74-4.02"/><path fill="#7ea8c2" d="M53.599 62.985v9.38l-2.68 1.34 2.68 4.02-10.72 2.684c5.36-5.36 6.7-16.08 6.7-16.08v-2.144Z"/><path fill="#ffbeaa" d="M46.899 56.718a9.374 9.374 0 0 1-13.4-8.468v-6.7a3.937 3.937 0 0 0 4.02-4.02s0 4.02 14.74 4.02v6.7a9.34 9.34 0 0 1-5.36 8.468m0-8.469h-8.04a4.02 4.02 0 1 0 8.04 0"/><path fill="#acaeaf" d="M49.579 62.186v2.144l-4.02 4.02-2.68-2.68 4.02-4.02Z"/><path fill="#f4f4f4" d="m45.559 68.349 4.02-4.02s-1.34 10.72-6.7 16.08v-14.74Z"/><path fill="#e09380" d="M46.899 56.718v4.931l-4.02 4.02-4.02-4.02v-4.931a9.32 9.32 0 0 0 8.04 0"/><path fill="#ff475a" d="M38.859 48.25h8.04a4.02 4.02 0 1 1-8.04 0"/><path fill="#d1093a" d="M42.879 48.25h-4.02a4 4 0 0 0 .556 2.01 4 4 0 0 1 3.464-2.01m3.464 2.01a4 4 0 0 0 .556-2.01h-4.02a4 4 0 0 1 3.464 2.01"/><path fill="#314a66" d="M42.88 80.409v4.02h-20.1a75 75 0 0 1 .456-8.04 86 86 0 0 1 1.769-10.278c.268-1.139.456-1.782.456-1.782l6.699-1.34v9.38l2.68 1.34-2.68 4.02Z"/><path fill="#cfd9dc" d="M42.879 65.669v14.74c-5.36-5.36-6.7-16.08-6.7-16.08l4.02 4.02Z"/><path fill="#acaeaf" d="m42.879 65.67-2.68 2.68-4.02-4.02v-2.144l2.68-.536Z"/><path fill="#7ea8c2" d="m42.88 80.409-10.72-2.68 2.68-4.02-2.68-1.34v-9.384l4.02-.8v2.144s1.34 10.72 6.7 16.08"/><path fill="#e09380" d="M33.5 41.55v5.36h-1.34a2.69 2.69 0 0 1-2.68-2.68v-2.68Z"/><path fill="#06ccab" d="M6.7 38.87h5.36v18.76H6.7Z"/><path fill="#00bd9d" d="M9.38 52.27v-13.4H6.7v18.76h5.36v-2.68a2.68 2.68 0 0 1-2.68-2.68"/><path fill="#54addd" d="M17.42 30.83h5.36v26.8h-5.36Z"/><path fill="#7099cf" d="M20.1 52.27V30.83h-2.68v26.8h5.36v-2.68a2.68 2.68 0 0 1-2.68-2.68"/><path fill="#966857" d="M62.979 24.13h5.36v4.02h-5.36Z"/><path fill="#8d5c4d" d="M62.979 24.13h2.68v4.02h-2.68Z"/><path fill="#ffd03e" d="M76.379 12.07a10.69 10.69 0 0 1-6.365 9.782 2.48 2.48 0 0 0-1.675 2.278h-5.36a2.48 2.48 0 0 0-1.675-2.278 10.72 10.72 0 1 1 15.075-9.782"/><path fill="#fbb040" d="M63.984 21.853a10.712 10.712 0 0 1 2.2-20.287c.281-.055.559-.082.836-.115a11 11 0 0 0-3.516.115 10.712 10.712 0 0 0-2.2 20.287 2.48 2.48 0 0 1 1.675 2.278h2.68a2.48 2.48 0 0 0-1.675-2.278"/><path fill="#54addd" d="M69.679 58.97h14.74a14.7 14.7 0 0 1-4.315 10.425Z"/><path fill="#ff636e" d="M84.419 58.97h-14.74V44.23a14.73 14.73 0 0 1 14.74 14.74"/><path fill="#fbb040" d="m69.679 58.97 10.425 10.425a14.75 14.75 0 0 1-18.277 2.05 72 72 0 0 0-1.528-7.115l-4.69-.938a15 15 0 0 1-.67-4.422 14.73 14.73 0 0 1 14.74-14.74Z"/><path fill="#f7941d" d="M64.506 71.445a72 72 0 0 0-1.527-7.115l-4.69-.938a15 15 0 0 1-.67-4.422 14.726 14.726 0 0 1 12.063-14.486v-.254a14.73 14.73 0 0 0-14.743 14.74 15 15 0 0 0 .67 4.422l4.69.938a72 72 0 0 1 1.528 7.115 14.7 14.7 0 0 0 7.852 2.265c.453 0 .9-.028 1.34-.067a14.7 14.7 0 0 1-6.513-2.198"/><path d="M42.88 58.97a10.73 10.73 0 0 1-10.72-10.72v-6.7h2.68v6.7a8.04 8.04 0 0 0 16.08 0v-6.7h2.68v6.7a10.73 10.73 0 0 1-10.72 10.72"/><path d="M42.879 53.61a5.36 5.36 0 0 1-5.36-5.36 1.34 1.34 0 0 1 1.34-1.34h8.04a1.34 1.34 0 0 1 1.34 1.34 5.36 5.36 0 0 1-5.36 5.36m-2.32-4.02a2.68 2.68 0 0 0 4.639 0Z"/><path d="M53.6 48.249h-1.34v-2.68h1.34a1.34 1.34 0 0 0 1.34-1.34v-1.341h-2.68c-8.074 0-12.12-1.2-14.129-2.5a5.47 5.47 0 0 1-4.631 2.5h-2.68v1.34a1.34 1.34 0 0 0 1.34 1.34h1.34v2.68h-1.34a4.02 4.02 0 0 1-4.02-4.019v-2.68a1.34 1.34 0 0 1 1.34-1.34h4.02a2.525 2.525 0 0 0 2.68-2.68 1.34 1.34 0 0 1 2.672-.153c.11.226 1.663 2.833 13.408 2.833h4.02a1.34 1.34 0 0 1 1.34 1.34v2.68a4.02 4.02 0 0 1-4.02 4.02"/><path d="M56.28 41.55H53.6v-4.02a10.72 10.72 0 0 0-21.44 0v4.02h-2.68v-4.02a13.4 13.4 0 0 1 26.8 0Zm6.699 44.22H22.78a1.34 1.34 0 0 1-1.34-1.34 82.6 82.6 0 0 1 2.732-20.467 1.34 1.34 0 0 1 1.025-.946l12.323-2.465V56.29h2.68v5.36a1.34 1.34 0 0 1-1.072 1.313l-12.58 2.517a83 83 0 0 0-2.413 17.61h37.49a83 83 0 0 0-2.412-17.61l-12.581-2.517a1.34 1.34 0 0 1-1.072-1.313v-5.36h2.68v4.262l12.328 2.464a1.34 1.34 0 0 1 1.025.946 82.6 82.6 0 0 1 2.726 20.468 1.34 1.34 0 0 1-1.34 1.34"/><path d="M42.879 67.009a1.34 1.34 0 0 1-.947-.392l-4.02-4.02 1.895-1.895 3.073 3.073 3.073-3.073 1.895 1.895-4.02 4.02a1.34 1.34 0 0 1-.949.392"/><path d="M45.559 69.69a1.34 1.34 0 0 1-.947-.392l-1.733-1.733-1.733 1.733a1.34 1.34 0 0 1-1.895 0l-4.02-4.02a1.34 1.34 0 0 1-.392-.948v-2.68h2.68v2.125l2.68 2.68 1.733-1.733a1.34 1.34 0 0 1 1.895 0l1.733 1.733 2.68-2.68V61.65h2.68v2.68a1.34 1.34 0 0 1-.392.947l-4.02 4.02a1.34 1.34 0 0 1-.949.393"/><path d="M42.879 81.749a1.4 1.4 0 0 1-.326-.04l-10.72-2.68a1.34 1.34 0 0 1-.789-2.04l1.838-2.756-1.323-.661a1.34 1.34 0 0 1-.74-1.203v-9.38h2.68v8.552l1.939.969a1.34 1.34 0 0 1 .516 1.943l-1.626 2.436 5.12 1.28a38.6 38.6 0 0 1-4.6-13.668l2.659-.332c.013.1 1.352 10.333 6.318 15.3a1.34 1.34 0 0 1-.947 2.281Z"/><path d="M42.879 81.749a1.34 1.34 0 0 1-.947-2.287c4.967-4.966 6.307-15.2 6.318-15.3l2.659.332a38.6 38.6 0 0 1-4.6 13.668l5.12-1.28-1.625-2.437a1.34 1.34 0 0 1 .516-1.943l1.939-.962v-8.551h2.68v9.38a1.34 1.34 0 0 1-.741 1.206l-1.323.661 1.839 2.753a1.34 1.34 0 0 1-.789 2.043l-10.72 2.68a1.4 1.4 0 0 1-.326.034Z"/><path d="M41.539 65.669h2.68v18.76h-2.68Zm26.8-36.179h-5.36a1.34 1.34 0 0 1-1.34-1.34v-4.02c0-.181 0-.661-.876-1.049a12.06 12.06 0 1 1 9.793 0c-.876.39-.876.868-.876 1.049v4.02a1.34 1.34 0 0 1-1.341 1.34m-4.02-2.682h2.68v-2.68a3.8 3.8 0 0 1 2.468-3.5 9.38 9.38 0 1 0-7.615 0 3.8 3.8 0 0 1 2.467 3.5Z"/><path d="M62.979 22.79h5.36v2.68h-5.36Z"/><path d="M66.999 24.13h-2.68V13.41a1.34 1.34 0 0 1 1.34-1.34h2.68V9.39h2.68v4.02a1.34 1.34 0 0 1-1.34 1.34h-2.68Z"/><path d="M65.659 14.75h-4.02a1.34 1.34 0 0 1-1.34-1.34V9.39h2.68v2.68h2.68Zm13.4-4.02h5.36v2.68h-5.36Zm-.956-2.28 4.02-4.02 1.896 1.894-4.021 4.021Zm-.002 7.255 1.895-1.895 4.02 4.02-1.894 1.896ZM46.899 10.73h5.36v2.68h-5.36Zm.387-4.408 1.895-1.895 4.02 4.02-1.894 1.896Zm0 11.504 4.02-4.02 1.896 1.894-4.021 4.021ZM33.5 58.97H1.34A1.34 1.34 0 0 1 0 57.63V29.49h2.68v26.8H33.5Z"/><path d="M12.06 58.97H6.7a1.34 1.34 0 0 1-1.34-1.34V38.87a1.34 1.34 0 0 1 1.34-1.34h5.36a1.34 1.34 0 0 1 1.34 1.34v18.76a1.34 1.34 0 0 1-1.34 1.34m-4.02-2.68h2.68V40.21H8.04Zm14.74 2.68h-5.36a1.34 1.34 0 0 1-1.34-1.34v-26.8a1.34 1.34 0 0 1 1.34-1.34h5.36a1.34 1.34 0 0 1 1.34 1.34v26.8a1.34 1.34 0 0 1-1.34 1.34m-4.02-2.68h2.68V32.17h-2.68Zm9.772-27.193L20.1 20.665l-5.753 5.753a1.34 1.34 0 0 1-1.895 0L2.68 16.645v4.805H0v-8.04a1.34 1.34 0 0 1 2.287-.947L13.4 23.57l5.753-5.753a1.34 1.34 0 0 1 1.895 0l9.38 9.38Z"/><path d="M1.34 12.07h8.04v2.68H1.34ZM0 24.13h2.68v2.68H0Zm69.679 50.919a16.06 16.06 0 0 1-8.566-2.471l1.428-2.269a13.4 13.4 0 1 0-6.262-11.339 13.7 13.7 0 0 0 .611 4.028l-2.562.788a16.4 16.4 0 0 1-.729-4.816 16.08 16.08 0 1 1 16.08 16.08Z"/><path d="m79.451 70.637-10.72-10.72a1.34 1.34 0 0 1-.392-.947V44.23h2.68v14.185l10.327 10.327Z"/><path d="M69.679 57.63h14.74v2.68h-14.74ZM10.72 67.009h2.68v8.04h-2.68Z"/><path d="M8.04 69.689h8.04v2.68H8.04ZM75.039 30.83h2.68v8.04h-2.68Z"/><path d="M72.359 33.51h8.04v2.68h-8.04ZM29.48 6.71h2.68v8.04h-2.68Z"/><path d="M26.8 9.39h8.04v2.68H26.8Z"/></svg>