<svg xmlns="http://www.w3.org/2000/svg" width="124" height="124" viewBox="0 0 124 124"><g transform="translate(6927 8759.875)"><circle cx="62" cy="62" r="62" fill="#fff" transform="translate(-6927 -8759.875)"/><g transform="translate(-6903.32 -8737.399)"><circle cx="3.582" cy="3.582" r="3.582" fill="#f7c23c" transform="translate(3.196 50.945)"/><circle cx="3.582" cy="3.582" r="3.582" fill="#ef7c26" transform="translate(3.196 65.272)"/><circle cx="3.582" cy="3.582" r="3.582" fill="#db3131" transform="translate(65.28 50.945)"/><circle cx="3.582" cy="3.582" r="3.582" fill="#86ceca" transform="translate(65.28 65.272)"/><path fill="#f2f2f2" d="M16.33 65.272h42.981v7.164H16.33Z"/><path fill="#cfd2d3" d="M37.82 65.272h21.491v7.164H37.82Z"/><path fill="#f2f2f2" d="M25.881 50.945h23.878v7.164H25.881Z"/><path fill="#cfd2d3" d="M37.82 50.945h11.939v7.164H37.82Z"/><circle cx="20.297" cy="20.297" r="20.297" fill="#99aece" transform="translate(17.524 3.189)"/><path fill="#758daf" d="M37.82 3.189a20.3 20.3 0 0 1 0 40.593"/><path d="M49.759 59.3a1.194 1.194 0 0 0 1.194-1.194v-2.385h13.3a4.776 4.776 0 1 0 0-2.388h-13.3v-2.388a1.194 1.194 0 0 0-1.194-1.194H39.014v-4.775a21.491 21.491 0 1 0-2.388 0v4.776H25.881a1.194 1.194 0 0 0-1.194 1.194v2.388h-13.3a4.776 4.776 0 1 0 0 2.388h13.3v2.388a1.194 1.194 0 0 0 1.194 1.19h10.745v4.776H16.33a1.194 1.194 0 0 0-1.194 1.194v2.39h-3.749a4.776 4.776 0 1 0 0 2.388h3.749v2.388a1.194 1.194 0 0 0 1.194 1.194h42.981a1.194 1.194 0 0 0 1.189-1.194v-2.388h3.749a4.776 4.776 0 1 0 0-2.388H60.5v-2.388a1.194 1.194 0 0 0-1.194-1.194h-20.3V59.3Zm19.1-7.164a2.388 2.388 0 1 1-2.388 2.388 2.39 2.39 0 0 1 2.391-2.385ZM46.476 36.32a18 18 0 0 1 3.283 2.089 19.1 19.1 0 0 1-6.137 3.283 19.1 19.1 0 0 0 2.854-5.372M43.587 5.278a19.1 19.1 0 0 1 6.173 3.283 18.6 18.6 0 0 1-3.247 2.089 19.1 19.1 0 0 0-2.925-5.373Zm.716 6.3a19.2 19.2 0 0 1-12.966 0c1.636-4.525 4.1-7.2 6.483-7.2s4.847 2.674 6.483 7.164Zm-15.139-.931a18 18 0 0 1-3.283-2.089 19.1 19.1 0 0 1 6.137-3.283 19.1 19.1 0 0 0-2.853 5.373Zm1.492 3.212a21.3 21.3 0 0 0 7.164 1.266 21.3 21.3 0 0 0 7.164-1.266 37.2 37.2 0 0 1 1.194 8.429H29.463a37.2 37.2 0 0 1 1.194-8.429Zm15.522 10.82a37 37 0 0 1-1.194 8.429 21.67 21.67 0 0 0-14.4 0 37 37 0 0 1-1.122-8.429ZM32.054 41.693a19.1 19.1 0 0 1-6.173-3.283 18 18 0 0 1 3.247-2.089 19.1 19.1 0 0 0 2.925 5.373Zm-.716-6.268a19.2 19.2 0 0 1 12.966 0c-1.636 4.489-4.1 7.164-6.483 7.164s-4.848-2.675-6.484-7.165Zm20.165 1.4a21 21 0 0 0-4.286-2.758 39 39 0 0 0 1.349-9.384h8.357A19.1 19.1 0 0 1 51.5 36.785Zm5.42-14.53h-8.358a39 39 0 0 0-1.325-9.348 21 21 0 0 0 4.286-2.758 19.1 19.1 0 0 1 5.397 12.102Zm-32.785-12.11a21 21 0 0 0 4.286 2.758 39 39 0 0 0-1.349 9.348h-8.358a19.1 19.1 0 0 1 5.42-12.106Zm-5.361 14.494h8.357a39 39 0 0 0 1.325 9.348 21 21 0 0 0-4.286 2.758 19.1 19.1 0 0 1-5.4-12.106Zm-12 32.236a2.388 2.388 0 1 1 2.388-2.388 2.39 2.39 0 0 1-2.387 2.388Zm0 14.327a2.388 2.388 0 1 1 2.388-2.388 2.39 2.39 0 0 1-2.387 2.388Zm62.084-4.776a2.388 2.388 0 1 1-2.388 2.388 2.39 2.39 0 0 1 2.389-2.388Zm-10.744 4.776H17.524v-4.776h40.593Zm-31.042-19.1h21.49v4.776h-21.49Z"/></g></g></svg>