<svg xmlns="http://www.w3.org/2000/svg" width="82.348" height="82.375" viewBox="0 0 82.348 82.375"><path fill="#f44545" d="M71.367 14.264v54.021a1.687 1.687 0 0 1-1.687 1.688H24.565a1.69 1.69 0 0 1-1.689-1.688V14.264a1.69 1.69 0 0 1 1.689-1.689H69.68a1.69 1.69 0 0 1 1.687 1.689m0 0"/><path fill="#c42d2d" d="M71.367 14.264v54.021a1.69 1.69 0 0 1-1.687 1.688H58.224v-57.4H69.68a1.69 1.69 0 0 1 1.687 1.689Zm0 0"/><path fill="#f2bb88" d="M54.783 53.434a3.593 3.593 0 0 0-1.574 4.836l1.107 2.176a1.055 1.055 0 0 1-.941 1.534H39.004a2.393 2.393 0 1 0-.066 4.785h-4.471a2.5 2.5 0 0 0-1.686.755 2.43 2.43 0 0 0-.65 2.352 2.255 2.255 0 0 0 2.286 1.673h2.077a2.391 2.391 0 0 0 .048 4.782h7.457a2.39 2.39 0 0 0-2.393 2.391 2.39 2.39 0 0 0 2.391 2.392l16.726.006h.044a5.645 5.645 0 0 0 5.647-5.626l-.022-12.641a6 6 0 0 0-.066-.869h-3.189a3.82 3.82 0 0 1-3.408-2.09l-2.959-5.811a1.476 1.476 0 0 0-1.985-.646Zm0 0"/><path fill="#e3a76f" d="M66.409 73.326a5.646 5.646 0 0 1-5.644 5.447H41.607a2.39 2.39 0 0 0 2.389 2.342l16.726.006h.043a5.646 5.646 0 0 0 5.647-5.626Zm0 0"/><path fill="#d2d2d7" d="M69.31 81.508h8.579c1.766 0 3.22-1.089 3.22-2.422V61.22c0-1.333-1.444-2.43-3.21-2.432h-8.58c-1.766 0-3.211 1.09-3.212 2.421l-.006 17.867c-.001 1.333 1.448 2.432 3.209 2.432m0 0"/><path fill="#5596fb" d="M71.97 81.508h5.92c1.766 0 3.22-1.089 3.22-2.422V61.22c0-1.333-1.444-2.43-3.21-2.432h-5.93Zm0 0"/><path fill="#f2bb88" d="M27.563 20.366a3.6 3.6 0 0 1 1.574 4.836l-1.107 2.176a1.056 1.056 0 0 0 .941 1.534h14.371a2.393 2.393 0 1 1 .066 4.785h4.471a2.5 2.5 0 0 1 1.685.755 2.44 2.44 0 0 1 .651 2.352 2.255 2.255 0 0 1-2.286 1.673h-2.077a2.392 2.392 0 0 1-.048 4.783h-7.456a2.386 2.386 0 0 1 2.393 2.391 2.39 2.39 0 0 1-2.391 2.392l-16.726.006h-.043a5.646 5.646 0 0 1-5.647-5.626l.023-12.641a6 6 0 0 1 .066-.869h3.189a3.82 3.82 0 0 0 3.408-2.09l2.958-5.811a1.476 1.476 0 0 1 1.986-.646Zm0 0"/><path fill="#e3a76f" d="M15.937 40.259a5.644 5.644 0 0 0 5.644 5.446H40.74a2.39 2.39 0 0 1-2.389 2.341l-16.726.006h-.044a5.644 5.644 0 0 1-5.647-5.626Zm0 0"/><path fill="#ebebf0" d="M16.244 45.512c0 1.332-1.444 2.431-3.208 2.431H4.452c-1.767 0-3.22-1.09-3.22-2.423V27.656c0-1.334 1.444-2.431 3.209-2.432h8.581c1.766 0 3.211 1.089 3.213 2.422Zm0 0"/><path fill="#ffa90b" d="m9.565 45.691 1.929 2.252H4.452c-1.767 0-3.221-1.089-3.221-2.423V27.655c0-1.333 1.444-2.431 3.209-2.432h7.05l-1.929 2.25a2.35 2.35 0 0 0 0 3.054l.634.738a2.35 2.35 0 0 1 0 3.053l-.634.738a2.34 2.34 0 0 0 0 3.051l.634.738a2.35 2.35 0 0 1 0 3.053l-.634.74a2.344 2.344 0 0 0 0 3.052Zm0 0"/><path d="M77.914 57.063h-5.37v-42.67a2.91 2.91 0 0 0-2.909-2.909H59.346V9.755A9.752 9.752 0 0 0 45.323.985 9.75 9.75 0 0 0 31.3 9.755v1.73h-6.778a2.91 2.91 0 0 0-2.909 2.909v11.874a2.64 2.64 0 0 1-2.4 1.566h-1.754v-.072c0-2.01-1.992-3.643-4.433-3.643H4.432C1.988 24.12 0 25.76 0 27.773v17.888a3.39 3.39 0 0 0 1.435 2.687 5 5 0 0 0 3 .958h8.592a4.98 4.98 0 0 0 3.006-.966 3.8 3.8 0 0 0 .8-.818 6.84 6.84 0 0 0 4.749 1.91h.025v18.982a2.91 2.91 0 0 0 2.909 2.907h6.905a3.4 3.4 0 0 0 1.735 1.273 3.615 3.615 0 0 0 3.344 4.983h4.047l-.005.014a3.616 3.616 0 0 0 3.422 4.776l16.79.005a6.84 6.84 0 0 0 4.749-1.909 4.68 4.68 0 0 0 3.806 1.782h8.594a5.3 5.3 0 0 0 1.922-.359 4.5 4.5 0 0 0 1.083-.6 3.42 3.42 0 0 0 1.44-2.686V60.716c0-2.013-1.988-3.652-4.434-3.653M9.231 41.235l-.634.738a3.546 3.546 0 0 0 0 4.641l.217.253H4.44A2.6 2.6 0 0 1 2.9 46.4a1.02 1.02 0 0 1-.461-.738V27.773c0-.574.852-1.214 1.993-1.216h4.381l-.216.252a3.54 3.54 0 0 0 0 4.641l.633.738a1.12 1.12 0 0 1 0 1.466l-.632.738a3.544 3.544 0 0 0 0 4.641l.634.738a1.12 1.12 0 0 1 0 1.465Zm5.8 4.418a1.03 1.03 0 0 1-.46.744 4.12 4.12 0 0 1-2.54.47l-1.578-1.84a1.12 1.12 0 0 1 0-1.466l.633-.738a3.545 3.545 0 0 0 0-4.641l-.633-.738a1.12 1.12 0 0 1 0-1.466l.632-.738a3.544 3.544 0 0 0 0-4.641l-.633-.738a1.12 1.12 0 0 1 0-1.465l1.578-1.84h1c1.141 0 1.993.637 1.995 1.206l.005 17.889Zm34.56-43.215a7.324 7.324 0 0 1 7.315 7.316v1.73h-6.1v-1.73a9.73 9.73 0 0 0-3.057-7.082 7.3 7.3 0 0 1 1.838-.234Zm-4.268 1.38a7.31 7.31 0 0 1 3.049 5.937v1.73h-6.1V9.754a7.31 7.31 0 0 1 3.051-5.936M33.74 9.754a7.316 7.316 0 0 1 9.154-7.082 9.73 9.73 0 0 0-3.057 7.082v1.73h-6.1Zm-12.126 37.24h-.025a4.4 4.4 0 0 1-1.9-.429 4.46 4.46 0 0 1-2.221-2.384l-.005-13.909h1.756a5.02 5.02 0 0 0 4.5-2.759l2.915-5.727.005-.009.015-.03v-.009l.015-.03-.009.019.017-.034a.263.263 0 0 1 .35-.114 2.384 2.384 0 0 1 1.042 3.2l-1.111 2.178a2.278 2.278 0 0 0 2.031 3.31l14.388-.005a1.234 1.234 0 0 1 1.242 1.192 1.18 1.18 0 0 1-1.174 1.159h-8.2a1.219 1.219 0 1 0 0 2.438h12.632a1.3 1.3 0 0 1 .869.4 1.1 1.1 0 0 1-.776 1.949H35.158a1.219 1.219 0 1 0 0 2.438h10.686a1.175 1.175 0 0 1 0 2.35H34.166a1.219 1.219 0 0 0 0 2.438c4.5 0 4.578-.122 5.045.344a1.176 1.176 0 0 1-.831 2.007h-.025l-16.739.006Zm9.2 21.888h-6.3a.47.47 0 0 1-.469-.468V49.431l14.327-.005A3.617 3.617 0 0 0 41.8 44.65l-.005-.013h4.047a3.613 3.613 0 0 0 3.343-4.983 3.55 3.55 0 0 0 1.283-5.918 4.41 4.41 0 0 0-3.609-1.114 3.637 3.637 0 0 0-3.482-4.79l-14.125.005.988-1.943a4.817 4.817 0 0 0-2.109-6.482 2.7 2.7 0 0 0-3.629 1.18l-.45.885v-7.084a.47.47 0 0 1 .469-.469H31.3v4.517a1.22 1.22 0 0 0 2.439 0v-4.518h14.633v4.517a1.22 1.22 0 0 0 2.439 0v-4.517h6.151v38.609a2.69 2.69 0 0 0-2.746-.18 4.826 4.826 0 0 0-2.11 6.482l.989 1.943H38.971a3.68 3.68 0 0 0-3.471 2.43 3.53 3.53 0 0 0-.01 2.354h-1.019a3.76 3.76 0 0 0-3.653 3.321Zm34.065 8.241a4.43 4.43 0 0 1-4.123 2.813l-16.786-.004a1.177 1.177 0 0 1-.832-2.006c.6-.6 1.153-.246 5.045-.345a1.219 1.219 0 1 0 0-2.438H43.97c-8.1-.013-7.822.128-8.295-.348a1.177 1.177 0 0 1 .8-2.008h10.713a1.22 1.22 0 0 0 0-2.439H36.506c-1.707-.081-2.553.222-3.049-.381A1.271 1.271 0 0 1 34.475 68H47.1a1.219 1.219 0 1 0 0-2.438h-8.224a1.17 1.17 0 0 1-1.084-1.533 1.26 1.26 0 0 1 1.177-.816h14.39a2.276 2.276 0 0 0 2.029-3.309l-1.108-2.176a2.384 2.384 0 0 1 1.042-3.2.26.26 0 0 1 .349.114l2.915 5.729v.006s0 .009.006.013l.006.011v-.005l.005.01.005.009.005.009v-.007.021l.005.01v-.007l.005.009v.008a5.23 5.23 0 0 0 4.975 2.758h1.28v13.909Zm-.056-49.638a1.22 1.22 0 0 0-1.216 1.215v32.076a2.8 2.8 0 0 1-2.8-1.425l-1.4-2.759V13.923h4.206v9.9a1.219 1.219 0 1 0 2.438 0v-9.9h3.59a.47.47 0 0 1 .47.469v42.67h-.784a4.9 4.9 0 0 0-3.276 1.192V28.7a1.22 1.22 0 0 0-1.219-1.219ZM79.909 78.6a1.07 1.07 0 0 1-.392.683 2.55 2.55 0 0 1-1.613.522h-4.715v-7.02a1.22 1.22 0 0 0-2.439 0v7.025h-1.437a2.58 2.58 0 0 1-1.532-.468 1.04 1.04 0 0 1-.461-.747v-1.064l.006-16.824c0-.571.853-1.207 2-1.207h1.424v8.406a1.22 1.22 0 0 0 2.439 0V59.5h4.725c1.141 0 1.995.642 1.995 1.215Zm0 0"/><path d="M76.378 74.874a1.667 1.667 0 1 0 1.668 1.668 1.67 1.67 0 0 0-1.668-1.668m0 0"/></svg>