<svg xmlns="http://www.w3.org/2000/svg" width="82" height="70.987" viewBox="0 0 82 70.987"><g transform="translate(-13.6 -46.296)"><g fill-rule="evenodd" transform="translate(14.412 47.084)"><path fill="#cecbe6" d="M80.393 20.868v24.26H73.44a6.06 6.06 0 0 1 .9 3.2 6.192 6.192 0 1 1-12.384 0 6.06 6.06 0 0 1 .9-3.2h-6.723v-8.442a4.45 4.45 0 0 0 1.962.44 4.551 4.551 0 1 0-1.962-8.658v-7.6Z"/><path fill="#fdb614" d="M22.128 8.772v24.26h7.156a5.224 5.224 0 1 1 9.66-2.758 5.1 5.1 0 0 1-.8 2.758h8.239V24.59a4.45 4.45 0 0 0 1.962.44 4.551 4.551 0 1 0-1.962-8.662v-7.6Z"/><path fill="#f6851f" d="M80.393 69.388v-24.26h-6.956a6.06 6.06 0 0 1 .9 3.2 6.192 6.192 0 1 1-12.384 0 6.06 6.06 0 0 1 .9-3.2h-6.716v8.425a5.1 5.1 0 0 0-2.385-.575 5.219 5.219 0 0 0 0 10.438 5.1 5.1 0 0 0 2.385-.575v6.547Z"/><path fill="#76cedb" d="M31.89 69.388v-24.26h7.156a5.1 5.1 0 0 1-.8-2.758 5.219 5.219 0 1 1 10.438 0 5.1 5.1 0 0 1-.8 2.758h8.239v8.425a5.1 5.1 0 0 0-2.385-.575 5.219 5.219 0 0 0 0 10.438 5.1 5.1 0 0 0 2.385-.575v6.547Z"/><path fill="#fad1a2" d="M22.128 13.44V8.788H36.61c-3.062-2.724-6.6-6.124-9.085-7.8-1.759-1.167-2.25-1.336-4.906-.321-5.871 2.217-7.647 4.081-14.228 4.67v11.335a75.6 75.6 0 0 1 10.641 3.214c3.57 0 7.308-.778 10.861-1.218 4.077-.491 3.688-5.244-.135-5.244-3.333.016-4.297.016-7.63.016"/><path fill="#fff" d="M4.365 3.223h4.026v15.091H4.365Z"/><path fill="#dd6e42" d="M0 1.531h4.365v18.474H0Z"/><path fill="#e6e6e6" d="M67.113 38.631v1.341h7.7v-1.337c0-1.489-2.656.051-1.573-3.773l-1.049-3.62c1.539-.914 1.4-2.944 1.4-4.466h-5.244c0 1.523-.135 3.553 1.4 4.466l-1.049 3.62c1.088 3.803-1.585 2.281-1.585 3.769M37.016 62.942v1.341h7.7v-1.336c0-1.489-2.656.051-1.573-3.773l-1.049-3.62c1.54-.914 1.4-2.944 1.4-4.466H38.25c0 1.523-.135 3.553 1.4 4.466l-1.049 3.62c1.071 3.819-1.585 2.28-1.585 3.768"/></g><path d="M51.631 96.559a.804.804 0 0 1 1.607 0v.8h1.235v-.8a.804.804 0 0 1 1.607 0v.8h1.235v-.8a.804.804 0 0 1 1.607 0v1.37a.8.8 0 0 1-.22.558c-.1.2.389 2.978-1.286 4.432l.88 3.045a.8.8 0 0 1 .017.491c-.474 1.692-.068 1.844.3 1.979.677.254 1.3.474 1.3 1.59v1.336a.81.81 0 0 1-.8.812h-7.7a.81.81 0 0 1-.812-.812v-1.336c0-1.117.626-1.337 1.3-1.59.372-.135.778-.288.3-1.979a1 1 0 0 1 0-.44l.9-3.079c-1.3-1.133-1.286-2.944-1.286-4.432a.8.8 0 0 1-.22-.558v-1.387Zm.609 13.466v.541h6.09c0-.677.085-.491-.254-.609-.981-.355-2.132-.778-1.37-3.688l-.981-3.417a.8.8 0 0 1 .372-.914c.914-.541 1.015-1.81 1.015-2.961h-3.654c.017 1.15.1 2.436 1.015 2.961a.79.79 0 0 1 .338.964l-.981 3.367c.761 2.91-.372 3.333-1.37 3.688-.102.035-.22.052-.22.069Zm29.488-37.776a.804.804 0 0 1 1.607 0v.8h1.235v-.8a.804.804 0 0 1 1.607 0v.8h1.235v-.8a.804.804 0 0 1 1.607 0v1.37a.8.8 0 0 1-.22.558c-.1.2.389 2.978-1.286 4.432l.88 3.045a.8.8 0 0 1 .017.491c-.474 1.692-.068 1.844.3 1.979.677.254 1.3.474 1.3 1.59v1.336a.81.81 0 0 1-.8.812h-7.7a.81.81 0 0 1-.812-.812v-1.335c0-1.117.626-1.336 1.3-1.59.372-.135.778-.288.3-1.979a1 1 0 0 1 0-.44l.9-3.079c-1.3-1.133-1.286-2.944-1.286-4.432a.8.8 0 0 1-.22-.558v-1.388Zm.609 13.466v.541h6.09c0-.677.085-.491-.254-.609-.981-.355-2.132-.778-1.37-3.688l-.981-3.417a.8.8 0 0 1 .372-.914c.914-.541 1.015-1.81 1.015-2.961h-3.654c.017 1.15.1 2.436 1.015 2.961a.79.79 0 0 1 .338.964l-.981 3.367c.761 2.91-.372 3.333-1.37 3.688a.5.5 0 0 0-.22.068M13.6 67.072V48.615a.8.8 0 0 1 .812-.8h4.365a.81.81 0 0 1 .812.8v.9H22.8a.794.794 0 0 1 .8.8v1.235a25.2 25.2 0 0 0 8.645-2.622c1.3-.592 2.724-1.252 4.483-1.912a7 7 0 0 1 3.164-.694 5.25 5.25 0 0 1 2.487 1.117A70 70 0 0 1 49.3 53.25c.677.609 1.353 1.235 2.03 1.844h9.457a.794.794 0 0 1 .8.8v6.479a5.354 5.354 0 1 1 0 10.455v7.325a.794.794 0 0 1-.8.8h-8.242a.8.8 0 0 1-.677-1.218 4.413 4.413 0 1 0-7.985-1.117c.254.88.626 1.133.626 1.54a.794.794 0 0 1-.8.8h-7.152a.794.794 0 0 1-.8-.8V67.715c-.778.068-1.54.085-2.3.085a5.3 5.3 0 0 1-1.337-.423 60 60 0 0 0-8.493-2.605v.643a.81.81 0 0 1-.8.812h-3.238v.88a.8.8 0 0 1-.812.8h-4.365a.84.84 0 0 1-.812-.829Zm1.607-17.662v16.85h2.775V49.41Zm6.8 15.175V51.1h-2.418v13.485Zm26.934-9.525a79 79 0 0 0-7.441-6.327 4.1 4.1 0 0 0-1.743-.846 5.9 5.9 0 0 0-2.436.609c-5.3 2.013-7.6 3.976-13.7 4.652v9.965a64.5 64.5 0 0 1 9.051 2.741c.524.2.727.321.778.321 3.519 0 7.275-.778 10.76-1.2 3.062-.372 2.808-3.637-.051-3.637H36.54a.794.794 0 0 1-.8-.8v-4.649a.794.794 0 0 1 .8-.8h12.4Zm-11.589 4.653h6.818c4.822 0 5.312 6.226.237 6.835-2.335.288-4.7.711-7.055.964V79.3h5.075a6.028 6.028 0 1 1 11.4 0h6.175v-7.643a.807.807 0 0 1 1.218-.694 3.744 3.744 0 1 0-.068-6.784.81.81 0 0 1-1.15-.727v-6.8h-22.65Zm8.154 56.759v-24.26a.794.794 0 0 1 .8-.8h5.887a6.028 6.028 0 1 1 11.4 0h6.175V83.77a.8.8 0 0 1 1.2-.694 3.744 3.744 0 1 0-.068-6.784.81.81 0 0 1-1.15-.727v-7.6a.794.794 0 0 1 .8-.8H94.8a.794.794 0 0 1 .8.8v48.52a.794.794 0 0 1-.8.8H46.3a.82.82 0 0 1-.8-.812Zm1.607-23.448v22.653h22.654v-4.568a6.024 6.024 0 1 1 0-11.622v-6.463h-7.444a.8.8 0 0 1-.677-1.218 4.413 4.413 0 1 0-7.985-1.117c.254.88.626 1.117.626 1.54a.794.794 0 0 1-.8.8Zm46.9 22.636V93.024h-4.892a6.989 6.989 0 1 1-13.128 0h-4.636v7.63a.808.808 0 0 1-1.218.694 4.3 4.3 0 0 0-1.962-.457 4.414 4.414 0 1 0 2.013 8.34.808.808 0 0 1 1.167.711v5.735H94.01Zm0-24.243V68.764H71.357v5.667a5.354 5.354 0 1 1 0 10.455v6.53h5.9a.8.8 0 0 1 .677 1.218 5.385 5.385 0 1 0 9.8 1.336 5 5 0 0 0-.541-1.286.794.794 0 0 1 .643-1.269Z"/></g></svg>