<svg xmlns="http://www.w3.org/2000/svg" width="84.521" height="84.52" viewBox="0 0 84.521 84.52"><path fill="#e4eff8" d="M78.886 28.174a4.217 4.217 0 0 1 4.226 4.226v46.486a4.217 4.217 0 0 1-4.226 4.226H6.339a4.983 4.983 0 0 1-4.9-4.578c0-18.4-.032-32.047-.032-50.36"/><path fill="#c4dcf0" d="M83.112 78.886a4.217 4.217 0 0 1-4.231 4.226H6.339a5.15 5.15 0 0 1-4.6-3.186 4.7 4.7 0 0 0 1.786.368h72.544a4.217 4.217 0 0 0 4.226-4.226V29.562a4.2 4.2 0 0 0-.2-1.213 4.2 4.2 0 0 1 3.013 4.031Z"/><path fill="#549ad4" d="M1.409 23.944a5.635 5.635 0 0 1 11.269 0v45.081a4.217 4.217 0 0 1-4.226 4.226H6.339a4.92 4.92 0 0 0-4.93 4.93Z"/><path fill="#3588cb" d="M12.678 69.025a4.217 4.217 0 0 1-4.226 4.226H6.339a4.92 4.92 0 0 0-4.93 4.93v-7.26a4.9 4.9 0 0 1 2.113-.487h2.113a4.217 4.217 0 0 0 4.226-4.226V21.119a5.6 5.6 0 0 0-.5-2.314 5.61 5.61 0 0 1 3.321 5.131Z"/><path fill="#ff5151" d="M54.938 56.346a2.817 2.817 0 1 1-2.817-2.817 2.817 2.817 0 0 1 2.817 2.817"/><path fill="#ffca28" d="M52.121 18.315a16.9 16.9 0 1 1-16.9-16.9 16.9 16.9 0 0 1 16.9 16.9"/><path fill="#ecb200" d="M35.217 1.409a16.9 16.9 0 0 0-13.231 6.413 16.889 16.889 0 0 1 23.641 23.799 16.9 16.9 0 0 0-10.41-30.212"/><path fill="#ff5151" d="M38.034 45.078a2.817 2.817 0 1 1-2.817-2.817 2.817 2.817 0 0 1 2.817 2.817"/><path fill="#549ad4" d="M66.208 36.625h5.635a1.406 1.406 0 0 1 1.409 1.409v4.226a1.406 1.406 0 0 1-1.409 1.409h-5.635a1.406 1.406 0 0 1-1.409-1.409v-4.226a1.406 1.406 0 0 1 1.409-1.409"/><path fill="#3588cb" d="M66.208 36.625a1.406 1.406 0 0 0-1.409 1.409v4.226a1.406 1.406 0 0 0 1.409 1.409h5.635a1.406 1.406 0 0 0 1.409-1.409v-1.409h-4.227a1.406 1.406 0 0 1-1.409-1.409v-2.817Z"/><path fill="#ff5151" d="m69.026 11.121 14.087 7.043-14.087 5.639"/><path fill="#ff2929" d="M69.026 11.121v12.682l2.817-1.128V12.53ZM51.209 53.694a2.811 2.811 0 1 0 3.676 3.192 2.8 2.8 0 0 1-3.676-3.192M34.303 42.428a2.811 2.811 0 1 0 3.676 3.192 2.8 2.8 0 0 1-3.676-3.192"/><path d="M16.904 18.313a18.2 18.2 0 0 0 2.072 8.458h-4.884v-2.82a7.046 7.046 0 0 0-14.092 0v54.228a6.33 6.33 0 0 0 6.345 6.342h72.541a5.63 5.63 0 0 0 5.635-5.635V32.402a5.62 5.62 0 0 0-5.635-5.631h-8.455v-2.02l13.207-5.28a1.409 1.409 0 0 0 .1-2.559l-13.307-6.663v-.391a1.409 1.409 0 1 0-2.817 0v16.913H51.45a18.308 18.308 0 1 0-34.545-8.455ZM69.006 0a1.41 1.41 0 0 0-1.392 1.425V2.84a1.409 1.409 0 0 0 2.817 0V1.425A1.41 1.41 0 0 0 69.006 0M35.223 2.82a15.493 15.493 0 1 1-15.5 15.493 15.5 15.5 0 0 1 15.5-15.493m26.173 2.878 1 1a1.412 1.412 0 0 0 2-1.995l-1-1a1.34 1.34 0 0 0-.984-.411 1.407 1.407 0 0 0-1.016 2.406m13.275-1.994-1 1a1.412 1.412 0 0 0 2 1.995l1-1a1.411 1.411 0 0 0-1.046-2.4 1.35 1.35 0 0 0-.952.41ZM33.806 8.455v9.858a1.4 1.4 0 0 0 .418 1l4.221 4.221a1.41 1.41 0 0 0 2-1.986l-3.816-3.816V8.455a1.41 1.41 0 0 0-2.82 0Zm36.626 4.95 9.239 4.616-9.244 3.7ZM7.041 19.716a4.23 4.23 0 0 1 4.23 4.235v45.077a2.82 2.82 0 0 1-2.817 2.817H6.345a6.33 6.33 0 0 0-3.524 1.054V23.951a4.22 4.22 0 0 1 4.22-4.234Zm7.052 9.869h6.691a18.318 18.318 0 0 0 28.87 0h17.96v5.637h-1.4a2.81 2.81 0 0 0-2.82 2.817v4.222a1 1 0 0 0-.146 0 1.414 1.414 0 0 0 .146 2.82h2.74l-11.135 8.174a4.217 4.217 0 0 0-5.69-.063l-9.974-7.195a4 4 0 0 0 .108-.916 4.228 4.228 0 1 0-8.455 0 4 4 0 0 0 .151 1.046l-13.69 10.515a1.41 1.41 0 1 0 1.728 2.229l13.526-10.4a4.24 4.24 0 0 0 5.134-.077l10.111 7.288a5 5 0 0 0-.048.669 4.228 4.228 0 0 0 8.455 0 4 4 0 0 0-.043-.564l14.579-10.706h3.772a1.41 1.41 0 0 0 0-2.82V38.04a2.82 2.82 0 0 0-2.817-2.817h-1.414v-5.638h8.455a2.8 2.8 0 0 1 2.817 2.817v46.484a2.81 2.81 0 0 1-2.817 2.817H6.345a3.52 3.52 0 1 1 0-7.041h2.11a5.636 5.636 0 0 0 5.637-5.635Zm35.208 8.444a1.416 1.416 0 0 0-1 2.413l1.12 1.114-1.12 1.12a1.41 1.41 0 0 0 2 1.986l1.114-1.114 1.12 1.114a1.406 1.406 0 1 0 1.986-1.991l-1.114-1.12 1.114-1.114a1.408 1.408 0 0 0-1.007-2.413 1.42 1.42 0 0 0-.979.415l-1.12 1.12-1.114-1.12a1.37 1.37 0 0 0-1-.415Zm16.91.011h5.635v4.221h-5.635Zm-30.988 5.624a1.414 1.414 0 0 1 1.4 1.417 1.4 1.4 0 0 1-1.4 1.4 1.41 1.41 0 1 1 0-2.82Zm35.22 8.455a1.407 1.407 0 0 0-1.01 2.4l1.12 1.12-1.12 1.117a1.414 1.414 0 1 0 2 2l1.114-1.12 1.12 1.12a1.41 1.41 0 0 0 1.986-2l-1.106-1.117 1.117-1.12a1.408 1.408 0 0 0-1.04-2.4 1.37 1.37 0 0 0-.957.415l-1.12 1.117-1.114-1.117a1.35 1.35 0 0 0-.988-.415Zm-18.324 2.817a1.41 1.41 0 1 1-1.4 1.417 1.413 1.413 0 0 1 1.4-1.417m-26.776 5.627a1.4 1.4 0 0 0-.77.239l-4.221 2.817a1.411 1.411 0 1 0 1.56 2.352l3.442-2.3 3.453 2.3a1.41 1.41 0 0 0 1.557 0l3.442-2.3 3.445 2.3a1.41 1.41 0 0 0 1.568 0l3.442-2.3 3.442 2.3a1.411 1.411 0 1 0 1.56-2.352l-4.221-2.817a1.41 1.41 0 0 0-1.56 0l-3.442 2.3-3.453-2.3a1.41 1.41 0 0 0-1.56 0l-3.442 2.3-3.453-2.3a1.4 1.4 0 0 0-.79-.239Zm35.228 5.645a1.409 1.409 0 1 0 0 2.817h1.409a1.409 1.409 0 1 0 0-2.817Zm7.043 0a1.409 1.409 0 1 0 0 2.817h1.409a1.409 1.409 0 1 0 0-2.817Zm7.043 0a1.409 1.409 0 1 0 0 2.817h1.414a1.409 1.409 0 1 0 0-2.817Zm-49.314 1.406a1.4 1.4 0 0 0-.77.239l-4.221 2.806a1.41 1.41 0 1 0 1.56 2.35l3.442-2.3 3.453 2.3a1.41 1.41 0 0 0 1.557 0l3.442-2.3 3.445 2.3a1.41 1.41 0 0 0 1.568 0l3.442-2.3 3.442 2.3a1.41 1.41 0 1 0 1.56-2.35l-4.221-2.806a1.41 1.41 0 0 0-1.56 0l-3.442 2.286-3.453-2.286a1.41 1.41 0 0 0-1.56 0l-3.442 2.286-3.453-2.286a1.4 1.4 0 0 0-.79-.239Z"/></svg>