<svg xmlns="http://www.w3.org/2000/svg" width="104.652" height="104.652" viewBox="0 0 104.652 104.652"><path fill="#edf4fc" d="M91.735 24.814a11.88 11.88 0 0 1-11.9-11.9 12 12 0 0 1 .45-3.189H50.896a2.094 2.094 0 0 0-2.085 2.085v66.147a2.094 2.094 0 0 0 2.085 2.085h45.172a2.094 2.094 0 0 0 2.085-2.085V22.929a11.9 11.9 0 0 1-6.418 1.88Z"/><path fill="#818182" d="M48.811 13.858h-.454a8.94 8.94 0 0 0-4.538 1.267 8.83 8.83 0 0 0-7.6-4.333h-4.537a16.1 16.1 0 0 0-16.025 16.025v7.154a6.4 6.4 0 0 1 5.028-1.349v-.736a.82.82 0 0 1 .818-.818h.164c2.821.572 11.16 1.594 16.842-5.519a.84.84 0 0 1 1.186-.123c.041 0 .041.041.082.041 1.145 1.145 3.965 3.27 9.034 3.884Z"/><path fill="#f9d0b4" d="M48.81 29.352c-5.11-.613-7.89-2.739-9.034-3.884a.84.84 0 0 0-1.186 0c-.041.041-.041.041-.041.082-5.682 7.113-14.023 6.132-16.842 5.519a.84.84 0 0 0-.981.654v12.632a15.477 15.477 0 0 0 28.084 8.994Z"/><path fill="#70d6f9" d="M84.213 86.788h-.9v-.94a1.227 1.227 0 1 0-2.453 0v.9h-.9a1.227 1.227 0 1 0 0 2.453h.9v.9a1.227 1.227 0 1 0 2.453 0v-.9h.9a1.23 1.23 0 0 0 1.226-1.226 1.17 1.17 0 0 0-1.226-1.187"/><circle cx="1.308" cy="1.308" r="1.308" fill="#70d6f9" transform="translate(21.666 1.717)"/><circle cx="1.308" cy="1.308" r="1.308" fill="#f5c84c" transform="translate(97.294 86.338)"/><circle cx="1.308" cy="1.308" r="1.308" fill="#87d147" transform="translate(76.445 95.332)"/><path fill="#f5c84c" d="M18.109 10.997a4.01 4.01 0 0 1-3.23-3.148c0-.041-.041-.082-.082-.041a.04.04 0 0 0-.041.041 3.96 3.96 0 0 1-3.23 3.148.09.09 0 0 0-.082.082c0 .041.041.041.082.082a4.01 4.01 0 0 1 3.23 3.148c0 .041.041.082.082.041a.04.04 0 0 0 .041-.041 3.96 3.96 0 0 1 3.23-3.148.082.082 0 0 0 0-.164"/><path fill="#fc657e" d="M19.131 56.169a2.85 2.85 0 0 1-2.248-2.167.04.04 0 0 0-.041-.041c-.041 0-.041 0-.041.041a2.79 2.79 0 0 1-2.248 2.167.04.04 0 0 0-.041.041c0 .041 0 .041.041.041a2.85 2.85 0 0 1 2.248 2.167.04.04 0 0 0 .041.041c.041 0 .041 0 .041-.041a2.79 2.79 0 0 1 2.248-2.167c.041 0 0-.041 0-.082"/><path fill="#f9d0b4" d="M20.727 44.355V32.622a6.484 6.484 0 0 0-2.085 12.8 6.2 6.2 0 0 0 2.126 0 9 9 0 0 1-.041-1.067"/><path fill="#70d6f9" d="M69.782 80.004H50.895a2.094 2.094 0 0 1-2.085-2.085V65.571l-2.166-1.067a4.99 4.99 0 0 1-2.78-4.5v-2.2a15.32 15.32 0 0 1-15.289 0v2.208a4.99 4.99 0 0 1-2.78 4.5l-3.638 1.8a13.7 13.7 0 0 1-2.821 1.022L7.89 70.191a6.58 6.58 0 0 0-4.947 6.013l-1.921 24.4a2.783 2.783 0 0 0 2.535 2.984h65.121a2.783 2.783 0 0 0 2.78-2.78v-.2Z"/><path fill="#f9d0b4" d="m48.811 65.612-2.167-1.067a4.99 4.99 0 0 1-2.78-4.5v-2.2a15.32 15.32 0 0 1-15.289 0v2.208a4.99 4.99 0 0 1-2.78 4.5l-2.657 1.304a15.444 15.444 0 0 0 25.673.736Z"/><path d="M36.22 52.449a8.11 8.11 0 0 1-6.909-3.8 1.054 1.054 0 0 1 .327-1.431 1.02 1.02 0 0 1 1.431.327 6.108 6.108 0 0 0 10.343 0 1.038 1.038 0 1 1 1.758 1.1 8.33 8.33 0 0 1-6.95 3.804"/><circle cx="1.84" cy="1.84" r="1.84" transform="translate(27.717 37.855)"/><circle cx="1.84" cy="1.84" r="1.84" transform="translate(41.37 37.855)"/><path d="M19.704 46.518a7.5 7.5 0 0 1-.041-15c.409 0 .818.041 1.226.082a1.02 1.02 0 0 1 .858 1.022v11.732a9 9 0 0 0 .041.981.99.99 0 0 1-.858 1.063 6.2 6.2 0 0 1-1.226.123Zm0-12.959a5.437 5.437 0 1 0 0 10.874V33.562Zm48.974 71.093H3.8a3.8 3.8 0 0 1-3.8-3.8v-.286l1.921-24.405a7.53 7.53 0 0 1 5.723-6.909l11.447-2.862a15.4 15.4 0 0 0 2.616-.94l3.638-1.8a3.88 3.88 0 0 0 2.208-3.557V57.89a1.01 1.01 0 0 1 1.022-1.022.97.97 0 0 1 .491.123 14.34 14.34 0 0 0 14.267 0 1.01 1.01 0 0 1 1.39.368 1.1 1.1 0 0 1 .123.491v2.208a3.95 3.95 0 0 0 2.208 3.557l2.167 1.063a.98.98 0 0 1 .572.9v12.346a1.055 1.055 0 0 0 1.063 1.063h18.885a1.024 1.024 0 0 1 1.022.94l1.637 20.637a3.8 3.8 0 0 1-3.475 4.088h-.245ZM29.6 59.521v.531a6 6 0 0 1-3.352 5.4l-3.638 1.8a12.7 12.7 0 0 1-3.025 1.1l-11.45 2.861a5.45 5.45 0 0 0-4.17 5.069l-1.921 24.446a1.77 1.77 0 0 0 1.594 1.88h65.04a1.745 1.745 0 0 0 1.758-1.758v-.123l-1.553-19.7H50.936a3.105 3.105 0 0 1-3.107-3.107V66.225l-1.594-.777a5.97 5.97 0 0 1-3.352-5.4v-.531a16.68 16.68 0 0 1-13.286 0Z"/><path d="M36.219 74.115a16.41 16.41 0 0 1-13.94-7.685 1.054 1.054 0 0 1 .327-1.431.14.14 0 0 0 .082-.041l2.657-1.308a3.88 3.88 0 0 0 2.208-3.557V57.89a1.01 1.01 0 0 1 1.022-1.022.97.97 0 0 1 .491.123 14.34 14.34 0 0 0 14.267 0 1.01 1.01 0 0 1 1.39.368 1.1 1.1 0 0 1 .123.491v2.208a3.95 3.95 0 0 0 2.208 3.557l2.167 1.063a.98.98 0 0 1 .572.9v.94a1.2 1.2 0 0 1-.2.613 16.34 16.34 0 0 1-13.368 6.99Zm-11.569-7.89a14.43 14.43 0 0 0 23.138 0l-1.594-.777a5.97 5.97 0 0 1-3.352-5.4v-.531a16.25 16.25 0 0 1-13.245 0v.531a6 6 0 0 1-3.352 5.4Z"/><circle cx="11.896" cy="11.896" r="11.896" fill="#87d147" transform="translate(79.838 1.022)"/><path fill="#edf4fc" d="m89.118 17.782-3.638-3.638a2.053 2.053 0 0 1 2.862-2.943l.041.041 2.208 2.208 4.619-4.619a2.053 2.053 0 1 1 2.943 2.862l-.041.041-6.05 6.05a2.07 2.07 0 0 1-2.943 0Z"/><path d="M91.734 25.836a12.918 12.918 0 1 1 12.918-12.918 12.92 12.92 0 0 1-12.918 12.918m0-23.792a10.874 10.874 0 1 0 10.874 10.874A10.87 10.87 0 0 0 91.734 2.044"/><path d="M90.59 19.418a3.06 3.06 0 0 1-2.167-.9l-3.638-3.638a3.065 3.065 0 0 1 4.251-4.415l.082.082 1.472 1.472 3.884-3.884a3.065 3.065 0 1 1 4.415 4.252l-.082.082-6.054 6.049a3.06 3.06 0 0 1-2.167.9Zm-.736-2.33a1 1 0 0 0 .736.286 1.18 1.18 0 0 0 .736-.286l6.05-6.05a.99.99 0 0 0 0-1.431 1.065 1.065 0 0 0-1.431 0l-4.619 4.619a.99.99 0 0 1-1.431 0l-2.208-2.208a1.065 1.065 0 0 0-1.431 0 .99.99 0 0 0 0 1.431Z"/><path d="M96.068 81.023H50.896a3.105 3.105 0 0 1-3.107-3.106v-66.1a3.105 3.105 0 0 1 3.107-3.107h29.393a1.01 1.01 0 0 1 1.022 1.022.7.7 0 0 1-.041.286 10.884 10.884 0 0 0 16.352 12.06 1.054 1.054 0 0 1 1.431.327.9.9 0 0 1 .164.531v55.021a3.16 3.16 0 0 1-3.148 3.066ZM50.896 10.751a1.055 1.055 0 0 0-1.063 1.063v66.143a1.055 1.055 0 0 0 1.063 1.063h45.172a1.055 1.055 0 0 0 1.063-1.063V24.65a12.9 12.9 0 0 1-17.129-6.336 12.67 12.67 0 0 1-.981-7.563Z"/><path d="M15.657 34.993a1.01 1.01 0 0 1-1.022-1.023v-7.153A17.09 17.09 0 0 1 31.682 9.77h4.538a9.93 9.93 0 0 1 7.931 4.006 9.9 9.9 0 0 1 4.7-.94 1.06 1.06 0 0 1 .984 1.022v15.453a1.01 1.01 0 0 1-1.022 1.022h-.123c-5.151-.613-8.135-2.7-9.484-4.006-5.928 7.317-14.594 6.377-17.456 5.8v.491a1.01 1.01 0 0 1-1.022 1.022h-.164a6 6 0 0 0-.858-.082 5.36 5.36 0 0 0-3.393 1.186.93.93 0 0 1-.654.245Zm16.025-23.179a15.04 15.04 0 0 0-15 15v5.356a6.9 6.9 0 0 1 3.025-.613 1.82 1.82 0 0 1 2.167-1.431c3.066.572 10.67 1.349 15.861-5.192a1.837 1.837 0 0 1 2.616-.286.6.6 0 0 0 .164.123 13.34 13.34 0 0 0 7.314 3.399V14.921a7.25 7.25 0 0 0-3.434 1.1 1.01 1.01 0 0 1-1.39-.368 7.95 7.95 0 0 0-6.7-3.843Z"/><path d="M36.219 60.911a16.52 16.52 0 0 1-16.515-16.516V31.886a1.74 1.74 0 0 1 .695-1.431 1.8 1.8 0 0 1 1.553-.368c2.984.613 10.588 1.39 15.78-5.151a1.837 1.837 0 0 1 2.616-.286.6.6 0 0 0 .164.123c1.1 1.1 3.679 3.025 8.462 3.6a1.02 1.02 0 0 1 .9 1.022V53.43a1.2 1.2 0 0 1-.2.613 16.88 16.88 0 0 1-13.455 6.868m-14.471-28.78v12.226a14.485 14.485 0 0 0 26.081 8.667V30.21a15.73 15.73 0 0 1-8.585-3.884c-5.968 7.317-14.635 6.377-17.5 5.8Zm58.99-2.166H66.43a1.022 1.022 0 1 1 0-2.044h14.308a1.022 1.022 0 1 1 0 2.044m8.339 8.176h-26.49a1.022 1.022 0 1 1 0-2.044h26.49a1.022 1.022 0 0 1 0 2.044m0 5.192h-26.49a1.022 1.022 0 1 1 0-2.044h26.49a1.022 1.022 0 0 1 0 2.044m0 5.191h-26.49a1.022 1.022 0 1 1 0-2.044h26.49a1.022 1.022 0 0 1 0 2.044m0 5.192h-26.49a1.022 1.022 0 1 1 0-2.044h26.49a1.01 1.01 0 0 1 1.022 1.022 1.04 1.04 0 0 1-1.022 1.022m0 5.151h-26.49a1.022 1.022 0 1 1 0-2.044h26.49a1.022 1.022 0 0 1 0 2.044m0 5.192h-26.49a1.022 1.022 0 1 1 0-2.044h26.49a1.022 1.022 0 0 1 0 2.044M58.01 38.141h-.777a1.022 1.022 0 1 1 0-2.044h.777a1.022 1.022 0 1 1 0 2.044m0 5.192h-.777a1.022 1.022 0 1 1 0-2.044h.777a1.022 1.022 0 1 1 0 2.044m0 5.191h-.777a1.022 1.022 0 1 1 0-2.044h.777a1.022 1.022 0 1 1 0 2.044m0 5.192h-.777a1.022 1.022 0 1 1 0-2.044h.777a1.01 1.01 0 0 1 1.022 1.022 1.04 1.04 0 0 1-1.022 1.022m0 5.151h-.777a1.022 1.022 0 1 1 0-2.044h.777a1.022 1.022 0 1 1 0 2.044m0 5.192h-.777a1.022 1.022 0 1 1 0-2.044h.777a1.022 1.022 0 1 1 0 2.044m-44.52 39.367a1.01 1.01 0 0 1-1.022-1.022V86.665a1.022 1.022 0 1 1 2.044 0v15.739a1.01 1.01 0 0 1-1.022 1.022m45.786 0a1.01 1.01 0 0 1-1.022-1.022V86.665a1.022 1.022 0 1 1 2.044 0v15.739a1.01 1.01 0 0 1-1.022 1.022"/></svg>