<svg xmlns="http://www.w3.org/2000/svg" width="130.748" height="103.479" viewBox="0 0 130.748 103.479"><g transform="translate(2.041 2.043)"><path fill="#f3fcff" d="m44.095 24.901-.015-.123a2.95 2.95 0 0 0-3.292-2.568l-9.063 1.119a2.95 2.95 0 0 0-2.568 3.292l.026.214a2.954 2.954 0 0 0 3.293 2.569l9.062-1.119a2.953 2.953 0 0 0 2.568-3.293Zm15.087 44.466h40.919a3.36 3.36 0 0 0 3.3-2.73l.769-4.042 1.289-6.772 1.288-6.772 1.288-6.772.535-2.813a3.357 3.357 0 0 0-3.3-3.984H52.736l1.292 6.795 1.289 6.772 1.288 6.771 1.288 6.772Zm11.63 9.775a5.6 5.6 0 1 0 5.6 5.6 5.6 5.6 0 0 0-5.603-5.6Zm23.063 0a5.6 5.6 0 1 0 5.6 5.6 5.6 5.6 0 0 0-5.602-5.6Zm32.791-63.645v78.97a4.927 4.927 0 0 1-4.927 4.926H16.029a4.927 4.927 0 0 1-4.927-4.926v-5.273l10.086-10.087a1.136 1.136 0 0 1 1.685.087l5.365 6.6a1.137 1.137 0 0 0 2.006-.547l3.853-25.444a1.137 1.137 0 0 0-1.294-1.294l-21.7 3.286v-46.3Z"/><path fill="#0052c2" d="M126.664 4.926v10.571H11.102V4.926A4.927 4.927 0 0 1 16.029 0h105.708a4.927 4.927 0 0 1 4.927 4.926"/><path fill="#fcb44d" d="M105.267 35.479a3.357 3.357 0 0 1 3.3 3.984l-.535 2.813h-54l-1.292-6.795h.014Z"/><path fill="#fca62f" d="m108.029 42.276-1.288 6.772H55.315l-1.289-6.772Z"/><path fill="#fcb44d" d="m106.741 49.048-1.288 6.772h-48.85l-1.288-6.772Z"/><path fill="#fca62f" d="m105.453 55.82-1.289 6.772H57.891l-1.288-6.772Z"/><path fill="#fcb44d" d="m104.165 62.592-.769 4.042a3.36 3.36 0 0 1-3.3 2.73H59.179l-1.289-6.775Z"/><path fill="#5e5d5d" d="M93.873 79.142a5.6 5.6 0 1 1-5.6 5.6 5.6 5.6 0 0 1 5.6-5.6"/><circle cx="5.598" cy="5.598" r="5.598" fill="#5e5d5d" transform="translate(65.211 79.142)"/><path fill="#c4cdd6" d="M32.803 58.506a1.137 1.137 0 0 1 1.294 1.294l-3.853 25.444a1.137 1.137 0 0 1-2.006.547l-5.365-6.6a1.137 1.137 0 0 0-1.685-.087l-10.091 10.09-3.078 3.077a1.136 1.136 0 0 1-1.608 0L.328 86.188a1.14 1.14 0 0 1 0-1.608l13.164-13.164a1.137 1.137 0 0 0-.087-1.686l-6.6-5.365a1.137 1.137 0 0 1 .547-2.006l3.742-.567Z"/></g><path fill="#333" d="M102.14 73.451H61.234a2.043 2.043 0 0 1 0-4.086h40.906a1.315 1.315 0 0 0 1.291-1.069l5.169-27.172a1.314 1.314 0 0 0-1.291-1.559H54.786a2.043 2.043 0 0 1 0-4.086h52.519a5.4 5.4 0 0 1 5.3 6.408l-5.169 27.172a5.405 5.405 0 0 1-5.296 4.392"/><path fill="#333" d="M110.07 46.362h-54a2.043 2.043 0 0 1 0-4.086h54a2.043 2.043 0 0 1 0 4.086m-1.287 6.772H57.356a2.043 2.043 0 0 1 0-4.086h51.427a2.043 2.043 0 0 1 0 4.086m-1.288 6.772H58.644a2.043 2.043 0 0 1 0-4.086h48.851a2.043 2.043 0 0 1 0 4.086m-1.286 6.772H59.932a2.043 2.043 0 0 1 0-4.086h46.277a2.043 2.043 0 0 1 0 4.086"/><path fill="#333" d="M101.512 83.226H69.456a9.755 9.755 0 0 1-9.574-7.925L51.754 32.57a2 2 0 0 1-.022-.14 4.075 4.075 0 0 0-4.524-3.559l-.829.1a2.043 2.043 0 1 1-.455-4.061l.8-.1a8.167 8.167 0 0 1 9.056 7.057l8.116 42.667a5.665 5.665 0 0 0 5.56 4.6h32.056a2.043 2.043 0 0 1 0 4.086Z"/><path fill="#333" d="M34.153 33.511a5.005 5.005 0 0 1-4.957-4.384l-.026-.214a4.995 4.995 0 0 1 4.345-5.57l9.063-1.119a5 5 0 0 1 5.57 4.345l.027.215a5 5 0 0 1-4.345 5.57l-9.062 1.119a5 5 0 0 1-.615.038m9.039-7.239a1 1 0 0 0-.112.007l-9.063 1.119a.91.91 0 0 0-.791 1.014l.026.214a.91.91 0 0 0 1.016.792l9.061-1.119a.91.91 0 0 0 .791-1.014l-.026-.213a.91.91 0 0 0-.902-.799Zm29.659 68.151a7.641 7.641 0 1 1 7.641-7.641 7.65 7.65 0 0 1-7.641 7.641m0-11.2a3.555 3.555 0 1 0 3.555 3.555 3.56 3.56 0 0 0-3.555-3.546Zm23.063 11.2a7.641 7.641 0 1 1 7.641-7.641 7.65 7.65 0 0 1-7.641 7.641m0-11.2a3.555 3.555 0 1 0 3.555 3.555 3.56 3.56 0 0 0-3.555-3.546Z"/><path fill="#333" d="M123.78 103.479H18.07a6.977 6.977 0 0 1-6.97-6.969v-5.273a2.043 2.043 0 0 1 4.086 0v5.273a2.887 2.887 0 0 0 2.884 2.883h105.71a2.887 2.887 0 0 0 2.884-2.883V6.969a2.887 2.887 0 0 0-2.884-2.883H18.07a2.887 2.887 0 0 0-2.884 2.883v56.866a2.043 2.043 0 0 1-4.086 0V6.969A6.977 6.977 0 0 1 18.07 0h105.71a6.977 6.977 0 0 1 6.97 6.969V96.51a6.977 6.977 0 0 1-6.97 6.969"/><path fill="#333" d="M128.705 19.583H13.143a2.043 2.043 0 0 1 0-4.086h115.562a2.043 2.043 0 0 1 0 4.086M26.019 11.846h-5.328a2.043 2.043 0 0 1 0-4.086h5.328a2.043 2.043 0 1 1 0 4.086m12.796 0h-5.328a2.043 2.043 0 0 1 0-4.086h5.328a2.043 2.043 0 0 1 0 4.086m12.8 0h-5.328a2.043 2.043 0 0 1 0-4.086h5.328a2.043 2.043 0 1 1 0 4.086M9.261 96.689a3.17 3.17 0 0 1-2.249-.93L.929 89.676a3.185 3.185 0 0 1 0-4.5L13.38 72.725l-5.819-4.732a3.18 3.18 0 0 1 1.53-5.611l3.743-.567 21.7-3.286a3.18 3.18 0 0 1 3.62 3.621l-3.853 25.443a3.18 3.18 0 0 1-5.611 1.531l-4.732-5.82-9.376 9.376-3.078 3.077a3.17 3.17 0 0 1-2.248.93Zm-4.8-9.261 4.8 4.8 2.438-2.437 10.086-10.087a3.18 3.18 0 0 1 4.715.243l4.073 5.009 3.362-22.2-22.2 3.362 5.009 4.073a3.18 3.18 0 0 1 .243 4.716Zm8.684 3.81"/></svg>