<svg xmlns="http://www.w3.org/2000/svg" width="94" height="78.794" viewBox="0 0 94 78.794"><g transform="translate(0 -40.846)"><g transform="translate(1.397 42.242)"><path fill="#e5e9ea" d="M91.207 5.642V70.36a5.64 5.64 0 0 1-5.642 5.642H5.64A5.64 5.64 0 0 1 0 70.36V5.642A5.64 5.64 0 0 1 5.64 0h79.926a5.64 5.64 0 0 1 5.641 5.642"/><path fill="#d1d1d1" d="M91.207 5.642v9.621H-.003V5.642A5.64 5.64 0 0 1 5.637 0h79.929a5.64 5.64 0 0 1 5.641 5.642"/><path fill="#ff7e5d" d="M7.446 21.804h76.316v46.753H7.446z"/><g transform="translate(6.143 4.095)"><path fill="#d2c6ac" d="M3.537 0A3.537 3.537 0 1 1 0 3.537 3.537 3.537 0 0 1 3.537 0"/><circle cx="3.537" cy="3.537" r="3.537" fill="#a5b9f6" transform="translate(22.151)"/><path fill="#cbc232" d="M14.612 0a3.537 3.537 0 1 1-3.537 3.537A3.537 3.537 0 0 1 14.612 0"/></g><path fill="#d1d1d1" d="M29.782 62.249h53.98v6.307h-53.98z"/><path fill="#566368" d="M7.446 62.249h25.873v6.307H7.446z"/><path fill="#fff" d="m54.867 40.481-13.8-7.965a3.277 3.277 0 0 0-4.916 2.838v15.93a3.277 3.277 0 0 0 4.916 2.838l13.8-7.965a3.277 3.277 0 0 0 0-5.676"/></g><g transform="translate(0 40.846)"><path d="M86.962 0H7.037A7.045 7.045 0 0 0 0 7.038v49.085a1.4 1.4 0 0 0 2.792 0V18.054h88.416v53.7A4.25 4.25 0 0 1 86.962 76H7.037a4.25 4.25 0 0 1-4.244-4.246V60.777a1.4 1.4 0 1 0-2.792 0v10.977a7.045 7.045 0 0 0 7.036 7.038h79.925A7.046 7.046 0 0 0 94 71.754V7.038A7.046 7.046 0 0 0 86.962 0M2.793 15.263V7.038a4.25 4.25 0 0 1 4.244-4.246h79.925a4.25 4.25 0 0 1 4.246 4.246v8.225Z"/><path d="M11.076 4.095a4.933 4.933 0 1 0 4.933 4.933 4.94 4.94 0 0 0-4.933-4.933m0 7.073a2.141 2.141 0 1 1 2.141-2.141 2.143 2.143 0 0 1-2.141 2.141m22.151-7.073a4.933 4.933 0 1 0 4.933 4.933 4.94 4.94 0 0 0-4.933-4.933m0 7.073a2.141 2.141 0 1 1 2.141-2.141 2.143 2.143 0 0 1-2.141 2.141M22.151 4.095a4.933 4.933 0 1 0 4.933 4.933 4.94 4.94 0 0 0-4.933-4.933m0 7.073a2.141 2.141 0 1 1 2.141-2.141 2.143 2.143 0 0 1-2.141 2.141m21.015 21.534a4.673 4.673 0 0 0-7.01 4.047v15.93a4.663 4.663 0 0 0 7.01 4.047l13.8-7.965a4.673 4.673 0 0 0 0-8.095Zm12.4 13.641-13.8 7.965a1.881 1.881 0 0 1-2.822-1.629v-15.93a1.877 1.877 0 0 1 2.822-1.629l13.8 7.965a1.881 1.881 0 0 1 0 3.259Z"/><path d="M85.158 33.809a1.4 1.4 0 0 0 1.4-1.4V23.2a1.4 1.4 0 0 0-1.4-1.4H8.843a1.4 1.4 0 0 0-1.4 1.4v46.753a1.4 1.4 0 0 0 1.4 1.4h76.316a1.4 1.4 0 0 0 1.4-1.4V37.067a1.4 1.4 0 1 0-2.792 0v25.182H10.243V24.596h73.524v7.817a1.4 1.4 0 0 0 1.391 1.396m-1.4 34.747H36.111v-3.515h47.651Zm-50.443-3.515v3.515H10.243v-3.515Z"/></g></g></svg>