<svg xmlns="http://www.w3.org/2000/svg" width="78" height="73.289" viewBox="0 0 78 73.289"><g transform="translate(0 -15.462)"><circle cx="18.929" cy="18.929" r="18.929" fill="#ffc344" transform="translate(20.071 33.171)"/><path fill="#feb237" d="M44.273 33.915A18.935 18.935 0 0 1 27.64 67.238a18.931 18.931 0 1 0 16.638-33.323Z"/><path fill="#f79595" d="M14.043 61.56h-7.93a4.97 4.97 0 0 1-4.97-4.97 13.663 13.663 0 0 1 13.663-13.663 2.9 2.9 0 0 1 2.9 2.9v12.068a3.666 3.666 0 0 1-3.663 3.665"/><path fill="#f37c7c" d="M21.371 61.56h7.927a4.97 4.97 0 0 0 4.97-4.97 13.663 13.663 0 0 0-13.663-13.663 2.9 2.9 0 0 0-2.9 2.9v12.068a3.666 3.666 0 0 0 3.666 3.665"/><path fill="#dcf5f8" d="M49.35 51.804a5.5 5.5 0 0 0 1.342 2.366c2.136 2.649 6.663 6.386 12.412 6.386 5.984 0 10.643-4.049 12.662-6.7a4.8 4.8 0 0 0 1.092-2.048 4.8 4.8 0 0 0-1.092-2.048c-2.018-2.656-6.678-6.7-12.662-6.7-5.749 0-10.276 3.738-12.412 6.386a5.5 5.5 0 0 0-1.342 2.358"/><circle cx="3.751" cy="3.751" r="3.751" fill="#017297" transform="translate(59.353 48.053)"/><path fill="#02c7dd" d="M69.144 68.662a.763.763 0 0 1 .657 1.148 35.55 35.55 0 0 1-54.529 8.689l-1.119 1.244a.381.381 0 0 1-.65-.149l-2.726-9.48a.38.38 0 0 1 .432-.48l9.716 1.7a.38.38 0 0 1 .217.629l-1.125 1.251a28.42 28.42 0 0 0 41.6-3.956 1.52 1.52 0 0 1 1.21-.6Z"/><path fill="#80d261" d="M8.857 35.537a.763.763 0 0 1-.657-1.148A35.55 35.55 0 0 1 62.729 25.7l1.119-1.244a.381.381 0 0 1 .65.149l2.726 9.48a.38.38 0 0 1-.432.48l-9.716-1.7a.38.38 0 0 1-.217-.629l1.125-1.251a28.42 28.42 0 0 0-41.6 3.956 1.52 1.52 0 0 1-1.21.6Z"/><path d="m12.166 49.075-1.612 1.612a4.45 4.45 0 0 0-1.311 3.164v1.725a1.143 1.143 0 1 0 2.285 0v-1.725a2.17 2.17 0 0 1 .641-1.548l1.612-1.612a1.143 1.143 0 1 0-1.616-1.616Zm11.08 0a1.143 1.143 0 1 0-1.616 1.616l1.612 1.612a2.17 2.17 0 0 1 .641 1.548v1.725a1.143 1.143 0 1 0 2.285 0v-1.725a4.45 4.45 0 0 0-1.311-3.164Z"/><path d="M76.675 49.064a18.5 18.5 0 0 0-2.257-2.439 1.143 1.143 0 1 0-1.537 1.691 16 16 0 0 1 1.974 2.13 6.3 6.3 0 0 1 .839 1.356 6.3 6.3 0 0 1-.839 1.356c-2.192 2.885-6.585 6.254-11.752 6.254-4.442 0-8.778-2.558-11.523-5.961a7 7 0 0 1-1.068-1.649 7 7 0 0 1 1.068-1.649c2.731-3.386 7.066-5.961 11.523-5.961a13.1 13.1 0 0 1 5.615 1.312 1.143 1.143 0 1 0 .977-2.066 14.9 14.9 0 0 0-12.69-.218 20.079 20.079 0 0 0-35.255-1.388q-.567-.044-1.146-.044a4.03 4.03 0 0 0-2.9 1.229 4.03 4.03 0 0 0-2.9-1.229A14.82 14.82 0 0 0 0 56.594a6.12 6.12 0 0 0 6.112 6.112h7.927a4.8 4.8 0 0 0 3.666-1.7 4.8 4.8 0 0 0 3.666 1.7h.587a20.26 20.26 0 0 0 9.1 7.83 1.143 1.143 0 1 0 .905-2.1 17.95 17.95 0 0 1-7.236-5.732H29.3a6.12 6.12 0 0 0 6.112-6.112A14.83 14.83 0 0 0 24.2 42.23a17.794 17.794 0 0 1 30.772 2.034 19.6 19.6 0 0 0-5.172 4.458 6.26 6.26 0 0 0-1.6 3.083 6.26 6.26 0 0 0 1.6 3.083 19.6 19.6 0 0 0 5.39 4.585A17.67 17.67 0 0 1 39 69.886a18 18 0 0 1-2.22-.137 1.143 1.143 0 1 0-.282 2.268 20 20 0 0 0 2.5.155 20.08 20.08 0 0 0 18.241-11.685 15.2 15.2 0 0 0 5.863 1.213c6 0 11.063-3.855 13.571-7.156A5.26 5.26 0 0 0 78 51.803a5.25 5.25 0 0 0-1.325-2.739M14.039 60.422H6.112a3.8 3.8 0 0 1-1.774-.437l.777-.777a2.2 2.2 0 0 1 1.147-.6 1.143 1.143 0 1 0-.42-2.246A4.46 4.46 0 0 0 3.5 57.591l-.777.777a3.8 3.8 0 0 1-.437-1.774 12.46 12.46 0 0 1 2.669-7.719l1.269 1.27a1.143 1.143 0 1 0 1.616-1.616l-1.318-1.317a12.47 12.47 0 0 1 8.283-3.139 1.76 1.76 0 0 1 1.757 1.757v5.382a1.954 1.954 0 0 1-1.512 1.911 1.143 1.143 0 1 0 .522 2.225 4.3 4.3 0 0 0 .99-.365v2.915a2.526 2.526 0 0 1-2.523 2.523Zm18.649-2.053-.777-.777a4.46 4.46 0 0 0-2.343-1.235 1.143 1.143 0 1 0-.42 2.246 2.2 2.2 0 0 1 1.146.6l.777.777a3.8 3.8 0 0 1-1.774.437h-7.926a2.526 2.526 0 0 1-2.523-2.523v-2.915a4.3 4.3 0 0 0 .99.365 1.143 1.143 0 0 0 .522-2.225 1.954 1.954 0 0 1-1.512-1.911v-5.382a1.76 1.76 0 0 1 1.757-1.757 12.47 12.47 0 0 1 8.283 3.139l-1.317 1.317a1.143 1.143 0 1 0 1.616 1.616l1.269-1.269a12.46 12.46 0 0 1 2.669 7.719 3.8 3.8 0 0 1-.437 1.774Z"/><path d="M58.214 51.804a4.894 4.894 0 1 0 4.894-4.894 4.9 4.9 0 0 0-4.894 4.894m7.5 0a2.608 2.608 0 1 1-2.608-2.608 2.61 2.61 0 0 1 2.608 2.608m3.429 15.716H62.83a2.68 2.68 0 0 0-2.12 1.052 27.164 27.164 0 0 1-35.937 6.768 28 28 0 0 1-3.126-2.227l.343-.381a1.523 1.523 0 0 0-.868-2.52l-9.717-1.7a1.523 1.523 0 0 0-1.726 1.922l2.725 9.48a1.524 1.524 0 0 0 2.6.6l.368-.409a37 37 0 0 0 4.5 3.245 36.37 36.37 0 0 0 19.053 5.397 37 37 0 0 0 9.109-1.147 36.44 36.44 0 0 0 22.755-17.222 1.92 1.92 0 0 0 0-1.912 1.88 1.88 0 0 0-1.648-.951ZM47.471 85.39a34.1 34.1 0 0 1-26.406-3.995 34.6 34.6 0 0 1-5.031-3.746 1.143 1.143 0 0 0-1.613.086l-.2.223-2.009-6.989 7.16 1.256-.206.229a1.143 1.143 0 0 0 .087 1.615 30 30 0 0 0 4.326 3.221 29.54 29.54 0 0 0 38.951-7.336.38.38 0 0 1 .3-.148h5.647a34.16 34.16 0 0 1-21.005 15.585ZM8.857 36.68h6.314a2.68 2.68 0 0 0 2.12-1.052 27.164 27.164 0 0 1 35.937-6.768 28 28 0 0 1 3.126 2.227l-.343.381a1.523 1.523 0 0 0 .868 2.52l9.716 1.7a1.523 1.523 0 0 0 1.727-1.922l-2.725-9.479a1.524 1.524 0 0 0-2.6-.6l-.368.409a36.7 36.7 0 0 0-42.041-3.686 1.143 1.143 0 1 0 1.144 1.978 34.415 34.415 0 0 1 40.234 4.162 1.14 1.14 0 0 0 1.613-.086l.2-.223 2.009 6.989-7.16-1.256.206-.229a1.143 1.143 0 0 0-.087-1.615 30 30 0 0 0-4.326-3.221 29.54 29.54 0 0 0-38.951 7.336.38.38 0 0 1-.3.148H9.524a34.3 34.3 0 0 1 7.935-9.082 1.143 1.143 0 0 0-1.429-1.783 36.6 36.6 0 0 0-8.818 10.288 1.92 1.92 0 0 0 0 1.912 1.88 1.88 0 0 0 1.648.951Z"/></g></svg>