<svg xmlns="http://www.w3.org/2000/svg" width="132.748" height="116.401" viewBox="0 0 132.748 116.401"><g transform="translate(-9 -966.362)"><path fill="#f2f2f2" d="M10 975.534c0-8.172 0-8.172 8.172-8.172h114.4c8.172 0 8.172 0 8.172 8.172v73.546c0 8.172 0 8.172-8.172 8.172h-114.4c-8.172 0-8.172 0-8.172-8.172Z"/><path fill="#f2f2f2" d="M63.116 1057.248v24.515h24.515v-24.515H79.46v11.44c0 4.9-8.172 4.9-8.172 0v-11.44Z"/><path fill="#222" d="M63.116 1056.248h8.172a1 1 0 0 1 1 1v11.44c0 2.113 1.94 2.677 3.086 2.677s3.086-.564 3.086-2.677v-11.44a1 1 0 0 1 1-1h8.172a1 1 0 0 1 1 1v24.515a1 1 0 0 1-1 1H63.116a1 1 0 0 1-1-1v-24.515a1 1 0 0 1 1-1m7.172 2h-6.172v22.515h22.515v-22.515H80.46v10.44c0 3.071-2.559 4.677-5.086 4.677s-5.086-1.607-5.086-4.677Z"/><path fill="#222" d="M103.973 1082.763h-57.2a1 1 0 0 1 0-2h57.2a1 1 0 0 1 0 2"/><path fill="#fff" d="M18.172 1049.076h114.4V975.53h-114.4Z"/><path fill="#e1e1e1" d="M32.881 1040.907c0 1.634 0 3.269 3.269 3.269h80.083c3.269 0 3.269-1.634 3.269-3.269l-3.269-24.515c-.434-2.835-2.3-2.426-2.452-3.473l-.97-3.8a3.2 3.2 0 0 0-3.116-2.533Z"/><path fill="#e1e1e1" d="M10 970.631v83.352l3.269 3.269v-84.987c0-1.634 0-1.634 1.634-1.634h125.845l-1.634-3.269H11.634Z"/><path fill="#222" d="M18.172 966.362h114.4c4.356 0 6.543 0 7.857 1.314s1.314 3.5 1.314 7.858v73.546c0 4.356 0 6.543-1.314 7.857s-3.5 1.314-7.857 1.314h-114.4c-4.356 0-6.543 0-7.857-1.314S9 1053.436 9 1049.079v-73.545c0-4.356 0-6.543 1.314-7.858s3.501-1.314 7.858-1.314m114.4 89.889c3.564 0 5.715 0 6.443-.729s.729-2.88.729-6.443v-73.545c0-3.564 0-5.715-.729-6.443s-2.88-.729-6.443-.729h-114.4c-3.564 0-5.715 0-6.443.729S11 971.97 11 975.534v73.546c0 3.564 0 5.715.729 6.443s2.88.729 6.443.729Z"/><path fill="#f2f2f2" d="M21.441 1049.076v-68.643c0-1.634 0-1.634 1.634-1.634h109.497v-3.269h-114.4v73.546Z"/><g transform="translate(18.172 975.53)"><path fill="#222" d="M114.4 74.546H0a1 1 0 0 1-1-1V0a1 1 0 0 1 1-1h114.4a1 1 0 0 1 1 1v73.546a1 1 0 0 1-1 1m-113.4-2h112.4V1H1Zm97.061 10.172a1 1 0 0 1-1-1v-3.269a1 1 0 0 1 2 0v3.269a1 1 0 0 1-1 1m4.903 0a1 1 0 0 1-1-1v-3.269a1 1 0 0 1 2 0v3.269a1 1 0 0 1-1 1m4.903 0a1 1 0 0 1-1-1v-3.269a1 1 0 0 1 2 0v3.269a1 1 0 0 1-1 1"/><path fill="#4a89dc" d="m22.881 16.347-1.634 8.172h37.59l-1.634-8.172Z"/><path fill="#222" d="M22.881 15.347h34.322a1 1 0 0 1 .981.8l1.634 8.172a1 1 0 0 1-.981 1.2h-37.59a1 1 0 0 1-.981-1.2l1.634-8.172a1 1 0 0 1 .981-.8m33.5 2h-32.68l-1.234 6.172h35.15Z"/></g><path fill="#5d9cec" d="M34.515 1040.905h47.4l-3.273-40.859H37.784Z"/><path fill="#ccdef5" d="m37.784 1000.049 9.806-4.9-6.537-3.269h34.321l-6.537 3.269 9.806 4.9Z"/><path fill="#222" d="M78.643 1001.049H37.784a1 1 0 0 1-.447-1.894l8.017-4.009-4.749-2.374a1 1 0 0 1 .447-1.894h34.322a1 1 0 0 1 .447 1.894l-4.749 2.374 8.017 4.009a1 1 0 0 1-.447 1.894Zm-36.623-2h32.387l-6.017-3.009a1 1 0 0 1 0-1.789l2.749-1.374H45.284l2.749 1.374a1 1 0 0 1 0 1.789Zm5.571 9.172a2.452 2.452 0 1 0 2.452 2.452 2.47 2.47 0 0 0-2.452-2.452m21.246 0a2.452 2.452 0 1 0 2.452 2.452 2.47 2.47 0 0 0-2.452-2.452"/><path fill="#222" d="M58.213 1021.069a12.6 12.6 0 0 1-7.437-2.34 10.44 10.44 0 0 1-4.176-7.1l1.98-.283c.762 5.334 5.387 7.722 9.633 7.722s8.871-2.388 9.633-7.722l1.98.283a10.44 10.44 0 0 1-4.176 7.1 12.6 12.6 0 0 1-7.437 2.34"/><path fill="#4a89dc" d="m35.332 1039.27 4.9-35.956 39.224-1.634-1.634-1.634H38.601Z"/><path fill="#222" d="M81.915 1041.905h-47.4a1 1 0 0 1-1-1.08l3.269-40.859a1 1 0 0 1 1-.92h40.858a1 1 0 0 1 1 .92l3.269 40.859a1 1 0 0 1-1 1.08Zm-46.313-2h45.23l-3.117-38.859H38.707Z"/><path fill="#e9573f" d="m78.642 1008.221-1.634 8.172h34.321l-1.634-8.172Z"/><path fill="#222" d="M78.642 1007.221h31.053a1 1 0 0 1 .981.8l1.634 8.172a1 1 0 0 1-.981 1.2H77.008a1 1 0 0 1-.981-1.2l1.634-8.172a1 1 0 0 1 .981-.8m30.233 2H79.462l-1.234 6.172h31.88Z"/><path fill="#e9573f" d="m112.964 1016.393 3.269 24.516H72.105l3.269-24.516Z"/><path fill="#222" d="M75.374 1015.393h37.59a1 1 0 0 1 .991.868l3.269 24.516a1 1 0 0 1-.991 1.132H72.105a1 1 0 0 1-.991-1.132l3.269-24.516a1 1 0 0 1 .991-.868m36.715 2h-35.84l-3 22.516h41.841Z"/><path fill="#222" d="M94.169 1034.141a12.6 12.6 0 0 1-7.437-2.34 10.44 10.44 0 0 1-4.176-7.1l1.98-.283c.762 5.334 5.387 7.722 9.633 7.722s8.871-2.388 9.633-7.722l1.98.283a10.44 10.44 0 0 1-4.176 7.1 12.6 12.6 0 0 1-7.437 2.34"/><path fill="#222" d="M83.546 1021.292a2.452 2.452 0 1 0 2.452 2.452 2.47 2.47 0 0 0-2.452-2.452m21.247 0a2.452 2.452 0 1 0 2.452 2.452 2.47 2.47 0 0 0-2.452-2.452"/><path fill="#efd2d2" d="m75.374 1016.393 9.806-4.9-6.537-3.269h31.052l-6.537 3.269 9.806 4.9Z"/><path fill="#222" d="M112.964 1017.393h-37.59a1 1 0 0 1-.447-1.894l8.017-4.009-4.749-2.374a1 1 0 0 1 .447-1.894h31.053a1 1 0 0 1 .447 1.894l-4.749 2.374 8.017 4.009a1 1 0 0 1-.447 1.894Zm-33.354-2h29.118l-6.017-3.009a1 1 0 0 1 0-1.789l2.749-1.374H82.874l2.749 1.374a1 1 0 0 1 0 1.789Z"/><path fill="#4fc1e9" d="M116.233 994.829a.5.5 0 0 1-.5-.5v-1.952h-1.952a.5.5 0 0 1 0-1h1.952v-1.951a.5.5 0 0 1 1 0v1.951h1.948a.5.5 0 0 1 0 1h-1.948v1.952a.5.5 0 0 1-.5.5"/><path fill="#ed5565" d="M99.89 986.657a.5.5 0 0 1-.5-.5v-1.952h-1.952a.5.5 0 0 1 0-1h1.952v-1.951a.5.5 0 0 1 1 0v1.951h1.948a.5.5 0 0 1 0 1h-1.948v1.952a.5.5 0 0 1-.5.5"/><path fill="#37bc9b" d="M34.516 994.829a.5.5 0 0 1-.5-.5v-1.952h-1.952a.5.5 0 1 1 0-1h1.952v-1.951a.5.5 0 0 1 1 0v1.951h1.948a.5.5 0 0 1 0 1h-1.948v1.952a.5.5 0 0 1-.5.5"/><path fill="#ed5565" d="M124.405 1019.344a.5.5 0 0 1-.5-.5v-1.952h-1.952a.5.5 0 0 1 0-1h1.952v-1.951a.5.5 0 0 1 1 0v1.951h1.948a.5.5 0 0 1 0 1h-1.948v1.952a.5.5 0 0 1-.5.5"/><circle cx="1.635" cy="1.635" r="1.635" fill="#3bafda" transform="translate(26.344 1004.951)"/><circle cx="1.635" cy="1.635" r="1.635" fill="#e9573f" transform="translate(26.344 1004.951)"/><circle cx="1.635" cy="1.635" r="1.635" fill="#3bafda" transform="translate(57.396 982.07)"/><circle cx="1.635" cy="1.635" r="1.635" fill="#37bc9b" transform="translate(103.158 993.511)"/><circle cx="1.635" cy="1.635" r="1.635" fill="#3bafda" transform="translate(122.77 1004.951)"/><path fill="#4fc1e9" d="M91.717 998.015a2.034 2.034 0 1 1-2.034 2.034 2.037 2.037 0 0 1 2.034-2.034m0 3.269a1.234 1.234 0 1 0-1.234-1.235 1.236 1.236 0 0 0 1.234 1.235"/><path fill="#37bc9b" d="M83.545 983.306a2.034 2.034 0 1 1-2.034 2.034 2.037 2.037 0 0 1 2.034-2.034m0 3.269a1.234 1.234 0 1 0-1.234-1.235 1.236 1.236 0 0 0 1.234 1.235"/><path fill="#4fc1e9" d="M27.978 983.306a2.034 2.034 0 1 1-2.034 2.034 2.037 2.037 0 0 1 2.034-2.034m0 3.269a1.234 1.234 0 1 0-1.234-1.235 1.236 1.236 0 0 0 1.234 1.235m1.634 27.783a2.034 2.034 0 1 1-2.034 2.034 2.037 2.037 0 0 1 2.034-2.034m0 3.269a1.234 1.234 0 1 0-1.234-1.235 1.236 1.236 0 0 0 1.234 1.235"/></g></svg>