<svg xmlns="http://www.w3.org/2000/svg" width="124" height="124" viewBox="0 0 124 124"><defs><path id="a" fill="#7a6d79" d="M14.72 4.161h-2.334a1.033 1.033 0 0 1-1.033-1.033v-2.1A1.033 1.033 0 0 0 10.32-.005H5.878a1.033 1.033 0 0 0-1.033 1.033v2.1a1.033 1.033 0 0 1-1.033 1.033H1.331A1.333 1.333 0 0 0-.002 5.494v4.579a1.333 1.333 0 0 0 1.333 1.333h13.387a1.333 1.333 0 0 0 1.333-1.333V5.494a1.333 1.333 0 0 0-1.331-1.333"/></defs><g transform="translate(7239 8759.875)"><circle cx="62" cy="62" r="62" fill="#fff" transform="translate(-7239 -8759.875)"/><g transform="translate(-7212.5 -8735.389)"><g transform="translate(1.099 1.115)"><path fill="#fbf7f7" d="M51.586 42.312H21.212a2.374 2.374 0 0 1-2.374-2.374V2.374A2.374 2.374 0 0 1 21.212 0h30.37a2.374 2.374 0 0 1 2.374 2.374v37.564a2.374 2.374 0 0 1-2.37 2.374"/><path fill="#f0eef0" d="M51.494 0h-3.348a2.38 2.38 0 0 1 2.466 2.283v37.74a2.38 2.38 0 0 1-2.466 2.286h3.348a2.38 2.38 0 0 0 2.466-2.286V2.283a2.38 2.38 0 0 0-2.466-2.286Z"/><path fill="#d6f6fd" d="M23.544 62.09H0V49.744a2.1 2.1 0 0 1 2.1-2.1h19.348a2.1 2.1 0 0 1 2.1 2.1Z"/><path fill="#b7efff" d="M21.448 47.648H18.33a2.1 2.1 0 0 1 2.1 2.1v12.346h3.118v-12.35a2.1 2.1 0 0 0-2.1-2.096"/><path fill="#7a6d79" d="M23.544 62.089H0v3.33a2.1 2.1 0 0 0 2.1 2.1h19.348a2.1 2.1 0 0 0 2.1-2.1Z"/><path fill="#685e68" d="M20.426 62.089v3.33a2.1 2.1 0 0 1-2.1 2.1h3.118a2.1 2.1 0 0 0 2.1-2.1v-3.33ZM8.399 67.516h6.747v5.282H8.399Z"/><path fill="#d6f6fd" d="M72.803 62.09H49.259V49.744a2.1 2.1 0 0 1 2.1-2.1h19.348a2.1 2.1 0 0 1 2.1 2.1Z"/><path fill="#b7efff" d="M70.707 47.648h-3.118a2.1 2.1 0 0 1 2.1 2.1v12.346h3.118v-12.35a2.1 2.1 0 0 0-2.1-2.096"/><path fill="#7a6d79" d="M72.803 62.089H49.259v3.33a2.1 2.1 0 0 0 2.1 2.1h19.348a2.1 2.1 0 0 0 2.1-2.1Z"/><path fill="#685e68" d="M69.682 62.089v3.33a2.1 2.1 0 0 1-2.1 2.1H70.7a2.1 2.1 0 0 0 2.1-2.1v-3.33Zm-12.025 5.427h6.747v5.282h-6.747Z"/><g transform="translate(28.302 49.829)"><use href="#a"/><use href="#a"/><path fill="#685e68" d="M14.721 4.161h-2.334a1.033 1.033 0 0 1-1.033-1.033v-2.1a1.033 1.033 0 0 0-1.033-1.033H7.143a1.033 1.033 0 0 1 1.033 1.033v2.1a1.033 1.033 0 0 0 1.033 1.033h2.334a1.333 1.333 0 0 1 1.333 1.333v4.579a1.333 1.333 0 0 1-1.333 1.333h3.178a1.333 1.333 0 0 0 1.333-1.333V5.494a1.333 1.333 0 0 0-1.333-1.333"/></g></g><g transform="translate(0 .017)"><path d="M47.861 7.021H27.139a1.1 1.1 0 1 0 0 2.2h20.723a1.1 1.1 0 1 0 0-2.2Zm0 5.654H27.139a1.1 1.1 0 1 0 0 2.2h20.723a1.1 1.1 0 1 0 0-2.2Zm0 5.654H27.139a1.1 1.1 0 0 0 0 2.2h20.723a1.1 1.1 0 0 0 0-2.2Zm0 5.654H27.139a1.1 1.1 0 1 0 0 2.2h20.723a1.1 1.1 0 1 0 0-2.2Zm0 5.654H27.139a1.1 1.1 0 1 0 0 2.2h20.723a1.1 1.1 0 1 0 0-2.2Zm0 5.654H27.139a1.1 1.1 0 0 0 0 2.2h20.723a1.1 1.1 0 0 0 0-2.2Zm-9.238 22.321h-2.246a1.1 1.1 0 0 0 0 2.2h2.247a1.1 1.1 0 1 0 0-2.2Z"/><path d="M73.9 56.602a1.1 1.1 0 0 0 1.1-1.1v-4.66a3.2 3.2 0 0 0-3.195-3.195H52.453a3.2 3.2 0 0 0-3.195 3.195v6.769h-2.706v-1.19a2.435 2.435 0 0 0-2.432-2.432h-2.268V51.96a2.134 2.134 0 0 0-2.131-2.131H38.6v-5.32h14.085a3.477 3.477 0 0 0 3.473-3.473V3.473A3.477 3.477 0 0 0 52.685 0H33.648a1.1 1.1 0 1 0 0 2.2h19.037a1.277 1.277 0 0 1 1.275 1.273v37.563a1.277 1.277 0 0 1-1.275 1.276h-30.37a1.277 1.277 0 0 1-1.276-1.276V3.473a1.277 1.277 0 0 1 1.276-1.275H29.4a1.1 1.1 0 0 0 0-2.2h-7.085a3.477 3.477 0 0 0-3.473 3.475v37.563a3.477 3.477 0 0 0 3.473 3.473H36.4v5.319h-1.121a2.134 2.134 0 0 0-2.131 2.131v2.029h-2.415a2.435 2.435 0 0 0-2.433 2.433v1.191h-2.56v-6.77a3.2 3.2 0 0 0-3.195-3.195H9.824a1.1 1.1 0 1 0 0 2.2h12.723a1 1 0 0 1 1 1v11.242H2.2V50.842a1 1 0 0 1 1-1h2.376a1.1 1.1 0 1 0 0-2.2H3.195A3.2 3.2 0 0 0 0 50.842v15.677a3.2 3.2 0 0 0 3.195 3.194H8.4v3.085H5.485a1.1 1.1 0 0 0 0 2.2h14.772a1.1 1.1 0 0 0 0-2.2h-2.914v-3.085h5.2a3.2 3.2 0 0 0 3.195-3.195v-6.709H28.3V61a2.435 2.435 0 0 0 2.432 2.432H44.12A2.435 2.435 0 0 0 46.552 61v-1.191h2.707v6.709a3.2 3.2 0 0 0 3.195 3.195h5.2v3.085h-2.911a1.1 1.1 0 0 0 0 2.2h14.772a1.1 1.1 0 0 0 0-2.2H66.6v-3.085h5.2a3.2 3.2 0 0 0 3.2-3.194v-6.767a1.1 1.1 0 1 0-2.2 0v2.338H51.456V50.843a1 1 0 0 1 1-1h19.349a1 1 0 0 1 1 1v4.661a1.1 1.1 0 0 0 1.1 1.1Zm-58.756 16.2H10.6v-3.089h4.549v3.085Zm8.4-6.279a1 1 0 0 1-1 1H3.195a1 1 0 0 1-1-1v-2.24h21.349Zm20.811-5.518a.235.235 0 0 1-.235.235H30.733a.235.235 0 0 1-.235-.235v-4.584a.235.235 0 0 1 .235-.235h2.481a2.134 2.134 0 0 0 2.131-2.131v-2.029h4.31v2.029a2.134 2.134 0 0 0 2.131 2.128h2.334a.235.235 0 0 1 .235.235v4.579ZM64.4 72.798h-4.55v-3.085h4.55Zm8.4-8.515v2.232a1 1 0 0 1-1 1H52.453a1 1 0 0 1-1-1v-2.232Z"/></g></g></g></svg>