<svg xmlns="http://www.w3.org/2000/svg" width="89.466" height="93.817" viewBox="0 0 89.466 93.817"><g transform="translate(5.342 1.375)"><path fill="#c8effe" d="m72.416 70.892-.178-.122a9.256 9.256 0 1 0-12.775 0l-.178.122a14.78 14.78 0 0 0-6.439 12.2v7.622h26.009v-7.622a14.78 14.78 0 0 0-6.439-12.2"/><path fill="#99e6fc" d="m64.426 70.893.178-.122a9.257 9.257 0 0 1 3.816-15.592 9.256 9.256 0 0 0-8.956 15.592l-.178.122a14.78 14.78 0 0 0-6.439 12.2v7.622h5.141v-7.621a14.78 14.78 0 0 1 6.438-12.201"/><path fill="#c8effe" d="M0 91.069v-7.772a15.07 15.07 0 0 1 6.565-12.442l.181-.124a9.438 9.438 0 1 1 13.025 0l.181.124a15.1 15.1 0 0 1 4.537 4.893l3.509 7.844v7.477Z"/><path fill="#99e6fc" d="M5.634 83.297a15.07 15.07 0 0 1 6.564-12.44.182.182 0 0 0 .024-.28 9.44 9.44 0 0 1 3.852-15.684 9.438 9.438 0 0 0-9.327 15.838l-.183.125A15.07 15.07 0 0 0 0 83.296v7.772h5.634Z"/><path fill="#c8effe" d="m47.578 66.671-.219-.15a11.392 11.392 0 1 0-15.722 0l-.219.15a18.19 18.19 0 0 0-7.925 15.017v9.381h32.009v-9.381a18.19 18.19 0 0 0-7.924-15.017"/><path fill="#99e6fc" d="M37.201 66.671a.218.218 0 0 0 .029-.335 11.391 11.391 0 0 1 5.157-19.077 11.391 11.391 0 0 0-10.751 19.262l-.219.15a18.19 18.19 0 0 0-7.925 15.018v9.38h5.784v-9.38a18.19 18.19 0 0 1 7.925-15.018"/><path fill="#fef0ae" d="M71.217 0H7.594A7.594 7.594 0 0 0 0 7.594v20.084a7.594 7.594 0 0 0 7.594 7.594h4.458l3.366 3.366a1.3 1.3 0 0 0 1.836 0l3.366-3.366h14.5l3.366 3.366a1.3 1.3 0 0 0 1.837 0l3.363-3.366h14.687l3.366 3.366a1.3 1.3 0 0 0 1.836 0l3.366-3.366h4.275a7.594 7.594 0 0 0 7.594-7.594V7.594A7.594 7.594 0 0 0 71.217 0"/><g fill="#f7f6f7" transform="translate(20.263 14.638)"><circle cx="3.23" cy="3.23" r="3.23" transform="translate(16.005)"/><circle cx="3.23" cy="3.23" r="3.23" transform="translate(32.009)"/><circle cx="3.23" cy="3.23" r="3.23"/></g><path fill="#fee97d" d="M16.025 29.667a7.99 7.99 0 0 1-7.988-7.988V5.121A7.96 7.96 0 0 1 9.895 0h-2.3A7.594 7.594 0 0 0 .001 7.594v20.084a7.594 7.594 0 0 0 7.594 7.594h4.458l3.366 3.366a1.3 1.3 0 0 0 1.836 0l3.366-3.366h14.5l3.365 3.366a1.3 1.3 0 0 0 1.837 0l3.363-3.366h14.687l3.366 3.366a1.3 1.3 0 0 0 1.836 0l3.366-3.366h4.275a7.6 7.6 0 0 0 7.33-5.605z"/></g><path d="M88.091 91.069h-2.38v-6.4A16.43 16.43 0 0 0 79.628 71.9a10.81 10.81 0 0 0 .29-12.844 1.375 1.375 0 0 0-2.247 1.585 8.054 8.054 0 0 1-1.029 10.472 1.375 1.375 0 0 0 .173 2.13l.181.124a13.69 13.69 0 0 1 5.966 11.307v6.4H62.219v-8.011a19.6 19.6 0 0 0-.868-5.761 13.8 13.8 0 0 1 3.809-3.937l.181-.124a1.375 1.375 0 0 0 .173-2.129 8.061 8.061 0 0 1 8.143-13.471 1.375 1.375 0 1 0 .88-2.605 10.813 10.813 0 0 0-12.009 16.865 16.6 16.6 0 0 0-2.386 2.391 19.55 19.55 0 0 0-5.383-6.6 12.63 12.63 0 0 0 2.847-8.036 12.764 12.764 0 0 0-20.228-10.357 1.375 1.375 0 0 0 1.609 2.23 10.014 10.014 0 0 1 12.764 15.372 1.375 1.375 0 0 0 .173 2.129l.219.15a16.8 16.8 0 0 1 7.326 13.882v8.006H30.21v-8.006a16.8 16.8 0 0 1 7.326-13.882l.219-.15a1.375 1.375 0 0 0 .173-2.129 10.01 10.01 0 0 1-2.209-11.384 1.375 1.375 0 0 0-2.5-1.138 12.76 12.76 0 0 0 1.701 13.314 19.55 19.55 0 0 0-5.384 6.6 16.5 16.5 0 0 0-2.386-2.392 10.7 10.7 0 0 0 2.264-6.621 10.813 10.813 0 1 0-21.625 0 10.7 10.7 0 0 0 2.263 6.62 16.43 16.43 0 0 0-6.085 12.772v6.4H1.375a1.375 1.375 0 0 0 0 2.75h86.716a1.375 1.375 0 1 0 0-2.749Zm-81.375-6.4a13.69 13.69 0 0 1 5.966-11.306l.181-.124a1.375 1.375 0 0 0 .173-2.13 8.063 8.063 0 1 1 11.127 0 1.375 1.375 0 0 0 .173 2.129l.182.124a13.8 13.8 0 0 1 3.808 3.937 19.6 19.6 0 0 0-.868 5.761v8.006H6.717Zm33.519-65.426a4.6 4.6 0 1 0 4.6-4.6 4.61 4.61 0 0 0-4.6 4.6m6.46 0a1.855 1.855 0 1 1-1.855-1.855 1.857 1.857 0 0 1 1.855 1.855m14.149-4.605a4.6 4.6 0 1 0 4.6 4.6 4.61 4.61 0 0 0-4.6-4.6m0 6.46a1.855 1.855 0 1 1 1.855-1.855 1.857 1.857 0 0 1-1.855 1.855M24.23 19.243a4.6 4.6 0 1 0 4.6-4.6 4.61 4.61 0 0 0-4.6 4.6m6.46 0a1.855 1.855 0 1 1-1.855-1.855 1.857 1.857 0 0 1 1.855 1.855"/><path d="M12.937 38.022h3.889l2.963 2.963a2.677 2.677 0 0 0 3.781 0l2.963-2.963h13.361l2.959 2.964a2.677 2.677 0 0 0 3.781 0l2.963-2.963h13.55l2.963 2.964a2.677 2.677 0 0 0 3.781 0l2.963-2.963h3.706a8.98 8.98 0 0 0 8.969-8.969V8.969A8.98 8.98 0 0 0 76.559 0h-6.626a1.375 1.375 0 1 0 0 2.75h6.626a6.227 6.227 0 0 1 6.22 6.22v20.083a6.227 6.227 0 0 1-6.22 6.22h-4.275a1.38 1.38 0 0 0-.972.4L68 38.985l-3.312-3.312a1.38 1.38 0 0 0-.972-.4H49.032a1.38 1.38 0 0 0-.972.4l-3.307 3.314-3.312-3.312a1.38 1.38 0 0 0-.972-.4H25.963a1.38 1.38 0 0 0-.972.4l-3.312 3.312-3.312-3.312a1.38 1.38 0 0 0-.972-.4h-4.458a6.227 6.227 0 0 1-6.22-6.22V8.969a6.227 6.227 0 0 1 6.22-6.22h51.137a1.375 1.375 0 1 0 0-2.75H12.937a8.98 8.98 0 0 0-8.969 8.969v20.085a8.98 8.98 0 0 0 8.969 8.969"/></svg>