<svg xmlns="http://www.w3.org/2000/svg" width="93.18" height="93.146" viewBox="0 0 93.18 93.146"><g transform="translate(1.607 1.606)"><path fill="#f2f2f2" d="M64.261 31.777a37.1 37.1 0 0 0-19.278-6.073A37.1 37.1 0 0 0 25.7 31.777 91.9 91.9 0 0 0 0 57.835s20.146 32.13 44.983 32.13 44.983-32.13 44.983-32.13a91.9 91.9 0 0 0-25.7-26.058Zm-3.373 41.962a22.493 22.493 0 1 1 0-31.809 22.493 22.493 0 0 1 0 31.809"/><path fill="#f45151" d="M80.327 19.278 73.9 25.7h-6.426a3.223 3.223 0 0 0-3.213 3.213v2.86A37.1 37.1 0 0 0 44.983 25.7a37.1 37.1 0 0 0-19.278 6.073v-2.86a3.223 3.223 0 0 0-3.214-3.213h-6.426l-6.426-6.422 6.426-6.426h9.639A12.85 12.85 0 0 1 38.557 25.7V6.426L44.983 0l6.426 6.426V25.7a12.85 12.85 0 0 1 12.852-12.848H73.9Z"/><path fill="#43b3ff" d="M60.891 41.931a22.493 22.493 0 1 0 0 31.809 22.493 22.493 0 0 0 0-31.809m-3.184 12.273a.67.67 0 0 1-.353.129v.032a12.841 12.841 0 1 1-3.278-5.622c.032.032.1.1.1.129a.8.8 0 0 1 .315-.258 3.224 3.224 0 1 1 3.213 5.591Z"/><path fill="#ffc943" d="M54.076 66.928a12.859 12.859 0 1 1 0-18.186c.032.032.1.1.1.129a3.183 3.183 0 0 0-.835 4.145 3.216 3.216 0 0 0 4.016 1.349 12.8 12.8 0 0 1-3.281 12.563"/><path fill="#f2f2f2" d="M57.707 54.204a.67.67 0 0 1-.353.129v.032a3.216 3.216 0 0 1-4.015-1.349 3.183 3.183 0 0 1 .835-4.145.8.8 0 0 1 .321-.257 3.224 3.224 0 1 1 3.213 5.591Z"/></g><path d="M46.59 83.526a24.085 24.085 0 1 1 17.041-7.046 24.1 24.1 0 0 1-17.041 7.046m0-44.959a20.874 20.874 0 1 0 14.769 6.106 20.87 20.87 0 0 0-14.769-6.106"/><path d="M61.892 50.605a4.82 4.82 0 0 0-5.9-2.071 14.417 14.417 0 1 0 4.776 8.2 4.81 4.81 0 0 0 1.128-6.127Zm-4.176.8a1.606 1.606 0 1 1-.8.215 1.6 1.6 0 0 1 .8-.215m-3.169 15.99a11.254 11.254 0 1 1-1.01-16.739 4.8 4.8 0 0 0 4.182 7.172 11.27 11.27 0 0 1-3.172 9.567"/><path d="M92.934 58.588a93.2 93.2 0 0 0-25.46-26.137v-1.927a1.61 1.61 0 0 1 1.607-1.607h2.548l-.471.471a1.607 1.607 0 1 0 2.272 2.272l9.639-9.639a1.606 1.606 0 0 0 0-2.272l-6.424-6.424-3.215-3.215a1.607 1.607 0 1 0-2.272 2.272l.471.471h-5.761a14.38 14.38 0 0 0-11.246 5.483v-6.425l.471.471a1.607 1.607 0 1 0 2.272-2.272L47.725.471a1.606 1.606 0 0 0-2.272 0l-9.639 9.639a1.607 1.607 0 1 0 2.272 2.272l.471-.471v6.424a14.38 14.38 0 0 0-11.246-5.483H21.55l.471-.471a1.607 1.607 0 1 0-2.272-2.272l-3.215 3.215-6.424 6.425a1.606 1.606 0 0 0 0 2.272l9.639 9.639a1.607 1.607 0 1 0 2.272-2.272l-.471-.47h2.55a1.61 1.61 0 0 1 1.6 1.606v1.927A93.2 93.2 0 0 0 .245 58.588a1.61 1.61 0 0 0 0 1.707c.7 1.115 17.39 27.4 39.614 32.14a1.606 1.606 0 1 0 .672-3.141c-18.729-4-33.938-25.3-37-29.853 3.389-5.028 21.632-30.524 43.06-30.524s39.671 25.5 43.06 30.524c-3.062 4.551-18.271 25.854-37 29.853a1.606 1.606 0 0 0 .336 3.177 1.6 1.6 0 0 0 .336-.036c22.225-4.744 38.915-31.025 39.614-32.14a1.61 1.61 0 0 0 0-1.707ZM65.868 16.065h8.974l4.82 4.82-4.82 4.82h-5.761a4.825 4.825 0 0 0-4.82 4.82v.036a42.2 42.2 0 0 0-9.584-3.8 11.233 11.233 0 0 1 11.19-10.7ZM24.1 25.7h-5.763l-4.82-4.82 4.82-4.82h8.974A11.233 11.233 0 0 1 38.5 26.763a42.2 42.2 0 0 0-9.584 3.8v-.036A4.825 4.825 0 0 0 24.1 25.7m17.672.376V8.7l4.82-4.82 4.82 4.82v17.381a31 31 0 0 0-9.639 0Z"/><ellipse cx="2" cy="1.5" rx="2" ry="1.5" transform="translate(44.513 90.146)"/></svg>