<svg xmlns="http://www.w3.org/2000/svg" width="124" height="124" viewBox="0 0 124 124"><g transform="translate(-388.5 -2961.125)"><circle cx="62" cy="62" r="62" fill="#fff" transform="translate(388.5 2961.125)"/><g transform="translate(412.203 2991)"><g transform="translate(1.169 1.18)"><path fill="#837683" fill-rule="evenodd" d="M46.479 7.813C46.479 3.5 36.852 0 24.979 0s-21.5 3.5-21.5 7.813v42.389c0 10.233 43.009 10.233 43.009 0Z"/><path fill="#685e68" fill-rule="evenodd" d="M46.392 36.699a1.8 1.8 0 0 1 3.6 0c0 2.6-1.792 4.893-5.055 6.545-3.963 2.008-10.225 3.191-16.816 3.469-9.146.385-18.895-.985-23.929-3.94-2.725-1.6-4.191-3.7-4.191-6.074a1.8 1.8 0 0 1 3.6 0 2.68 2.68 0 0 0 .974 1.913 10.9 10.9 0 0 0 3.52 2.051c4.97 1.962 12.634 2.759 19.876 2.454 6.006-.253 11.73-1.253 15.341-3.083 1.791-.908 3.082-1.906 3.082-3.335Zm0-16.266a1.8 1.8 0 0 1 3.6 0c0 2.806-2.119 5.26-5.891 6.943-4.633 2.067-11.866 3.137-19.1 3.136-8.518 0-17.017-1.513-21.362-4.35C1.268 24.613.005 22.646.005 20.433a1.8 1.8 0 0 1 3.6 0 2.54 2.54 0 0 0 .8 1.743 9.2 9.2 0 0 0 2.951 1.911c4.274 1.907 10.959 2.825 17.638 2.825s13.363-.917 17.638-2.824a9.2 9.2 0 0 0 2.953-1.912 2.54 2.54 0 0 0 .807-1.743"/><ellipse cx="21.484" cy="7.586" fill="#a79ba7" rx="21.484" ry="7.586" transform="translate(3.512)"/><ellipse cx="4.986" cy="2.507" fill="#685e68" rx="4.986" ry="2.507" transform="translate(31.883 5.079)"/><path fill="#685e68" fill-rule="evenodd" d="M44.338 53.786V4.411a4.46 4.46 0 0 1 2.142 3.4v42.391a4.52 4.52 0 0 1-2.142 3.584"/><path fill="#837683" fill-rule="evenodd" d="M44.338 4.283a4.32 4.32 0 0 1 2.142 3.3 4.32 4.32 0 0 1-2.142 3.3Z"/><g fill-rule="evenodd" transform="translate(27.501 23.034)"><path fill="#eceff1" d="M1.077 0h28.262a1.04 1.04 0 0 1 .762.316l5.128 5.128a1.04 1.04 0 0 1 .316.762v38.788a1.077 1.077 0 0 1-1.075 1.075H1.077A1.08 1.08 0 0 1 0 44.994V1.077A1.08 1.08 0 0 1 1.077 0"/><path fill="#a79ba7" d="M29.785.092v5.132a.54.54 0 0 0 .539.539h5.128a1.1 1.1 0 0 0-.223-.315L30.101.32a1.1 1.1 0 0 0-.316-.228"/><path fill="#d1d1d6" d="M1.077 0h1.075v46.068H1.077A1.08 1.08 0 0 1 0 44.993V1.077A1.08 1.08 0 0 1 1.077 0"/><g transform="translate(6.857 9.727)"><path fill="#8ac9fe" d="M.69 0h5.289a.69.69 0 0 1 .69.69v5.287a.69.69 0 0 1-.69.69H.692a.69.69 0 0 1-.69-.69V.69A.69.69 0 0 1 .69 0"/><path fill="#60b7ff" d="M4.46 0h1.517a.69.69 0 0 1 .69.69v5.287a.69.69 0 0 1-.69.69H4.46a.69.69 0 0 0 .69-.69V.69A.69.69 0 0 0 4.46 0"/></g><g transform="translate(6.857 20.551)"><path fill="#ffe177" d="M.69.001h5.289a.69.69 0 0 1 .69.69v5.287a.69.69 0 0 1-.69.69H.692a.69.69 0 0 1-.69-.69V.691A.69.69 0 0 1 .69.001"/><path fill="#ffd064" d="M4.46.001h1.517a.69.69 0 0 1 .69.69v5.287a.69.69 0 0 1-.69.69H4.46a.69.69 0 0 0 .69-.69V.691a.69.69 0 0 0-.69-.69"/></g><g transform="translate(6.858 31.378)"><path fill="#fe646f" d="M.69 0h5.281a.693.693 0 0 1 .69.692v5.285a.69.69 0 0 1-.69.69H.686a.69.69 0 0 1-.69-.69V.692A.693.693 0 0 1 .69 0"/><path fill="#fd4755" d="M4.452 0h1.517a.693.693 0 0 1 .69.692v5.285a.69.69 0 0 1-.69.69H4.452a.69.69 0 0 0 .69-.69V.692A.693.693 0 0 0 4.452 0"/></g></g><g fill-rule="evenodd" transform="translate(52.927 47.873)"><path fill="#8ac9fe" d="m10.613.104 9.068 3.886a.92.92 0 0 1 .565.859v7.57a10.225 10.225 0 1 1-20.247 0v-7.57a.92.92 0 0 1 .566-.859L9.633.104a1.2 1.2 0 0 1 .98 0"/><path fill="#60b7ff" d="m18.86 3.637.822.353a.92.92 0 0 1 .565.859v7.57a11.6 11.6 0 0 1-1.387 5.574Z"/></g></g><path fill-rule="evenodd" d="M3.47 27.89A7.78 7.78 0 0 1 0 21.647a3.016 3.016 0 0 1 3.47-2.979V9.027a4 4 0 0 1 .1-.888 6.13 6.13 0 0 1 2.872-3.827C9.912 1.947 16.675.23 24.586.022q.794-.021 1.6-.021h.026c8.6 0 16.06 1.787 19.768 4.312 1.942 1.322 2.93 2.9 2.93 4.488v14.226h9.6a1.2 1.2 0 0 1 .858.356l5.761 5.761a1.2 1.2 0 0 1 .356.858v18.285l8.93 3.824a1.21 1.21 0 0 1 .736 1.116v8.339a13.085 13.085 0 0 1-10.66 12.8 1.2 1.2 0 0 1-.442 0 12.95 12.95 0 0 1-5.99-2.839H28.712a1.214 1.214 0 0 1-1.214-1.214V60.292c-7.942.148-16.108-1.108-20.424-3.669-2.326-1.38-3.607-3.166-3.607-5.207v-7.26a7.79 7.79 0 0 1-3.47-6.242 3.016 3.016 0 0 1 3.47-2.979Zm2.428-7.118a3 3 0 0 1 .129.875 1.48 1.48 0 0 0 .577 1.014 9.3 9.3 0 0 0 3.021 1.77c4.469 1.8 11.252 2.6 17.875 2.471v-2.661a1.214 1.214 0 0 1 1.212-1.214h17.767V12.922q-.239.185-.5.364c-3.71 2.527-11.167 4.314-19.767 4.314s-16.06-1.787-19.767-4.312q-.286-.194-.544-.4Zm21.6 8.557c-6.963.125-14.086-.752-18.784-2.648a11.8 11.8 0 0 1-3.802-2.283 3.82 3.82 0 0 1-1.309-2.751.586.586 0 0 0-1.171 0c0 1.96 1.275 3.642 3.5 4.972 4.544 2.717 13.169 4.028 21.574 3.882Zm0 3.6c-8.2.132-16.572-1.124-21.6-3.571v7.681a3 3 0 0 1 .129.875 1.5 1.5 0 0 0 .6 1.037 9.7 9.7 0 0 0 3.125 1.8c4.473 1.766 11.188 2.545 17.748 2.42ZM26.212 2.428h-.021q-.773 0-1.532.02c-6.271.162-11.776 1.315-15.284 3.054a9.2 9.2 0 0 0-2.7 1.877 2.9 2.9 0 0 0-.722 1.213 2 2 0 0 0-.014.208 2.34 2.34 0 0 0 .765 1.564 9.2 9.2 0 0 0 2.7 1.822c3.787 1.825 9.908 2.986 16.808 2.986s13.019-1.161 16.81-2.987a9.2 9.2 0 0 0 2.7-1.822 2.44 2.44 0 0 0 .761-1.453 2.6 2.6 0 0 0-.773-1.533 9.2 9.2 0 0 0-2.7-1.877c-3.786-1.877-9.9-3.071-16.8-3.073Zm36.839 45.857V31.216h-4.548a1.214 1.214 0 0 1-1.214-1.214v-4.547H29.928v43.647h25.884a12.96 12.96 0 0 1-2.425-7.371h-5.9a1.214 1.214 0 0 1 0-2.428h5.9v-.681h-5.9a1.214 1.214 0 0 1 0-2.428h5.9v-2.972a1.21 1.21 0 0 1 .736-1.116Zm-1.717-19.5-1.617-1.613v1.617ZM27.501 57.864v-8.669c-8.2.131-16.577-1.122-21.6-3.57v5.79a2.9 2.9 0 0 0 1.024 2.082 10.3 10.3 0 0 0 3.352 1.984c4.319 1.727 10.854 2.509 17.226 2.382Zm0-11.1v-1.167c-6.892.124-13.94-.735-18.64-2.59a12.1 12.1 0 0 1-3.914-2.3 3.85 3.85 0 0 1-1.348-2.788.586.586 0 1 0-1.171 0c0 1.987 1.311 3.688 3.592 5.027 4.566 2.68 13.133 3.97 21.481 3.827Zm36.763 3.64-8.452 3.618v7.539a10.65 10.65 0 0 0 8.451 10.373 10.65 10.65 0 0 0 8.449-10.369v-7.543Zm-5.3 11.85a1.214 1.214 0 1 1 1.715-1.718l1.772 1.769 5.437-4.929a1.215 1.215 0 1 1 1.631 1.8l-6.292 5.705a1.214 1.214 0 0 1-1.673-.04ZM38.084 5.079a8.6 8.6 0 0 1 4.71 1.24 3.05 3.05 0 0 1 1.49 2.482 3.05 3.05 0 0 1-1.49 2.482 8.6 8.6 0 0 1-4.71 1.24 8.6 8.6 0 0 1-4.71-1.24 3.05 3.05 0 0 1-1.49-2.482 3.05 3.05 0 0 1 1.49-2.482 8.6 8.6 0 0 1 4.71-1.24m0 2.428a6.8 6.8 0 0 0-2.98.605 2.5 2.5 0 0 0-.6.408c-.094.091-.188.171-.188.28s.094.189.188.28a2.5 2.5 0 0 0 .6.408 7.64 7.64 0 0 0 5.96 0 2.4 2.4 0 0 0 .6-.408c.094-.091.188-.171.188-.28s-.094-.189-.188-.28a2.4 2.4 0 0 0-.6-.408 6.8 6.8 0 0 0-2.98-.605m-1.823 36.079h5.287a1.91 1.91 0 0 1 1.9 1.9v5.287a1.91 1.91 0 0 1-1.9 1.9h-5.287a1.91 1.91 0 0 1-1.9-1.9V45.49a1.91 1.91 0 0 1 1.9-1.9Zm.524 2.428v4.239h4.239v-4.239Zm-.524-13.253h5.287a1.91 1.91 0 0 1 1.9 1.9v5.291a1.91 1.91 0 0 1-1.9 1.9h-5.287a1.91 1.91 0 0 1-1.9-1.9v-5.287a1.91 1.91 0 0 1 1.9-1.9Zm.524 2.428v4.239h4.239v-4.239Zm-.523 19.223h5.285a1.91 1.91 0 0 1 1.9 1.906v5.285a1.91 1.91 0 0 1-1.9 1.9h-5.285a1.91 1.91 0 0 1-1.9-1.9v-5.281a1.91 1.91 0 0 1 1.9-1.906Zm.524 6.667h4.237V56.84h-4.236Zm10.7-24.113a1.214 1.214 0 0 1 0-2.428h9.845a1.214 1.214 0 0 1 0 2.428Zm0 3.112a1.214 1.214 0 0 1 0-2.428h6.409a1.214 1.214 0 1 1 0 2.428Zm0 7.713a1.214 1.214 0 0 1 0-2.428h9.845a1.214 1.214 0 0 1 0 2.428Zm0 3.112a1.214 1.214 0 0 1 0-2.428h6.409a1.214 1.214 0 0 1 0 2.428Z"/></g></g></svg>