<svg xmlns="http://www.w3.org/2000/svg" width="114.826" height="125.099" viewBox="0 0 114.826 125.099"><g transform="translate(-4 -1)"><path fill="#ffba66" d="M75.754 44.052V27.901a6.4 6.4 0 0 1 6.417-6.4h7.683a6.39 6.39 0 0 1 6.4 6.4v16.151Z"/><circle cx="6.15" cy="6.15" r="6.15" fill="#ffc9b9" transform="translate(79.854 3.05)"/><path fill="#36b385" d="M14.251 99.404v-14.1a6.4 6.4 0 0 1 6.417-6.4h7.683a6.39 6.39 0 0 1 6.4 6.4v14.1Z"/><circle cx="6.15" cy="6.15" r="6.15" fill="#ffc9b9" transform="translate(18.351 60.453)"/><path fill="#fafbff" d="M12.2 70.703h-2.05a4.11 4.11 0 0 1-4.1-4.1 4.13 4.13 0 0 1 4.1-4.1h2.05Zm26.652-8.2a4.11 4.11 0 0 1 4.1 4.1 4.13 4.13 0 0 1-4.1 4.1h-2.05v-8.2Z"/><path fill="#6d9fed" d="m116.592 105.412-2.3-1.189a15 15 0 0 0-1.7-4.08l.8-2.46a17.3 17.3 0 0 0-3.116-3.116l-2.46.8a15 15 0 0 0-4.08-1.7l-1.189-2.3a14.8 14.8 0 0 0-4.387 0l-1.189 2.3a15 15 0 0 0-4.08 1.7l-2.46-.8a17.3 17.3 0 0 0-3.116 3.116l.8 2.46a15 15 0 0 0-1.7 4.08l-2.3 1.189a14.8 14.8 0 0 0 0 4.387l2.3 1.189a15 15 0 0 0 1.7 4.08l-.8 2.46a17.3 17.3 0 0 0 3.116 3.116l2.46-.8a15 15 0 0 0 4.08 1.7l1.189 2.3a14.8 14.8 0 0 0 4.387 0l1.189-2.3a15 15 0 0 0 4.08-1.7l2.46.8a17.3 17.3 0 0 0 3.116-3.116l-.8-2.46a15 15 0 0 0 1.7-4.08l2.3-1.189a14.8 14.8 0 0 0 0-4.387m-16.238 7.668a5.474 5.474 0 1 1 5.475-5.475 5.486 5.486 0 0 1-5.475 5.475"/><path d="M44.449 49.773h.082l10.25-.451-.185-4.1-4.1.185L64.745 33.7l-2.6-3.178-14.252 11.706.964-3.977-3.977-.964-2.44 9.964a2.065 2.065 0 0 0 1.989 2.542Zm22.141 50.965-22.879-9.021-1.5 3.813 22.879 9.02-3.953 1.087 1.087 3.957 9.882-2.706a2.06 2.06 0 0 0 1.374-1.23 1.99 1.99 0 0 0-.164-1.825L67.945 95.1l-3.485 2.153 2.153 3.485Zm28.701-45.266-4.674 9.123 3.65 1.865 1.866-3.649 3.134 18.185 4.039-.7-3.139-18.182 2.973 2.809 2.809-2.973-7.462-7.032a2.07 2.07 0 0 0-1.763-.533 2.02 2.02 0 0 0-1.476 1.087ZM86.004 17.4a8.2 8.2 0 1 0-8.2-8.2 8.2 8.2 0 0 0 8.2 8.2m0-12.3a4.1 4.1 0 1 1-4.1 4.1 4.11 4.11 0 0 1 4.1-4.1M32.701 66.603a8.2 8.2 0 1 0-8.2 8.2 8.2 8.2 0 0 0 8.2-8.2m-12.3 0a4.1 4.1 0 1 1 4.1 4.1 4.11 4.11 0 0 1-4.1-4.1m55.353-20.501h20.5a2.056 2.056 0 0 0 2.05-2.05V27.897a8.46 8.46 0 0 0-8.446-8.446H82.17a8.46 8.46 0 0 0-8.446 8.446v16.154a2.056 2.056 0 0 0 2.05 2.05Zm2.05-18.205a4.35 4.35 0 0 1 4.346-4.346h7.688a4.35 4.35 0 0 1 4.346 4.346v14.1h-16.4v-14.1ZM12.2 85.3v14.1a2.056 2.056 0 0 0 2.05 2.05h20.5a2.056 2.056 0 0 0 2.05-2.05V85.3a8.46 8.46 0 0 0-8.445-8.446h-7.688a8.46 8.46 0 0 0-8.446 8.446Zm4.1 0a4.35 4.35 0 0 1 4.346-4.346h7.688A4.35 4.35 0 0 1 32.68 85.3v12.054H16.3Zm88.074 5.126a2.02 2.02 0 0 0-1.558-1.087 16.6 16.6 0 0 0-4.941 0 2.06 2.06 0 0 0-1.558 1.087l-.779 1.5a16 16 0 0 0-2.891 1.189l-1.62-.513a2.04 2.04 0 0 0-1.866.328 18.3 18.3 0 0 0-3.506 3.506 2.04 2.04 0 0 0-.328 1.866l.513 1.62a14.8 14.8 0 0 0-1.189 2.891l-1.5.779a2.02 2.02 0 0 0-1.087 1.558 18 18 0 0 0-.185 2.481 19 19 0 0 0 .185 2.481 2.06 2.06 0 0 0 1.087 1.558l1.5.779a16 16 0 0 0 1.189 2.891l-.513 1.62a2.04 2.04 0 0 0 .328 1.866 18.3 18.3 0 0 0 3.506 3.506 2.04 2.04 0 0 0 1.866.328l1.62-.513a14.8 14.8 0 0 0 2.891 1.189l.779 1.5a2.02 2.02 0 0 0 1.558 1.087 18 18 0 0 0 2.481.185 19 19 0 0 0 2.481-.185 2.06 2.06 0 0 0 1.557-1.096l.779-1.5a16 16 0 0 0 2.891-1.189l1.62.513a2.04 2.04 0 0 0 1.866-.328 18.3 18.3 0 0 0 3.506-3.506 2.04 2.04 0 0 0 .328-1.866l-.513-1.62a14.8 14.8 0 0 0 1.189-2.891l1.5-.779a2.02 2.02 0 0 0 1.087-1.558 18 18 0 0 0 .185-2.481 19 19 0 0 0-.185-2.481 2.06 2.06 0 0 0-1.087-1.558l-1.5-.779a16 16 0 0 0-1.189-2.891l.513-1.62a2.04 2.04 0 0 0-.328-1.866 18.3 18.3 0 0 0-3.506-3.506 2.04 2.04 0 0 0-1.866-.328l-1.62.513a14.8 14.8 0 0 0-2.891-1.189l-.779-1.5Zm4.059 6.888 1.415-.451a14 14 0 0 1 1.246 1.251l-.451 1.415a2.01 2.01 0 0 0 .205 1.681 12 12 0 0 1 1.435 3.485 2.08 2.08 0 0 0 1.046 1.333l1.333.677c.021.308.041.595.041.882a6.5 6.5 0 0 1-.041.882l-1.333.677a2.02 2.02 0 0 0-1.046 1.333 12.6 12.6 0 0 1-1.435 3.485 2.03 2.03 0 0 0-.205 1.681l.451 1.41a14 14 0 0 1-1.251 1.251l-1.41-.451a2.01 2.01 0 0 0-1.681.205 12 12 0 0 1-3.485 1.435 2.08 2.08 0 0 0-1.333 1.046l-.677 1.333a13 13 0 0 1-1.763 0l-.677-1.333a2.02 2.02 0 0 0-1.333-1.046 12.6 12.6 0 0 1-3.485-1.435 2.03 2.03 0 0 0-1.681-.205l-1.415.451a14 14 0 0 1-1.249-1.251l.451-1.415a2.01 2.01 0 0 0-.205-1.681 12 12 0 0 1-1.435-3.485 2.08 2.08 0 0 0-1.046-1.333l-1.333-.677c-.02-.308-.041-.595-.041-.882a6.5 6.5 0 0 1 .041-.882l1.333-.677a2.02 2.02 0 0 0 1.046-1.333 12.6 12.6 0 0 1 1.435-3.485 2.03 2.03 0 0 0 .205-1.681l-.451-1.415a14 14 0 0 1 1.251-1.251l1.415.451a2.01 2.01 0 0 0 1.681-.205 12 12 0 0 1 3.485-1.435 2.08 2.08 0 0 0 1.333-1.046l.677-1.333a13 13 0 0 1 1.763 0l.677 1.333a2.02 2.02 0 0 0 1.333 1.046 12.6 12.6 0 0 1 3.485 1.435 2.03 2.03 0 0 0 1.679.21"/><path d="M92.831 107.606a7.524 7.524 0 1 0 7.524-7.524 7.54 7.54 0 0 0-7.524 7.524m10.927 0a3.424 3.424 0 1 1-3.424-3.424 3.43 3.43 0 0 1 3.424 3.424M10.15 72.753h2.05a2.056 2.056 0 0 0 2.05-2.05v-8.2a10.251 10.251 0 0 1 20.5 0v8.2a2.056 2.056 0 0 0 2.05 2.05h2.05a6.15 6.15 0 1 0 0-12.3h-.144a14.355 14.355 0 0 0-28.415 0h-.141a6.15 6.15 0 1 0 0 12.3m28.7-8.2a2.05 2.05 0 0 1 0 4.1Zm-28.7 0v4.1a2.05 2.05 0 0 1 0-4.1"/></g></svg>