<svg xmlns="http://www.w3.org/2000/svg" width="83.079" height="83.078" viewBox="0 0 83.079 83.078"><g transform="translate(1.34 1.34)"><path fill="#ff826e" d="m50.919 0 5.36 16.08h-16.08V0ZM29.48 0l-5.36 16.08H8.04L16.08 0Z"/><path fill="#ffeaa7" d="m64.319 0 8.04 16.08h-16.08L50.919 0ZM40.2 0v16.08H24.12L29.48 0Z"/><path fill="#fcd770" d="M72.079 16.643a8.673 8.673 0 0 1-15.517 0l-.283-.563h16.08ZM40.2 16.08l-.281.563a8.673 8.673 0 0 1-15.517 0l-.282-.563Z"/><path fill="#fc6e51" d="m56.279 16.08-.281.563a8.679 8.679 0 0 1-15.517 0l-.282-.563Zm-48.239 0h16.08l-.281.563a8.673 8.673 0 0 1-15.517 0Z"/><path fill="#e6e9ed" d="M60.299 32.16v1.7a2.37 2.37 0 0 1-.7 1.675l-1.286 1.286a2.357 2.357 0 0 0 .925 3.913l2.4.8v2.68a2.68 2.68 0 0 0 2.68 2.68h1.34v5.36H14.74v-5.36h1.34a2.68 2.68 0 0 0 2.68-2.68V41.54l2.4-.8a2.357 2.357 0 0 0 .925-3.913l-1.286-1.286a2.37 2.37 0 0 1-.7-1.675v-1.7a2.69 2.69 0 0 0-2.68-2.68h1.34a4.02 4.02 0 1 0 0-8.04H16.08a8.7 8.7 0 0 0 7.758-4.8l.282-.566.281.563a8.679 8.679 0 0 0 15.517 0l.282-.563.281.563a8.673 8.673 0 0 0 15.517 0l.281-.563.281.563a8.69 8.69 0 0 0 7.758 4.8H61.64a4.02 4.02 0 0 0 0 8.04h1.34a2.69 2.69 0 0 0-2.68 2.68Z"/><path fill="#656d78" d="M80.399 34.532a13.08 13.08 0 0 1-5.829 10.894L72.359 46.9v-5.36l1.514-1.514a3.88 3.88 0 0 0 1.166-2.786v-.054a3.83 3.83 0 0 0-2.2-3.457l-.482-.228a4.015 4.015 0 0 0-4.02-4.02h-6.7a4.02 4.02 0 1 1 0-8.04h5.668a13.084 13.084 0 0 1 13.094 13.091"/><path fill="#b27946" d="M18.76 21.44a4.02 4.02 0 0 1 0 8.04h-6.7a4.015 4.015 0 0 0-4.02 4.02l-.482.228a3.83 3.83 0 0 0-2.2 3.457v.055a3.88 3.88 0 0 0 1.166 2.787L8.04 41.54v5.36l-2.211-1.474a13.091 13.091 0 0 1 7.263-23.986z"/><path fill="#4fc1e9" d="M58.959 73.699V70.71a21.2 21.2 0 0 1 3.672-11.939 22 22 0 0 1 3.028-3.578l6.7-4.274a11.76 11.76 0 0 1 8.04 11.149 18.323 18.323 0 0 1-18.331 18.331h-8.469v-6.164Z"/><path fill="#b4dd7f" d="M10.546 68.084a9.31 9.31 0 0 1-7.383 4.261l-.013.013A18.3 18.3 0 0 1 0 62.068a11.76 11.76 0 0 1 8.04-11.149 21.4 21.4 0 0 1 6.7 4.275l3.028 3.578A21.2 21.2 0 0 1 21.44 70.71v2.989l-1.394-.134a13.33 13.33 0 0 1-9.5-5.481"/><path fill="#fcd770" d="M45.559 64.319v2.68h-10.72v-2.68a2.69 2.69 0 0 1 2.68-2.68h5.36a2.69 2.69 0 0 1 2.68 2.68"/><path fill="#ffeaa7" d="m48.239 75.441.013.013a5.86 5.86 0 0 0-2.696 4.945H34.839a5.86 5.86 0 0 0-2.693-4.945l.01-.013v-5.762a2.69 2.69 0 0 1 2.683-2.68h10.717a2.69 2.69 0 0 1 2.68 2.68Z"/><path fill="#f0d0b4" d="M34.84 80.398H18.331a18.35 18.35 0 0 1-15.182-8.039l.013-.013a9.31 9.31 0 0 0 7.383-4.261 13.33 13.33 0 0 0 9.5 5.481l1.394.134 8.067.8a5.75 5.75 0 0 1 2.64.951 5.86 5.86 0 0 1 2.694 4.947m18.759-6.163v6.164h-8.04a5.86 5.86 0 0 1 2.693-4.945 5.75 5.75 0 0 1 2.64-.951Zm12.06-21.975V46.9h-1.34a2.68 2.68 0 0 1-2.68-2.68v-2.68l-2.4-.8a2.357 2.357 0 0 1-.925-3.913l1.286-1.286a2.37 2.37 0 0 0 .7-1.675v-1.7a2.69 2.69 0 0 1 2.679-2.686h5.36a4.015 4.015 0 0 1 4.02 4.02l.482.228a3.83 3.83 0 0 1 2.2 3.457v.054a3.88 3.88 0 0 1-1.166 2.787l-1.516 1.514v9.38l-6.7 4.275ZM14.74 46.9v8.294a21.4 21.4 0 0 0-6.7-4.275V41.54l-1.514-1.514a3.88 3.88 0 0 1-1.166-2.788v-.058a3.83 3.83 0 0 1 2.2-3.457l.482-.228a4.015 4.015 0 0 1 4.018-4.015h5.36a2.69 2.69 0 0 1 2.68 2.68v1.7a2.37 2.37 0 0 0 .7 1.675l1.286 1.286a2.357 2.357 0 0 1-.925 3.913l-2.4.8v2.68a2.68 2.68 0 0 1-2.68 2.68Z"/><circle cx="10.72" cy="10.72" r="10.72" fill="#69d6f4" transform="translate(29.48 25.46)"/></g><path d="M75.039 51.335v-2.378l1.612-1.076a14.422 14.422 0 0 0-4.638-26.029 10.05 10.05 0 0 0 2.6-3.268l.587-1.164L66.487 0h-49.9L7.882 17.42l.583 1.164a10 10 0 0 0 2.6 3.268 14.422 14.422 0 0 0-4.637 26.029l1.612 1.076v2.377A13.08 13.08 0 0 0 0 63.413a19.69 19.69 0 0 0 19.666 19.666h43.747a19.69 19.69 0 0 0 19.666-19.666 13.08 13.08 0 0 0-8.04-12.078M52.1 74.511a7.4 7.4 0 0 0-1.181.23v-3.722a4.01 4.01 0 0 0-2.68-3.773v-1.587a4.025 4.025 0 0 0-4.02-4.02h-5.36a4.025 4.025 0 0 0-4.02 4.02v1.587a4.01 4.01 0 0 0-2.68 3.773v3.724a7 7 0 0 0-1.181-.23l-6.859-.686v-1.775a22.55 22.55 0 0 0-6.7-16.09v-1.023h48.24v1.021a22.55 22.55 0 0 0-6.7 16.09v1.774ZM45.559 67h-8.04v-1.34a1.34 1.34 0 0 1 1.34-1.34h5.36a1.34 1.34 0 0 1 1.34 1.34ZM10.327 41.932s-.8-.8-1.525-1.516a2.6 2.6 0 0 1-.762-1.891 2.49 2.49 0 0 1 1.422-2.243l1.258-.592v-.851a2.683 2.683 0 0 1 2.68-2.68h5.36A1.34 1.34 0 0 1 20.1 33.5v1.7a3.67 3.67 0 0 0 1.085 2.618l1.3 1.3a1 1 0 0 1 .3.722 1.025 1.025 0 0 1-.7.97l-3.325 1.105v3.646a1.34 1.34 0 0 1-1.34 1.34H13.4v2.68h1.34v4.114a23 23 0 0 0-4.02-2.3v-9.072Zm12.755-19.583a9.9 9.9 0 0 0 2.377-2.3 9.977 9.977 0 0 0 16.08 0 9.977 9.977 0 0 0 16.08 0 10 10 0 0 0 2.381 2.3 5.346 5.346 0 0 0 .766 9.317A3.96 3.96 0 0 0 60.3 33.5v1.7a1 1 0 0 1-.3.724l-1.3 1.3a3.7 3.7 0 0 0 1.447 6.128l1.489.5v1.714a4.025 4.025 0 0 0 4.02 4.02v2.679H17.42v-2.684a4.025 4.025 0 0 0 4.02-4.02v-1.714l1.489-.5a3.7 3.7 0 0 0 1.446-6.129l-1.3-1.3a1.02 1.02 0 0 1-.3-.724V33.5a3.96 3.96 0 0 0-.464-1.833 5.346 5.346 0 0 0 .766-9.317ZM60.01 18.76h11.3a7.294 7.294 0 0 1-11.3 0m-17.13-2.68V2.68h8.415l4.466 13.4Zm12.349 2.68a7.294 7.294 0 0 1-11.3 0ZM40.2 16.08H27.319l4.465-13.4H40.2Zm-1.051 2.68a7.294 7.294 0 0 1-11.3 0ZM17.42 21.44a7.28 7.28 0 0 1-5.649-2.68h11.3a7.28 7.28 0 0 1-5.651 2.68m50.919 28.14h1.34V46.9h-4.02a1.34 1.34 0 0 1-1.34-1.34v-3.645L61 40.808a1.023 1.023 0 0 1-.4-1.694l1.3-1.3a3.67 3.67 0 0 0 1.079-2.614v-1.7a1.34 1.34 0 0 1 1.34-1.34h5.36a2.683 2.683 0 0 1 2.68 2.68v.851l1.257.591a2.51 2.51 0 0 1 1.423 2.294 2.57 2.57 0 0 1-.761 1.84c-.729.72-1.526 1.517-1.526 1.517l-.393.393v9.065a23 23 0 0 0-4.02 2.3Zm.307-25.46a11.753 11.753 0 0 1 6.519 21.532l-.126.084v-2.3c.3-.3.72-.717 1.122-1.114a5.26 5.26 0 0 0 1.558-3.8 5.18 5.18 0 0 0-2.752-4.564 5.37 5.37 0 0 0-5.288-4.482h-6.7a2.68 2.68 0 1 1 0-5.36Zm2.885-8.04H58.585l-4.467-13.4h10.713ZM18.248 2.68h10.713l-4.467 13.4H11.548ZM7.914 45.652a11.753 11.753 0 0 1 6.519-21.532H20.1a2.68 2.68 0 1 1 0 5.36h-6.7a5.37 5.37 0 0 0-5.288 4.482 5.26 5.26 0 0 0-1.192 8.361c.4.4.824.816 1.12 1.112v2.3Zm1.431 8.043A19.88 19.88 0 0 1 21.44 72.052v1.506a11.95 11.95 0 0 1-10.72-11.919H8.04a14.66 14.66 0 0 0 2.205 7.761A8.06 8.06 0 0 1 5.2 72.264a16.86 16.86 0 0 1-2.52-8.851 10.41 10.41 0 0 1 6.665-9.719ZM33.5 80.4H19.666A16.93 16.93 0 0 1 6.94 74.626a10.75 10.75 0 0 0 4.954-3.061 14.63 14.63 0 0 0 9.352 4.667l9.466.946a4.57 4.57 0 0 1 3.93 3.22Zm3.9 0a7.2 7.2 0 0 0-2.555-4.283v-5.1a1.34 1.34 0 0 1 1.34-1.34H46.9a1.34 1.34 0 0 1 1.34 1.34v5.1a7.23 7.23 0 0 0-2.556 4.283Zm11.041 0a4.57 4.57 0 0 1 3.93-3.22l1.233-.123V80.4h-5.168Zm14.977 0h-7.139v-3.613l5.554-.555a14.62 14.62 0 0 0 13.206-14.593h-2.68a11.95 11.95 0 0 1-10.72 11.919v-1.506A19.88 19.88 0 0 1 73.734 53.7a10.4 10.4 0 0 1 6.666 9.713A17.006 17.006 0 0 1 63.413 80.4Z"/><path d="M41.54 49.58a12.06 12.06 0 1 0-12.06-12.06 12.073 12.073 0 0 0 12.06 12.06m2.129-16.08a15 15 0 0 1 .485 2.68h-5.227a15 15 0 0 1 .485-2.68Zm-3.225-2.68a15 15 0 0 1 1.1-1.868 15 15 0 0 1 1.1 1.868Zm3.71 8.04a15 15 0 0 1-.485 2.68h-4.257a15 15 0 0 1-.485-2.68Zm-1.518 5.36a15 15 0 0 1-1.1 1.869 15 15 0 0 1-1.1-1.869Zm2.952 0h2.5a9.4 9.4 0 0 1-3.578 2.188 18 18 0 0 0 1.078-2.188m.847-2.68a17.5 17.5 0 0 0 .414-2.68h3.964a9.3 9.3 0 0 1-.811 2.68Zm.414-5.36a17.5 17.5 0 0 0-.414-2.68h3.567a9.3 9.3 0 0 1 .811 2.68Zm-1.261-5.36a18 18 0 0 0-1.073-2.188 9.4 9.4 0 0 1 3.578 2.188Zm-8.1 0h-2.5a9.4 9.4 0 0 1 3.578-2.188 18 18 0 0 0-1.074 2.188Zm-.847 2.68a17.5 17.5 0 0 0-.414 2.68h-3.96a9.3 9.3 0 0 1 .811-2.68Zm-.414 5.36a17.5 17.5 0 0 0 .414 2.68H33.08a9.3 9.3 0 0 1-.811-2.68Zm1.261 5.36a18 18 0 0 0 1.073 2.188 9.4 9.4 0 0 1-3.578-2.188Z"/></svg>