<svg xmlns="http://www.w3.org/2000/svg" width="89.333" height="89.333" viewBox="0 0 89.333 89.333"><g transform="translate(-1 -1)"><g transform="translate(2.441 2.441)"><path fill="#e6e9ed" d="m69.363 69.363 6.109 6.109a37.3 37.3 0 0 1-26.483 10.98v-8.646a28.73 28.73 0 0 0 20.374-8.443"/><path fill="#ff826e" d="M48.989 77.806v8.645a37.3 37.3 0 0 1-16.844-3.991l-.446-1.771a17 17 0 0 0 2.666-6.858h.014a28.7 28.7 0 0 0 14.61 3.977Z"/><path fill="#69d6f4" d="M77.806 48.989h8.645a37.3 37.3 0 0 1-10.979 26.483l-6.109-6.109a28.73 28.73 0 0 0 8.443-20.374"/><path fill="#fcd770" d="M86.452 48.986h-8.646a28.73 28.73 0 0 0-8.443-20.371l6.109-6.109a37.3 37.3 0 0 1 10.98 26.48"/><path fill="#b4dd7f" d="M48.989 20.172a28.8 28.8 0 0 0-11.9 2.565 4.8 4.8 0 0 0-.648-1.037 28.3 28.3 0 0 0 1.023-7.521v-.852a37.53 37.53 0 0 1 38.01 9.178l-6.109 6.109a28.73 28.73 0 0 0-20.376-8.442"/><path fill="#656d78" d="M21.613 11.527h-7.2a5.76 5.76 0 0 0-5.768 5.763v2.882h-1.44a4.3 4.3 0 0 0-3.3 1.527 28.3 28.3 0 0 1-1.023-7.521A14.17 14.17 0 0 1 17.06 0h17.522a2.89 2.89 0 0 1 2.882 2.882v11.3A28.3 28.3 0 0 1 36.44 21.7a4.3 4.3 0 0 0-3.3-1.527h-1.441V17.29a2.89 2.89 0 0 0-2.882-2.882h-1.44a7.22 7.22 0 0 1-5.764-2.881"/><path fill="#ff826e" d="m22.968 44.912-1.351 4.077h-2.886l-1.354-4.077 2.795-1.686Z"/><path fill="#fcd770" d="M31.699 51.871a2.89 2.89 0 0 0-2.882 2.886v-2.886a2.9 2.9 0 0 0-2.882-2.882 2.89 2.89 0 0 0-2.882 2.882 2.9 2.9 0 0 0-2.881-2.882h1.441l1.359-4.077 4.4 2.636 1.239-6.181a20.18 20.18 0 0 1 11.733 18.342v.807h-5.763v-5.759a2.9 2.9 0 0 0-2.882-2.882Zm-20.172-8.645v18.612a1.56 1.56 0 0 1-3.1.259l-.412-2.532a5.74 5.74 0 0 0-1.96-3.444 5.68 5.68 0 0 0-3.72-1.368A2.3 2.3 0 0 0 .39 55.805H.375a20.26 20.26 0 0 1 12.233-14.827 2.87 2.87 0 0 0-1.081 2.248"/><path fill="#ffc729" d="m20.172 43.226-2.8 1.686-.086.043v-1.729a2.9 2.9 0 0 0-.572-1.729Zm8.443-1.873v.014l-1.243 6.177-4.4-2.632-2.8-1.686 5.763-2.882a21 21 0 0 1 2.68 1.009"/><path fill="#ff826e" d="M46.107 43.226V31.699a2.89 2.89 0 0 1 2.882-2.882h11.527a2.83 2.83 0 0 1 2.147.98 2.8 2.8 0 0 1 .735 1.9v11.529a2.89 2.89 0 0 1-2.882 2.882H48.989a2.89 2.89 0 0 1-2.882-2.882m0 23.054V54.753a2.89 2.89 0 0 1 2.882-2.882h11.527a2.83 2.83 0 0 1 2.147.98 2.8 2.8 0 0 1 .735 1.9V66.28a2.89 2.89 0 0 1-2.882 2.882H48.989a2.89 2.89 0 0 1-2.882-2.882"/><path fill="#b4dd7f" d="m32.145 82.46.994 3.991H7.204l1.441-5.763h23.054Z"/><path fill="#f0d0b4" d="M28.817 54.753a2.89 2.89 0 0 1 2.883-2.882 2.9 2.9 0 0 1 2.882 2.882v16.411a16.5 16.5 0 0 1-.216 2.666 17 17 0 0 1-2.666 6.858H8.645l-2.766-3.7a9.9 9.9 0 0 1-1.916-4.625l-.375-2.579a41.7 41.7 0 0 0-2.565-9.582l-.85-2.132A2.4 2.4 0 0 1 0 57.173v-.086a2.3 2.3 0 0 1 .389-1.282 2.3 2.3 0 0 1 1.945-1.052 5.68 5.68 0 0 1 3.717 1.369 5.74 5.74 0 0 1 1.96 3.444l.418 2.536a1.56 1.56 0 0 0 3.1-.259V43.226a2.87 2.87 0 0 1 1.081-2.248 2.9 2.9 0 0 1 1.8-.634 2.82 2.82 0 0 1 2.032.85c.1.1.187.2.274.3a2.9 2.9 0 0 1 .576 1.729v8.645a2.89 2.89 0 0 1 2.882-2.882 2.9 2.9 0 0 1 2.882 2.882 2.89 2.89 0 0 1 2.882-2.882 2.9 2.9 0 0 1 2.882 2.882Zm8.271-32.016a4.2 4.2 0 0 1 .375 1.758 4.33 4.33 0 0 1-4.323 4.323h-1.441v-8.646h1.441a4.3 4.3 0 0 1 3.3 1.527 4.8 4.8 0 0 1 .648 1.037Z"/><path fill="#f0d0b4" d="M23.054 37.462a8.3 8.3 0 0 0 1.7-.173l1.182 3.055-5.763 2.882-3.458-1.729c-.086-.1-.173-.2-.274-.3a2.82 2.82 0 0 0-2.032-.853l1.182-3.055a8.3 8.3 0 0 0 1.7.173Z"/><path fill="#f0d0b4" d="M31.699 20.172v8.645a8.63 8.63 0 0 1-6.945 8.472 8.3 8.3 0 0 1-1.7.173H17.29a8.3 8.3 0 0 1-1.7-.173 8.63 8.63 0 0 1-6.945-8.472V17.29a5.76 5.76 0 0 1 5.763-5.763h7.2a7.22 7.22 0 0 0 5.763 2.882h1.441a2.89 2.89 0 0 1 2.882 2.882Z"/><path fill="#f0d0b4" d="M8.645 20.172v8.645h-1.44a4.323 4.323 0 1 1 0-8.645Z"/><path fill="#ff826e" d="M14.409 25.935h11.527a5.764 5.764 0 1 1-11.527 0"/></g><g transform="translate(1 1)"><ellipse cx="1.5" cy="1" rx="1.5" ry="1" transform="translate(14.666 20.667)"/><ellipse cx="1.5" cy="1" rx="1.5" ry="1" transform="translate(25.666 20.667)"/><path d="M28.818 27.376v-1.441H14.409v1.441a7.205 7.205 0 1 0 14.409 0m-11.28 1.441h8.151a4.323 4.323 0 0 1-8.151 0"/><path d="M50.43 11.527a39 39 0 0 0-10.086 1.349V4.323A4.33 4.33 0 0 0 36.021 0H18.5A15.634 15.634 0 0 0 2.882 15.616a29.5 29.5 0 0 0 .918 7.229A5.744 5.744 0 0 0 8.645 31.7h.115a10.1 10.1 0 0 0 6.367 7.968l-.318.818a4.3 4.3 0 0 0-1.477.683A21.57 21.57 0 0 0 .447 56.811 3.9 3.9 0 0 0 0 58.61a3.8 3.8 0 0 0 .275 1.432l.854 2.135A40.3 40.3 0 0 1 3.6 71.426l.369 2.583A11.55 11.55 0 0 0 6.161 79.3l2.36 3.148L6.8 89.333h29.626l-.725-2.9a38.5 38.5 0 0 0 14.728 2.9 38.903 38.903 0 0 0 0-77.806Zm-18.9 40.661a4.3 4.3 0 0 0-1.442-2.215l1-5.017a18.63 18.63 0 0 1 9.24 15.558h-2.866v-4.322a4.306 4.306 0 0 0-5.931-4Zm-4.05-8.844c.313.1.628.2.932.321l-.606 3.035-3.2-1.919Zm-6.271 5.645-.667-2 1.069-.643 1.069.641-.667 2Zm4-.481 1.066.64a4.3 4.3 0 0 0-1.532.756Zm12.249 24.1V63.4h5.763v-2.25a21.51 21.51 0 0 0-14.744-20.509l-.379-.974a10.1 10.1 0 0 0 6.367-7.967h.115a5.77 5.77 0 0 0 5.763-5.763 6 6 0 0 0-.089-.889 27.365 27.365 0 1 1-2.9 49.426 19 19 0 0 0 .1-1.86Zm-2.877-49.554a2.882 2.882 0 0 1 0 5.763Zm17.29 57.561a30.1 30.1 0 0 0 18.877-7.83l4.1 4.1a35.88 35.88 0 0 1-22.974 9.531Zm20.914-9.866a30.1 30.1 0 0 0 7.83-18.878h5.8a35.88 35.88 0 0 1-9.531 22.976Zm7.83-21.76a30.1 30.1 0 0 0-7.83-18.878l4.1-4.1a35.88 35.88 0 0 1 9.531 22.976Zm-5.768-25.013-4.1 4.1a30.15 30.15 0 0 0-31.158-5.9 29.5 29.5 0 0 0 .745-6.307 35.85 35.85 0 0 1 34.511 8.106ZM5.763 25.935a2.885 2.885 0 0 1 2.882-2.882v5.763a2.885 2.885 0 0 1-2.882-2.881m5.763 4.323V18.731a4.32 4.32 0 0 1 4.174-4.308 11.14 11.14 0 0 0 3.671 4.066l1.6-2.4a8.25 8.25 0 0 1-3.68-6.877v-.567h-2.882v.569a11.2 11.2 0 0 0 .281 2.431 7.2 7.2 0 0 0-6.044 7.086v1.441a5.7 5.7 0 0 0-2.383.53 26.7 26.7 0 0 1-.5-5.086A12.75 12.75 0 0 1 18.5 2.882h17.521a1.443 1.443 0 0 1 1.441 1.441v11.293a26.7 26.7 0 0 1-.5 5.086 5.7 5.7 0 0 0-2.383-.53v-1.441a4.33 4.33 0 0 0-4.323-4.323h-1.439a5.77 5.77 0 0 1-5.763-5.763h-2.882a8.654 8.654 0 0 0 8.645 8.645h1.441a1.443 1.443 0 0 1 1.442 1.441v11.527a7.21 7.21 0 0 1-7.2 7.2h-5.769a7.21 7.21 0 0 1-7.204-7.2Zm7.2 10.086h5.763c.256 0 .509-.02.759-.039l.3.778-3.944 1.973-2.582-1.291a4.3 4.3 0 0 0-1.258-.95l.2-.51c.258.019.511.039.767.039Zm-7.2 5.034v17.9c0 .124-.219.141-.238.022l-.422-2.536a7.16 7.16 0 0 0-6.848-5.99 18.64 18.64 0 0 1 7.509-9.396ZM6.824 73.6l-.369-2.585a43.2 43.2 0 0 0-2.648-9.91l-.855-2.135a1.1 1.1 0 0 1-.071-.445.89.89 0 0 1 .89-.89 4.3 4.3 0 0 1 4.253 3.6l.422 2.536a3 3 0 0 0 5.961-.494v-18.61a1.441 1.441 0 0 1 2.882 0V63.4h2.882V53.312a1.441 1.441 0 0 1 2.882 0V63.4h2.882V53.312a1.441 1.441 0 0 1 2.882 0V63.4H31.7v-7.2a1.441 1.441 0 0 1 2.882 0v16.412a15.65 15.65 0 0 1-2.245 8.076H10.806l-2.34-3.119A8.7 8.7 0 0 1 6.824 73.6m3.667 12.848.72-2.882h20.8l.72 2.882Zm24.193-4.085a18.6 18.6 0 0 0 2.127-4.912 30.2 30.2 0 0 0 12.178 3.189v5.771a35.55 35.55 0 0 1-14.175-3.524Z"/><path d="m52.889 36.443-2.037 2.037 5.5 5.5 9.642-12.855-2.308-1.732-7.648 10.2Z"/><path d="M50.43 48.989h11.526a4.33 4.33 0 0 0 4.323-4.323v-5.763h-2.882v5.763a1.443 1.443 0 0 1-1.441 1.441H50.43a1.443 1.443 0 0 1-1.441-1.441V33.14a1.443 1.443 0 0 1 1.441-1.441h7.2v-2.882h-7.2a4.33 4.33 0 0 0-4.323 4.323v11.526a4.33 4.33 0 0 0 4.323 4.323m5.608 13.658-3.149-3.15-2.037 2.037 5.5 5.5 9.642-12.855-2.308-1.732Z"/><path d="M61.956 72.043a4.33 4.33 0 0 0 4.323-4.323v-5.763h-2.882v5.763a1.44 1.44 0 0 1-1.441 1.441H50.43a1.44 1.44 0 0 1-1.441-1.441V56.194a1.44 1.44 0 0 1 1.441-1.441h7.2v-2.882h-7.2a4.33 4.33 0 0 0-4.323 4.323V67.72a4.33 4.33 0 0 0 4.323 4.323Z"/></g></g></svg>