<svg xmlns="http://www.w3.org/2000/svg" width="48.013" height="48.013" viewBox="0 0 48.013 48.013"><g transform="translate(0)"><path d="M35.2,122.407v-4a12,12,0,0,1,12-12h0a12,12,0,0,1,12,12v4h11.2v-3.2A23.206,23.206,0,0,0,47.206,96h0A23.206,23.206,0,0,0,24,119.206v3.2Z" transform="translate(-23.2 -87.998)" fill="#269dc2"/><path d="M58.628,194.057l9.015,6.01a11.994,11.994,0,0,1,.815-1.38l-8.941-5.961Q59.05,193.375,58.628,194.057Z" transform="translate(-54.364 -175.049)" fill="#008cb7"/><path d="M364.041,192.726l-8.941,5.961a11.988,11.988,0,0,1,.815,1.38l9.015-6.01Q364.507,193.376,364.041,192.726Z" transform="translate(-321.18 -175.049)" fill="#008cb7"/><rect width="4" height="9" transform="translate(8.359 37)" fill="#008cb7"/><path d="M32.314,393.6l-1.132-1.132A1.6,1.6,0,0,0,30.05,392H28.125a1.6,1.6,0,0,0-1.588,1.4l-.4,3.2a1.6,1.6,0,0,0,1.588,1.8h1.388l-.442.885A1.6,1.6,0,0,0,30.1,401.6h.611l1.6-3.2h1.6v-4.8Z" transform="translate(-25.112 -354.39)" fill="#ffcbb1"/><rect width="4" height="8" transform="translate(43.359 39)" fill="#008cb7"/><path d="M384.314,395.2l-1.6-3.2H382.1a1.6,1.6,0,0,0-1.431,2.316l.442.885h-1.388a1.6,1.6,0,0,0-1.588,1.8l.4,3.2a1.6,1.6,0,0,0,1.588,1.4h1.925a1.6,1.6,0,0,0,1.132-.469L384.314,400h1.6v-4.8Z" transform="translate(-341.903 -354.39)" fill="#ffcbb1"/><path d="M181.164,237.2l-1.385-.8A8.835,8.835,0,0,1,187.4,232a8.744,8.744,0,0,1,3.521.733l-.641,1.467a7.152,7.152,0,0,0-2.88-.6A7.23,7.23,0,0,0,181.164,237.2Z" transform="translate(-163.396 -210.394)" fill="#62b8d3"/><path d="M169.6,296.244H168a8.8,8.8,0,0,1,.4-2.64l1.527.479A7.2,7.2,0,0,0,169.6,296.244Z" transform="translate(-152.796 -265.836)" fill="#62b8d3"/><path d="M184,35.2h-4.8l-2.4,3.2-2.4-3.2h-4.8a1.6,1.6,0,0,1-1.6-1.6v-8a1.6,1.6,0,0,1,1.6-1.6H184a1.6,1.6,0,0,1,1.6,1.6v8A1.6,1.6,0,0,1,184,35.2Z" transform="translate(-152.796 -23.2)" fill="#abc79b"/><path d="M221.309,57.311a.8.8,0,0,1-.566-.234l-2.4-2.4,1.132-1.132,1.835,1.835,5.036-5.036,1.132,1.132-5.6,5.6A.8.8,0,0,1,221.309,57.311Z" transform="translate(-198.103 -46.908)" fill="#ccdcc2"/><path d="M203.8,74.111a2.4,2.4,0,0,0-4.182-2.359L186.689,94.663a3.184,3.184,0,0,1-2.738,1.627,8,8,0,1,0,6.94,3.913,3.178,3.178,0,0,1-.02-3.18Z" transform="translate(-160.004 -65.076)" fill="#9cbd8a"/><path d="M243.2,362.212V361.6a1.6,1.6,0,0,0-3.2,0v.611a1.6,1.6,0,0,0,.885,1.431l.716.358.716-.358A1.6,1.6,0,0,0,243.2,362.212Z" transform="translate(-217.594 -325.591)" fill="#ffcbb1"/><path d="M229.517,401.158,227.2,400l-2.316,1.158A1.6,1.6,0,0,0,224,402.59V404.8h6.4V402.59a1.6,1.6,0,0,0-.885-1.431Z" transform="translate(-203.194 -361.59)" fill="#ffcbb1"/><path d="M57.486,30.755l3.005-5.326h0a3.2,3.2,0,1,0-5.576-3.146L52.44,26.671a24.009,24.009,0,0,0-2.831-1.47V18.4a2.4,2.4,0,0,0-2.4-2.4H32.8a2.4,2.4,0,0,0-2.4,2.4v6.8A24.012,24.012,0,0,0,16,47.208v3.2a.8.8,0,0,0,.8.8H28a.8.8,0,0,0,.8-.8v-4a11.216,11.216,0,0,1,11.2-11.2,11.1,11.1,0,0,1,6.46,2.051l-4.479,7.937a2.388,2.388,0,0,1-2.048,1.22,8.8,8.8,0,1,0,7.635,4.3,2.38,2.38,0,0,1-.012-2.379l3.078-5.455a11.261,11.261,0,0,1,.568,3.523v4a.8.8,0,0,0,.8.8h11.2a.8.8,0,0,0,.8-.8v-3.2a23.9,23.9,0,0,0-6.527-16.454Zm.709,3.366-4.181,2.788,2.646-4.689a22.559,22.559,0,0,1,1.536,1.9ZM32,18.4a.8.8,0,0,1,.8-.8h14.4a.8.8,0,0,1,.8.8v8a.8.8,0,0,1-.8.8h-4.8a.8.8,0,0,0-.64.32l-1.76,2.347-1.76-2.347a.8.8,0,0,0-.64-.32H32.8a.8.8,0,0,1-.8-.8ZM27.2,46.408v3.2H17.6v-2.4a22.284,22.284,0,0,1,3.329-11.756l7.682,5.121A12.725,12.725,0,0,0,27.2,46.408Zm12.8-12.8A12.8,12.8,0,0,0,29.432,39.2l-7.614-5.076a22.388,22.388,0,0,1,8.645-7.191A2.4,2.4,0,0,0,32.8,28.8h4.4l2.161,2.881a.8.8,0,0,0,1.28,0L42.807,28.8h4.4a2.4,2.4,0,0,0,2.341-1.872,22.427,22.427,0,0,1,2.1,1.134l-4.4,7.79a12.688,12.688,0,0,0-7.251-2.25ZM46.17,47.553a3.985,3.985,0,0,0,.029,3.982,7.2,7.2,0,1,1-6.245-3.521,3.993,3.993,0,0,0,3.429-2.034L56.309,23.069A1.6,1.6,0,0,1,59.1,24.642h0Zm16.243,2.056h-9.6v-3.2a12.852,12.852,0,0,0-1.155-5.319l.619-1.1,6.811-4.54a22.307,22.307,0,0,1,3.328,11.757Z" transform="translate(-16 -16)"/><path d="M29.915,384h-3.2a.8.8,0,0,0-.8.8v.8h-.469l-.9-.9a2.385,2.385,0,0,0-1.7-.7H20.925a2.4,2.4,0,0,0-2.382,2.1l-.4,3.2a2.4,2.4,0,0,0,2.382,2.7h.113a2.4,2.4,0,0,0,2.264,3.2h.611a.8.8,0,0,0,.716-.442L25.608,392h.306v.8a.8.8,0,0,0,.8.8h3.2a.8.8,0,0,0,.8-.8v-8a.8.8,0,0,0-.8-.8Zm-4,6.4h-.8a.8.8,0,0,0-.716.442L23.019,393.6H22.9a.8.8,0,0,1-.716-1.158l.442-.885a.8.8,0,0,0-.716-1.158H20.525a.8.8,0,0,1-.794-.9l.4-3.2a.8.8,0,0,1,.794-.7H22.85a.8.8,0,0,1,.566.234l1.132,1.132a.8.8,0,0,0,.566.234h.8Zm3.2,1.6h-1.6v-6.4h1.6Z" transform="translate(-17.912 -347.19)"/><path d="M222.675,357.244l-1.006-.5a2.387,2.387,0,0,0,.733-1.729V354.4a2.4,2.4,0,1,0-4.8,0v.611a2.387,2.387,0,0,0,.733,1.729l-1.006.5A2.387,2.387,0,0,0,216,359.391V361.6h1.6v-2.212a.8.8,0,0,1,.442-.716L220,357.7l1.958.979a.8.8,0,0,1,.442.716V361.6H224v-2.212a2.388,2.388,0,0,0-1.327-2.147Zm-1.874-2.232a.8.8,0,0,1-.442.716l-.358.179-.358-.179a.8.8,0,0,1-.442-.716V354.4a.8.8,0,0,1,1.6,0Z" transform="translate(-195.994 -318.391)"/><path d="M381.915,385.6h-3.2a.8.8,0,0,0-.8.8v.8h-.306l-1.379-2.759a.8.8,0,0,0-.716-.442H374.9a2.4,2.4,0,0,0-2.264,3.2h-.113a2.4,2.4,0,0,0-2.382,2.7l.4,3.2a2.4,2.4,0,0,0,2.382,2.1h1.925a2.385,2.385,0,0,0,1.7-.7l.9-.9h.469v.8a.8.8,0,0,0,.8.8h3.2a.8.8,0,0,0,.8-.8v-8a.8.8,0,0,0-.8-.8Zm-4,6.4h-.8a.8.8,0,0,0-.566.234l-1.132,1.132a.8.8,0,0,1-.566.234h-1.925a.8.8,0,0,1-.794-.7l-.4-3.2a.8.8,0,0,1,.794-.9h1.388a.8.8,0,0,0,.716-1.158l-.442-.885a.8.8,0,0,1,.716-1.158h.117l1.379,2.759a.8.8,0,0,0,.716.442h.8Zm3.2,1.6h-1.6v-6.4h1.6Z" transform="translate(-334.702 -347.19)"/><path d="M187.4,233.6a7.152,7.152,0,0,1,2.88.6l.641-1.467A8.744,8.744,0,0,0,187.4,232a8.835,8.835,0,0,0-7.624,4.4l1.385.8A7.23,7.23,0,0,1,187.4,233.6Z" transform="translate(-163.396 -210.394)"/><path d="M168,296.244h1.6a7.2,7.2,0,0,1,.33-2.161L168.4,293.6A8.8,8.8,0,0,0,168,296.244Z" transform="translate(-152.796 -265.836)"/><path d="M221.31,57.31a.8.8,0,0,0,.566-.234l5.6-5.6-1.132-1.132-5.036,5.036-1.835-1.835-1.132,1.132,2.4,2.4A.8.8,0,0,0,221.31,57.31Z" transform="translate(-198.103 -46.908)"/></g></svg>