<svg xmlns="http://www.w3.org/2000/svg" width="84" height="91" viewBox="0 0 84 91"><g transform="translate(-185.348 -1802.67)"><path fill="#f6f8fe" d="M185.348 1802.67h84v91h-84z"/><g transform="translate(162.902 1785.642)"><path fill="#a5b9f6" d="M74.709 51.604a17.492 17.492 0 0 0-34.284 4.878 17.26 17.26 0 0 0 2.126 8.4v7.055h7.269a14 14 0 0 0 4.03 1.529 17.482 17.482 0 0 0 20.86-21.857Z"/><path fill="#f2c03f" d="M89.534 36.008a1.589 1.589 0 1 1-1.588 1.588 1.59 1.59 0 0 1 1.588-1.588"/><path fill="#cbc232" d="M53.85 73.46a17.482 17.482 0 0 0 20.86-21.857 17.42 17.42 0 0 1 13.332 17 16.05 16.05 0 0 1-2.218 8.4v6.978h-7.085a16.2 16.2 0 0 1-8.1 2.044 17.445 17.445 0 0 1-16.785-12.557s-.004-.007-.004-.008"/><path fill="#ff7e5d" d="M57.566 51.529c2.846-4.882 10.242-1.781 8.808 4.518-.753 3.177-2.564 4.232-8.808 9.895-6.734-6.107-8.084-6.833-8.809-9.895-1.433-6.3 5.963-9.4 8.809-4.518"/><path d="M57.566 66.569a.63.63 0 0 1-.421-.163 453 453 0 0 0-2.919-2.621c-4.279-3.82-5.429-4.847-6.079-7.594a6.03 6.03 0 0 1 3.473-7.306 5.11 5.11 0 0 1 5.947 1.539 5.11 5.11 0 0 1 5.947-1.539 6.026 6.026 0 0 1 3.472 7.3c-.664 2.8-2.126 4.1-6.036 7.569-.861.765-1.838 1.631-2.962 2.651a.63.63 0 0 1-.422.164M53.612 49.76a4.2 4.2 0 0 0-1.532.292 4.81 4.81 0 0 0-2.711 5.856c.558 2.358 1.544 3.238 5.693 6.942.74.66 1.565 1.4 2.5 2.247.954-.861 1.8-1.609 2.551-2.278 3.8-3.369 5.075-4.5 5.646-6.915a4.81 4.81 0 0 0-2.711-5.85 3.88 3.88 0 0 0-4.945 1.793.627.627 0 0 1-1.083 0 3.86 3.86 0 0 0-3.409-2.087Z"/><path d="M53.848 74.091a.6.6 0 0 1-.146-.017 14.7 14.7 0 0 1-4.054-1.512h-7.1a.627.627 0 0 1-.627-.627v-6.9a18.129 18.129 0 0 1 26.97-22.959 18.2 18.2 0 0 1 6.421 9.353.627.627 0 1 1-1.2.349 16.864 16.864 0 0 0-33.055 4.7 16.74 16.74 0 0 0 2.048 8.095.6.6 0 0 1 .078.3v6.437h6.641a.63.63 0 0 1 .321.089 13.3 13.3 0 0 0 3.854 1.457.627.627 0 0 1-.145 1.237Z"/><path d="M70.635 86.648a18.07 18.07 0 0 1-17.385-13 .6.6 0 0 1-.028-.185.627.627 0 0 1 .773-.61 16.855 16.855 0 0 0 20.112-21.078.627.627 0 0 1 .748-.785 18.05 18.05 0 0 1 13.813 17.607 16.65 16.65 0 0 1-2.218 8.571v6.8a.627.627 0 0 1-.627.627h-6.921a16.8 16.8 0 0 1-8.267 2.053M54.778 74.292a16.92 16.92 0 0 0 15.857 11.1 15.53 15.53 0 0 0 7.792-1.962.6.6 0 0 1 .31-.082h6.458v-6.35a.63.63 0 0 1 .09-.324 15.4 15.4 0 0 0 2.127-8.074 16.76 16.76 0 0 0-11.829-16.109 18.122 18.122 0 0 1-20.806 21.8Zm34.756-34.481a2.216 2.216 0 1 1 2.216-2.216 2.22 2.22 0 0 1-2.216 2.216m0-3.177a.961.961 0 1 0 .962.961.96.96 0 0 0-.962-.961M40.471 84.163h-3.094a.627.627 0 0 1 0-1.254h3.094a.627.627 0 0 1 0 1.254"/><path d="M38.924 85.711a.627.627 0 0 1-.627-.627V81.99a.627.627 0 0 1 1.254 0v3.094a.627.627 0 0 1-.627.627m1.547-47.488a.627.627 0 0 1-.444-1.071l2.187-2.187a.627.627 0 1 1 .887.887l-2.186 2.187a.63.63 0 0 1-.443.184Z"/><path d="M42.659 38.223a.63.63 0 0 1-.444-.184l-2.19-2.187a.627.627 0 0 1 .887-.887l2.187 2.187a.627.627 0 0 1-.443 1.071Zm47.983 50.505h-3.094a.627.627 0 1 1 0-1.254h3.094a.627.627 0 1 1 0 1.254"/><path d="M89.095 90.276a.627.627 0 0 1-.627-.627v-3.094a.627.627 0 1 1 1.254 0v3.094a.627.627 0 0 1-.627.627"/></g></g></svg>